%FSLAX45Y45*%
G04 Gerber Fmt 4.5, Leading zero omitted, Abs format (unit mm)*
G04 Created by KiCad (PCBNEW (6.0.0)) date 2022-03-13 18:40:30*
%MOMM*%
%LPD*%
G01*
G04 APERTURE LIST*
%TA.AperFunction,Profile*%
%ADD10C,0.100000*%
%TD*%
%ADD11C,0.200000*%
%ADD12C,0.230000*%
%ADD13C,0.320000*%
G04 APERTURE END LIST*
D10*
X8509000Y-3238500D02*
X12763500Y-3238500D01*
X12763500Y-8953500D02*
X8509000Y-8953500D01*
X13144500Y-3619500D02*
G75*
G03*
X12763500Y-3238500I-381000J0D01*
G01*
X8509000Y-3238500D02*
G75*
G03*
X8128000Y-3619500I0J-381000D01*
G01*
X12763500Y-8953500D02*
G75*
G03*
X13144500Y-8572500I0J381000D01*
G01*
X13144500Y-8572500D02*
X13144500Y-3619500D01*
X8128000Y-8572500D02*
X8128000Y-3619500D01*
X8128000Y-8572500D02*
G75*
G03*
X8509000Y-8953500I381000J0D01*
G01*
D11*
D12*
X12340000Y-3984000D02*
X12570000Y-4214000D01*
X12570000Y-3984000D02*
X12340000Y-4214000D01*
X12340000Y-5184000D02*
X12570000Y-5414000D01*
X12570000Y-5184000D02*
X12340000Y-5414000D01*
D13*
X8669000Y-3619500D02*
G75*
G03*
X8669000Y-3619500I-160000J0D01*
G01*
X8669000Y-8572500D02*
G75*
G03*
X8669000Y-8572500I-160000J0D01*
G01*
X12923500Y-3619500D02*
G75*
G03*
X12923500Y-3619500I-160000J0D01*
G01*
X12923500Y-8572500D02*
G75*
G03*
X12923500Y-8572500I-160000J0D01*
G01*
D11*
X8380619Y-9268976D02*
X8380619Y-9068976D01*
X8428238Y-9068976D01*
X8456810Y-9078500D01*
X8475857Y-9097548D01*
X8485381Y-9116595D01*
X8494905Y-9154690D01*
X8494905Y-9183262D01*
X8485381Y-9221357D01*
X8475857Y-9240405D01*
X8456810Y-9259452D01*
X8428238Y-9268976D01*
X8380619Y-9268976D01*
X8580619Y-9268976D02*
X8580619Y-9135643D01*
X8580619Y-9173738D02*
X8590143Y-9154690D01*
X8599667Y-9145167D01*
X8618714Y-9135643D01*
X8637762Y-9135643D01*
X8704429Y-9268976D02*
X8704429Y-9135643D01*
X8704429Y-9068976D02*
X8694905Y-9078500D01*
X8704429Y-9088024D01*
X8713952Y-9078500D01*
X8704429Y-9068976D01*
X8704429Y-9088024D01*
X8828238Y-9268976D02*
X8809190Y-9259452D01*
X8799667Y-9240405D01*
X8799667Y-9068976D01*
X8933000Y-9268976D02*
X8913952Y-9259452D01*
X8904429Y-9240405D01*
X8904429Y-9068976D01*
X9161571Y-9268976D02*
X9161571Y-9068976D01*
X9228238Y-9211833D01*
X9294905Y-9068976D01*
X9294905Y-9268976D01*
X9475857Y-9268976D02*
X9475857Y-9164214D01*
X9466333Y-9145167D01*
X9447286Y-9135643D01*
X9409190Y-9135643D01*
X9390143Y-9145167D01*
X9475857Y-9259452D02*
X9456810Y-9268976D01*
X9409190Y-9268976D01*
X9390143Y-9259452D01*
X9380619Y-9240405D01*
X9380619Y-9221357D01*
X9390143Y-9202310D01*
X9409190Y-9192786D01*
X9456810Y-9192786D01*
X9475857Y-9183262D01*
X9571095Y-9135643D02*
X9571095Y-9335643D01*
X9571095Y-9145167D02*
X9590143Y-9135643D01*
X9628238Y-9135643D01*
X9647286Y-9145167D01*
X9656810Y-9154690D01*
X9666333Y-9173738D01*
X9666333Y-9230881D01*
X9656810Y-9249929D01*
X9647286Y-9259452D01*
X9628238Y-9268976D01*
X9590143Y-9268976D01*
X9571095Y-9259452D01*
X9752048Y-9249929D02*
X9761571Y-9259452D01*
X9752048Y-9268976D01*
X9742524Y-9259452D01*
X9752048Y-9249929D01*
X9752048Y-9268976D01*
X9752048Y-9145167D02*
X9761571Y-9154690D01*
X9752048Y-9164214D01*
X9742524Y-9154690D01*
X9752048Y-9145167D01*
X9752048Y-9164214D01*
X7923000Y-9498500D02*
X8123000Y-9698500D01*
X8123000Y-9498500D02*
X7923000Y-9698500D01*
X8371095Y-9508024D02*
X8380619Y-9498500D01*
X8399667Y-9488976D01*
X8447286Y-9488976D01*
X8466333Y-9498500D01*
X8475857Y-9508024D01*
X8485381Y-9527071D01*
X8485381Y-9546119D01*
X8475857Y-9574690D01*
X8361571Y-9688976D01*
X8485381Y-9688976D01*
X8571095Y-9669929D02*
X8580619Y-9679452D01*
X8571095Y-9688976D01*
X8561571Y-9679452D01*
X8571095Y-9669929D01*
X8571095Y-9688976D01*
X8647286Y-9488976D02*
X8771095Y-9488976D01*
X8704429Y-9565167D01*
X8733000Y-9565167D01*
X8752048Y-9574690D01*
X8761571Y-9584214D01*
X8771095Y-9603262D01*
X8771095Y-9650881D01*
X8761571Y-9669929D01*
X8752048Y-9679452D01*
X8733000Y-9688976D01*
X8675857Y-9688976D01*
X8656810Y-9679452D01*
X8647286Y-9669929D01*
X8894905Y-9488976D02*
X8913952Y-9488976D01*
X8933000Y-9498500D01*
X8942524Y-9508024D01*
X8952048Y-9527071D01*
X8961571Y-9565167D01*
X8961571Y-9612786D01*
X8952048Y-9650881D01*
X8942524Y-9669929D01*
X8933000Y-9679452D01*
X8913952Y-9688976D01*
X8894905Y-9688976D01*
X8875857Y-9679452D01*
X8866333Y-9669929D01*
X8856810Y-9650881D01*
X8847286Y-9612786D01*
X8847286Y-9565167D01*
X8856810Y-9527071D01*
X8866333Y-9508024D01*
X8875857Y-9498500D01*
X8894905Y-9488976D01*
X9085381Y-9488976D02*
X9104429Y-9488976D01*
X9123476Y-9498500D01*
X9133000Y-9508024D01*
X9142524Y-9527071D01*
X9152048Y-9565167D01*
X9152048Y-9612786D01*
X9142524Y-9650881D01*
X9133000Y-9669929D01*
X9123476Y-9679452D01*
X9104429Y-9688976D01*
X9085381Y-9688976D01*
X9066333Y-9679452D01*
X9056810Y-9669929D01*
X9047286Y-9650881D01*
X9037762Y-9612786D01*
X9037762Y-9565167D01*
X9047286Y-9527071D01*
X9056810Y-9508024D01*
X9066333Y-9498500D01*
X9085381Y-9488976D01*
X9237762Y-9688976D02*
X9237762Y-9555643D01*
X9237762Y-9574690D02*
X9247286Y-9565167D01*
X9266333Y-9555643D01*
X9294905Y-9555643D01*
X9313952Y-9565167D01*
X9323476Y-9584214D01*
X9323476Y-9688976D01*
X9323476Y-9584214D02*
X9333000Y-9565167D01*
X9352048Y-9555643D01*
X9380619Y-9555643D01*
X9399667Y-9565167D01*
X9409190Y-9584214D01*
X9409190Y-9688976D01*
X9504429Y-9688976D02*
X9504429Y-9555643D01*
X9504429Y-9574690D02*
X9513952Y-9565167D01*
X9533000Y-9555643D01*
X9561571Y-9555643D01*
X9580619Y-9565167D01*
X9590143Y-9584214D01*
X9590143Y-9688976D01*
X9590143Y-9584214D02*
X9599667Y-9565167D01*
X9618714Y-9555643D01*
X9647286Y-9555643D01*
X9666333Y-9565167D01*
X9675857Y-9584214D01*
X9675857Y-9688976D01*
X10066333Y-9479452D02*
X9894905Y-9736595D01*
X10323476Y-9488976D02*
X10342524Y-9488976D01*
X10361571Y-9498500D01*
X10371095Y-9508024D01*
X10380619Y-9527071D01*
X10390143Y-9565167D01*
X10390143Y-9612786D01*
X10380619Y-9650881D01*
X10371095Y-9669929D01*
X10361571Y-9679452D01*
X10342524Y-9688976D01*
X10323476Y-9688976D01*
X10304429Y-9679452D01*
X10294905Y-9669929D01*
X10285381Y-9650881D01*
X10275857Y-9612786D01*
X10275857Y-9565167D01*
X10285381Y-9527071D01*
X10294905Y-9508024D01*
X10304429Y-9498500D01*
X10323476Y-9488976D01*
X10475857Y-9669929D02*
X10485381Y-9679452D01*
X10475857Y-9688976D01*
X10466333Y-9679452D01*
X10475857Y-9669929D01*
X10475857Y-9688976D01*
X10609190Y-9488976D02*
X10628238Y-9488976D01*
X10647286Y-9498500D01*
X10656810Y-9508024D01*
X10666333Y-9527071D01*
X10675857Y-9565167D01*
X10675857Y-9612786D01*
X10666333Y-9650881D01*
X10656810Y-9669929D01*
X10647286Y-9679452D01*
X10628238Y-9688976D01*
X10609190Y-9688976D01*
X10590143Y-9679452D01*
X10580619Y-9669929D01*
X10571095Y-9650881D01*
X10561571Y-9612786D01*
X10561571Y-9565167D01*
X10571095Y-9527071D01*
X10580619Y-9508024D01*
X10590143Y-9498500D01*
X10609190Y-9488976D01*
X10771095Y-9688976D02*
X10809190Y-9688976D01*
X10828238Y-9679452D01*
X10837762Y-9669929D01*
X10856810Y-9641357D01*
X10866333Y-9603262D01*
X10866333Y-9527071D01*
X10856810Y-9508024D01*
X10847286Y-9498500D01*
X10828238Y-9488976D01*
X10790143Y-9488976D01*
X10771095Y-9498500D01*
X10761571Y-9508024D01*
X10752048Y-9527071D01*
X10752048Y-9574690D01*
X10761571Y-9593738D01*
X10771095Y-9603262D01*
X10790143Y-9612786D01*
X10828238Y-9612786D01*
X10847286Y-9603262D01*
X10856810Y-9593738D01*
X10866333Y-9574690D01*
X10990143Y-9488976D02*
X11009190Y-9488976D01*
X11028238Y-9498500D01*
X11037762Y-9508024D01*
X11047286Y-9527071D01*
X11056810Y-9565167D01*
X11056810Y-9612786D01*
X11047286Y-9650881D01*
X11037762Y-9669929D01*
X11028238Y-9679452D01*
X11009190Y-9688976D01*
X10990143Y-9688976D01*
X10971095Y-9679452D01*
X10961571Y-9669929D01*
X10952048Y-9650881D01*
X10942524Y-9612786D01*
X10942524Y-9565167D01*
X10952048Y-9527071D01*
X10961571Y-9508024D01*
X10971095Y-9498500D01*
X10990143Y-9488976D01*
X11228238Y-9488976D02*
X11190143Y-9488976D01*
X11171095Y-9498500D01*
X11161571Y-9508024D01*
X11142524Y-9536595D01*
X11133000Y-9574690D01*
X11133000Y-9650881D01*
X11142524Y-9669929D01*
X11152048Y-9679452D01*
X11171095Y-9688976D01*
X11209190Y-9688976D01*
X11228238Y-9679452D01*
X11237762Y-9669929D01*
X11247286Y-9650881D01*
X11247286Y-9603262D01*
X11237762Y-9584214D01*
X11228238Y-9574690D01*
X11209190Y-9565167D01*
X11171095Y-9565167D01*
X11152048Y-9574690D01*
X11142524Y-9584214D01*
X11133000Y-9603262D01*
X11323476Y-9488976D02*
X11323476Y-9527071D01*
X11399667Y-9488976D02*
X11399667Y-9527071D01*
X11694905Y-9765167D02*
X11685381Y-9755643D01*
X11666333Y-9727071D01*
X11656809Y-9708024D01*
X11647286Y-9679452D01*
X11637762Y-9631833D01*
X11637762Y-9593738D01*
X11647286Y-9546119D01*
X11656809Y-9517548D01*
X11666333Y-9498500D01*
X11685381Y-9469929D01*
X11694905Y-9460405D01*
X11761571Y-9508024D02*
X11771095Y-9498500D01*
X11790143Y-9488976D01*
X11837762Y-9488976D01*
X11856809Y-9498500D01*
X11866333Y-9508024D01*
X11875857Y-9527071D01*
X11875857Y-9546119D01*
X11866333Y-9574690D01*
X11752048Y-9688976D01*
X11875857Y-9688976D01*
X12113952Y-9688976D02*
X12113952Y-9488976D01*
X12199667Y-9688976D02*
X12199667Y-9584214D01*
X12190143Y-9565167D01*
X12171095Y-9555643D01*
X12142524Y-9555643D01*
X12123476Y-9565167D01*
X12113952Y-9574690D01*
X12323476Y-9688976D02*
X12304428Y-9679452D01*
X12294905Y-9669929D01*
X12285381Y-9650881D01*
X12285381Y-9593738D01*
X12294905Y-9574690D01*
X12304428Y-9565167D01*
X12323476Y-9555643D01*
X12352048Y-9555643D01*
X12371095Y-9565167D01*
X12380619Y-9574690D01*
X12390143Y-9593738D01*
X12390143Y-9650881D01*
X12380619Y-9669929D01*
X12371095Y-9679452D01*
X12352048Y-9688976D01*
X12323476Y-9688976D01*
X12504428Y-9688976D02*
X12485381Y-9679452D01*
X12475857Y-9660405D01*
X12475857Y-9488976D01*
X12656809Y-9679452D02*
X12637762Y-9688976D01*
X12599667Y-9688976D01*
X12580619Y-9679452D01*
X12571095Y-9660405D01*
X12571095Y-9584214D01*
X12580619Y-9565167D01*
X12599667Y-9555643D01*
X12637762Y-9555643D01*
X12656809Y-9565167D01*
X12666333Y-9584214D01*
X12666333Y-9603262D01*
X12571095Y-9622310D01*
X12742524Y-9679452D02*
X12761571Y-9688976D01*
X12799667Y-9688976D01*
X12818714Y-9679452D01*
X12828238Y-9660405D01*
X12828238Y-9650881D01*
X12818714Y-9631833D01*
X12799667Y-9622310D01*
X12771095Y-9622310D01*
X12752048Y-9612786D01*
X12742524Y-9593738D01*
X12742524Y-9584214D01*
X12752048Y-9565167D01*
X12771095Y-9555643D01*
X12799667Y-9555643D01*
X12818714Y-9565167D01*
X12894905Y-9765167D02*
X12904428Y-9755643D01*
X12923476Y-9727071D01*
X12933000Y-9708024D01*
X12942524Y-9679452D01*
X12952048Y-9631833D01*
X12952048Y-9593738D01*
X12942524Y-9546119D01*
X12933000Y-9517548D01*
X12923476Y-9498500D01*
X12904428Y-9469929D01*
X12894905Y-9460405D01*
X13256809Y-9765167D02*
X13247286Y-9755643D01*
X13228238Y-9727071D01*
X13218714Y-9708024D01*
X13209190Y-9679452D01*
X13199667Y-9631833D01*
X13199667Y-9593738D01*
X13209190Y-9546119D01*
X13218714Y-9517548D01*
X13228238Y-9498500D01*
X13247286Y-9469929D01*
X13256809Y-9460405D01*
X13333000Y-9555643D02*
X13333000Y-9688976D01*
X13333000Y-9574690D02*
X13342524Y-9565167D01*
X13361571Y-9555643D01*
X13390143Y-9555643D01*
X13409190Y-9565167D01*
X13418714Y-9584214D01*
X13418714Y-9688976D01*
X13542524Y-9688976D02*
X13523476Y-9679452D01*
X13513952Y-9669929D01*
X13504428Y-9650881D01*
X13504428Y-9593738D01*
X13513952Y-9574690D01*
X13523476Y-9565167D01*
X13542524Y-9555643D01*
X13571095Y-9555643D01*
X13590143Y-9565167D01*
X13599667Y-9574690D01*
X13609190Y-9593738D01*
X13609190Y-9650881D01*
X13599667Y-9669929D01*
X13590143Y-9679452D01*
X13571095Y-9688976D01*
X13542524Y-9688976D01*
X13666333Y-9555643D02*
X13742524Y-9555643D01*
X13694905Y-9488976D02*
X13694905Y-9660405D01*
X13704428Y-9679452D01*
X13723476Y-9688976D01*
X13742524Y-9688976D01*
X13961571Y-9555643D02*
X13961571Y-9755643D01*
X13961571Y-9565167D02*
X13980619Y-9555643D01*
X14018714Y-9555643D01*
X14037762Y-9565167D01*
X14047286Y-9574690D01*
X14056809Y-9593738D01*
X14056809Y-9650881D01*
X14047286Y-9669929D01*
X14037762Y-9679452D01*
X14018714Y-9688976D01*
X13980619Y-9688976D01*
X13961571Y-9679452D01*
X14171095Y-9688976D02*
X14152048Y-9679452D01*
X14142524Y-9660405D01*
X14142524Y-9488976D01*
X14333000Y-9688976D02*
X14333000Y-9584214D01*
X14323476Y-9565167D01*
X14304428Y-9555643D01*
X14266333Y-9555643D01*
X14247286Y-9565167D01*
X14333000Y-9679452D02*
X14313952Y-9688976D01*
X14266333Y-9688976D01*
X14247286Y-9679452D01*
X14237762Y-9660405D01*
X14237762Y-9641357D01*
X14247286Y-9622310D01*
X14266333Y-9612786D01*
X14313952Y-9612786D01*
X14333000Y-9603262D01*
X14399667Y-9555643D02*
X14475857Y-9555643D01*
X14428238Y-9488976D02*
X14428238Y-9660405D01*
X14437762Y-9679452D01*
X14456809Y-9688976D01*
X14475857Y-9688976D01*
X14618714Y-9679452D02*
X14599667Y-9688976D01*
X14561571Y-9688976D01*
X14542524Y-9679452D01*
X14533000Y-9660405D01*
X14533000Y-9584214D01*
X14542524Y-9565167D01*
X14561571Y-9555643D01*
X14599667Y-9555643D01*
X14618714Y-9565167D01*
X14628238Y-9584214D01*
X14628238Y-9603262D01*
X14533000Y-9622310D01*
X14799667Y-9688976D02*
X14799667Y-9488976D01*
X14799667Y-9679452D02*
X14780619Y-9688976D01*
X14742524Y-9688976D01*
X14723476Y-9679452D01*
X14713952Y-9669929D01*
X14704428Y-9650881D01*
X14704428Y-9593738D01*
X14713952Y-9574690D01*
X14723476Y-9565167D01*
X14742524Y-9555643D01*
X14780619Y-9555643D01*
X14799667Y-9565167D01*
X14875857Y-9765167D02*
X14885381Y-9755643D01*
X14904428Y-9727071D01*
X14913952Y-9708024D01*
X14923476Y-9679452D01*
X14933000Y-9631833D01*
X14933000Y-9593738D01*
X14923476Y-9546119D01*
X14913952Y-9517548D01*
X14904428Y-9498500D01*
X14885381Y-9469929D01*
X14875857Y-9460405D01*
X8123000Y-9918500D02*
G75*
G03*
X8123000Y-9918500I-100000J0D01*
G01*
X8361571Y-9808976D02*
X8485381Y-9808976D01*
X8418714Y-9885167D01*
X8447286Y-9885167D01*
X8466333Y-9894690D01*
X8475857Y-9904214D01*
X8485381Y-9923262D01*
X8485381Y-9970881D01*
X8475857Y-9989929D01*
X8466333Y-9999452D01*
X8447286Y-10008976D01*
X8390143Y-10008976D01*
X8371095Y-9999452D01*
X8361571Y-9989929D01*
X8571095Y-9989929D02*
X8580619Y-9999452D01*
X8571095Y-10008976D01*
X8561571Y-9999452D01*
X8571095Y-9989929D01*
X8571095Y-10008976D01*
X8656810Y-9828024D02*
X8666333Y-9818500D01*
X8685381Y-9808976D01*
X8733000Y-9808976D01*
X8752048Y-9818500D01*
X8761571Y-9828024D01*
X8771095Y-9847071D01*
X8771095Y-9866119D01*
X8761571Y-9894690D01*
X8647286Y-10008976D01*
X8771095Y-10008976D01*
X8894905Y-9808976D02*
X8913952Y-9808976D01*
X8933000Y-9818500D01*
X8942524Y-9828024D01*
X8952048Y-9847071D01*
X8961571Y-9885167D01*
X8961571Y-9932786D01*
X8952048Y-9970881D01*
X8942524Y-9989929D01*
X8933000Y-9999452D01*
X8913952Y-10008976D01*
X8894905Y-10008976D01*
X8875857Y-9999452D01*
X8866333Y-9989929D01*
X8856810Y-9970881D01*
X8847286Y-9932786D01*
X8847286Y-9885167D01*
X8856810Y-9847071D01*
X8866333Y-9828024D01*
X8875857Y-9818500D01*
X8894905Y-9808976D01*
X9085381Y-9808976D02*
X9104429Y-9808976D01*
X9123476Y-9818500D01*
X9133000Y-9828024D01*
X9142524Y-9847071D01*
X9152048Y-9885167D01*
X9152048Y-9932786D01*
X9142524Y-9970881D01*
X9133000Y-9989929D01*
X9123476Y-9999452D01*
X9104429Y-10008976D01*
X9085381Y-10008976D01*
X9066333Y-9999452D01*
X9056810Y-9989929D01*
X9047286Y-9970881D01*
X9037762Y-9932786D01*
X9037762Y-9885167D01*
X9047286Y-9847071D01*
X9056810Y-9828024D01*
X9066333Y-9818500D01*
X9085381Y-9808976D01*
X9237762Y-10008976D02*
X9237762Y-9875643D01*
X9237762Y-9894690D02*
X9247286Y-9885167D01*
X9266333Y-9875643D01*
X9294905Y-9875643D01*
X9313952Y-9885167D01*
X9323476Y-9904214D01*
X9323476Y-10008976D01*
X9323476Y-9904214D02*
X9333000Y-9885167D01*
X9352048Y-9875643D01*
X9380619Y-9875643D01*
X9399667Y-9885167D01*
X9409190Y-9904214D01*
X9409190Y-10008976D01*
X9504429Y-10008976D02*
X9504429Y-9875643D01*
X9504429Y-9894690D02*
X9513952Y-9885167D01*
X9533000Y-9875643D01*
X9561571Y-9875643D01*
X9580619Y-9885167D01*
X9590143Y-9904214D01*
X9590143Y-10008976D01*
X9590143Y-9904214D02*
X9599667Y-9885167D01*
X9618714Y-9875643D01*
X9647286Y-9875643D01*
X9666333Y-9885167D01*
X9675857Y-9904214D01*
X9675857Y-10008976D01*
X10066333Y-9799452D02*
X9894905Y-10056595D01*
X10323476Y-9808976D02*
X10342524Y-9808976D01*
X10361571Y-9818500D01*
X10371095Y-9828024D01*
X10380619Y-9847071D01*
X10390143Y-9885167D01*
X10390143Y-9932786D01*
X10380619Y-9970881D01*
X10371095Y-9989929D01*
X10361571Y-9999452D01*
X10342524Y-10008976D01*
X10323476Y-10008976D01*
X10304429Y-9999452D01*
X10294905Y-9989929D01*
X10285381Y-9970881D01*
X10275857Y-9932786D01*
X10275857Y-9885167D01*
X10285381Y-9847071D01*
X10294905Y-9828024D01*
X10304429Y-9818500D01*
X10323476Y-9808976D01*
X10475857Y-9989929D02*
X10485381Y-9999452D01*
X10475857Y-10008976D01*
X10466333Y-9999452D01*
X10475857Y-9989929D01*
X10475857Y-10008976D01*
X10675857Y-10008976D02*
X10561571Y-10008976D01*
X10618714Y-10008976D02*
X10618714Y-9808976D01*
X10599667Y-9837548D01*
X10580619Y-9856595D01*
X10561571Y-9866119D01*
X10752048Y-9828024D02*
X10761571Y-9818500D01*
X10780619Y-9808976D01*
X10828238Y-9808976D01*
X10847286Y-9818500D01*
X10856810Y-9828024D01*
X10866333Y-9847071D01*
X10866333Y-9866119D01*
X10856810Y-9894690D01*
X10742524Y-10008976D01*
X10866333Y-10008976D01*
X11037762Y-9808976D02*
X10999667Y-9808976D01*
X10980619Y-9818500D01*
X10971095Y-9828024D01*
X10952048Y-9856595D01*
X10942524Y-9894690D01*
X10942524Y-9970881D01*
X10952048Y-9989929D01*
X10961571Y-9999452D01*
X10980619Y-10008976D01*
X11018714Y-10008976D01*
X11037762Y-9999452D01*
X11047286Y-9989929D01*
X11056810Y-9970881D01*
X11056810Y-9923262D01*
X11047286Y-9904214D01*
X11037762Y-9894690D01*
X11018714Y-9885167D01*
X10980619Y-9885167D01*
X10961571Y-9894690D01*
X10952048Y-9904214D01*
X10942524Y-9923262D01*
X11180619Y-9808976D02*
X11199667Y-9808976D01*
X11218714Y-9818500D01*
X11228238Y-9828024D01*
X11237762Y-9847071D01*
X11247286Y-9885167D01*
X11247286Y-9932786D01*
X11237762Y-9970881D01*
X11228238Y-9989929D01*
X11218714Y-9999452D01*
X11199667Y-10008976D01*
X11180619Y-10008976D01*
X11161571Y-9999452D01*
X11152048Y-9989929D01*
X11142524Y-9970881D01*
X11133000Y-9932786D01*
X11133000Y-9885167D01*
X11142524Y-9847071D01*
X11152048Y-9828024D01*
X11161571Y-9818500D01*
X11180619Y-9808976D01*
X11323476Y-9808976D02*
X11323476Y-9847071D01*
X11399667Y-9808976D02*
X11399667Y-9847071D01*
X11694905Y-10085167D02*
X11685381Y-10075643D01*
X11666333Y-10047071D01*
X11656809Y-10028024D01*
X11647286Y-9999452D01*
X11637762Y-9951833D01*
X11637762Y-9913738D01*
X11647286Y-9866119D01*
X11656809Y-9837548D01*
X11666333Y-9818500D01*
X11685381Y-9789929D01*
X11694905Y-9780405D01*
X11856809Y-9875643D02*
X11856809Y-10008976D01*
X11809190Y-9799452D02*
X11761571Y-9942310D01*
X11885381Y-9942310D01*
X12113952Y-10008976D02*
X12113952Y-9808976D01*
X12199667Y-10008976D02*
X12199667Y-9904214D01*
X12190143Y-9885167D01*
X12171095Y-9875643D01*
X12142524Y-9875643D01*
X12123476Y-9885167D01*
X12113952Y-9894690D01*
X12323476Y-10008976D02*
X12304428Y-9999452D01*
X12294905Y-9989929D01*
X12285381Y-9970881D01*
X12285381Y-9913738D01*
X12294905Y-9894690D01*
X12304428Y-9885167D01*
X12323476Y-9875643D01*
X12352048Y-9875643D01*
X12371095Y-9885167D01*
X12380619Y-9894690D01*
X12390143Y-9913738D01*
X12390143Y-9970881D01*
X12380619Y-9989929D01*
X12371095Y-9999452D01*
X12352048Y-10008976D01*
X12323476Y-10008976D01*
X12504428Y-10008976D02*
X12485381Y-9999452D01*
X12475857Y-9980405D01*
X12475857Y-9808976D01*
X12656809Y-9999452D02*
X12637762Y-10008976D01*
X12599667Y-10008976D01*
X12580619Y-9999452D01*
X12571095Y-9980405D01*
X12571095Y-9904214D01*
X12580619Y-9885167D01*
X12599667Y-9875643D01*
X12637762Y-9875643D01*
X12656809Y-9885167D01*
X12666333Y-9904214D01*
X12666333Y-9923262D01*
X12571095Y-9942310D01*
X12742524Y-9999452D02*
X12761571Y-10008976D01*
X12799667Y-10008976D01*
X12818714Y-9999452D01*
X12828238Y-9980405D01*
X12828238Y-9970881D01*
X12818714Y-9951833D01*
X12799667Y-9942310D01*
X12771095Y-9942310D01*
X12752048Y-9932786D01*
X12742524Y-9913738D01*
X12742524Y-9904214D01*
X12752048Y-9885167D01*
X12771095Y-9875643D01*
X12799667Y-9875643D01*
X12818714Y-9885167D01*
X12894905Y-10085167D02*
X12904428Y-10075643D01*
X12923476Y-10047071D01*
X12933000Y-10028024D01*
X12942524Y-9999452D01*
X12952048Y-9951833D01*
X12952048Y-9913738D01*
X12942524Y-9866119D01*
X12933000Y-9837548D01*
X12923476Y-9818500D01*
X12904428Y-9789929D01*
X12894905Y-9780405D01*
X13256809Y-10085167D02*
X13247286Y-10075643D01*
X13228238Y-10047071D01*
X13218714Y-10028024D01*
X13209190Y-9999452D01*
X13199667Y-9951833D01*
X13199667Y-9913738D01*
X13209190Y-9866119D01*
X13218714Y-9837548D01*
X13228238Y-9818500D01*
X13247286Y-9789929D01*
X13256809Y-9780405D01*
X13333000Y-9875643D02*
X13333000Y-10008976D01*
X13333000Y-9894690D02*
X13342524Y-9885167D01*
X13361571Y-9875643D01*
X13390143Y-9875643D01*
X13409190Y-9885167D01*
X13418714Y-9904214D01*
X13418714Y-10008976D01*
X13542524Y-10008976D02*
X13523476Y-9999452D01*
X13513952Y-9989929D01*
X13504428Y-9970881D01*
X13504428Y-9913738D01*
X13513952Y-9894690D01*
X13523476Y-9885167D01*
X13542524Y-9875643D01*
X13571095Y-9875643D01*
X13590143Y-9885167D01*
X13599667Y-9894690D01*
X13609190Y-9913738D01*
X13609190Y-9970881D01*
X13599667Y-9989929D01*
X13590143Y-9999452D01*
X13571095Y-10008976D01*
X13542524Y-10008976D01*
X13666333Y-9875643D02*
X13742524Y-9875643D01*
X13694905Y-9808976D02*
X13694905Y-9980405D01*
X13704428Y-9999452D01*
X13723476Y-10008976D01*
X13742524Y-10008976D01*
X13961571Y-9875643D02*
X13961571Y-10075643D01*
X13961571Y-9885167D02*
X13980619Y-9875643D01*
X14018714Y-9875643D01*
X14037762Y-9885167D01*
X14047286Y-9894690D01*
X14056809Y-9913738D01*
X14056809Y-9970881D01*
X14047286Y-9989929D01*
X14037762Y-9999452D01*
X14018714Y-10008976D01*
X13980619Y-10008976D01*
X13961571Y-9999452D01*
X14171095Y-10008976D02*
X14152048Y-9999452D01*
X14142524Y-9980405D01*
X14142524Y-9808976D01*
X14333000Y-10008976D02*
X14333000Y-9904214D01*
X14323476Y-9885167D01*
X14304428Y-9875643D01*
X14266333Y-9875643D01*
X14247286Y-9885167D01*
X14333000Y-9999452D02*
X14313952Y-10008976D01*
X14266333Y-10008976D01*
X14247286Y-9999452D01*
X14237762Y-9980405D01*
X14237762Y-9961357D01*
X14247286Y-9942310D01*
X14266333Y-9932786D01*
X14313952Y-9932786D01*
X14333000Y-9923262D01*
X14399667Y-9875643D02*
X14475857Y-9875643D01*
X14428238Y-9808976D02*
X14428238Y-9980405D01*
X14437762Y-9999452D01*
X14456809Y-10008976D01*
X14475857Y-10008976D01*
X14618714Y-9999452D02*
X14599667Y-10008976D01*
X14561571Y-10008976D01*
X14542524Y-9999452D01*
X14533000Y-9980405D01*
X14533000Y-9904214D01*
X14542524Y-9885167D01*
X14561571Y-9875643D01*
X14599667Y-9875643D01*
X14618714Y-9885167D01*
X14628238Y-9904214D01*
X14628238Y-9923262D01*
X14533000Y-9942310D01*
X14799667Y-10008976D02*
X14799667Y-9808976D01*
X14799667Y-9999452D02*
X14780619Y-10008976D01*
X14742524Y-10008976D01*
X14723476Y-9999452D01*
X14713952Y-9989929D01*
X14704428Y-9970881D01*
X14704428Y-9913738D01*
X14713952Y-9894690D01*
X14723476Y-9885167D01*
X14742524Y-9875643D01*
X14780619Y-9875643D01*
X14799667Y-9885167D01*
X14875857Y-10085167D02*
X14885381Y-10075643D01*
X14904428Y-10047071D01*
X14913952Y-10028024D01*
X14923476Y-9999452D01*
X14933000Y-9951833D01*
X14933000Y-9913738D01*
X14923476Y-9866119D01*
X14913952Y-9837548D01*
X14904428Y-9818500D01*
X14885381Y-9789929D01*
X14875857Y-9780405D01*
M02*
