%TF.GenerationSoftware,KiCad,Pcbnew,(6.0.0)*%
%TF.CreationDate,2022-03-13T18:40:28-04:00*%
%TF.ProjectId,board for mt8870,626f6172-6420-4666-9f72-206d74383837,rev?*%
%TF.SameCoordinates,Original*%
%TF.FileFunction,Legend,Top*%
%TF.FilePolarity,Positive*%
%FSLAX46Y46*%
G04 Gerber Fmt 4.6, Leading zero omitted, Abs format (unit mm)*
G04 Created by KiCad (PCBNEW (6.0.0)) date 2022-03-13 18:40:28*
%MOMM*%
%LPD*%
G01*
G04 APERTURE LIST*
G04 Aperture macros list*
%AMRoundRect*
0 Rectangle with rounded corners*
0 $1 Rounding radius*
0 $2 $3 $4 $5 $6 $7 $8 $9 X,Y pos of 4 corners*
0 Add a 4 corners polygon primitive as box body*
4,1,4,$2,$3,$4,$5,$6,$7,$8,$9,$2,$3,0*
0 Add four circle primitives for the rounded corners*
1,1,$1+$1,$2,$3*
1,1,$1+$1,$4,$5*
1,1,$1+$1,$6,$7*
1,1,$1+$1,$8,$9*
0 Add four rect primitives between the rounded corners*
20,1,$1+$1,$2,$3,$4,$5,0*
20,1,$1+$1,$4,$5,$6,$7,0*
20,1,$1+$1,$6,$7,$8,$9,0*
20,1,$1+$1,$8,$9,$2,$3,0*%
G04 Aperture macros list end*
%ADD10C,0.100000*%
%ADD11C,0.150000*%
%ADD12C,0.120000*%
%ADD13C,1.500000*%
%ADD14R,1.600000X1.600000*%
%ADD15O,1.600000X1.600000*%
%ADD16R,1.700000X1.700000*%
%ADD17O,1.700000X1.700000*%
%ADD18C,1.600000*%
%ADD19C,3.200000*%
%ADD20C,2.300000*%
%ADD21R,1.500000X1.500000*%
%ADD22R,1.800000X1.800000*%
%ADD23O,1.800000X1.800000*%
%ADD24RoundRect,0.225000X0.225000X0.250000X-0.225000X0.250000X-0.225000X-0.250000X0.225000X-0.250000X0*%
%ADD25RoundRect,0.225000X-0.250000X0.225000X-0.250000X-0.225000X0.250000X-0.225000X0.250000X0.225000X0*%
G04 APERTURE END LIST*
D10*
X125663333Y-67693333D02*
X125596666Y-67660000D01*
X125530000Y-67593333D01*
X125430000Y-67493333D01*
X125363333Y-67460000D01*
X125296666Y-67460000D01*
X125330000Y-67626666D02*
X125263333Y-67593333D01*
X125196666Y-67526666D01*
X125163333Y-67393333D01*
X125163333Y-67160000D01*
X125196666Y-67026666D01*
X125263333Y-66960000D01*
X125330000Y-66926666D01*
X125463333Y-66926666D01*
X125530000Y-66960000D01*
X125596666Y-67026666D01*
X125630000Y-67160000D01*
X125630000Y-67393333D01*
X125596666Y-67526666D01*
X125530000Y-67593333D01*
X125463333Y-67626666D01*
X125330000Y-67626666D01*
X126230000Y-67160000D02*
X126230000Y-67626666D01*
X126063333Y-66893333D02*
X125896666Y-67393333D01*
X126330000Y-67393333D01*
X87170000Y-69531666D02*
X87170000Y-68831666D01*
X87436666Y-68831666D01*
X87503333Y-68865000D01*
X87536666Y-68898333D01*
X87570000Y-68965000D01*
X87570000Y-69065000D01*
X87536666Y-69131666D01*
X87503333Y-69165000D01*
X87436666Y-69198333D01*
X87170000Y-69198333D01*
X87970000Y-69531666D02*
X87903333Y-69498333D01*
X87870000Y-69465000D01*
X87836666Y-69398333D01*
X87836666Y-69198333D01*
X87870000Y-69131666D01*
X87903333Y-69098333D01*
X87970000Y-69065000D01*
X88070000Y-69065000D01*
X88136666Y-69098333D01*
X88170000Y-69131666D01*
X88203333Y-69198333D01*
X88203333Y-69398333D01*
X88170000Y-69465000D01*
X88136666Y-69498333D01*
X88070000Y-69531666D01*
X87970000Y-69531666D01*
X88436666Y-69065000D02*
X88570000Y-69531666D01*
X88703333Y-69198333D01*
X88836666Y-69531666D01*
X88970000Y-69065000D01*
X89503333Y-69498333D02*
X89436666Y-69531666D01*
X89303333Y-69531666D01*
X89236666Y-69498333D01*
X89203333Y-69431666D01*
X89203333Y-69165000D01*
X89236666Y-69098333D01*
X89303333Y-69065000D01*
X89436666Y-69065000D01*
X89503333Y-69098333D01*
X89536666Y-69165000D01*
X89536666Y-69231666D01*
X89203333Y-69298333D01*
X89836666Y-69531666D02*
X89836666Y-69065000D01*
X89836666Y-69198333D02*
X89870000Y-69131666D01*
X89903333Y-69098333D01*
X89970000Y-69065000D01*
X90036666Y-69065000D01*
X90803333Y-69531666D02*
X90803333Y-68831666D01*
X90970000Y-68831666D01*
X91070000Y-68865000D01*
X91136666Y-68931666D01*
X91170000Y-68998333D01*
X91203333Y-69131666D01*
X91203333Y-69231666D01*
X91170000Y-69365000D01*
X91136666Y-69431666D01*
X91070000Y-69498333D01*
X90970000Y-69531666D01*
X90803333Y-69531666D01*
X91603333Y-69531666D02*
X91536666Y-69498333D01*
X91503333Y-69465000D01*
X91470000Y-69398333D01*
X91470000Y-69198333D01*
X91503333Y-69131666D01*
X91536666Y-69098333D01*
X91603333Y-69065000D01*
X91703333Y-69065000D01*
X91770000Y-69098333D01*
X91803333Y-69131666D01*
X91836666Y-69198333D01*
X91836666Y-69398333D01*
X91803333Y-69465000D01*
X91770000Y-69498333D01*
X91703333Y-69531666D01*
X91603333Y-69531666D01*
X92070000Y-69065000D02*
X92203333Y-69531666D01*
X92336666Y-69198333D01*
X92470000Y-69531666D01*
X92603333Y-69065000D01*
X92870000Y-69065000D02*
X92870000Y-69531666D01*
X92870000Y-69131666D02*
X92903333Y-69098333D01*
X92970000Y-69065000D01*
X93070000Y-69065000D01*
X93136666Y-69098333D01*
X93170000Y-69165000D01*
X93170000Y-69531666D01*
D11*
X87622142Y-61730000D02*
X87526904Y-61682380D01*
X87384047Y-61682380D01*
X87241190Y-61730000D01*
X87145952Y-61825238D01*
X87098333Y-61920476D01*
X87050714Y-62110952D01*
X87050714Y-62253809D01*
X87098333Y-62444285D01*
X87145952Y-62539523D01*
X87241190Y-62634761D01*
X87384047Y-62682380D01*
X87479285Y-62682380D01*
X87622142Y-62634761D01*
X87669761Y-62587142D01*
X87669761Y-62253809D01*
X87479285Y-62253809D01*
X88098333Y-62015714D02*
X88098333Y-62682380D01*
X88098333Y-62110952D02*
X88145952Y-62063333D01*
X88241190Y-62015714D01*
X88384047Y-62015714D01*
X88479285Y-62063333D01*
X88526904Y-62158571D01*
X88526904Y-62682380D01*
X89431666Y-62682380D02*
X89431666Y-61682380D01*
X89431666Y-62634761D02*
X89336428Y-62682380D01*
X89145952Y-62682380D01*
X89050714Y-62634761D01*
X89003095Y-62587142D01*
X88955476Y-62491904D01*
X88955476Y-62206190D01*
X89003095Y-62110952D01*
X89050714Y-62063333D01*
X89145952Y-62015714D01*
X89336428Y-62015714D01*
X89431666Y-62063333D01*
D10*
X124746666Y-65086666D02*
X124513333Y-64753333D01*
X124346666Y-65086666D02*
X124346666Y-64386666D01*
X124613333Y-64386666D01*
X124680000Y-64420000D01*
X124713333Y-64453333D01*
X124746666Y-64520000D01*
X124746666Y-64620000D01*
X124713333Y-64686666D01*
X124680000Y-64720000D01*
X124613333Y-64753333D01*
X124346666Y-64753333D01*
X125313333Y-65053333D02*
X125246666Y-65086666D01*
X125113333Y-65086666D01*
X125046666Y-65053333D01*
X125013333Y-64986666D01*
X125013333Y-64720000D01*
X125046666Y-64653333D01*
X125113333Y-64620000D01*
X125246666Y-64620000D01*
X125313333Y-64653333D01*
X125346666Y-64720000D01*
X125346666Y-64786666D01*
X125013333Y-64853333D01*
X125946666Y-65086666D02*
X125946666Y-64720000D01*
X125913333Y-64653333D01*
X125846666Y-64620000D01*
X125713333Y-64620000D01*
X125646666Y-64653333D01*
X125946666Y-65053333D02*
X125880000Y-65086666D01*
X125713333Y-65086666D01*
X125646666Y-65053333D01*
X125613333Y-64986666D01*
X125613333Y-64920000D01*
X125646666Y-64853333D01*
X125713333Y-64820000D01*
X125880000Y-64820000D01*
X125946666Y-64786666D01*
X126580000Y-65086666D02*
X126580000Y-64386666D01*
X126580000Y-65053333D02*
X126513333Y-65086666D01*
X126380000Y-65086666D01*
X126313333Y-65053333D01*
X126280000Y-65020000D01*
X126246666Y-64953333D01*
X126246666Y-64753333D01*
X126280000Y-64686666D01*
X126313333Y-64653333D01*
X126380000Y-64620000D01*
X126513333Y-64620000D01*
X126580000Y-64653333D01*
X126846666Y-64620000D02*
X127013333Y-65086666D01*
X127180000Y-64620000D02*
X127013333Y-65086666D01*
X126946666Y-65253333D01*
X126913333Y-65286666D01*
X126846666Y-65320000D01*
X87180000Y-72040000D02*
X87113333Y-72006666D01*
X87013333Y-72006666D01*
X86913333Y-72040000D01*
X86846666Y-72106666D01*
X86813333Y-72173333D01*
X86780000Y-72306666D01*
X86780000Y-72406666D01*
X86813333Y-72540000D01*
X86846666Y-72606666D01*
X86913333Y-72673333D01*
X87013333Y-72706666D01*
X87080000Y-72706666D01*
X87180000Y-72673333D01*
X87213333Y-72640000D01*
X87213333Y-72406666D01*
X87080000Y-72406666D01*
X87513333Y-72240000D02*
X87513333Y-72706666D01*
X87513333Y-72306666D02*
X87546666Y-72273333D01*
X87613333Y-72240000D01*
X87713333Y-72240000D01*
X87780000Y-72273333D01*
X87813333Y-72340000D01*
X87813333Y-72706666D01*
X88446666Y-72706666D02*
X88446666Y-72006666D01*
X88446666Y-72673333D02*
X88380000Y-72706666D01*
X88246666Y-72706666D01*
X88180000Y-72673333D01*
X88146666Y-72640000D01*
X88113333Y-72573333D01*
X88113333Y-72373333D01*
X88146666Y-72306666D01*
X88180000Y-72273333D01*
X88246666Y-72240000D01*
X88380000Y-72240000D01*
X88446666Y-72273333D01*
D11*
X87487142Y-59142380D02*
X87010952Y-59142380D01*
X86963333Y-59618571D01*
X87010952Y-59570952D01*
X87106190Y-59523333D01*
X87344285Y-59523333D01*
X87439523Y-59570952D01*
X87487142Y-59618571D01*
X87534761Y-59713809D01*
X87534761Y-59951904D01*
X87487142Y-60047142D01*
X87439523Y-60094761D01*
X87344285Y-60142380D01*
X87106190Y-60142380D01*
X87010952Y-60094761D01*
X86963333Y-60047142D01*
X87868095Y-59475714D02*
X88106190Y-60142380D01*
X88344285Y-59475714D01*
D10*
X116001666Y-77086666D02*
X116135000Y-77086666D01*
X116201666Y-77120000D01*
X116268333Y-77186666D01*
X116301666Y-77320000D01*
X116301666Y-77553333D01*
X116268333Y-77686666D01*
X116201666Y-77753333D01*
X116135000Y-77786666D01*
X116001666Y-77786666D01*
X115935000Y-77753333D01*
X115868333Y-77686666D01*
X115835000Y-77553333D01*
X115835000Y-77320000D01*
X115868333Y-77186666D01*
X115935000Y-77120000D01*
X116001666Y-77086666D01*
X116901666Y-77320000D02*
X116901666Y-77786666D01*
X116601666Y-77320000D02*
X116601666Y-77686666D01*
X116635000Y-77753333D01*
X116701666Y-77786666D01*
X116801666Y-77786666D01*
X116868333Y-77753333D01*
X116901666Y-77720000D01*
X117135000Y-77320000D02*
X117401666Y-77320000D01*
X117235000Y-77086666D02*
X117235000Y-77686666D01*
X117268333Y-77753333D01*
X117335000Y-77786666D01*
X117401666Y-77786666D01*
X117635000Y-77320000D02*
X117635000Y-78020000D01*
X117635000Y-77353333D02*
X117701666Y-77320000D01*
X117835000Y-77320000D01*
X117901666Y-77353333D01*
X117935000Y-77386666D01*
X117968333Y-77453333D01*
X117968333Y-77653333D01*
X117935000Y-77720000D01*
X117901666Y-77753333D01*
X117835000Y-77786666D01*
X117701666Y-77786666D01*
X117635000Y-77753333D01*
X118568333Y-77320000D02*
X118568333Y-77786666D01*
X118268333Y-77320000D02*
X118268333Y-77686666D01*
X118301666Y-77753333D01*
X118368333Y-77786666D01*
X118468333Y-77786666D01*
X118535000Y-77753333D01*
X118568333Y-77720000D01*
X118801666Y-77320000D02*
X119068333Y-77320000D01*
X118901666Y-77086666D02*
X118901666Y-77686666D01*
X118935000Y-77753333D01*
X119001666Y-77786666D01*
X119068333Y-77786666D01*
X119835000Y-77420000D02*
X120068333Y-77420000D01*
X120168333Y-77786666D02*
X119835000Y-77786666D01*
X119835000Y-77086666D01*
X120168333Y-77086666D01*
X120468333Y-77320000D02*
X120468333Y-77786666D01*
X120468333Y-77386666D02*
X120501666Y-77353333D01*
X120568333Y-77320000D01*
X120668333Y-77320000D01*
X120735000Y-77353333D01*
X120768333Y-77420000D01*
X120768333Y-77786666D01*
X121401666Y-77786666D02*
X121401666Y-77420000D01*
X121368333Y-77353333D01*
X121301666Y-77320000D01*
X121168333Y-77320000D01*
X121101666Y-77353333D01*
X121401666Y-77753333D02*
X121335000Y-77786666D01*
X121168333Y-77786666D01*
X121101666Y-77753333D01*
X121068333Y-77686666D01*
X121068333Y-77620000D01*
X121101666Y-77553333D01*
X121168333Y-77520000D01*
X121335000Y-77520000D01*
X121401666Y-77486666D01*
X121735000Y-77786666D02*
X121735000Y-77086666D01*
X121735000Y-77353333D02*
X121801666Y-77320000D01*
X121935000Y-77320000D01*
X122001666Y-77353333D01*
X122035000Y-77386666D01*
X122068333Y-77453333D01*
X122068333Y-77653333D01*
X122035000Y-77720000D01*
X122001666Y-77753333D01*
X121935000Y-77786666D01*
X121801666Y-77786666D01*
X121735000Y-77753333D01*
X122468333Y-77786666D02*
X122401666Y-77753333D01*
X122368333Y-77686666D01*
X122368333Y-77086666D01*
X123001666Y-77753333D02*
X122935000Y-77786666D01*
X122801666Y-77786666D01*
X122735000Y-77753333D01*
X122701666Y-77686666D01*
X122701666Y-77420000D01*
X122735000Y-77353333D01*
X122801666Y-77320000D01*
X122935000Y-77320000D01*
X123001666Y-77353333D01*
X123035000Y-77420000D01*
X123035000Y-77486666D01*
X122701666Y-77553333D01*
X124068333Y-78053333D02*
X124035000Y-78020000D01*
X123968333Y-77920000D01*
X123935000Y-77853333D01*
X123901666Y-77753333D01*
X123868333Y-77586666D01*
X123868333Y-77453333D01*
X123901666Y-77286666D01*
X123935000Y-77186666D01*
X123968333Y-77120000D01*
X124035000Y-77020000D01*
X124068333Y-76986666D01*
X124335000Y-77786666D02*
X124335000Y-77086666D01*
X124635000Y-77786666D02*
X124635000Y-77420000D01*
X124601666Y-77353333D01*
X124535000Y-77320000D01*
X124435000Y-77320000D01*
X124368333Y-77353333D01*
X124335000Y-77386666D01*
X124968333Y-77786666D02*
X124968333Y-77320000D01*
X124968333Y-77086666D02*
X124935000Y-77120000D01*
X124968333Y-77153333D01*
X125001666Y-77120000D01*
X124968333Y-77086666D01*
X124968333Y-77153333D01*
X125601666Y-77320000D02*
X125601666Y-77886666D01*
X125568333Y-77953333D01*
X125535000Y-77986666D01*
X125468333Y-78020000D01*
X125368333Y-78020000D01*
X125301666Y-77986666D01*
X125601666Y-77753333D02*
X125535000Y-77786666D01*
X125401666Y-77786666D01*
X125335000Y-77753333D01*
X125301666Y-77720000D01*
X125268333Y-77653333D01*
X125268333Y-77453333D01*
X125301666Y-77386666D01*
X125335000Y-77353333D01*
X125401666Y-77320000D01*
X125535000Y-77320000D01*
X125601666Y-77353333D01*
X125935000Y-77786666D02*
X125935000Y-77086666D01*
X126235000Y-77786666D02*
X126235000Y-77420000D01*
X126201666Y-77353333D01*
X126135000Y-77320000D01*
X126035000Y-77320000D01*
X125968333Y-77353333D01*
X125935000Y-77386666D01*
X126501666Y-78053333D02*
X126535000Y-78020000D01*
X126601666Y-77920000D01*
X126635000Y-77853333D01*
X126668333Y-77753333D01*
X126701666Y-77586666D01*
X126701666Y-77453333D01*
X126668333Y-77286666D01*
X126635000Y-77186666D01*
X126601666Y-77120000D01*
X126535000Y-77020000D01*
X126501666Y-76986666D01*
X125663333Y-75313333D02*
X125596666Y-75280000D01*
X125530000Y-75213333D01*
X125430000Y-75113333D01*
X125363333Y-75080000D01*
X125296666Y-75080000D01*
X125330000Y-75246666D02*
X125263333Y-75213333D01*
X125196666Y-75146666D01*
X125163333Y-75013333D01*
X125163333Y-74780000D01*
X125196666Y-74646666D01*
X125263333Y-74580000D01*
X125330000Y-74546666D01*
X125463333Y-74546666D01*
X125530000Y-74580000D01*
X125596666Y-74646666D01*
X125630000Y-74780000D01*
X125630000Y-75013333D01*
X125596666Y-75146666D01*
X125530000Y-75213333D01*
X125463333Y-75246666D01*
X125330000Y-75246666D01*
X126296666Y-75246666D02*
X125896666Y-75246666D01*
X126096666Y-75246666D02*
X126096666Y-74546666D01*
X126030000Y-74646666D01*
X125963333Y-74713333D01*
X125896666Y-74746666D01*
X87416666Y-66991666D02*
X87416666Y-66291666D01*
X87750000Y-66525000D02*
X87750000Y-66991666D01*
X87750000Y-66591666D02*
X87783333Y-66558333D01*
X87850000Y-66525000D01*
X87950000Y-66525000D01*
X88016666Y-66558333D01*
X88050000Y-66625000D01*
X88050000Y-66991666D01*
X88383333Y-66991666D02*
X88383333Y-66291666D01*
X88683333Y-66991666D02*
X88683333Y-66625000D01*
X88650000Y-66558333D01*
X88583333Y-66525000D01*
X88483333Y-66525000D01*
X88416666Y-66558333D01*
X88383333Y-66591666D01*
X89016666Y-66991666D02*
X89016666Y-66525000D01*
X89016666Y-66291666D02*
X88983333Y-66325000D01*
X89016666Y-66358333D01*
X89050000Y-66325000D01*
X89016666Y-66291666D01*
X89016666Y-66358333D01*
X89350000Y-66991666D02*
X89350000Y-66291666D01*
X89350000Y-66558333D02*
X89416666Y-66525000D01*
X89550000Y-66525000D01*
X89616666Y-66558333D01*
X89650000Y-66591666D01*
X89683333Y-66658333D01*
X89683333Y-66858333D01*
X89650000Y-66925000D01*
X89616666Y-66958333D01*
X89550000Y-66991666D01*
X89416666Y-66991666D01*
X89350000Y-66958333D01*
X89983333Y-66991666D02*
X89983333Y-66525000D01*
X89983333Y-66291666D02*
X89950000Y-66325000D01*
X89983333Y-66358333D01*
X90016666Y-66325000D01*
X89983333Y-66291666D01*
X89983333Y-66358333D01*
X90216666Y-66525000D02*
X90483333Y-66525000D01*
X90316666Y-66291666D02*
X90316666Y-66891666D01*
X90350000Y-66958333D01*
X90416666Y-66991666D01*
X90483333Y-66991666D01*
D11*
X100624761Y-81732380D02*
X100624761Y-80732380D01*
X100862857Y-80732380D01*
X101005714Y-80780000D01*
X101100952Y-80875238D01*
X101148571Y-80970476D01*
X101196190Y-81160952D01*
X101196190Y-81303809D01*
X101148571Y-81494285D01*
X101100952Y-81589523D01*
X101005714Y-81684761D01*
X100862857Y-81732380D01*
X100624761Y-81732380D01*
X101481904Y-80732380D02*
X102053333Y-80732380D01*
X101767619Y-81732380D02*
X101767619Y-80732380D01*
X102386666Y-81732380D02*
X102386666Y-80732380D01*
X102720000Y-81446666D01*
X103053333Y-80732380D01*
X103053333Y-81732380D01*
X103862857Y-81208571D02*
X103529523Y-81208571D01*
X103529523Y-81732380D02*
X103529523Y-80732380D01*
X104005714Y-80732380D01*
X105577142Y-81732380D02*
X105577142Y-80732380D01*
X105577142Y-81684761D02*
X105481904Y-81732380D01*
X105291428Y-81732380D01*
X105196190Y-81684761D01*
X105148571Y-81637142D01*
X105100952Y-81541904D01*
X105100952Y-81256190D01*
X105148571Y-81160952D01*
X105196190Y-81113333D01*
X105291428Y-81065714D01*
X105481904Y-81065714D01*
X105577142Y-81113333D01*
X106434285Y-81684761D02*
X106339047Y-81732380D01*
X106148571Y-81732380D01*
X106053333Y-81684761D01*
X106005714Y-81589523D01*
X106005714Y-81208571D01*
X106053333Y-81113333D01*
X106148571Y-81065714D01*
X106339047Y-81065714D01*
X106434285Y-81113333D01*
X106481904Y-81208571D01*
X106481904Y-81303809D01*
X106005714Y-81399047D01*
X107339047Y-81684761D02*
X107243809Y-81732380D01*
X107053333Y-81732380D01*
X106958095Y-81684761D01*
X106910476Y-81637142D01*
X106862857Y-81541904D01*
X106862857Y-81256190D01*
X106910476Y-81160952D01*
X106958095Y-81113333D01*
X107053333Y-81065714D01*
X107243809Y-81065714D01*
X107339047Y-81113333D01*
X107910476Y-81732380D02*
X107815238Y-81684761D01*
X107767619Y-81637142D01*
X107720000Y-81541904D01*
X107720000Y-81256190D01*
X107767619Y-81160952D01*
X107815238Y-81113333D01*
X107910476Y-81065714D01*
X108053333Y-81065714D01*
X108148571Y-81113333D01*
X108196190Y-81160952D01*
X108243809Y-81256190D01*
X108243809Y-81541904D01*
X108196190Y-81637142D01*
X108148571Y-81684761D01*
X108053333Y-81732380D01*
X107910476Y-81732380D01*
X109100952Y-81732380D02*
X109100952Y-80732380D01*
X109100952Y-81684761D02*
X109005714Y-81732380D01*
X108815238Y-81732380D01*
X108720000Y-81684761D01*
X108672380Y-81637142D01*
X108624761Y-81541904D01*
X108624761Y-81256190D01*
X108672380Y-81160952D01*
X108720000Y-81113333D01*
X108815238Y-81065714D01*
X109005714Y-81065714D01*
X109100952Y-81113333D01*
X109958095Y-81684761D02*
X109862857Y-81732380D01*
X109672380Y-81732380D01*
X109577142Y-81684761D01*
X109529523Y-81589523D01*
X109529523Y-81208571D01*
X109577142Y-81113333D01*
X109672380Y-81065714D01*
X109862857Y-81065714D01*
X109958095Y-81113333D01*
X110005714Y-81208571D01*
X110005714Y-81303809D01*
X109529523Y-81399047D01*
X110434285Y-81732380D02*
X110434285Y-81065714D01*
X110434285Y-81256190D02*
X110481904Y-81160952D01*
X110529523Y-81113333D01*
X110624761Y-81065714D01*
X110720000Y-81065714D01*
X111815238Y-81732380D02*
X111815238Y-80732380D01*
X111815238Y-81113333D02*
X111910476Y-81065714D01*
X112100952Y-81065714D01*
X112196190Y-81113333D01*
X112243809Y-81160952D01*
X112291428Y-81256190D01*
X112291428Y-81541904D01*
X112243809Y-81637142D01*
X112196190Y-81684761D01*
X112100952Y-81732380D01*
X111910476Y-81732380D01*
X111815238Y-81684761D01*
X112720000Y-81732380D02*
X112720000Y-81065714D01*
X112720000Y-81256190D02*
X112767619Y-81160952D01*
X112815238Y-81113333D01*
X112910476Y-81065714D01*
X113005714Y-81065714D01*
X113720000Y-81684761D02*
X113624761Y-81732380D01*
X113434285Y-81732380D01*
X113339047Y-81684761D01*
X113291428Y-81589523D01*
X113291428Y-81208571D01*
X113339047Y-81113333D01*
X113434285Y-81065714D01*
X113624761Y-81065714D01*
X113720000Y-81113333D01*
X113767619Y-81208571D01*
X113767619Y-81303809D01*
X113291428Y-81399047D01*
X114624761Y-81732380D02*
X114624761Y-81208571D01*
X114577142Y-81113333D01*
X114481904Y-81065714D01*
X114291428Y-81065714D01*
X114196190Y-81113333D01*
X114624761Y-81684761D02*
X114529523Y-81732380D01*
X114291428Y-81732380D01*
X114196190Y-81684761D01*
X114148571Y-81589523D01*
X114148571Y-81494285D01*
X114196190Y-81399047D01*
X114291428Y-81351428D01*
X114529523Y-81351428D01*
X114624761Y-81303809D01*
X115100952Y-81732380D02*
X115100952Y-80732380D01*
X115196190Y-81351428D02*
X115481904Y-81732380D01*
X115481904Y-81065714D02*
X115100952Y-81446666D01*
X116053333Y-81732380D02*
X115958095Y-81684761D01*
X115910476Y-81637142D01*
X115862857Y-81541904D01*
X115862857Y-81256190D01*
X115910476Y-81160952D01*
X115958095Y-81113333D01*
X116053333Y-81065714D01*
X116196190Y-81065714D01*
X116291428Y-81113333D01*
X116339047Y-81160952D01*
X116386666Y-81256190D01*
X116386666Y-81541904D01*
X116339047Y-81637142D01*
X116291428Y-81684761D01*
X116196190Y-81732380D01*
X116053333Y-81732380D01*
X117243809Y-81065714D02*
X117243809Y-81732380D01*
X116815238Y-81065714D02*
X116815238Y-81589523D01*
X116862857Y-81684761D01*
X116958095Y-81732380D01*
X117100952Y-81732380D01*
X117196190Y-81684761D01*
X117243809Y-81637142D01*
X117577142Y-81065714D02*
X117958095Y-81065714D01*
X117720000Y-80732380D02*
X117720000Y-81589523D01*
X117767619Y-81684761D01*
X117862857Y-81732380D01*
X117958095Y-81732380D01*
D10*
X125280000Y-79660000D02*
X125213333Y-79626666D01*
X125113333Y-79626666D01*
X125013333Y-79660000D01*
X124946666Y-79726666D01*
X124913333Y-79793333D01*
X124880000Y-79926666D01*
X124880000Y-80026666D01*
X124913333Y-80160000D01*
X124946666Y-80226666D01*
X125013333Y-80293333D01*
X125113333Y-80326666D01*
X125180000Y-80326666D01*
X125280000Y-80293333D01*
X125313333Y-80260000D01*
X125313333Y-80026666D01*
X125180000Y-80026666D01*
X125613333Y-79860000D02*
X125613333Y-80326666D01*
X125613333Y-79926666D02*
X125646666Y-79893333D01*
X125713333Y-79860000D01*
X125813333Y-79860000D01*
X125880000Y-79893333D01*
X125913333Y-79960000D01*
X125913333Y-80326666D01*
X126546666Y-80326666D02*
X126546666Y-79626666D01*
X126546666Y-80293333D02*
X126480000Y-80326666D01*
X126346666Y-80326666D01*
X126280000Y-80293333D01*
X126246666Y-80260000D01*
X126213333Y-80193333D01*
X126213333Y-79993333D01*
X126246666Y-79926666D01*
X126280000Y-79893333D01*
X126346666Y-79860000D01*
X126480000Y-79860000D01*
X126546666Y-79893333D01*
X125663333Y-72773333D02*
X125596666Y-72740000D01*
X125530000Y-72673333D01*
X125430000Y-72573333D01*
X125363333Y-72540000D01*
X125296666Y-72540000D01*
X125330000Y-72706666D02*
X125263333Y-72673333D01*
X125196666Y-72606666D01*
X125163333Y-72473333D01*
X125163333Y-72240000D01*
X125196666Y-72106666D01*
X125263333Y-72040000D01*
X125330000Y-72006666D01*
X125463333Y-72006666D01*
X125530000Y-72040000D01*
X125596666Y-72106666D01*
X125630000Y-72240000D01*
X125630000Y-72473333D01*
X125596666Y-72606666D01*
X125530000Y-72673333D01*
X125463333Y-72706666D01*
X125330000Y-72706666D01*
X125896666Y-72073333D02*
X125930000Y-72040000D01*
X125996666Y-72006666D01*
X126163333Y-72006666D01*
X126230000Y-72040000D01*
X126263333Y-72073333D01*
X126296666Y-72140000D01*
X126296666Y-72206666D01*
X126263333Y-72306666D01*
X125863333Y-72706666D01*
X126296666Y-72706666D01*
D11*
X97187857Y-84272380D02*
X97187857Y-83748571D01*
X97140238Y-83653333D01*
X97045000Y-83605714D01*
X96854523Y-83605714D01*
X96759285Y-83653333D01*
X97187857Y-84224761D02*
X97092619Y-84272380D01*
X96854523Y-84272380D01*
X96759285Y-84224761D01*
X96711666Y-84129523D01*
X96711666Y-84034285D01*
X96759285Y-83939047D01*
X96854523Y-83891428D01*
X97092619Y-83891428D01*
X97187857Y-83843809D01*
X97664047Y-84272380D02*
X97664047Y-83272380D01*
X97664047Y-83653333D02*
X97759285Y-83605714D01*
X97949761Y-83605714D01*
X98045000Y-83653333D01*
X98092619Y-83700952D01*
X98140238Y-83796190D01*
X98140238Y-84081904D01*
X98092619Y-84177142D01*
X98045000Y-84224761D01*
X97949761Y-84272380D01*
X97759285Y-84272380D01*
X97664047Y-84224761D01*
X98473571Y-83605714D02*
X98997380Y-83605714D01*
X98473571Y-84272380D01*
X98997380Y-84272380D01*
X99378333Y-84272380D02*
X99378333Y-83605714D01*
X99378333Y-83700952D02*
X99425952Y-83653333D01*
X99521190Y-83605714D01*
X99664047Y-83605714D01*
X99759285Y-83653333D01*
X99806904Y-83748571D01*
X99806904Y-84272380D01*
X99806904Y-83748571D02*
X99854523Y-83653333D01*
X99949761Y-83605714D01*
X100092619Y-83605714D01*
X100187857Y-83653333D01*
X100235476Y-83748571D01*
X100235476Y-84272380D01*
X101140238Y-84272380D02*
X101140238Y-83748571D01*
X101092619Y-83653333D01*
X100997380Y-83605714D01*
X100806904Y-83605714D01*
X100711666Y-83653333D01*
X101140238Y-84224761D02*
X101045000Y-84272380D01*
X100806904Y-84272380D01*
X100711666Y-84224761D01*
X100664047Y-84129523D01*
X100664047Y-84034285D01*
X100711666Y-83939047D01*
X100806904Y-83891428D01*
X101045000Y-83891428D01*
X101140238Y-83843809D01*
X101616428Y-83605714D02*
X101616428Y-84272380D01*
X101616428Y-83700952D02*
X101664047Y-83653333D01*
X101759285Y-83605714D01*
X101902142Y-83605714D01*
X101997380Y-83653333D01*
X102045000Y-83748571D01*
X102045000Y-84272380D01*
X102473571Y-83367619D02*
X102521190Y-83320000D01*
X102616428Y-83272380D01*
X102854523Y-83272380D01*
X102949761Y-83320000D01*
X102997380Y-83367619D01*
X103045000Y-83462857D01*
X103045000Y-83558095D01*
X102997380Y-83700952D01*
X102425952Y-84272380D01*
X103045000Y-84272380D01*
X103473571Y-84272380D02*
X103473571Y-83272380D01*
X103568809Y-83891428D02*
X103854523Y-84272380D01*
X103854523Y-83605714D02*
X103473571Y-83986666D01*
X104283095Y-84177142D02*
X104330714Y-84224761D01*
X104283095Y-84272380D01*
X104235476Y-84224761D01*
X104283095Y-84177142D01*
X104283095Y-84272380D01*
X104664047Y-83605714D02*
X104854523Y-84272380D01*
X105045000Y-83796190D01*
X105235476Y-84272380D01*
X105425952Y-83605714D01*
X105949761Y-84272380D02*
X105854523Y-84224761D01*
X105806904Y-84177142D01*
X105759285Y-84081904D01*
X105759285Y-83796190D01*
X105806904Y-83700952D01*
X105854523Y-83653333D01*
X105949761Y-83605714D01*
X106092619Y-83605714D01*
X106187857Y-83653333D01*
X106235476Y-83700952D01*
X106283095Y-83796190D01*
X106283095Y-84081904D01*
X106235476Y-84177142D01*
X106187857Y-84224761D01*
X106092619Y-84272380D01*
X105949761Y-84272380D01*
X106711666Y-84272380D02*
X106711666Y-83605714D01*
X106711666Y-83796190D02*
X106759285Y-83700952D01*
X106806904Y-83653333D01*
X106902142Y-83605714D01*
X106997380Y-83605714D01*
X107759285Y-84272380D02*
X107759285Y-83272380D01*
X107759285Y-84224761D02*
X107664047Y-84272380D01*
X107473571Y-84272380D01*
X107378333Y-84224761D01*
X107330714Y-84177142D01*
X107283095Y-84081904D01*
X107283095Y-83796190D01*
X107330714Y-83700952D01*
X107378333Y-83653333D01*
X107473571Y-83605714D01*
X107664047Y-83605714D01*
X107759285Y-83653333D01*
X108235476Y-83605714D02*
X108235476Y-84605714D01*
X108235476Y-83653333D02*
X108330714Y-83605714D01*
X108521190Y-83605714D01*
X108616428Y-83653333D01*
X108664047Y-83700952D01*
X108711666Y-83796190D01*
X108711666Y-84081904D01*
X108664047Y-84177142D01*
X108616428Y-84224761D01*
X108521190Y-84272380D01*
X108330714Y-84272380D01*
X108235476Y-84224761D01*
X109140238Y-84272380D02*
X109140238Y-83605714D01*
X109140238Y-83796190D02*
X109187857Y-83700952D01*
X109235476Y-83653333D01*
X109330714Y-83605714D01*
X109425952Y-83605714D01*
X110140238Y-84224761D02*
X110045000Y-84272380D01*
X109854523Y-84272380D01*
X109759285Y-84224761D01*
X109711666Y-84129523D01*
X109711666Y-83748571D01*
X109759285Y-83653333D01*
X109854523Y-83605714D01*
X110045000Y-83605714D01*
X110140238Y-83653333D01*
X110187857Y-83748571D01*
X110187857Y-83843809D01*
X109711666Y-83939047D01*
X110568809Y-84224761D02*
X110664047Y-84272380D01*
X110854523Y-84272380D01*
X110949761Y-84224761D01*
X110997380Y-84129523D01*
X110997380Y-84081904D01*
X110949761Y-83986666D01*
X110854523Y-83939047D01*
X110711666Y-83939047D01*
X110616428Y-83891428D01*
X110568809Y-83796190D01*
X110568809Y-83748571D01*
X110616428Y-83653333D01*
X110711666Y-83605714D01*
X110854523Y-83605714D01*
X110949761Y-83653333D01*
X111378333Y-84224761D02*
X111473571Y-84272380D01*
X111664047Y-84272380D01*
X111759285Y-84224761D01*
X111806904Y-84129523D01*
X111806904Y-84081904D01*
X111759285Y-83986666D01*
X111664047Y-83939047D01*
X111521190Y-83939047D01*
X111425952Y-83891428D01*
X111378333Y-83796190D01*
X111378333Y-83748571D01*
X111425952Y-83653333D01*
X111521190Y-83605714D01*
X111664047Y-83605714D01*
X111759285Y-83653333D01*
X112235476Y-84177142D02*
X112283095Y-84224761D01*
X112235476Y-84272380D01*
X112187857Y-84224761D01*
X112235476Y-84177142D01*
X112235476Y-84272380D01*
X113140238Y-84224761D02*
X113045000Y-84272380D01*
X112854523Y-84272380D01*
X112759285Y-84224761D01*
X112711666Y-84177142D01*
X112664047Y-84081904D01*
X112664047Y-83796190D01*
X112711666Y-83700952D01*
X112759285Y-83653333D01*
X112854523Y-83605714D01*
X113045000Y-83605714D01*
X113140238Y-83653333D01*
X113711666Y-84272380D02*
X113616428Y-84224761D01*
X113568809Y-84177142D01*
X113521190Y-84081904D01*
X113521190Y-83796190D01*
X113568809Y-83700952D01*
X113616428Y-83653333D01*
X113711666Y-83605714D01*
X113854523Y-83605714D01*
X113949761Y-83653333D01*
X113997380Y-83700952D01*
X114045000Y-83796190D01*
X114045000Y-84081904D01*
X113997380Y-84177142D01*
X113949761Y-84224761D01*
X113854523Y-84272380D01*
X113711666Y-84272380D01*
X114473571Y-84272380D02*
X114473571Y-83605714D01*
X114473571Y-83700952D02*
X114521190Y-83653333D01*
X114616428Y-83605714D01*
X114759285Y-83605714D01*
X114854523Y-83653333D01*
X114902142Y-83748571D01*
X114902142Y-84272380D01*
X114902142Y-83748571D02*
X114949761Y-83653333D01*
X115045000Y-83605714D01*
X115187857Y-83605714D01*
X115283095Y-83653333D01*
X115330714Y-83748571D01*
X115330714Y-84272380D01*
D10*
X125663333Y-70233333D02*
X125596666Y-70200000D01*
X125530000Y-70133333D01*
X125430000Y-70033333D01*
X125363333Y-70000000D01*
X125296666Y-70000000D01*
X125330000Y-70166666D02*
X125263333Y-70133333D01*
X125196666Y-70066666D01*
X125163333Y-69933333D01*
X125163333Y-69700000D01*
X125196666Y-69566666D01*
X125263333Y-69500000D01*
X125330000Y-69466666D01*
X125463333Y-69466666D01*
X125530000Y-69500000D01*
X125596666Y-69566666D01*
X125630000Y-69700000D01*
X125630000Y-69933333D01*
X125596666Y-70066666D01*
X125530000Y-70133333D01*
X125463333Y-70166666D01*
X125330000Y-70166666D01*
X125863333Y-69466666D02*
X126296666Y-69466666D01*
X126063333Y-69733333D01*
X126163333Y-69733333D01*
X126230000Y-69766666D01*
X126263333Y-69800000D01*
X126296666Y-69866666D01*
X126296666Y-70033333D01*
X126263333Y-70100000D01*
X126230000Y-70133333D01*
X126163333Y-70166666D01*
X125963333Y-70166666D01*
X125896666Y-70133333D01*
X125863333Y-70100000D01*
D11*
%TO.C,X1*%
X100132380Y-75094523D02*
X101132380Y-74427857D01*
X100132380Y-74427857D02*
X101132380Y-75094523D01*
X101132380Y-73523095D02*
X101132380Y-74094523D01*
X101132380Y-73808809D02*
X100132380Y-73808809D01*
X100275238Y-73904047D01*
X100370476Y-73999285D01*
X100418095Y-74094523D01*
X93082380Y-78285000D02*
X93082380Y-77665952D01*
X93463333Y-77999285D01*
X93463333Y-77856428D01*
X93510952Y-77761190D01*
X93558571Y-77713571D01*
X93653809Y-77665952D01*
X93891904Y-77665952D01*
X93987142Y-77713571D01*
X94034761Y-77761190D01*
X94082380Y-77856428D01*
X94082380Y-78142142D01*
X94034761Y-78237380D01*
X93987142Y-78285000D01*
X93987142Y-77237380D02*
X94034761Y-77189761D01*
X94082380Y-77237380D01*
X94034761Y-77285000D01*
X93987142Y-77237380D01*
X94082380Y-77237380D01*
X93082380Y-76285000D02*
X93082380Y-76761190D01*
X93558571Y-76808809D01*
X93510952Y-76761190D01*
X93463333Y-76665952D01*
X93463333Y-76427857D01*
X93510952Y-76332619D01*
X93558571Y-76285000D01*
X93653809Y-76237380D01*
X93891904Y-76237380D01*
X93987142Y-76285000D01*
X94034761Y-76332619D01*
X94082380Y-76427857D01*
X94082380Y-76665952D01*
X94034761Y-76761190D01*
X93987142Y-76808809D01*
X93082380Y-75904047D02*
X93082380Y-75237380D01*
X94082380Y-75665952D01*
X94082380Y-74808809D02*
X94082380Y-74618333D01*
X94034761Y-74523095D01*
X93987142Y-74475476D01*
X93844285Y-74380238D01*
X93653809Y-74332619D01*
X93272857Y-74332619D01*
X93177619Y-74380238D01*
X93130000Y-74427857D01*
X93082380Y-74523095D01*
X93082380Y-74713571D01*
X93130000Y-74808809D01*
X93177619Y-74856428D01*
X93272857Y-74904047D01*
X93510952Y-74904047D01*
X93606190Y-74856428D01*
X93653809Y-74808809D01*
X93701428Y-74713571D01*
X93701428Y-74523095D01*
X93653809Y-74427857D01*
X93606190Y-74380238D01*
X93510952Y-74332619D01*
X93082380Y-73427857D02*
X93082380Y-73904047D01*
X93558571Y-73951666D01*
X93510952Y-73904047D01*
X93463333Y-73808809D01*
X93463333Y-73570714D01*
X93510952Y-73475476D01*
X93558571Y-73427857D01*
X93653809Y-73380238D01*
X93891904Y-73380238D01*
X93987142Y-73427857D01*
X94034761Y-73475476D01*
X94082380Y-73570714D01*
X94082380Y-73808809D01*
X94034761Y-73904047D01*
X93987142Y-73951666D01*
X93415714Y-72523095D02*
X94082380Y-72523095D01*
X93034761Y-72761190D02*
X93749047Y-72999285D01*
X93749047Y-72380238D01*
X93082380Y-71523095D02*
X93082380Y-71999285D01*
X93558571Y-72046904D01*
X93510952Y-71999285D01*
X93463333Y-71904047D01*
X93463333Y-71665952D01*
X93510952Y-71570714D01*
X93558571Y-71523095D01*
X93653809Y-71475476D01*
X93891904Y-71475476D01*
X93987142Y-71523095D01*
X94034761Y-71570714D01*
X94082380Y-71665952D01*
X94082380Y-71904047D01*
X94034761Y-71999285D01*
X93987142Y-72046904D01*
X94082380Y-71046904D02*
X93082380Y-71046904D01*
X93796666Y-70713571D01*
X93082380Y-70380238D01*
X94082380Y-70380238D01*
%TO.C,IC1*%
X108253809Y-55282380D02*
X108253809Y-54282380D01*
X109301428Y-55187142D02*
X109253809Y-55234761D01*
X109110952Y-55282380D01*
X109015714Y-55282380D01*
X108872857Y-55234761D01*
X108777619Y-55139523D01*
X108730000Y-55044285D01*
X108682380Y-54853809D01*
X108682380Y-54710952D01*
X108730000Y-54520476D01*
X108777619Y-54425238D01*
X108872857Y-54330000D01*
X109015714Y-54282380D01*
X109110952Y-54282380D01*
X109253809Y-54330000D01*
X109301428Y-54377619D01*
X110253809Y-55282380D02*
X109682380Y-55282380D01*
X109968095Y-55282380D02*
X109968095Y-54282380D01*
X109872857Y-54425238D01*
X109777619Y-54520476D01*
X109682380Y-54568095D01*
X105658571Y-80262380D02*
X105658571Y-79262380D01*
X105991904Y-79976666D01*
X106325238Y-79262380D01*
X106325238Y-80262380D01*
X106658571Y-79262380D02*
X107230000Y-79262380D01*
X106944285Y-80262380D02*
X106944285Y-79262380D01*
X107706190Y-79690952D02*
X107610952Y-79643333D01*
X107563333Y-79595714D01*
X107515714Y-79500476D01*
X107515714Y-79452857D01*
X107563333Y-79357619D01*
X107610952Y-79310000D01*
X107706190Y-79262380D01*
X107896666Y-79262380D01*
X107991904Y-79310000D01*
X108039523Y-79357619D01*
X108087142Y-79452857D01*
X108087142Y-79500476D01*
X108039523Y-79595714D01*
X107991904Y-79643333D01*
X107896666Y-79690952D01*
X107706190Y-79690952D01*
X107610952Y-79738571D01*
X107563333Y-79786190D01*
X107515714Y-79881428D01*
X107515714Y-80071904D01*
X107563333Y-80167142D01*
X107610952Y-80214761D01*
X107706190Y-80262380D01*
X107896666Y-80262380D01*
X107991904Y-80214761D01*
X108039523Y-80167142D01*
X108087142Y-80071904D01*
X108087142Y-79881428D01*
X108039523Y-79786190D01*
X107991904Y-79738571D01*
X107896666Y-79690952D01*
X108658571Y-79690952D02*
X108563333Y-79643333D01*
X108515714Y-79595714D01*
X108468095Y-79500476D01*
X108468095Y-79452857D01*
X108515714Y-79357619D01*
X108563333Y-79310000D01*
X108658571Y-79262380D01*
X108849047Y-79262380D01*
X108944285Y-79310000D01*
X108991904Y-79357619D01*
X109039523Y-79452857D01*
X109039523Y-79500476D01*
X108991904Y-79595714D01*
X108944285Y-79643333D01*
X108849047Y-79690952D01*
X108658571Y-79690952D01*
X108563333Y-79738571D01*
X108515714Y-79786190D01*
X108468095Y-79881428D01*
X108468095Y-80071904D01*
X108515714Y-80167142D01*
X108563333Y-80214761D01*
X108658571Y-80262380D01*
X108849047Y-80262380D01*
X108944285Y-80214761D01*
X108991904Y-80167142D01*
X109039523Y-80071904D01*
X109039523Y-79881428D01*
X108991904Y-79786190D01*
X108944285Y-79738571D01*
X108849047Y-79690952D01*
X109372857Y-79262380D02*
X110039523Y-79262380D01*
X109610952Y-80262380D01*
X110610952Y-79262380D02*
X110706190Y-79262380D01*
X110801428Y-79310000D01*
X110849047Y-79357619D01*
X110896666Y-79452857D01*
X110944285Y-79643333D01*
X110944285Y-79881428D01*
X110896666Y-80071904D01*
X110849047Y-80167142D01*
X110801428Y-80214761D01*
X110706190Y-80262380D01*
X110610952Y-80262380D01*
X110515714Y-80214761D01*
X110468095Y-80167142D01*
X110420476Y-80071904D01*
X110372857Y-79881428D01*
X110372857Y-79643333D01*
X110420476Y-79452857D01*
X110468095Y-79357619D01*
X110515714Y-79310000D01*
X110610952Y-79262380D01*
X111944285Y-80167142D02*
X111896666Y-80214761D01*
X111753809Y-80262380D01*
X111658571Y-80262380D01*
X111515714Y-80214761D01*
X111420476Y-80119523D01*
X111372857Y-80024285D01*
X111325238Y-79833809D01*
X111325238Y-79690952D01*
X111372857Y-79500476D01*
X111420476Y-79405238D01*
X111515714Y-79310000D01*
X111658571Y-79262380D01*
X111753809Y-79262380D01*
X111896666Y-79310000D01*
X111944285Y-79357619D01*
X112372857Y-79738571D02*
X112706190Y-79738571D01*
X112849047Y-80262380D02*
X112372857Y-80262380D01*
X112372857Y-79262380D01*
X112849047Y-79262380D01*
%TO.C,R5*%
X92848133Y-54986180D02*
X92514800Y-54509990D01*
X92276704Y-54986180D02*
X92276704Y-53986180D01*
X92657657Y-53986180D01*
X92752895Y-54033800D01*
X92800514Y-54081419D01*
X92848133Y-54176657D01*
X92848133Y-54319514D01*
X92800514Y-54414752D01*
X92752895Y-54462371D01*
X92657657Y-54509990D01*
X92276704Y-54509990D01*
X93752895Y-53986180D02*
X93276704Y-53986180D01*
X93229085Y-54462371D01*
X93276704Y-54414752D01*
X93371942Y-54367133D01*
X93610038Y-54367133D01*
X93705276Y-54414752D01*
X93752895Y-54462371D01*
X93800514Y-54557609D01*
X93800514Y-54795704D01*
X93752895Y-54890942D01*
X93705276Y-54938561D01*
X93610038Y-54986180D01*
X93371942Y-54986180D01*
X93276704Y-54938561D01*
X93229085Y-54890942D01*
X92683571Y-58237380D02*
X92112142Y-58237380D01*
X92397857Y-58237380D02*
X92397857Y-57237380D01*
X92302619Y-57380238D01*
X92207380Y-57475476D01*
X92112142Y-57523095D01*
X93302619Y-57237380D02*
X93397857Y-57237380D01*
X93493095Y-57285000D01*
X93540714Y-57332619D01*
X93588333Y-57427857D01*
X93635952Y-57618333D01*
X93635952Y-57856428D01*
X93588333Y-58046904D01*
X93540714Y-58142142D01*
X93493095Y-58189761D01*
X93397857Y-58237380D01*
X93302619Y-58237380D01*
X93207380Y-58189761D01*
X93159761Y-58142142D01*
X93112142Y-58046904D01*
X93064523Y-57856428D01*
X93064523Y-57618333D01*
X93112142Y-57427857D01*
X93159761Y-57332619D01*
X93207380Y-57285000D01*
X93302619Y-57237380D01*
X94255000Y-57237380D02*
X94350238Y-57237380D01*
X94445476Y-57285000D01*
X94493095Y-57332619D01*
X94540714Y-57427857D01*
X94588333Y-57618333D01*
X94588333Y-57856428D01*
X94540714Y-58046904D01*
X94493095Y-58142142D01*
X94445476Y-58189761D01*
X94350238Y-58237380D01*
X94255000Y-58237380D01*
X94159761Y-58189761D01*
X94112142Y-58142142D01*
X94064523Y-58046904D01*
X94016904Y-57856428D01*
X94016904Y-57618333D01*
X94064523Y-57427857D01*
X94112142Y-57332619D01*
X94159761Y-57285000D01*
X94255000Y-57237380D01*
X95016904Y-58237380D02*
X95016904Y-57237380D01*
X95112142Y-57856428D02*
X95397857Y-58237380D01*
X95397857Y-57570714D02*
X95016904Y-57951666D01*
%TO.C,R3*%
X86786428Y-46272380D02*
X87405476Y-46272380D01*
X87072142Y-46653333D01*
X87215000Y-46653333D01*
X87310238Y-46700952D01*
X87357857Y-46748571D01*
X87405476Y-46843809D01*
X87405476Y-47081904D01*
X87357857Y-47177142D01*
X87310238Y-47224761D01*
X87215000Y-47272380D01*
X86929285Y-47272380D01*
X86834047Y-47224761D01*
X86786428Y-47177142D01*
X87738809Y-46272380D02*
X88405476Y-46272380D01*
X87976904Y-47272380D01*
X88786428Y-47177142D02*
X88834047Y-47224761D01*
X88786428Y-47272380D01*
X88738809Y-47224761D01*
X88786428Y-47177142D01*
X88786428Y-47272380D01*
X89691190Y-46605714D02*
X89691190Y-47272380D01*
X89453095Y-46224761D02*
X89215000Y-46939047D01*
X89834047Y-46939047D01*
X90215000Y-47272380D02*
X90215000Y-46272380D01*
X90310238Y-46891428D02*
X90595952Y-47272380D01*
X90595952Y-46605714D02*
X90215000Y-46986666D01*
%TO.C,C2*%
X112453333Y-44807142D02*
X112405714Y-44854761D01*
X112262857Y-44902380D01*
X112167619Y-44902380D01*
X112024761Y-44854761D01*
X111929523Y-44759523D01*
X111881904Y-44664285D01*
X111834285Y-44473809D01*
X111834285Y-44330952D01*
X111881904Y-44140476D01*
X111929523Y-44045238D01*
X112024761Y-43950000D01*
X112167619Y-43902380D01*
X112262857Y-43902380D01*
X112405714Y-43950000D01*
X112453333Y-43997619D01*
X112834285Y-43997619D02*
X112881904Y-43950000D01*
X112977142Y-43902380D01*
X113215238Y-43902380D01*
X113310476Y-43950000D01*
X113358095Y-43997619D01*
X113405714Y-44092857D01*
X113405714Y-44188095D01*
X113358095Y-44330952D01*
X112786666Y-44902380D01*
X113405714Y-44902380D01*
X110500952Y-46997619D02*
X110548571Y-46950000D01*
X110643809Y-46902380D01*
X110881904Y-46902380D01*
X110977142Y-46950000D01*
X111024761Y-46997619D01*
X111072380Y-47092857D01*
X111072380Y-47188095D01*
X111024761Y-47330952D01*
X110453333Y-47902380D01*
X111072380Y-47902380D01*
X111453333Y-46997619D02*
X111500952Y-46950000D01*
X111596190Y-46902380D01*
X111834285Y-46902380D01*
X111929523Y-46950000D01*
X111977142Y-46997619D01*
X112024761Y-47092857D01*
X112024761Y-47188095D01*
X111977142Y-47330952D01*
X111405714Y-47902380D01*
X112024761Y-47902380D01*
X112643809Y-46902380D02*
X112739047Y-46902380D01*
X112834285Y-46950000D01*
X112881904Y-46997619D01*
X112929523Y-47092857D01*
X112977142Y-47283333D01*
X112977142Y-47521428D01*
X112929523Y-47711904D01*
X112881904Y-47807142D01*
X112834285Y-47854761D01*
X112739047Y-47902380D01*
X112643809Y-47902380D01*
X112548571Y-47854761D01*
X112500952Y-47807142D01*
X112453333Y-47711904D01*
X112405714Y-47521428D01*
X112405714Y-47283333D01*
X112453333Y-47092857D01*
X112500952Y-46997619D01*
X112548571Y-46950000D01*
X112643809Y-46902380D01*
X113405714Y-47235714D02*
X113405714Y-47902380D01*
X113405714Y-47330952D02*
X113453333Y-47283333D01*
X113548571Y-47235714D01*
X113691428Y-47235714D01*
X113786666Y-47283333D01*
X113834285Y-47378571D01*
X113834285Y-47902380D01*
X114643809Y-47378571D02*
X114310476Y-47378571D01*
X114310476Y-47902380D02*
X114310476Y-46902380D01*
X114786666Y-46902380D01*
%TO.C,R4*%
X105058333Y-44267380D02*
X104725000Y-43791190D01*
X104486904Y-44267380D02*
X104486904Y-43267380D01*
X104867857Y-43267380D01*
X104963095Y-43315000D01*
X105010714Y-43362619D01*
X105058333Y-43457857D01*
X105058333Y-43600714D01*
X105010714Y-43695952D01*
X104963095Y-43743571D01*
X104867857Y-43791190D01*
X104486904Y-43791190D01*
X105915476Y-43600714D02*
X105915476Y-44267380D01*
X105677380Y-43219761D02*
X105439285Y-43934047D01*
X106058333Y-43934047D01*
X104153571Y-47272380D02*
X103582142Y-47272380D01*
X103867857Y-47272380D02*
X103867857Y-46272380D01*
X103772619Y-46415238D01*
X103677380Y-46510476D01*
X103582142Y-46558095D01*
X104772619Y-46272380D02*
X104867857Y-46272380D01*
X104963095Y-46320000D01*
X105010714Y-46367619D01*
X105058333Y-46462857D01*
X105105952Y-46653333D01*
X105105952Y-46891428D01*
X105058333Y-47081904D01*
X105010714Y-47177142D01*
X104963095Y-47224761D01*
X104867857Y-47272380D01*
X104772619Y-47272380D01*
X104677380Y-47224761D01*
X104629761Y-47177142D01*
X104582142Y-47081904D01*
X104534523Y-46891428D01*
X104534523Y-46653333D01*
X104582142Y-46462857D01*
X104629761Y-46367619D01*
X104677380Y-46320000D01*
X104772619Y-46272380D01*
X105725000Y-46272380D02*
X105820238Y-46272380D01*
X105915476Y-46320000D01*
X105963095Y-46367619D01*
X106010714Y-46462857D01*
X106058333Y-46653333D01*
X106058333Y-46891428D01*
X106010714Y-47081904D01*
X105963095Y-47177142D01*
X105915476Y-47224761D01*
X105820238Y-47272380D01*
X105725000Y-47272380D01*
X105629761Y-47224761D01*
X105582142Y-47177142D01*
X105534523Y-47081904D01*
X105486904Y-46891428D01*
X105486904Y-46653333D01*
X105534523Y-46462857D01*
X105582142Y-46367619D01*
X105629761Y-46320000D01*
X105725000Y-46272380D01*
X106486904Y-47272380D02*
X106486904Y-46272380D01*
X106582142Y-46891428D02*
X106867857Y-47272380D01*
X106867857Y-46605714D02*
X106486904Y-46986666D01*
%TO.C,J2*%
X126677380Y-46688333D02*
X127391666Y-46688333D01*
X127534523Y-46735952D01*
X127629761Y-46831190D01*
X127677380Y-46974047D01*
X127677380Y-47069285D01*
X126772619Y-46259761D02*
X126725000Y-46212142D01*
X126677380Y-46116904D01*
X126677380Y-45878809D01*
X126725000Y-45783571D01*
X126772619Y-45735952D01*
X126867857Y-45688333D01*
X126963095Y-45688333D01*
X127105952Y-45735952D01*
X127677380Y-46307380D01*
X127677380Y-45688333D01*
%TO.C,R1*%
X105014733Y-49880780D02*
X104681400Y-49404590D01*
X104443304Y-49880780D02*
X104443304Y-48880780D01*
X104824257Y-48880780D01*
X104919495Y-48928400D01*
X104967114Y-48976019D01*
X105014733Y-49071257D01*
X105014733Y-49214114D01*
X104967114Y-49309352D01*
X104919495Y-49356971D01*
X104824257Y-49404590D01*
X104443304Y-49404590D01*
X105967114Y-49880780D02*
X105395685Y-49880780D01*
X105681400Y-49880780D02*
X105681400Y-48880780D01*
X105586161Y-49023638D01*
X105490923Y-49118876D01*
X105395685Y-49166495D01*
X104153571Y-52987380D02*
X103582142Y-52987380D01*
X103867857Y-52987380D02*
X103867857Y-51987380D01*
X103772619Y-52130238D01*
X103677380Y-52225476D01*
X103582142Y-52273095D01*
X104772619Y-51987380D02*
X104867857Y-51987380D01*
X104963095Y-52035000D01*
X105010714Y-52082619D01*
X105058333Y-52177857D01*
X105105952Y-52368333D01*
X105105952Y-52606428D01*
X105058333Y-52796904D01*
X105010714Y-52892142D01*
X104963095Y-52939761D01*
X104867857Y-52987380D01*
X104772619Y-52987380D01*
X104677380Y-52939761D01*
X104629761Y-52892142D01*
X104582142Y-52796904D01*
X104534523Y-52606428D01*
X104534523Y-52368333D01*
X104582142Y-52177857D01*
X104629761Y-52082619D01*
X104677380Y-52035000D01*
X104772619Y-51987380D01*
X105725000Y-51987380D02*
X105820238Y-51987380D01*
X105915476Y-52035000D01*
X105963095Y-52082619D01*
X106010714Y-52177857D01*
X106058333Y-52368333D01*
X106058333Y-52606428D01*
X106010714Y-52796904D01*
X105963095Y-52892142D01*
X105915476Y-52939761D01*
X105820238Y-52987380D01*
X105725000Y-52987380D01*
X105629761Y-52939761D01*
X105582142Y-52892142D01*
X105534523Y-52796904D01*
X105486904Y-52606428D01*
X105486904Y-52368333D01*
X105534523Y-52177857D01*
X105582142Y-52082619D01*
X105629761Y-52035000D01*
X105725000Y-51987380D01*
X106486904Y-52987380D02*
X106486904Y-51987380D01*
X106582142Y-52606428D02*
X106867857Y-52987380D01*
X106867857Y-52320714D02*
X106486904Y-52701666D01*
%TO.C,D3*%
X125220504Y-59050180D02*
X125220504Y-58050180D01*
X125458600Y-58050180D01*
X125601457Y-58097800D01*
X125696695Y-58193038D01*
X125744314Y-58288276D01*
X125791933Y-58478752D01*
X125791933Y-58621609D01*
X125744314Y-58812085D01*
X125696695Y-58907323D01*
X125601457Y-59002561D01*
X125458600Y-59050180D01*
X125220504Y-59050180D01*
X126125266Y-58050180D02*
X126744314Y-58050180D01*
X126410980Y-58431133D01*
X126553838Y-58431133D01*
X126649076Y-58478752D01*
X126696695Y-58526371D01*
X126744314Y-58621609D01*
X126744314Y-58859704D01*
X126696695Y-58954942D01*
X126649076Y-59002561D01*
X126553838Y-59050180D01*
X126268123Y-59050180D01*
X126172885Y-59002561D01*
X126125266Y-58954942D01*
X124961904Y-57051666D02*
X125438095Y-57051666D01*
X124866666Y-57337380D02*
X125200000Y-56337380D01*
X125533333Y-57337380D01*
%TO.C,D1*%
X95832704Y-51404780D02*
X95832704Y-50404780D01*
X96070800Y-50404780D01*
X96213657Y-50452400D01*
X96308895Y-50547638D01*
X96356514Y-50642876D01*
X96404133Y-50833352D01*
X96404133Y-50976209D01*
X96356514Y-51166685D01*
X96308895Y-51261923D01*
X96213657Y-51357161D01*
X96070800Y-51404780D01*
X95832704Y-51404780D01*
X97356514Y-51404780D02*
X96785085Y-51404780D01*
X97070800Y-51404780D02*
X97070800Y-50404780D01*
X96975561Y-50547638D01*
X96880323Y-50642876D01*
X96785085Y-50690495D01*
X95341904Y-49431666D02*
X95818095Y-49431666D01*
X95246666Y-49717380D02*
X95580000Y-48717380D01*
X95913333Y-49717380D01*
%TO.C,C4*%
X90638333Y-78622142D02*
X90590714Y-78669761D01*
X90447857Y-78717380D01*
X90352619Y-78717380D01*
X90209761Y-78669761D01*
X90114523Y-78574523D01*
X90066904Y-78479285D01*
X90019285Y-78288809D01*
X90019285Y-78145952D01*
X90066904Y-77955476D01*
X90114523Y-77860238D01*
X90209761Y-77765000D01*
X90352619Y-77717380D01*
X90447857Y-77717380D01*
X90590714Y-77765000D01*
X90638333Y-77812619D01*
X91495476Y-78050714D02*
X91495476Y-78717380D01*
X91257380Y-77669761D02*
X91019285Y-78384047D01*
X91638333Y-78384047D01*
%TO.C,J1*%
X84756666Y-74172380D02*
X84756666Y-74886666D01*
X84709047Y-75029523D01*
X84613809Y-75124761D01*
X84470952Y-75172380D01*
X84375714Y-75172380D01*
X85756666Y-75172380D02*
X85185238Y-75172380D01*
X85470952Y-75172380D02*
X85470952Y-74172380D01*
X85375714Y-74315238D01*
X85280476Y-74410476D01*
X85185238Y-74458095D01*
%TO.C,R6*%
X126553933Y-60675780D02*
X126220600Y-60199590D01*
X125982504Y-60675780D02*
X125982504Y-59675780D01*
X126363457Y-59675780D01*
X126458695Y-59723400D01*
X126506314Y-59771019D01*
X126553933Y-59866257D01*
X126553933Y-60009114D01*
X126506314Y-60104352D01*
X126458695Y-60151971D01*
X126363457Y-60199590D01*
X125982504Y-60199590D01*
X127411076Y-59675780D02*
X127220600Y-59675780D01*
X127125361Y-59723400D01*
X127077742Y-59771019D01*
X126982504Y-59913876D01*
X126934885Y-60104352D01*
X126934885Y-60485304D01*
X126982504Y-60580542D01*
X127030123Y-60628161D01*
X127125361Y-60675780D01*
X127315838Y-60675780D01*
X127411076Y-60628161D01*
X127458695Y-60580542D01*
X127506314Y-60485304D01*
X127506314Y-60247209D01*
X127458695Y-60151971D01*
X127411076Y-60104352D01*
X127315838Y-60056733D01*
X127125361Y-60056733D01*
X127030123Y-60104352D01*
X126982504Y-60151971D01*
X126934885Y-60247209D01*
%TO.C,C3*%
X90638333Y-74177142D02*
X90590714Y-74224761D01*
X90447857Y-74272380D01*
X90352619Y-74272380D01*
X90209761Y-74224761D01*
X90114523Y-74129523D01*
X90066904Y-74034285D01*
X90019285Y-73843809D01*
X90019285Y-73700952D01*
X90066904Y-73510476D01*
X90114523Y-73415238D01*
X90209761Y-73320000D01*
X90352619Y-73272380D01*
X90447857Y-73272380D01*
X90590714Y-73320000D01*
X90638333Y-73367619D01*
X90971666Y-73272380D02*
X91590714Y-73272380D01*
X91257380Y-73653333D01*
X91400238Y-73653333D01*
X91495476Y-73700952D01*
X91543095Y-73748571D01*
X91590714Y-73843809D01*
X91590714Y-74081904D01*
X91543095Y-74177142D01*
X91495476Y-74224761D01*
X91400238Y-74272380D01*
X91114523Y-74272380D01*
X91019285Y-74224761D01*
X90971666Y-74177142D01*
%TO.C,D2*%
X95629504Y-45740580D02*
X95629504Y-44740580D01*
X95867600Y-44740580D01*
X96010457Y-44788200D01*
X96105695Y-44883438D01*
X96153314Y-44978676D01*
X96200933Y-45169152D01*
X96200933Y-45312009D01*
X96153314Y-45502485D01*
X96105695Y-45597723D01*
X96010457Y-45692961D01*
X95867600Y-45740580D01*
X95629504Y-45740580D01*
X96581885Y-44835819D02*
X96629504Y-44788200D01*
X96724742Y-44740580D01*
X96962838Y-44740580D01*
X97058076Y-44788200D01*
X97105695Y-44835819D01*
X97153314Y-44931057D01*
X97153314Y-45026295D01*
X97105695Y-45169152D01*
X96534266Y-45740580D01*
X97153314Y-45740580D01*
X95341904Y-43716666D02*
X95818095Y-43716666D01*
X95246666Y-44002380D02*
X95580000Y-43002380D01*
X95913333Y-44002380D01*
%TO.C,R7*%
X119197380Y-60901666D02*
X118721190Y-61235000D01*
X119197380Y-61473095D02*
X118197380Y-61473095D01*
X118197380Y-61092142D01*
X118245000Y-60996904D01*
X118292619Y-60949285D01*
X118387857Y-60901666D01*
X118530714Y-60901666D01*
X118625952Y-60949285D01*
X118673571Y-60996904D01*
X118721190Y-61092142D01*
X118721190Y-61473095D01*
X118197380Y-60568333D02*
X118197380Y-59901666D01*
X119197380Y-60330238D01*
X120610380Y-61990076D02*
X120610380Y-61371028D01*
X120991333Y-61704361D01*
X120991333Y-61561504D01*
X121038952Y-61466266D01*
X121086571Y-61418647D01*
X121181809Y-61371028D01*
X121419904Y-61371028D01*
X121515142Y-61418647D01*
X121562761Y-61466266D01*
X121610380Y-61561504D01*
X121610380Y-61847219D01*
X121562761Y-61942457D01*
X121515142Y-61990076D01*
X120610380Y-61037695D02*
X120610380Y-60418647D01*
X120991333Y-60751980D01*
X120991333Y-60609123D01*
X121038952Y-60513885D01*
X121086571Y-60466266D01*
X121181809Y-60418647D01*
X121419904Y-60418647D01*
X121515142Y-60466266D01*
X121562761Y-60513885D01*
X121610380Y-60609123D01*
X121610380Y-60894838D01*
X121562761Y-60990076D01*
X121515142Y-61037695D01*
X120610380Y-59799600D02*
X120610380Y-59704361D01*
X120658000Y-59609123D01*
X120705619Y-59561504D01*
X120800857Y-59513885D01*
X120991333Y-59466266D01*
X121229428Y-59466266D01*
X121419904Y-59513885D01*
X121515142Y-59561504D01*
X121562761Y-59609123D01*
X121610380Y-59704361D01*
X121610380Y-59799600D01*
X121562761Y-59894838D01*
X121515142Y-59942457D01*
X121419904Y-59990076D01*
X121229428Y-60037695D01*
X120991333Y-60037695D01*
X120800857Y-59990076D01*
X120705619Y-59942457D01*
X120658000Y-59894838D01*
X120610380Y-59799600D01*
X121610380Y-59037695D02*
X120610380Y-59037695D01*
X121229428Y-58942457D02*
X121610380Y-58656742D01*
X120943714Y-58656742D02*
X121324666Y-59037695D01*
%TO.C,R2*%
X87310238Y-51987380D02*
X87119761Y-51987380D01*
X87024523Y-52035000D01*
X86976904Y-52082619D01*
X86881666Y-52225476D01*
X86834047Y-52415952D01*
X86834047Y-52796904D01*
X86881666Y-52892142D01*
X86929285Y-52939761D01*
X87024523Y-52987380D01*
X87215000Y-52987380D01*
X87310238Y-52939761D01*
X87357857Y-52892142D01*
X87405476Y-52796904D01*
X87405476Y-52558809D01*
X87357857Y-52463571D01*
X87310238Y-52415952D01*
X87215000Y-52368333D01*
X87024523Y-52368333D01*
X86929285Y-52415952D01*
X86881666Y-52463571D01*
X86834047Y-52558809D01*
X88024523Y-51987380D02*
X88119761Y-51987380D01*
X88215000Y-52035000D01*
X88262619Y-52082619D01*
X88310238Y-52177857D01*
X88357857Y-52368333D01*
X88357857Y-52606428D01*
X88310238Y-52796904D01*
X88262619Y-52892142D01*
X88215000Y-52939761D01*
X88119761Y-52987380D01*
X88024523Y-52987380D01*
X87929285Y-52939761D01*
X87881666Y-52892142D01*
X87834047Y-52796904D01*
X87786428Y-52606428D01*
X87786428Y-52368333D01*
X87834047Y-52177857D01*
X87881666Y-52082619D01*
X87929285Y-52035000D01*
X88024523Y-51987380D01*
X88786428Y-52892142D02*
X88834047Y-52939761D01*
X88786428Y-52987380D01*
X88738809Y-52939761D01*
X88786428Y-52892142D01*
X88786428Y-52987380D01*
X89691190Y-52320714D02*
X89691190Y-52987380D01*
X89453095Y-51939761D02*
X89215000Y-52654047D01*
X89834047Y-52654047D01*
X90215000Y-52987380D02*
X90215000Y-51987380D01*
X90310238Y-52606428D02*
X90595952Y-52987380D01*
X90595952Y-52320714D02*
X90215000Y-52701666D01*
%TO.C,C5*%
X116292380Y-60062277D02*
X116292380Y-59967039D01*
X116340000Y-59871800D01*
X116387619Y-59824181D01*
X116482857Y-59776562D01*
X116673333Y-59728943D01*
X116911428Y-59728943D01*
X117101904Y-59776562D01*
X117197142Y-59824181D01*
X117244761Y-59871800D01*
X117292380Y-59967039D01*
X117292380Y-60062277D01*
X117244761Y-60157515D01*
X117197142Y-60205134D01*
X117101904Y-60252753D01*
X116911428Y-60300372D01*
X116673333Y-60300372D01*
X116482857Y-60252753D01*
X116387619Y-60205134D01*
X116340000Y-60157515D01*
X116292380Y-60062277D01*
X117197142Y-59300372D02*
X117244761Y-59252753D01*
X117292380Y-59300372D01*
X117244761Y-59347991D01*
X117197142Y-59300372D01*
X117292380Y-59300372D01*
X117292380Y-58300372D02*
X117292380Y-58871800D01*
X117292380Y-58586086D02*
X116292380Y-58586086D01*
X116435238Y-58681324D01*
X116530476Y-58776562D01*
X116578095Y-58871800D01*
X116625714Y-57443229D02*
X117292380Y-57443229D01*
X116625714Y-57871800D02*
X117149523Y-57871800D01*
X117244761Y-57824181D01*
X117292380Y-57728943D01*
X117292380Y-57586086D01*
X117244761Y-57490848D01*
X117197142Y-57443229D01*
X116768571Y-56633705D02*
X116768571Y-56967039D01*
X117292380Y-56967039D02*
X116292380Y-56967039D01*
X116292380Y-56490848D01*
%TO.C,C1*%
X112453333Y-50692142D02*
X112405714Y-50739761D01*
X112262857Y-50787380D01*
X112167619Y-50787380D01*
X112024761Y-50739761D01*
X111929523Y-50644523D01*
X111881904Y-50549285D01*
X111834285Y-50358809D01*
X111834285Y-50215952D01*
X111881904Y-50025476D01*
X111929523Y-49930238D01*
X112024761Y-49835000D01*
X112167619Y-49787380D01*
X112262857Y-49787380D01*
X112405714Y-49835000D01*
X112453333Y-49882619D01*
X113405714Y-50787380D02*
X112834285Y-50787380D01*
X113120000Y-50787380D02*
X113120000Y-49787380D01*
X113024761Y-49930238D01*
X112929523Y-50025476D01*
X112834285Y-50073095D01*
X110500952Y-52712619D02*
X110548571Y-52665000D01*
X110643809Y-52617380D01*
X110881904Y-52617380D01*
X110977142Y-52665000D01*
X111024761Y-52712619D01*
X111072380Y-52807857D01*
X111072380Y-52903095D01*
X111024761Y-53045952D01*
X110453333Y-53617380D01*
X111072380Y-53617380D01*
X111453333Y-52712619D02*
X111500952Y-52665000D01*
X111596190Y-52617380D01*
X111834285Y-52617380D01*
X111929523Y-52665000D01*
X111977142Y-52712619D01*
X112024761Y-52807857D01*
X112024761Y-52903095D01*
X111977142Y-53045952D01*
X111405714Y-53617380D01*
X112024761Y-53617380D01*
X112643809Y-52617380D02*
X112739047Y-52617380D01*
X112834285Y-52665000D01*
X112881904Y-52712619D01*
X112929523Y-52807857D01*
X112977142Y-52998333D01*
X112977142Y-53236428D01*
X112929523Y-53426904D01*
X112881904Y-53522142D01*
X112834285Y-53569761D01*
X112739047Y-53617380D01*
X112643809Y-53617380D01*
X112548571Y-53569761D01*
X112500952Y-53522142D01*
X112453333Y-53426904D01*
X112405714Y-53236428D01*
X112405714Y-52998333D01*
X112453333Y-52807857D01*
X112500952Y-52712619D01*
X112548571Y-52665000D01*
X112643809Y-52617380D01*
X113405714Y-52950714D02*
X113405714Y-53617380D01*
X113405714Y-53045952D02*
X113453333Y-52998333D01*
X113548571Y-52950714D01*
X113691428Y-52950714D01*
X113786666Y-52998333D01*
X113834285Y-53093571D01*
X113834285Y-53617380D01*
X114643809Y-53093571D02*
X114310476Y-53093571D01*
X114310476Y-53617380D02*
X114310476Y-52617380D01*
X114786666Y-52617380D01*
D12*
%TO.C,X1*%
X99680000Y-71160000D02*
X99680000Y-77410000D01*
X94630000Y-71160000D02*
X94630000Y-77410000D01*
X99680000Y-71160000D02*
G75*
G03*
X94630000Y-71160000I-2525000J0D01*
G01*
X94630000Y-77410000D02*
G75*
G03*
X99680000Y-77410000I2525000J0D01*
G01*
%TO.C,IC1*%
X106580000Y-55830000D02*
X106580000Y-78810000D01*
X111880000Y-55830000D02*
X110230000Y-55830000D01*
X106580000Y-78810000D02*
X111880000Y-78810000D01*
X108230000Y-55830000D02*
X106580000Y-55830000D01*
X111880000Y-78810000D02*
X111880000Y-55830000D01*
X108230000Y-55830000D02*
G75*
G03*
X110230000Y-55830000I1000000J0D01*
G01*
%TO.C,J3*%
X127575000Y-64765000D02*
X127575000Y-63435000D01*
X127575000Y-63435000D02*
X128905000Y-63435000D01*
X127575000Y-81335000D02*
X130235000Y-81335000D01*
X127575000Y-66035000D02*
X130235000Y-66035000D01*
X127575000Y-66035000D02*
X127575000Y-81335000D01*
X130235000Y-66035000D02*
X130235000Y-81335000D01*
%TO.C,R5*%
X94290000Y-55245000D02*
X91680000Y-55245000D01*
X97030000Y-55245000D02*
G75*
G03*
X97030000Y-55245000I-1370000J0D01*
G01*
%TO.C,R3*%
X87545000Y-44450000D02*
X90155000Y-44450000D01*
X87545000Y-44450000D02*
G75*
G03*
X87545000Y-44450000I-1370000J0D01*
G01*
%TO.C,C2*%
X109000000Y-46320000D02*
X116240000Y-46320000D01*
X109000000Y-42580000D02*
X116240000Y-42580000D01*
X116240000Y-42580000D02*
X116240000Y-46320000D01*
X109000000Y-42580000D02*
X109000000Y-46320000D01*
%TO.C,R4*%
X104055000Y-44450000D02*
X106665000Y-44450000D01*
X104055000Y-44450000D02*
G75*
G03*
X104055000Y-44450000I-1370000J0D01*
G01*
%TO.C,J2*%
X122820000Y-53190000D02*
X117350000Y-53190000D01*
X122250000Y-40680000D02*
X121750000Y-40180000D01*
X130750000Y-40790000D02*
X126280000Y-40790000D01*
X130750000Y-53190000D02*
X126280000Y-53190000D01*
X117350000Y-40790000D02*
X122820000Y-40790000D01*
X117350000Y-53190000D02*
X117350000Y-40790000D01*
X130750000Y-40790000D02*
X130750000Y-53190000D01*
X122750000Y-40180000D02*
X122250000Y-40680000D01*
X121750000Y-40180000D02*
X122750000Y-40180000D01*
%TO.C,R1*%
X104055000Y-50165000D02*
X106665000Y-50165000D01*
X104055000Y-50165000D02*
G75*
G03*
X104055000Y-50165000I-1370000J0D01*
G01*
%TO.C,G\u002A\u002A\u002A*%
G36*
X92832335Y-83966527D02*
G01*
X92837414Y-83985466D01*
X92838458Y-83991446D01*
X92866590Y-84123415D01*
X92908231Y-84249660D01*
X92962255Y-84367138D01*
X93004190Y-84438462D01*
X93042475Y-84497644D01*
X93042475Y-85406787D01*
X93013834Y-85431558D01*
X92988552Y-85452902D01*
X92959804Y-85476459D01*
X92950898Y-85483595D01*
X92933701Y-85497331D01*
X92905625Y-85519827D01*
X92869317Y-85548961D01*
X92827424Y-85582607D01*
X92782593Y-85618643D01*
X92773370Y-85626060D01*
X92730303Y-85660679D01*
X92691548Y-85691793D01*
X92659245Y-85717690D01*
X92635529Y-85736657D01*
X92622539Y-85746981D01*
X92621026Y-85748157D01*
X92612847Y-85743764D01*
X92593372Y-85727643D01*
X92563388Y-85700534D01*
X92523678Y-85663179D01*
X92475026Y-85616320D01*
X92418218Y-85560697D01*
X92354038Y-85497053D01*
X92332344Y-85475386D01*
X92052774Y-85195717D01*
X92175082Y-85043898D01*
X92211335Y-84998922D01*
X92244636Y-84957653D01*
X92273196Y-84922306D01*
X92295226Y-84895094D01*
X92308936Y-84878231D01*
X92311850Y-84874686D01*
X92323433Y-84860508D01*
X92342666Y-84836712D01*
X92366363Y-84807248D01*
X92380473Y-84789647D01*
X92434637Y-84722000D01*
X92396355Y-84646444D01*
X92376361Y-84606217D01*
X92356356Y-84564696D01*
X92339746Y-84528989D01*
X92335364Y-84519176D01*
X92312653Y-84467463D01*
X92566829Y-84213178D01*
X92621554Y-84158573D01*
X92672531Y-84107987D01*
X92718445Y-84062702D01*
X92757985Y-84023999D01*
X92789836Y-83993163D01*
X92812687Y-83971474D01*
X92825224Y-83960216D01*
X92827177Y-83958893D01*
X92832335Y-83966527D01*
G37*
G36*
X95635386Y-82172344D02*
G01*
X95701412Y-82238691D01*
X95759650Y-82297914D01*
X95809359Y-82349228D01*
X95849798Y-82391850D01*
X95880226Y-82424993D01*
X95899901Y-82447875D01*
X95908081Y-82459709D01*
X95908157Y-82461026D01*
X95900559Y-82470655D01*
X95884029Y-82491371D01*
X95860523Y-82520735D01*
X95831999Y-82556313D01*
X95800413Y-82595668D01*
X95767723Y-82636363D01*
X95735885Y-82675962D01*
X95706857Y-82712029D01*
X95682595Y-82742128D01*
X95665056Y-82763821D01*
X95656763Y-82773995D01*
X95645205Y-82788179D01*
X95625996Y-82811974D01*
X95602322Y-82841426D01*
X95588303Y-82858917D01*
X95534234Y-82926447D01*
X95580728Y-83019481D01*
X95600311Y-83059476D01*
X95618017Y-83097103D01*
X95631741Y-83127804D01*
X95638810Y-83145341D01*
X95650397Y-83178166D01*
X95399038Y-83429637D01*
X95344643Y-83483923D01*
X95294023Y-83534185D01*
X95248496Y-83579133D01*
X95209381Y-83617478D01*
X95177993Y-83647931D01*
X95155652Y-83669202D01*
X95143674Y-83680003D01*
X95142041Y-83681108D01*
X95134518Y-83674224D01*
X95131134Y-83667376D01*
X95126758Y-83647365D01*
X95125865Y-83634288D01*
X95123187Y-83612138D01*
X95115934Y-83577975D01*
X95105275Y-83536170D01*
X95092381Y-83491092D01*
X95078420Y-83447113D01*
X95067529Y-83416343D01*
X95037099Y-83342207D01*
X95003524Y-83275571D01*
X94963988Y-83209904D01*
X94926207Y-83151038D01*
X94926207Y-82241895D01*
X94954847Y-82217123D01*
X94980112Y-82195779D01*
X95008846Y-82172197D01*
X95017783Y-82165018D01*
X95034658Y-82151504D01*
X95062517Y-82129119D01*
X95098834Y-82099896D01*
X95141081Y-82065870D01*
X95186733Y-82029073D01*
X95203898Y-82015230D01*
X95355717Y-81892774D01*
X95635386Y-82172344D01*
G37*
G36*
X93282492Y-84745189D02*
G01*
X93304321Y-84760119D01*
X93331311Y-84778838D01*
X93333796Y-84780574D01*
X93402943Y-84824323D01*
X93480439Y-84865821D01*
X93557436Y-84900426D01*
X93576343Y-84907745D01*
X93612061Y-84920119D01*
X93653303Y-84932990D01*
X93695759Y-84945177D01*
X93735119Y-84955502D01*
X93767073Y-84962782D01*
X93787311Y-84965837D01*
X93788532Y-84965865D01*
X93797124Y-84971842D01*
X93816736Y-84989008D01*
X93846174Y-85016216D01*
X93884240Y-85052318D01*
X93929740Y-85096168D01*
X93981477Y-85146618D01*
X94038255Y-85202520D01*
X94098880Y-85262728D01*
X94121620Y-85285441D01*
X94441108Y-85605016D01*
X94435761Y-85652204D01*
X94432565Y-85680214D01*
X94428018Y-85719812D01*
X94422772Y-85765338D01*
X94418354Y-85803562D01*
X94412285Y-85857271D01*
X94405764Y-85917060D01*
X94399756Y-85973977D01*
X94396782Y-86003220D01*
X94392394Y-86045885D01*
X94388078Y-86085518D01*
X94384417Y-86116867D01*
X94382529Y-86131261D01*
X94377791Y-86163814D01*
X93590891Y-86163814D01*
X93586152Y-86131261D01*
X93583318Y-86109030D01*
X93579415Y-86074768D01*
X93575027Y-86033727D01*
X93571925Y-86003220D01*
X93566532Y-85951312D01*
X93559977Y-85891664D01*
X93553313Y-85833753D01*
X93550207Y-85807902D01*
X93544408Y-85757843D01*
X93538754Y-85704369D01*
X93534060Y-85655404D01*
X93532034Y-85631362D01*
X93528244Y-85595393D01*
X93523417Y-85568247D01*
X93518264Y-85553545D01*
X93516493Y-85552004D01*
X93490768Y-85544254D01*
X93454974Y-85532632D01*
X93413887Y-85518787D01*
X93372284Y-85504363D01*
X93334942Y-85491008D01*
X93306637Y-85480367D01*
X93296388Y-85476151D01*
X93259495Y-85459858D01*
X93259495Y-85095158D01*
X93259591Y-85003036D01*
X93259906Y-84927002D01*
X93260478Y-84865781D01*
X93261346Y-84818100D01*
X93262548Y-84782686D01*
X93264123Y-84758265D01*
X93266110Y-84743565D01*
X93268546Y-84737310D01*
X93270346Y-84737143D01*
X93282492Y-84745189D01*
G37*
G36*
X95118051Y-84757937D02*
G01*
X95564245Y-84758347D01*
X95603309Y-84807643D01*
X95624961Y-84834886D01*
X95644167Y-84858910D01*
X95656763Y-84874508D01*
X95667877Y-84888210D01*
X95687148Y-84912100D01*
X95712640Y-84943769D01*
X95742418Y-84980806D01*
X95774547Y-85020801D01*
X95807093Y-85061344D01*
X95838121Y-85100025D01*
X95865696Y-85134434D01*
X95887883Y-85162160D01*
X95902746Y-85180794D01*
X95908157Y-85187656D01*
X95903764Y-85195835D01*
X95887643Y-85215309D01*
X95860534Y-85245294D01*
X95823179Y-85285004D01*
X95776320Y-85333655D01*
X95720697Y-85390463D01*
X95657053Y-85454643D01*
X95635386Y-85476337D01*
X95355717Y-85755908D01*
X95203898Y-85633599D01*
X95158922Y-85597347D01*
X95117653Y-85564046D01*
X95082306Y-85535486D01*
X95055094Y-85513456D01*
X95038231Y-85499745D01*
X95034686Y-85496832D01*
X95020508Y-85485249D01*
X94996712Y-85466016D01*
X94967248Y-85442318D01*
X94949647Y-85428208D01*
X94882000Y-85374045D01*
X94806444Y-85412326D01*
X94766514Y-85432184D01*
X94725580Y-85451928D01*
X94690601Y-85468220D01*
X94680820Y-85472591D01*
X94630751Y-85494575D01*
X94374007Y-85238269D01*
X94319277Y-85183448D01*
X94268722Y-85132451D01*
X94223595Y-85086568D01*
X94185146Y-85047090D01*
X94154630Y-85015304D01*
X94133297Y-84992503D01*
X94122402Y-84979976D01*
X94121269Y-84977957D01*
X94131287Y-84974624D01*
X94153511Y-84969860D01*
X94180679Y-84965102D01*
X94309993Y-84935751D01*
X94437178Y-84889530D01*
X94561033Y-84826905D01*
X94605885Y-84799601D01*
X94671858Y-84757526D01*
X95118051Y-84757937D01*
G37*
G36*
X93465479Y-83497170D02*
G01*
X93510915Y-83418627D01*
X93570703Y-83344349D01*
X93589365Y-83324742D01*
X93662627Y-83259793D01*
X93740991Y-83209972D01*
X93828082Y-83173108D01*
X93858393Y-83163691D01*
X93896888Y-83153276D01*
X93928279Y-83146919D01*
X93958898Y-83143961D01*
X93995080Y-83143736D01*
X94035094Y-83145209D01*
X94111080Y-83152002D01*
X94176180Y-83165862D01*
X94236005Y-83188449D01*
X94296167Y-83221419D01*
X94299036Y-83223214D01*
X94364465Y-83274327D01*
X94420304Y-83338467D01*
X94464966Y-83413253D01*
X94496860Y-83496304D01*
X94506162Y-83533534D01*
X94512673Y-83576089D01*
X94516166Y-83624630D01*
X94516775Y-83674999D01*
X94514633Y-83723038D01*
X94509876Y-83764590D01*
X94502636Y-83795497D01*
X94497355Y-83806905D01*
X94483086Y-83828681D01*
X93684853Y-83828681D01*
X93685158Y-83865575D01*
X93693673Y-83948333D01*
X93717001Y-84025712D01*
X93753917Y-84095660D01*
X93803197Y-84156123D01*
X93863617Y-84205049D01*
X93899920Y-84225690D01*
X93928396Y-84239478D01*
X93950778Y-84248715D01*
X93971826Y-84254312D01*
X93996302Y-84257181D01*
X94028966Y-84258233D01*
X94070685Y-84258380D01*
X94116502Y-84258056D01*
X94149514Y-84256620D01*
X94174274Y-84253375D01*
X94195332Y-84247626D01*
X94217242Y-84238676D01*
X94226023Y-84234626D01*
X94262029Y-84214771D01*
X94303747Y-84187265D01*
X94345452Y-84156290D01*
X94381418Y-84126027D01*
X94400194Y-84107417D01*
X94417853Y-84093128D01*
X94436374Y-84091219D01*
X94459019Y-84102277D01*
X94484209Y-84122542D01*
X94521888Y-84155979D01*
X94491836Y-84205656D01*
X94433496Y-84286246D01*
X94364021Y-84354289D01*
X94284735Y-84408702D01*
X94196965Y-84448405D01*
X94192349Y-84449994D01*
X94156336Y-84461109D01*
X94122676Y-84468480D01*
X94085496Y-84472992D01*
X94038925Y-84475533D01*
X94019064Y-84476126D01*
X93973101Y-84476519D01*
X93928701Y-84475520D01*
X93891441Y-84473331D01*
X93869948Y-84470755D01*
X93798983Y-84452088D01*
X93725402Y-84422187D01*
X93656505Y-84384074D01*
X93649732Y-84379647D01*
X93580831Y-84323628D01*
X93522071Y-84254762D01*
X93474009Y-84174683D01*
X93437204Y-84085020D01*
X93412215Y-83987408D01*
X93399601Y-83883477D01*
X93399920Y-83774859D01*
X93410605Y-83681108D01*
X93412564Y-83672427D01*
X93684523Y-83672427D01*
X93921240Y-83672378D01*
X93987461Y-83672044D01*
X94048483Y-83671122D01*
X94101809Y-83669695D01*
X94144943Y-83667846D01*
X94175387Y-83665656D01*
X94189617Y-83663536D01*
X94221190Y-83648391D01*
X94241398Y-83622702D01*
X94251229Y-83584768D01*
X94252557Y-83555236D01*
X94243583Y-83493517D01*
X94218921Y-83436158D01*
X94180132Y-83385575D01*
X94128782Y-83344184D01*
X94108402Y-83332458D01*
X94063130Y-83316932D01*
X94009764Y-83311305D01*
X93954386Y-83315451D01*
X93903078Y-83329245D01*
X93885764Y-83337067D01*
X93828567Y-83375970D01*
X93778713Y-83428330D01*
X93738478Y-83490999D01*
X93710141Y-83560827D01*
X93702611Y-83590233D01*
X93696280Y-83619636D01*
X93690773Y-83644802D01*
X93688962Y-83652895D01*
X93684523Y-83672427D01*
X93412564Y-83672427D01*
X93432630Y-83583491D01*
X93465479Y-83497170D01*
G37*
G36*
X92805645Y-83099591D02*
G01*
X92881680Y-83099906D01*
X92942901Y-83100478D01*
X92990582Y-83101346D01*
X93025996Y-83102548D01*
X93050416Y-83104123D01*
X93065117Y-83106110D01*
X93071371Y-83108546D01*
X93071538Y-83110346D01*
X93063493Y-83122492D01*
X93048563Y-83144321D01*
X93029843Y-83171311D01*
X93028108Y-83173796D01*
X92984358Y-83242943D01*
X92942861Y-83320439D01*
X92908255Y-83397436D01*
X92900936Y-83416343D01*
X92888563Y-83452061D01*
X92875692Y-83493303D01*
X92863504Y-83535759D01*
X92853180Y-83575119D01*
X92845900Y-83607073D01*
X92842844Y-83627311D01*
X92842816Y-83628532D01*
X92836796Y-83638052D01*
X92819674Y-83658154D01*
X92792862Y-83687439D01*
X92757772Y-83724505D01*
X92715813Y-83767954D01*
X92668396Y-83816385D01*
X92616934Y-83868400D01*
X92562836Y-83922597D01*
X92507513Y-83977578D01*
X92452377Y-84031943D01*
X92398838Y-84084292D01*
X92348307Y-84133225D01*
X92302196Y-84177343D01*
X92261914Y-84215246D01*
X92228874Y-84245534D01*
X92204485Y-84266807D01*
X92190159Y-84277666D01*
X92187373Y-84278782D01*
X92165774Y-84276805D01*
X92144013Y-84274464D01*
X92066079Y-84265458D01*
X92002492Y-84258164D01*
X91950357Y-84252261D01*
X91906779Y-84247427D01*
X91868864Y-84243340D01*
X91833716Y-84239678D01*
X91805462Y-84236820D01*
X91762797Y-84232417D01*
X91723165Y-84228088D01*
X91691816Y-84224419D01*
X91677420Y-84222529D01*
X91644867Y-84217791D01*
X91644867Y-83430891D01*
X91677420Y-83426152D01*
X91699651Y-83423318D01*
X91733914Y-83419415D01*
X91774954Y-83415027D01*
X91805462Y-83411925D01*
X91857369Y-83406532D01*
X91917018Y-83399977D01*
X91974929Y-83393313D01*
X92000780Y-83390207D01*
X92050838Y-83384408D01*
X92104312Y-83378754D01*
X92153277Y-83374060D01*
X92177320Y-83372034D01*
X92213289Y-83368244D01*
X92240435Y-83363417D01*
X92255136Y-83358264D01*
X92256677Y-83356493D01*
X92264428Y-83330768D01*
X92276049Y-83294974D01*
X92289895Y-83253887D01*
X92304318Y-83212284D01*
X92317674Y-83174942D01*
X92328315Y-83146637D01*
X92332531Y-83136388D01*
X92348824Y-83099495D01*
X92713523Y-83099495D01*
X92805645Y-83099591D01*
G37*
G36*
X94382529Y-81517420D02*
G01*
X94385364Y-81539651D01*
X94389266Y-81573914D01*
X94393654Y-81614954D01*
X94396757Y-81645462D01*
X94402149Y-81697369D01*
X94408705Y-81757018D01*
X94415369Y-81814929D01*
X94418475Y-81840780D01*
X94424273Y-81890838D01*
X94429928Y-81944312D01*
X94434622Y-81993277D01*
X94436648Y-82017320D01*
X94440438Y-82053289D01*
X94445264Y-82080435D01*
X94450418Y-82095136D01*
X94452188Y-82096677D01*
X94477913Y-82104428D01*
X94513708Y-82116049D01*
X94554794Y-82129895D01*
X94596397Y-82144318D01*
X94633739Y-82157674D01*
X94662044Y-82168315D01*
X94672294Y-82172531D01*
X94709187Y-82188824D01*
X94709187Y-82553011D01*
X94709137Y-82630622D01*
X94708994Y-82702574D01*
X94708770Y-82767074D01*
X94708473Y-82822329D01*
X94708117Y-82866546D01*
X94707710Y-82897930D01*
X94707264Y-82914690D01*
X94707017Y-82917030D01*
X94699435Y-82912347D01*
X94680792Y-82899881D01*
X94654270Y-82881776D01*
X94635400Y-82868755D01*
X94519310Y-82798675D01*
X94393706Y-82742275D01*
X94260993Y-82700608D01*
X94240424Y-82695648D01*
X94175318Y-82680563D01*
X93851944Y-82358359D01*
X93528569Y-82036154D01*
X93533419Y-81992722D01*
X93536397Y-81966377D01*
X93540754Y-81928232D01*
X93545868Y-81883732D01*
X93550327Y-81845120D01*
X93556396Y-81791411D01*
X93562918Y-81731621D01*
X93568925Y-81674705D01*
X93571900Y-81645462D01*
X93576287Y-81602796D01*
X93580603Y-81563163D01*
X93584265Y-81531815D01*
X93586152Y-81517420D01*
X93590891Y-81484867D01*
X94377791Y-81484867D01*
X94382529Y-81517420D01*
G37*
G36*
X95808143Y-83372576D02*
G01*
X95837968Y-83375882D01*
X95879141Y-83380542D01*
X95925770Y-83385885D01*
X95963562Y-83390261D01*
X96017268Y-83396358D01*
X96077055Y-83402902D01*
X96133969Y-83408922D01*
X96163220Y-83411900D01*
X96205885Y-83416287D01*
X96245518Y-83420603D01*
X96276867Y-83424265D01*
X96291261Y-83426152D01*
X96323814Y-83430891D01*
X96323814Y-84217791D01*
X96291261Y-84222529D01*
X96269030Y-84225364D01*
X96234768Y-84229266D01*
X96193727Y-84233654D01*
X96163220Y-84236757D01*
X96111312Y-84242149D01*
X96051664Y-84248705D01*
X95993753Y-84255369D01*
X95967902Y-84258475D01*
X95917843Y-84264273D01*
X95864369Y-84269928D01*
X95815404Y-84274622D01*
X95791362Y-84276648D01*
X95755411Y-84280436D01*
X95728259Y-84285262D01*
X95713536Y-84290413D01*
X95711983Y-84292188D01*
X95702236Y-84324643D01*
X95688543Y-84366966D01*
X95673054Y-84412770D01*
X95657917Y-84455666D01*
X95648156Y-84481911D01*
X95625603Y-84540506D01*
X95262884Y-84540506D01*
X95185427Y-84540415D01*
X95113625Y-84540156D01*
X95049278Y-84539748D01*
X94994183Y-84539211D01*
X94950137Y-84538563D01*
X94918940Y-84537825D01*
X94902387Y-84537016D01*
X94900164Y-84536582D01*
X94904786Y-84528113D01*
X94917032Y-84509212D01*
X94934474Y-84483602D01*
X94938742Y-84477471D01*
X94984905Y-84404605D01*
X95027866Y-84324100D01*
X95063020Y-84244711D01*
X95067745Y-84232338D01*
X95081314Y-84193143D01*
X95094879Y-84149289D01*
X95107274Y-84105114D01*
X95117337Y-84064955D01*
X95123903Y-84033149D01*
X95125865Y-84015809D01*
X95132001Y-84004983D01*
X95150443Y-83982569D01*
X95181242Y-83948513D01*
X95224450Y-83902761D01*
X95280118Y-83845258D01*
X95348298Y-83775950D01*
X95429041Y-83694783D01*
X95441379Y-83682442D01*
X95756894Y-83367016D01*
X95808143Y-83372576D01*
G37*
G36*
X92666039Y-81934436D02*
G01*
X92687745Y-81951380D01*
X92719924Y-81976852D01*
X92759637Y-82008493D01*
X92803947Y-82043943D01*
X92849915Y-82080845D01*
X92894603Y-82116837D01*
X92935074Y-82149561D01*
X92968389Y-82176657D01*
X92991609Y-82195766D01*
X92994660Y-82198318D01*
X93011377Y-82211992D01*
X93035250Y-82231099D01*
X93050881Y-82243454D01*
X93089670Y-82273942D01*
X93150710Y-82240960D01*
X93190563Y-82220444D01*
X93236624Y-82198224D01*
X93278994Y-82179075D01*
X93279406Y-82178898D01*
X93347062Y-82149817D01*
X93602765Y-82405411D01*
X93657525Y-82460287D01*
X93708271Y-82511411D01*
X93753723Y-82557474D01*
X93792603Y-82597168D01*
X93823632Y-82629185D01*
X93845533Y-82652216D01*
X93857025Y-82664953D01*
X93858469Y-82667038D01*
X93850716Y-82671601D01*
X93830983Y-82676453D01*
X93817235Y-82678664D01*
X93781307Y-82685141D01*
X93734734Y-82695772D01*
X93683279Y-82709030D01*
X93632702Y-82723387D01*
X93588765Y-82737316D01*
X93568640Y-82744578D01*
X93516897Y-82766823D01*
X93459151Y-82795198D01*
X93403039Y-82825761D01*
X93358425Y-82853083D01*
X93314123Y-82882475D01*
X92393412Y-82882475D01*
X92379990Y-82861991D01*
X92365597Y-82842040D01*
X92354957Y-82829438D01*
X92345649Y-82818665D01*
X92327724Y-82797006D01*
X92303383Y-82767155D01*
X92274828Y-82731803D01*
X92259895Y-82713199D01*
X92226581Y-82671657D01*
X92193064Y-82629937D01*
X92162702Y-82592214D01*
X92138853Y-82562662D01*
X92133627Y-82556208D01*
X92110144Y-82526827D01*
X92088527Y-82499078D01*
X92073185Y-82478627D01*
X92072374Y-82477494D01*
X92053937Y-82451602D01*
X92612775Y-81893540D01*
X92666039Y-81934436D01*
G37*
%TO.C,D3*%
X127210000Y-57785000D02*
X124800000Y-57785000D01*
X130150000Y-57785000D02*
G75*
G03*
X130150000Y-57785000I-1470000J0D01*
G01*
%TO.C,D1*%
X97590000Y-50165000D02*
X95180000Y-50165000D01*
X100530000Y-50165000D02*
G75*
G03*
X100530000Y-50165000I-1470000J0D01*
G01*
%TO.C,C4*%
X90945580Y-77345000D02*
X90664420Y-77345000D01*
X90945580Y-76325000D02*
X90664420Y-76325000D01*
%TO.C,J4*%
X83760000Y-58360000D02*
X85090000Y-58360000D01*
X83760000Y-59690000D02*
X83760000Y-58360000D01*
X86420000Y-60960000D02*
X86420000Y-63560000D01*
X83760000Y-60960000D02*
X83760000Y-63560000D01*
X83760000Y-60960000D02*
X86420000Y-60960000D01*
X83760000Y-63560000D02*
X86420000Y-63560000D01*
%TO.C,J1*%
X83760000Y-71120000D02*
X83760000Y-65980000D01*
X86420000Y-65980000D02*
X83760000Y-65980000D01*
X86420000Y-72390000D02*
X86420000Y-73720000D01*
X86420000Y-71120000D02*
X86420000Y-65980000D01*
X86420000Y-73720000D02*
X85090000Y-73720000D01*
X86420000Y-71120000D02*
X83760000Y-71120000D01*
%TO.C,R6*%
X125420000Y-60960000D02*
X128030000Y-60960000D01*
X125420000Y-60960000D02*
G75*
G03*
X125420000Y-60960000I-1370000J0D01*
G01*
%TO.C,G\u002A\u002A\u002A*%
G36*
X106641160Y-39770731D02*
G01*
X106658204Y-39733661D01*
X106685470Y-39703461D01*
X106720166Y-39681873D01*
X106733641Y-39676518D01*
X106748849Y-39672665D01*
X106768330Y-39669992D01*
X106794625Y-39668178D01*
X106830272Y-39666901D01*
X106840508Y-39666639D01*
X106932718Y-39664395D01*
X106932718Y-39628151D01*
X106930906Y-39601354D01*
X106925080Y-39583986D01*
X106921778Y-39579416D01*
X106902483Y-39565661D01*
X106875317Y-39556843D01*
X106843722Y-39552950D01*
X106811142Y-39553970D01*
X106781017Y-39559890D01*
X106756791Y-39570698D01*
X106746083Y-39580041D01*
X106740803Y-39584568D01*
X106734094Y-39584431D01*
X106723425Y-39578615D01*
X106706263Y-39566106D01*
X106700759Y-39561889D01*
X106682957Y-39547545D01*
X106669878Y-39535775D01*
X106664007Y-39528840D01*
X106663902Y-39528369D01*
X106669034Y-39518735D01*
X106682395Y-39505921D01*
X106700931Y-39492137D01*
X106721592Y-39479593D01*
X106741323Y-39470500D01*
X106745934Y-39468971D01*
X106779419Y-39462434D01*
X106819894Y-39459642D01*
X106862431Y-39460574D01*
X106902099Y-39465206D01*
X106922603Y-39469788D01*
X106955910Y-39483802D01*
X106985988Y-39505037D01*
X107009895Y-39530853D01*
X107024686Y-39558610D01*
X107025832Y-39562391D01*
X107027948Y-39576792D01*
X107029719Y-39602654D01*
X107031110Y-39638939D01*
X107032087Y-39684609D01*
X107032618Y-39738627D01*
X107032708Y-39773380D01*
X107032743Y-39959364D01*
X106932718Y-39959364D01*
X106932718Y-39920743D01*
X106913770Y-39936687D01*
X106894426Y-39949380D01*
X106873052Y-39958657D01*
X106871572Y-39959088D01*
X106840789Y-39964122D01*
X106804335Y-39964914D01*
X106768050Y-39961670D01*
X106737775Y-39954592D01*
X106737277Y-39954415D01*
X106697546Y-39934309D01*
X106666830Y-39906522D01*
X106645896Y-39872519D01*
X106635511Y-39833767D01*
X106636018Y-39810890D01*
X106732868Y-39810890D01*
X106737943Y-39835406D01*
X106752430Y-39853436D01*
X106771582Y-39862062D01*
X106789019Y-39865948D01*
X106798310Y-39868129D01*
X106816551Y-39869973D01*
X106840875Y-39869227D01*
X106866737Y-39866400D01*
X106889592Y-39862004D01*
X106904897Y-39856552D01*
X106905727Y-39856041D01*
X106921007Y-39840765D01*
X106929746Y-39818220D01*
X106932708Y-39786370D01*
X106932718Y-39783914D01*
X106932718Y-39753063D01*
X106854163Y-39753063D01*
X106811674Y-39753933D01*
X106780100Y-39757020D01*
X106757942Y-39763037D01*
X106743704Y-39772699D01*
X106735887Y-39786719D01*
X106732994Y-39805813D01*
X106732868Y-39810890D01*
X106636018Y-39810890D01*
X106636442Y-39791733D01*
X106641160Y-39770731D01*
G37*
G36*
X107516295Y-38676486D02*
G01*
X107553683Y-38684594D01*
X107581158Y-38697421D01*
X107601720Y-38710129D01*
X107589520Y-38726784D01*
X107578374Y-38741055D01*
X107563083Y-38759505D01*
X107553309Y-38770863D01*
X107529297Y-38798286D01*
X107509512Y-38788054D01*
X107484575Y-38780096D01*
X107455885Y-38778181D01*
X107428775Y-38782232D01*
X107412180Y-38789468D01*
X107401270Y-38796898D01*
X107392622Y-38804178D01*
X107385943Y-38812801D01*
X107380940Y-38824263D01*
X107377320Y-38840055D01*
X107374791Y-38861674D01*
X107373058Y-38890612D01*
X107371830Y-38928364D01*
X107370813Y-38976424D01*
X107370326Y-39002878D01*
X107367200Y-39174796D01*
X107315625Y-39176611D01*
X107264050Y-39178427D01*
X107264050Y-38677293D01*
X107315625Y-38679108D01*
X107367200Y-38680924D01*
X107370326Y-38705400D01*
X107372804Y-38720413D01*
X107375912Y-38724819D01*
X107381185Y-38720481D01*
X107381969Y-38719542D01*
X107407175Y-38698131D01*
X107439995Y-38683593D01*
X107477384Y-38676265D01*
X107516295Y-38676486D01*
G37*
G36*
X106865230Y-38849023D02*
G01*
X106865826Y-38900054D01*
X106866463Y-38940104D01*
X106867263Y-38970694D01*
X106868342Y-38993346D01*
X106869819Y-39009580D01*
X106871814Y-39020918D01*
X106874445Y-39028882D01*
X106877831Y-39034993D01*
X106879967Y-39037994D01*
X106901121Y-39061186D01*
X106923753Y-39074097D01*
X106951631Y-39078738D01*
X106956515Y-39078845D01*
X106991195Y-39074554D01*
X107018314Y-39060627D01*
X107039032Y-39036387D01*
X107043683Y-39027980D01*
X107047974Y-39019003D01*
X107051291Y-39009969D01*
X107053759Y-38999197D01*
X107055504Y-38985008D01*
X107056649Y-38965721D01*
X107057321Y-38939655D01*
X107057644Y-38905131D01*
X107057744Y-38860468D01*
X107057749Y-38839014D01*
X107057749Y-38677798D01*
X107157774Y-38677798D01*
X107157774Y-39177921D01*
X107057749Y-39177921D01*
X107057749Y-39128754D01*
X107026699Y-39149650D01*
X106985748Y-39170917D01*
X106943322Y-39181291D01*
X106901687Y-39180289D01*
X106892083Y-39178307D01*
X106848802Y-39161638D01*
X106812647Y-39134845D01*
X106784395Y-39098573D01*
X106775235Y-39081022D01*
X106771111Y-39071638D01*
X106767862Y-39062436D01*
X106765383Y-39051855D01*
X106763569Y-39038328D01*
X106762318Y-39020292D01*
X106761523Y-38996183D01*
X106761080Y-38964436D01*
X106760886Y-38923487D01*
X106760835Y-38871771D01*
X106760833Y-38865344D01*
X106760801Y-38680924D01*
X106812092Y-38679113D01*
X106863384Y-38677302D01*
X106865230Y-38849023D01*
G37*
G36*
X103676924Y-38830908D02*
G01*
X103687378Y-38795103D01*
X103703249Y-38764849D01*
X103725248Y-38737975D01*
X103734719Y-38728789D01*
X103774089Y-38700134D01*
X103817116Y-38682034D01*
X103862003Y-38674129D01*
X103906955Y-38676056D01*
X103950176Y-38687456D01*
X103989871Y-38707967D01*
X104024243Y-38737228D01*
X104051497Y-38774878D01*
X104060926Y-38794377D01*
X104068106Y-38819811D01*
X104073084Y-38854300D01*
X104075863Y-38894595D01*
X104076445Y-38937443D01*
X104074834Y-38979595D01*
X104071031Y-39017798D01*
X104065041Y-39048802D01*
X104060695Y-39061896D01*
X104038178Y-39101289D01*
X104007097Y-39134732D01*
X103970070Y-39159783D01*
X103944483Y-39170277D01*
X103907255Y-39178121D01*
X103866686Y-39180788D01*
X103831458Y-39178036D01*
X103786470Y-39163863D01*
X103745457Y-39138032D01*
X103729899Y-39124091D01*
X103706617Y-39096840D01*
X103689568Y-39066065D01*
X103678113Y-39029692D01*
X103671611Y-38985644D01*
X103669424Y-38931846D01*
X103669416Y-38927860D01*
X103772566Y-38927860D01*
X103773347Y-38968214D01*
X103776187Y-38998524D01*
X103781830Y-39021180D01*
X103791023Y-39038574D01*
X103804509Y-39053094D01*
X103813969Y-39060678D01*
X103841617Y-39074083D01*
X103874090Y-39078697D01*
X103907301Y-39074496D01*
X103937158Y-39061454D01*
X103937193Y-39061431D01*
X103952929Y-39046791D01*
X103964182Y-39025494D01*
X103971390Y-38996015D01*
X103974991Y-38956827D01*
X103975604Y-38927622D01*
X103975359Y-38894832D01*
X103974189Y-38871421D01*
X103971657Y-38854273D01*
X103967328Y-38840271D01*
X103961675Y-38828059D01*
X103942162Y-38802171D01*
X103916431Y-38785271D01*
X103886961Y-38777361D01*
X103856228Y-38778446D01*
X103826709Y-38788528D01*
X103800882Y-38807609D01*
X103785407Y-38827856D01*
X103779893Y-38838818D01*
X103776198Y-38851236D01*
X103773976Y-38867807D01*
X103772882Y-38891228D01*
X103772568Y-38924198D01*
X103772566Y-38927860D01*
X103669416Y-38927860D01*
X103671174Y-38874437D01*
X103676924Y-38830908D01*
G37*
G36*
X104263312Y-38677798D02*
G01*
X104263312Y-38726965D01*
X104294362Y-38706070D01*
X104334543Y-38685547D01*
X104376145Y-38675892D01*
X104417346Y-38676514D01*
X104456328Y-38686821D01*
X104491270Y-38706222D01*
X104520352Y-38734125D01*
X104541756Y-38769939D01*
X104548452Y-38788668D01*
X104552827Y-38811517D01*
X104555986Y-38843754D01*
X104557928Y-38882334D01*
X104558651Y-38924209D01*
X104558156Y-38966333D01*
X104556441Y-39005661D01*
X104553505Y-39039146D01*
X104549348Y-39063742D01*
X104548536Y-39066763D01*
X104531086Y-39105746D01*
X104504496Y-39137870D01*
X104470758Y-39161972D01*
X104431864Y-39176887D01*
X104389806Y-39181451D01*
X104358771Y-39177693D01*
X104336560Y-39170327D01*
X104311338Y-39158433D01*
X104296132Y-39149443D01*
X104263312Y-39127781D01*
X104263312Y-39318886D01*
X104263410Y-39374612D01*
X104263734Y-39418893D01*
X104264329Y-39452785D01*
X104265239Y-39477346D01*
X104266508Y-39493631D01*
X104268180Y-39502698D01*
X104270299Y-39505602D01*
X104271126Y-39505376D01*
X104281225Y-39498746D01*
X104295666Y-39488586D01*
X104297695Y-39487116D01*
X104333462Y-39468430D01*
X104373609Y-39459657D01*
X104415208Y-39460566D01*
X104455329Y-39470927D01*
X104491044Y-39490508D01*
X104506206Y-39503557D01*
X104518897Y-39516460D01*
X104529116Y-39528126D01*
X104537145Y-39540054D01*
X104543265Y-39553744D01*
X104547760Y-39570694D01*
X104550912Y-39592404D01*
X104553002Y-39620373D01*
X104554314Y-39656100D01*
X104555129Y-39701085D01*
X104555729Y-39756827D01*
X104555827Y-39767129D01*
X104557646Y-39959364D01*
X104457109Y-39959364D01*
X104457100Y-39795261D01*
X104456966Y-39740995D01*
X104456397Y-39697721D01*
X104455127Y-39663927D01*
X104452893Y-39638103D01*
X104449429Y-39618738D01*
X104444472Y-39604322D01*
X104437756Y-39593344D01*
X104429018Y-39584294D01*
X104418751Y-39576214D01*
X104391380Y-39563325D01*
X104360479Y-39560062D01*
X104329488Y-39565771D01*
X104301851Y-39579799D01*
X104281008Y-39601494D01*
X104280397Y-39602461D01*
X104276203Y-39609706D01*
X104272920Y-39617412D01*
X104270413Y-39627172D01*
X104268549Y-39640577D01*
X104267195Y-39659222D01*
X104266217Y-39684697D01*
X104265481Y-39718597D01*
X104264855Y-39762512D01*
X104264502Y-39792135D01*
X104262566Y-39959364D01*
X104163287Y-39959364D01*
X104163287Y-38940623D01*
X104262912Y-38940623D01*
X104266243Y-38980414D01*
X104274033Y-39016046D01*
X104286301Y-39044379D01*
X104292296Y-39052764D01*
X104312881Y-39068372D01*
X104340349Y-39077293D01*
X104370777Y-39079127D01*
X104400244Y-39073480D01*
X104417309Y-39065429D01*
X104430924Y-39055073D01*
X104440790Y-39042347D01*
X104447468Y-39025193D01*
X104451518Y-39001556D01*
X104453502Y-38969380D01*
X104453984Y-38930986D01*
X104453699Y-38893724D01*
X104452677Y-38866514D01*
X104450669Y-38846916D01*
X104447425Y-38832489D01*
X104442714Y-38820828D01*
X104426298Y-38797914D01*
X104403605Y-38784064D01*
X104373142Y-38778596D01*
X104350847Y-38779032D01*
X104328125Y-38781336D01*
X104313522Y-38785372D01*
X104302655Y-38792959D01*
X104293800Y-38802694D01*
X104279484Y-38827709D01*
X104269551Y-38861130D01*
X104264021Y-38899815D01*
X104262912Y-38940623D01*
X104163287Y-38940623D01*
X104163287Y-38677798D01*
X104263312Y-38677798D01*
G37*
G36*
X105423604Y-39469084D02*
G01*
X105437038Y-39474643D01*
X105454721Y-39483697D01*
X105466637Y-39491371D01*
X105469859Y-39495103D01*
X105466110Y-39501956D01*
X105456104Y-39515800D01*
X105441699Y-39534116D01*
X105435211Y-39542025D01*
X105400564Y-39583766D01*
X105380510Y-39571539D01*
X105351073Y-39560323D01*
X105320339Y-39560030D01*
X105291211Y-39569808D01*
X105266596Y-39588807D01*
X105252618Y-39609039D01*
X105248326Y-39618062D01*
X105245009Y-39627136D01*
X105242541Y-39637943D01*
X105240797Y-39652165D01*
X105239651Y-39671483D01*
X105238980Y-39697579D01*
X105238657Y-39732135D01*
X105238557Y-39776833D01*
X105238552Y-39798148D01*
X105238552Y-39959364D01*
X105138527Y-39959364D01*
X105138527Y-39465492D01*
X105238552Y-39465492D01*
X105238552Y-39516479D01*
X105263510Y-39495115D01*
X105298677Y-39472909D01*
X105338812Y-39460965D01*
X105381320Y-39459588D01*
X105423604Y-39469084D01*
G37*
G36*
X107830509Y-38673847D02*
G01*
X107854168Y-38677973D01*
X107864236Y-38680443D01*
X107904930Y-38694886D01*
X107943014Y-38715751D01*
X107973813Y-38740425D01*
X107976551Y-38743254D01*
X107986071Y-38754261D01*
X107987440Y-38761479D01*
X107981160Y-38770144D01*
X107979316Y-38772195D01*
X107966847Y-38784426D01*
X107950083Y-38799039D01*
X107944342Y-38803697D01*
X107921336Y-38821942D01*
X107892527Y-38801636D01*
X107873529Y-38789754D01*
X107855578Y-38783086D01*
X107833017Y-38779829D01*
X107821761Y-38779096D01*
X107781789Y-38780986D01*
X107749968Y-38791800D01*
X107725104Y-38812155D01*
X107708468Y-38837574D01*
X107700785Y-38854631D01*
X107696075Y-38871228D01*
X107693651Y-38891334D01*
X107692823Y-38918915D01*
X107692784Y-38927860D01*
X107693284Y-38958618D01*
X107695301Y-38980822D01*
X107699469Y-38998391D01*
X107706424Y-39015244D01*
X107707192Y-39016825D01*
X107727541Y-39045264D01*
X107755235Y-39065349D01*
X107787967Y-39076672D01*
X107823431Y-39078831D01*
X107859322Y-39071417D01*
X107893332Y-39054027D01*
X107898273Y-39050423D01*
X107920728Y-39033296D01*
X107944038Y-39051782D01*
X107961005Y-39066044D01*
X107975622Y-39079658D01*
X107979257Y-39083459D01*
X107987232Y-39093513D01*
X107986684Y-39100808D01*
X107979257Y-39109882D01*
X107954455Y-39131747D01*
X107922092Y-39152273D01*
X107887013Y-39168538D01*
X107875201Y-39172619D01*
X107846901Y-39180074D01*
X107821670Y-39182908D01*
X107793978Y-39181394D01*
X107769997Y-39177867D01*
X107732084Y-39166771D01*
X107693798Y-39147577D01*
X107660687Y-39123200D01*
X107654283Y-39117062D01*
X107627355Y-39081354D01*
X107607320Y-39037106D01*
X107594743Y-38986558D01*
X107590187Y-38931952D01*
X107593978Y-38877132D01*
X107607010Y-38820468D01*
X107628298Y-38773168D01*
X107657973Y-38735091D01*
X107696166Y-38706097D01*
X107743008Y-38686047D01*
X107781129Y-38677238D01*
X107808430Y-38673690D01*
X107830509Y-38673847D01*
G37*
G36*
X108025994Y-38846537D02*
G01*
X108043106Y-38793495D01*
X108068239Y-38749780D01*
X108101169Y-38715633D01*
X108141671Y-38691291D01*
X108184267Y-38677995D01*
X108233392Y-38674200D01*
X108281096Y-38682477D01*
X108325916Y-38702394D01*
X108363516Y-38730789D01*
X108387249Y-38756071D01*
X108404270Y-38782451D01*
X108415639Y-38812731D01*
X108422417Y-38849718D01*
X108425622Y-38895039D01*
X108428186Y-38965369D01*
X108120511Y-38965369D01*
X108120511Y-38982799D01*
X108124703Y-39004144D01*
X108135490Y-39028823D01*
X108150184Y-39051790D01*
X108165750Y-39067748D01*
X108185254Y-39076555D01*
X108212149Y-39081956D01*
X108241681Y-39083513D01*
X108269095Y-39080786D01*
X108278955Y-39078217D01*
X108299103Y-39069624D01*
X108320265Y-39057850D01*
X108323816Y-39055524D01*
X108346443Y-39040169D01*
X108380388Y-39069170D01*
X108397093Y-39084098D01*
X108409211Y-39096179D01*
X108414302Y-39102966D01*
X108414333Y-39103207D01*
X108409910Y-39109868D01*
X108398731Y-39120882D01*
X108392250Y-39126447D01*
X108346918Y-39155941D01*
X108296452Y-39174787D01*
X108243105Y-39182426D01*
X108189130Y-39178295D01*
X108186152Y-39177708D01*
X108137788Y-39162074D01*
X108097048Y-39136624D01*
X108064298Y-39101724D01*
X108039903Y-39057741D01*
X108027300Y-39018969D01*
X108023012Y-38992379D01*
X108020549Y-38958025D01*
X108019946Y-38920519D01*
X108021238Y-38884472D01*
X108021278Y-38884099D01*
X108120511Y-38884099D01*
X108328203Y-38884099D01*
X108323909Y-38860656D01*
X108312114Y-38824713D01*
X108292028Y-38797311D01*
X108264667Y-38779359D01*
X108231051Y-38771768D01*
X108224202Y-38771571D01*
X108195697Y-38774620D01*
X108171480Y-38782698D01*
X108170581Y-38783170D01*
X108151437Y-38798933D01*
X108134765Y-38822124D01*
X108123550Y-38847786D01*
X108120511Y-38866328D01*
X108120511Y-38884099D01*
X108021278Y-38884099D01*
X108024460Y-38854494D01*
X108025994Y-38846537D01*
G37*
G36*
X106033993Y-38675866D02*
G01*
X106069637Y-38681275D01*
X106102668Y-38688958D01*
X106125464Y-38696902D01*
X106149117Y-38708462D01*
X106170322Y-38720807D01*
X106186357Y-38732151D01*
X106194498Y-38740712D01*
X106194994Y-38742442D01*
X106191224Y-38749483D01*
X106181270Y-38763032D01*
X106167238Y-38780233D01*
X106166362Y-38781261D01*
X106137687Y-38814826D01*
X106102984Y-38795241D01*
X106072154Y-38782083D01*
X106037288Y-38773912D01*
X106002299Y-38771109D01*
X105971099Y-38774058D01*
X105952074Y-38780511D01*
X105932593Y-38795755D01*
X105922470Y-38814678D01*
X105921969Y-38834409D01*
X105931354Y-38852077D01*
X105944585Y-38862017D01*
X105959993Y-38867231D01*
X105982941Y-38871876D01*
X106008470Y-38874950D01*
X106008572Y-38874958D01*
X106060511Y-38880225D01*
X106101705Y-38887565D01*
X106133838Y-38897699D01*
X106158596Y-38911351D01*
X106177663Y-38929241D01*
X106192725Y-38952092D01*
X106193924Y-38954383D01*
X106205066Y-38986406D01*
X106209401Y-39022819D01*
X106206763Y-39058604D01*
X106198302Y-39086098D01*
X106176979Y-39117060D01*
X106145943Y-39142812D01*
X106107152Y-39162634D01*
X106062563Y-39175800D01*
X106014133Y-39181589D01*
X105963821Y-39179276D01*
X105951227Y-39177356D01*
X105926655Y-39171252D01*
X105898134Y-39161572D01*
X105877164Y-39152800D01*
X105854295Y-39140956D01*
X105831422Y-39127200D01*
X105811168Y-39113355D01*
X105796159Y-39101242D01*
X105789020Y-39092685D01*
X105788766Y-39091437D01*
X105793172Y-39085578D01*
X105804719Y-39073995D01*
X105821020Y-39059063D01*
X105823092Y-39057239D01*
X105857338Y-39027204D01*
X105885459Y-39046552D01*
X105923532Y-39068264D01*
X105962364Y-39080304D01*
X106006777Y-39084144D01*
X106008478Y-39084148D01*
X106049015Y-39081206D01*
X106078687Y-39072297D01*
X106097679Y-39057300D01*
X106106179Y-39036094D01*
X106106327Y-39020399D01*
X106102565Y-39005105D01*
X106093649Y-38993542D01*
X106077918Y-38984940D01*
X106053711Y-38978525D01*
X106019366Y-38973527D01*
X106001439Y-38971656D01*
X105950491Y-38964892D01*
X105910236Y-38955022D01*
X105879083Y-38941253D01*
X105855437Y-38922793D01*
X105837707Y-38898849D01*
X105831760Y-38887225D01*
X105824509Y-38864819D01*
X105820411Y-38839215D01*
X105820082Y-38831686D01*
X105825006Y-38787007D01*
X105840189Y-38749461D01*
X105865596Y-38719083D01*
X105901194Y-38695908D01*
X105946948Y-38679969D01*
X105973966Y-38674672D01*
X106000511Y-38673432D01*
X106033993Y-38675866D01*
G37*
G36*
X105479236Y-39715554D02*
G01*
X105479534Y-39664432D01*
X105480735Y-39623955D01*
X105483295Y-39592270D01*
X105487671Y-39567528D01*
X105494322Y-39547877D01*
X105503704Y-39531465D01*
X105516274Y-39516443D01*
X105532188Y-39501230D01*
X105563730Y-39477925D01*
X105597105Y-39464481D01*
X105636283Y-39459433D01*
X105645627Y-39459302D01*
X105673083Y-39462443D01*
X105702133Y-39470674D01*
X105728405Y-39482342D01*
X105747526Y-39495796D01*
X105750380Y-39498881D01*
X105759540Y-39507273D01*
X105764314Y-39509253D01*
X105766033Y-39503315D01*
X105767695Y-39486758D01*
X105769193Y-39461464D01*
X105770420Y-39429317D01*
X105771268Y-39392201D01*
X105771363Y-39385785D01*
X105773058Y-39262317D01*
X105821508Y-39260491D01*
X105869957Y-39258665D01*
X105869957Y-39959364D01*
X105769932Y-39959364D01*
X105769932Y-39937483D01*
X105768274Y-39921086D01*
X105762775Y-39916470D01*
X105752648Y-39923290D01*
X105748171Y-39927975D01*
X105731795Y-39940019D01*
X105707305Y-39951148D01*
X105679078Y-39959859D01*
X105651487Y-39964651D01*
X105639978Y-39965122D01*
X105615154Y-39962683D01*
X105590202Y-39957243D01*
X105584795Y-39955505D01*
X105551657Y-39938135D01*
X105521302Y-39912005D01*
X105497805Y-39880791D01*
X105493851Y-39873388D01*
X105488907Y-39862724D01*
X105485223Y-39852291D01*
X105482615Y-39840095D01*
X105480897Y-39824143D01*
X105479886Y-39802442D01*
X105479396Y-39772999D01*
X105479278Y-39742486D01*
X105577056Y-39742486D01*
X105581603Y-39784552D01*
X105591300Y-39816685D01*
X105606431Y-39839740D01*
X105627281Y-39854566D01*
X105633451Y-39857097D01*
X105666227Y-39864449D01*
X105697004Y-39860832D01*
X105717365Y-39852811D01*
X105735363Y-39842296D01*
X105748519Y-39829413D01*
X105757537Y-39812164D01*
X105763121Y-39788550D01*
X105765976Y-39756573D01*
X105766804Y-39714233D01*
X105766805Y-39712428D01*
X105766546Y-39677439D01*
X105765547Y-39652222D01*
X105763476Y-39634052D01*
X105760003Y-39620206D01*
X105754794Y-39607958D01*
X105753875Y-39606152D01*
X105735249Y-39582231D01*
X105710259Y-39566665D01*
X105681662Y-39559486D01*
X105652212Y-39560724D01*
X105624665Y-39570411D01*
X105601776Y-39588578D01*
X105591028Y-39604312D01*
X105584445Y-39623902D01*
X105579862Y-39654000D01*
X105577372Y-39689638D01*
X105577056Y-39742486D01*
X105479278Y-39742486D01*
X105479244Y-39733820D01*
X105479236Y-39715554D01*
G37*
G36*
X106270506Y-38869460D02*
G01*
X106275502Y-38830000D01*
X106283405Y-38798404D01*
X106285555Y-38792796D01*
X106308754Y-38752152D01*
X106339843Y-38719667D01*
X106377002Y-38695621D01*
X106418414Y-38680294D01*
X106462257Y-38673968D01*
X106506715Y-38676922D01*
X106549966Y-38689438D01*
X106590192Y-38711796D01*
X106622529Y-38740813D01*
X106640421Y-38762655D01*
X106653676Y-38784350D01*
X106662932Y-38808289D01*
X106668824Y-38836867D01*
X106671988Y-38872476D01*
X106673061Y-38917509D01*
X106673076Y-38930986D01*
X106672784Y-38968881D01*
X106671898Y-38996993D01*
X106670118Y-39018039D01*
X106667143Y-39034735D01*
X106662674Y-39049799D01*
X106658811Y-39060035D01*
X106640370Y-39093013D01*
X106613392Y-39124539D01*
X106581615Y-39150797D01*
X106555858Y-39165182D01*
X106521214Y-39175546D01*
X106480970Y-39180441D01*
X106441045Y-39179265D01*
X106431256Y-39177858D01*
X106385169Y-39163832D01*
X106344489Y-39139331D01*
X106311048Y-39105762D01*
X106288063Y-39067669D01*
X106278981Y-39039055D01*
X106272654Y-39001582D01*
X106269112Y-38958596D01*
X106268614Y-38927622D01*
X106370217Y-38927622D01*
X106371648Y-38973243D01*
X106376290Y-39008237D01*
X106384962Y-39034248D01*
X106398484Y-39052919D01*
X106417675Y-39065895D01*
X106443355Y-39074820D01*
X106443593Y-39074881D01*
X106480133Y-39078735D01*
X106513176Y-39071316D01*
X106532136Y-39060466D01*
X106548187Y-39046558D01*
X106559564Y-39031017D01*
X106567008Y-39011462D01*
X106571256Y-38985510D01*
X106573048Y-38950778D01*
X106573255Y-38927860D01*
X106572996Y-38893861D01*
X106571989Y-38869662D01*
X106569888Y-38852566D01*
X106566345Y-38839874D01*
X106561015Y-38828891D01*
X106560414Y-38827856D01*
X106537888Y-38800289D01*
X106509170Y-38783568D01*
X106474487Y-38777825D01*
X106473771Y-38777823D01*
X106437643Y-38782473D01*
X106409344Y-38796670D01*
X106388209Y-38820788D01*
X106384146Y-38828059D01*
X106377871Y-38841870D01*
X106373778Y-38856081D01*
X106371430Y-38873809D01*
X106370393Y-38898170D01*
X106370217Y-38927622D01*
X106268614Y-38927622D01*
X106268386Y-38913440D01*
X106270506Y-38869460D01*
G37*
G36*
X107433657Y-39470579D02*
G01*
X107469685Y-39489426D01*
X107472377Y-39494283D01*
X107469490Y-39502879D01*
X107460049Y-39516992D01*
X107443080Y-39538397D01*
X107442301Y-39539346D01*
X107406206Y-39583221D01*
X107381728Y-39570462D01*
X107350401Y-39560525D01*
X107318879Y-39561753D01*
X107289887Y-39573292D01*
X107266153Y-39594290D01*
X107256245Y-39609722D01*
X107252882Y-39617595D01*
X107250277Y-39627474D01*
X107248335Y-39640944D01*
X107246964Y-39659591D01*
X107246070Y-39685000D01*
X107245559Y-39718757D01*
X107245338Y-39762446D01*
X107245305Y-39795261D01*
X107245295Y-39959364D01*
X107145271Y-39959364D01*
X107145271Y-39465492D01*
X107245295Y-39465492D01*
X107245295Y-39509889D01*
X107267163Y-39493210D01*
X107305140Y-39471756D01*
X107347323Y-39460800D01*
X107391050Y-39460391D01*
X107433657Y-39470579D01*
G37*
G36*
X104652894Y-38794101D02*
G01*
X104674798Y-38753073D01*
X104695152Y-38728288D01*
X104731052Y-38700782D01*
X104772372Y-38683143D01*
X104816907Y-38675332D01*
X104862448Y-38677312D01*
X104906787Y-38689044D01*
X104947717Y-38710489D01*
X104975090Y-38733165D01*
X105001648Y-38765759D01*
X105020600Y-38803594D01*
X105032514Y-38848407D01*
X105037960Y-38901930D01*
X105038455Y-38926297D01*
X105038502Y-38965369D01*
X104725359Y-38965369D01*
X104729532Y-38988812D01*
X104740862Y-39024670D01*
X104760116Y-39053031D01*
X104785314Y-39071645D01*
X104821809Y-39082639D01*
X104861307Y-39082834D01*
X104901179Y-39072592D01*
X104938796Y-39052275D01*
X104941864Y-39050052D01*
X104949121Y-39045788D01*
X104956438Y-39045842D01*
X104966584Y-39051362D01*
X104982330Y-39063494D01*
X104990488Y-39070185D01*
X105026349Y-39099777D01*
X104997857Y-39125966D01*
X104975872Y-39143007D01*
X104950673Y-39158062D01*
X104936701Y-39164376D01*
X104901580Y-39174114D01*
X104861941Y-39179766D01*
X104823307Y-39180811D01*
X104795516Y-39177715D01*
X104752452Y-39163874D01*
X104713373Y-39141949D01*
X104690209Y-39122443D01*
X104664244Y-39087730D01*
X104645207Y-39045000D01*
X104633068Y-38996625D01*
X104627797Y-38944975D01*
X104629364Y-38892424D01*
X104630729Y-38884099D01*
X104726238Y-38884099D01*
X104932226Y-38884099D01*
X104932226Y-38866328D01*
X104927339Y-38842179D01*
X104914667Y-38816635D01*
X104897195Y-38794653D01*
X104882156Y-38783170D01*
X104853414Y-38773494D01*
X104821499Y-38771741D01*
X104791371Y-38777794D01*
X104775299Y-38785720D01*
X104753016Y-38807597D01*
X104736796Y-38838361D01*
X104729906Y-38863781D01*
X104726238Y-38884099D01*
X104630729Y-38884099D01*
X104637740Y-38841342D01*
X104652894Y-38794101D01*
G37*
G36*
X104644497Y-39752197D02*
G01*
X104662051Y-39720966D01*
X104673538Y-39708071D01*
X104690312Y-39694137D01*
X104708137Y-39683814D01*
X104729320Y-39676508D01*
X104756170Y-39671623D01*
X104790996Y-39668565D01*
X104833765Y-39666805D01*
X104925975Y-39664179D01*
X104925975Y-39630065D01*
X104924762Y-39608354D01*
X104921660Y-39590205D01*
X104919220Y-39583331D01*
X104905268Y-39569349D01*
X104881852Y-39559125D01*
X104851706Y-39553657D01*
X104836310Y-39553014D01*
X104801413Y-39554474D01*
X104775847Y-39559342D01*
X104756730Y-39568351D01*
X104747723Y-39575518D01*
X104731834Y-39590244D01*
X104694496Y-39561248D01*
X104676604Y-39546767D01*
X104663389Y-39534955D01*
X104657307Y-39528031D01*
X104657159Y-39527491D01*
X104661539Y-39521123D01*
X104672830Y-39509729D01*
X104683560Y-39500132D01*
X104709909Y-39481543D01*
X104739575Y-39469034D01*
X104774985Y-39462008D01*
X104818568Y-39459870D01*
X104844980Y-39460479D01*
X104877514Y-39462268D01*
X104901330Y-39464986D01*
X104920213Y-39469373D01*
X104937947Y-39476171D01*
X104947099Y-39480477D01*
X104981718Y-39502763D01*
X105006557Y-39531681D01*
X105020002Y-39559265D01*
X105022708Y-39570811D01*
X105024988Y-39590444D01*
X105026887Y-39619040D01*
X105028452Y-39657473D01*
X105029725Y-39706620D01*
X105030753Y-39767355D01*
X105030792Y-39770255D01*
X105033349Y-39959364D01*
X104925975Y-39959364D01*
X104925975Y-39920743D01*
X104907026Y-39936687D01*
X104887683Y-39949380D01*
X104866309Y-39958657D01*
X104864828Y-39959088D01*
X104835599Y-39963875D01*
X104800582Y-39964812D01*
X104765842Y-39962020D01*
X104740455Y-39956616D01*
X104700089Y-39938586D01*
X104667420Y-39912802D01*
X104644078Y-39880757D01*
X104635723Y-39860740D01*
X104630322Y-39826167D01*
X104631501Y-39812599D01*
X104726257Y-39812599D01*
X104733156Y-39833733D01*
X104748535Y-39851711D01*
X104771359Y-39863911D01*
X104779418Y-39866036D01*
X104798672Y-39868214D01*
X104824293Y-39868796D01*
X104851829Y-39867946D01*
X104876831Y-39865827D01*
X104894845Y-39862600D01*
X104897549Y-39861712D01*
X104910665Y-39850439D01*
X104920275Y-39829494D01*
X104925396Y-39801452D01*
X104925975Y-39787272D01*
X104925975Y-39752094D01*
X104842063Y-39754141D01*
X104807897Y-39755111D01*
X104783852Y-39756340D01*
X104767551Y-39758238D01*
X104756613Y-39761213D01*
X104748659Y-39765676D01*
X104742039Y-39771344D01*
X104728873Y-39790929D01*
X104726257Y-39812599D01*
X104631501Y-39812599D01*
X104633583Y-39788625D01*
X104644497Y-39752197D01*
G37*
G36*
X105379442Y-38677882D02*
G01*
X105415102Y-38688112D01*
X105422972Y-38691819D01*
X105457855Y-38714184D01*
X105483806Y-38742025D01*
X105502344Y-38774697D01*
X105506470Y-38784130D01*
X105509745Y-38793541D01*
X105512289Y-38804486D01*
X105514218Y-38818524D01*
X105515651Y-38837211D01*
X105516704Y-38862104D01*
X105517497Y-38894759D01*
X105518146Y-38936735D01*
X105518770Y-38989587D01*
X105518799Y-38992199D01*
X105520853Y-39178443D01*
X105468787Y-39176619D01*
X105416720Y-39174796D01*
X105413595Y-39006004D01*
X105412575Y-38954895D01*
X105411549Y-38914741D01*
X105410394Y-38883997D01*
X105408989Y-38861116D01*
X105407209Y-38844551D01*
X105404933Y-38832755D01*
X105402038Y-38824182D01*
X105398681Y-38817742D01*
X105378871Y-38794841D01*
X105352501Y-38781765D01*
X105320109Y-38777823D01*
X105286441Y-38781614D01*
X105260657Y-38793786D01*
X105240404Y-38815537D01*
X105237592Y-38819869D01*
X105233193Y-38827343D01*
X105229752Y-38834994D01*
X105227127Y-38844420D01*
X105225179Y-38857222D01*
X105223768Y-38875000D01*
X105222755Y-38899355D01*
X105221999Y-38931886D01*
X105221361Y-38974193D01*
X105220906Y-39010693D01*
X105218890Y-39177921D01*
X105119772Y-39177921D01*
X105119772Y-38677798D01*
X105219797Y-38677798D01*
X105219797Y-38702804D01*
X105221096Y-38720629D01*
X105225851Y-38726696D01*
X105235349Y-38721500D01*
X105244655Y-38712339D01*
X105270534Y-38693183D01*
X105303838Y-38680800D01*
X105341247Y-38675572D01*
X105379442Y-38677882D01*
G37*
G36*
X107513023Y-39560243D02*
G01*
X107540117Y-39520736D01*
X107574701Y-39490773D01*
X107616421Y-39470742D01*
X107664924Y-39461027D01*
X107671192Y-39460572D01*
X107723552Y-39462762D01*
X107769924Y-39475766D01*
X107809865Y-39499336D01*
X107842934Y-39533225D01*
X107864860Y-39569040D01*
X107873994Y-39588609D01*
X107880105Y-39605495D01*
X107883949Y-39623369D01*
X107886280Y-39645901D01*
X107887853Y-39676763D01*
X107888051Y-39681836D01*
X107890777Y-39753063D01*
X107581232Y-39753063D01*
X107584723Y-39779091D01*
X107594956Y-39810845D01*
X107615246Y-39837784D01*
X107643449Y-39857814D01*
X107676567Y-39868702D01*
X107704311Y-39868929D01*
X107736054Y-39862553D01*
X107766300Y-39851108D01*
X107787837Y-39837629D01*
X107806080Y-39822278D01*
X107839828Y-39850952D01*
X107856777Y-39865762D01*
X107869471Y-39877625D01*
X107875301Y-39884097D01*
X107875374Y-39884256D01*
X107872209Y-39891774D01*
X107860698Y-39903394D01*
X107843413Y-39917124D01*
X107822925Y-39930974D01*
X107801807Y-39942955D01*
X107795716Y-39945895D01*
X107764620Y-39956135D01*
X107727094Y-39962480D01*
X107687902Y-39964604D01*
X107651808Y-39962181D01*
X107629765Y-39957229D01*
X107589568Y-39940912D01*
X107558273Y-39920475D01*
X107532364Y-39893242D01*
X107517506Y-39871842D01*
X107498988Y-39832828D01*
X107486521Y-39785463D01*
X107480588Y-39732588D01*
X107481669Y-39677044D01*
X107482715Y-39666349D01*
X107482871Y-39665541D01*
X107581232Y-39665541D01*
X107788867Y-39665541D01*
X107784995Y-39645224D01*
X107772943Y-39608287D01*
X107753100Y-39580292D01*
X107726408Y-39562018D01*
X107693808Y-39554240D01*
X107675083Y-39554577D01*
X107640879Y-39563467D01*
X107613280Y-39582012D01*
X107593919Y-39608679D01*
X107584723Y-39639513D01*
X107581232Y-39665541D01*
X107482871Y-39665541D01*
X107493771Y-39608909D01*
X107513023Y-39560243D01*
G37*
G36*
X106110147Y-34964406D02*
G01*
X106160844Y-34964508D01*
X106201396Y-34964748D01*
X106232982Y-34965181D01*
X106256781Y-34965864D01*
X106273972Y-34966854D01*
X106285734Y-34968207D01*
X106293246Y-34969980D01*
X106297686Y-34972228D01*
X106300235Y-34975010D01*
X106301108Y-34976505D01*
X106303678Y-34985210D01*
X106308204Y-35004795D01*
X106314398Y-35033839D01*
X106321971Y-35070921D01*
X106330633Y-35114621D01*
X106340095Y-35163520D01*
X106350068Y-35216196D01*
X106351715Y-35225004D01*
X106361763Y-35277967D01*
X106371416Y-35327209D01*
X106380379Y-35371339D01*
X106388355Y-35408968D01*
X106395050Y-35438705D01*
X106400165Y-35459161D01*
X106403407Y-35468946D01*
X106403759Y-35469457D01*
X106412050Y-35474406D01*
X106430149Y-35483103D01*
X106456202Y-35494788D01*
X106488352Y-35508700D01*
X106524746Y-35524079D01*
X106563530Y-35540166D01*
X106602848Y-35556200D01*
X106640846Y-35571422D01*
X106675669Y-35585071D01*
X106705463Y-35596387D01*
X106728374Y-35604611D01*
X106742546Y-35608981D01*
X106745449Y-35609485D01*
X106754327Y-35606783D01*
X106771018Y-35598093D01*
X106795931Y-35583158D01*
X106829477Y-35561719D01*
X106872064Y-35533517D01*
X106924103Y-35498294D01*
X106954329Y-35477601D01*
X107006697Y-35441641D01*
X107049738Y-35412134D01*
X107084437Y-35388465D01*
X107111782Y-35370019D01*
X107132759Y-35356181D01*
X107148353Y-35346336D01*
X107159552Y-35339870D01*
X107167342Y-35336169D01*
X107172709Y-35334616D01*
X107176639Y-35334597D01*
X107180120Y-35335499D01*
X107181570Y-35335967D01*
X107189560Y-35341500D01*
X107204784Y-35354775D01*
X107226068Y-35374596D01*
X107252237Y-35399767D01*
X107282115Y-35429092D01*
X107314527Y-35461373D01*
X107348298Y-35495415D01*
X107382254Y-35530023D01*
X107415218Y-35563999D01*
X107446015Y-35596147D01*
X107473472Y-35625271D01*
X107496411Y-35650176D01*
X107513659Y-35669664D01*
X107524040Y-35682539D01*
X107526615Y-35687199D01*
X107523175Y-35695076D01*
X107513375Y-35712008D01*
X107497993Y-35736784D01*
X107477809Y-35768195D01*
X107453600Y-35805031D01*
X107426147Y-35846082D01*
X107396227Y-35890138D01*
X107392207Y-35896009D01*
X107351854Y-35955317D01*
X107318586Y-36005165D01*
X107292476Y-36045440D01*
X107273595Y-36076026D01*
X107262018Y-36096809D01*
X107257815Y-36107674D01*
X107257798Y-36108039D01*
X107260265Y-36119109D01*
X107267147Y-36139451D01*
X107277667Y-36167271D01*
X107291049Y-36200776D01*
X107306517Y-36238174D01*
X107323294Y-36277672D01*
X107340604Y-36317476D01*
X107357669Y-36355794D01*
X107373714Y-36390833D01*
X107387962Y-36420799D01*
X107399636Y-36443900D01*
X107407960Y-36458343D01*
X107411200Y-36462235D01*
X107420142Y-36465301D01*
X107439912Y-36470253D01*
X107469031Y-36476780D01*
X107506017Y-36484570D01*
X107549392Y-36493311D01*
X107597676Y-36502689D01*
X107645633Y-36511699D01*
X107697208Y-36521325D01*
X107745311Y-36530474D01*
X107788453Y-36538851D01*
X107825144Y-36546158D01*
X107853892Y-36552099D01*
X107873209Y-36556378D01*
X107881389Y-36558600D01*
X107895455Y-36564510D01*
X107895455Y-36814037D01*
X107895424Y-36876644D01*
X107895298Y-36927903D01*
X107895026Y-36968969D01*
X107894559Y-37000997D01*
X107893848Y-37025144D01*
X107892842Y-37042563D01*
X107891492Y-37054409D01*
X107889748Y-37061839D01*
X107887561Y-37066007D01*
X107884881Y-37068069D01*
X107884515Y-37068233D01*
X107876027Y-37070428D01*
X107856696Y-37074615D01*
X107827973Y-37080504D01*
X107791310Y-37087806D01*
X107748156Y-37096233D01*
X107699964Y-37105496D01*
X107648886Y-37115173D01*
X107586302Y-37127073D01*
X107535124Y-37137106D01*
X107494429Y-37145480D01*
X107463294Y-37152406D01*
X107440796Y-37158095D01*
X107426011Y-37162757D01*
X107418017Y-37166601D01*
X107416399Y-37168108D01*
X107412171Y-37176448D01*
X107403987Y-37194875D01*
X107392493Y-37221850D01*
X107378333Y-37255836D01*
X107362154Y-37295294D01*
X107344600Y-37338684D01*
X107338757Y-37353250D01*
X107315766Y-37411390D01*
X107297743Y-37458565D01*
X107284535Y-37495215D01*
X107275988Y-37521780D01*
X107271947Y-37538701D01*
X107271675Y-37544813D01*
X107275784Y-37553820D01*
X107286228Y-37571777D01*
X107302175Y-37597391D01*
X107322791Y-37629366D01*
X107347245Y-37666409D01*
X107374704Y-37707226D01*
X107400526Y-37745001D01*
X107429757Y-37787746D01*
X107456592Y-37827557D01*
X107480223Y-37863192D01*
X107499844Y-37893411D01*
X107514648Y-37916972D01*
X107523828Y-37932635D01*
X107526615Y-37938948D01*
X107522317Y-37945628D01*
X107510062Y-37960065D01*
X107490804Y-37981246D01*
X107465498Y-38008158D01*
X107435098Y-38039790D01*
X107400561Y-38075130D01*
X107362840Y-38113165D01*
X107352656Y-38123343D01*
X107307398Y-38168362D01*
X107270083Y-38205140D01*
X107239928Y-38234390D01*
X107216149Y-38256827D01*
X107197962Y-38273161D01*
X107184583Y-38284106D01*
X107175229Y-38290376D01*
X107169115Y-38292681D01*
X107166673Y-38292458D01*
X107158838Y-38287975D01*
X107141983Y-38277229D01*
X107117375Y-38261066D01*
X107086281Y-38240330D01*
X107049970Y-38215865D01*
X107009708Y-38188514D01*
X106973985Y-38164082D01*
X106931442Y-38135128D01*
X106891776Y-38108574D01*
X106856250Y-38085232D01*
X106826128Y-38065915D01*
X106802673Y-38051434D01*
X106787149Y-38042601D01*
X106781152Y-38040141D01*
X106771529Y-38042990D01*
X106753245Y-38050827D01*
X106728579Y-38062591D01*
X106699814Y-38077219D01*
X106686747Y-38084128D01*
X106657011Y-38099520D01*
X106630454Y-38112313D01*
X106609329Y-38121494D01*
X106595887Y-38126047D01*
X106592996Y-38126325D01*
X106589606Y-38123452D01*
X106584281Y-38115185D01*
X106576738Y-38100879D01*
X106566691Y-38079888D01*
X106553857Y-38051569D01*
X106537951Y-38015276D01*
X106518691Y-37970365D01*
X106495790Y-37916190D01*
X106468967Y-37852107D01*
X106437935Y-37777472D01*
X106416390Y-37725449D01*
X106388701Y-37658343D01*
X106362469Y-37594434D01*
X106338081Y-37534689D01*
X106315927Y-37480076D01*
X106296393Y-37431561D01*
X106279869Y-37390111D01*
X106266743Y-37356694D01*
X106257403Y-37332276D01*
X106252237Y-37317824D01*
X106251301Y-37314273D01*
X106256759Y-37302847D01*
X106271657Y-37289321D01*
X106277870Y-37285067D01*
X106295656Y-37273132D01*
X106319060Y-37256793D01*
X106343684Y-37239131D01*
X106349392Y-37234960D01*
X106410133Y-37182961D01*
X106461184Y-37123842D01*
X106502213Y-37058777D01*
X106532886Y-36988939D01*
X106552874Y-36915501D01*
X106561842Y-36839636D01*
X106559458Y-36762516D01*
X106545391Y-36685314D01*
X106523669Y-36619684D01*
X106504103Y-36576811D01*
X106481112Y-36538186D01*
X106452393Y-36500485D01*
X106415644Y-36460386D01*
X106407589Y-36452248D01*
X106352189Y-36402993D01*
X106294487Y-36364533D01*
X106231639Y-36335173D01*
X106185660Y-36319870D01*
X106140965Y-36310565D01*
X106088790Y-36305421D01*
X106033444Y-36304439D01*
X105979236Y-36307619D01*
X105930475Y-36314961D01*
X105910592Y-36319870D01*
X105836943Y-36347327D01*
X105768930Y-36385104D01*
X105707567Y-36432119D01*
X105653869Y-36487286D01*
X105608850Y-36549523D01*
X105573525Y-36617745D01*
X105548907Y-36690870D01*
X105544233Y-36711288D01*
X105534205Y-36789841D01*
X105536194Y-36867763D01*
X105549726Y-36943831D01*
X105574328Y-37016825D01*
X105609528Y-37085520D01*
X105654853Y-37148696D01*
X105709829Y-37205131D01*
X105746860Y-37234960D01*
X105771114Y-37252478D01*
X105795222Y-37269425D01*
X105814788Y-37282721D01*
X105818382Y-37285067D01*
X105835766Y-37298750D01*
X105844398Y-37311090D01*
X105844951Y-37314273D01*
X105842612Y-37321954D01*
X105835855Y-37340210D01*
X105825067Y-37368075D01*
X105810637Y-37404580D01*
X105792953Y-37448760D01*
X105772403Y-37499647D01*
X105749376Y-37556273D01*
X105724260Y-37617673D01*
X105697443Y-37682880D01*
X105679862Y-37725449D01*
X105646071Y-37806973D01*
X105616664Y-37877543D01*
X105591357Y-37937804D01*
X105569866Y-37988400D01*
X105551907Y-38029977D01*
X105537197Y-38063179D01*
X105525450Y-38088651D01*
X105516383Y-38107039D01*
X105509712Y-38118986D01*
X105505152Y-38125138D01*
X105503256Y-38126325D01*
X105493888Y-38124117D01*
X105475850Y-38116838D01*
X105451394Y-38105502D01*
X105422773Y-38091123D01*
X105409504Y-38084128D01*
X105379676Y-38068594D01*
X105352967Y-38055468D01*
X105331659Y-38045812D01*
X105318031Y-38040687D01*
X105315100Y-38040141D01*
X105307246Y-38043579D01*
X105290396Y-38053350D01*
X105265813Y-38068642D01*
X105234761Y-38088644D01*
X105198503Y-38112542D01*
X105158302Y-38139526D01*
X105122267Y-38164082D01*
X105079677Y-38193193D01*
X105039980Y-38220125D01*
X105004443Y-38244033D01*
X104974333Y-38264073D01*
X104950918Y-38279400D01*
X104935464Y-38289169D01*
X104929578Y-38292458D01*
X104925034Y-38292190D01*
X104917720Y-38288387D01*
X104906852Y-38280336D01*
X104891647Y-38267324D01*
X104871321Y-38248638D01*
X104845090Y-38223566D01*
X104812169Y-38191395D01*
X104771776Y-38151412D01*
X104743595Y-38123343D01*
X104705205Y-38084775D01*
X104669750Y-38048639D01*
X104638186Y-38015948D01*
X104611468Y-37987715D01*
X104590549Y-37964950D01*
X104576386Y-37948668D01*
X104569934Y-37939879D01*
X104569637Y-37938948D01*
X104573080Y-37931434D01*
X104582871Y-37914907D01*
X104598204Y-37890609D01*
X104618271Y-37859781D01*
X104642266Y-37823662D01*
X104669383Y-37783495D01*
X104695726Y-37745001D01*
X104725129Y-37701944D01*
X104752256Y-37661529D01*
X104776274Y-37625050D01*
X104796351Y-37593802D01*
X104811653Y-37569078D01*
X104821348Y-37552173D01*
X104824576Y-37544813D01*
X104823435Y-37534039D01*
X104817889Y-37513911D01*
X104807786Y-37483990D01*
X104792969Y-37443836D01*
X104773286Y-37393008D01*
X104757495Y-37353250D01*
X104739635Y-37308920D01*
X104722942Y-37268027D01*
X104708062Y-37232110D01*
X104695638Y-37202708D01*
X104686317Y-37181358D01*
X104680744Y-37169600D01*
X104679853Y-37168108D01*
X104674591Y-37164560D01*
X104662950Y-37160289D01*
X104644007Y-37155085D01*
X104616839Y-37148736D01*
X104580523Y-37141034D01*
X104534136Y-37131767D01*
X104476755Y-37120726D01*
X104447366Y-37115173D01*
X104395623Y-37105369D01*
X104347488Y-37096116D01*
X104304411Y-37087702D01*
X104267843Y-37080416D01*
X104239235Y-37074547D01*
X104220039Y-37070385D01*
X104211736Y-37068233D01*
X104208992Y-37066351D01*
X104206747Y-37062504D01*
X104204952Y-37055537D01*
X104203556Y-37044295D01*
X104202511Y-37027623D01*
X104201766Y-37004366D01*
X104201272Y-36973368D01*
X104200979Y-36933474D01*
X104200837Y-36883530D01*
X104200797Y-36822380D01*
X104200796Y-36814037D01*
X104200796Y-36564510D01*
X104214862Y-36558600D01*
X104224116Y-36556125D01*
X104244181Y-36551713D01*
X104273568Y-36545660D01*
X104310787Y-36538264D01*
X104354347Y-36529820D01*
X104402759Y-36520626D01*
X104450618Y-36511699D01*
X104502136Y-36502008D01*
X104550120Y-36492665D01*
X104593090Y-36483982D01*
X104629567Y-36476271D01*
X104658070Y-36469846D01*
X104677119Y-36465017D01*
X104685051Y-36462235D01*
X104690787Y-36454366D01*
X104700377Y-36436676D01*
X104713044Y-36410958D01*
X104728012Y-36379004D01*
X104744504Y-36342609D01*
X104761744Y-36303564D01*
X104778955Y-36263663D01*
X104795360Y-36224699D01*
X104810183Y-36188465D01*
X104822648Y-36156753D01*
X104831978Y-36131357D01*
X104837397Y-36114070D01*
X104838453Y-36108039D01*
X104834739Y-36097831D01*
X104823645Y-36077699D01*
X104805244Y-36047756D01*
X104779608Y-36008116D01*
X104746810Y-35958896D01*
X104706922Y-35900208D01*
X104704045Y-35896009D01*
X104673863Y-35851652D01*
X104646045Y-35810143D01*
X104621372Y-35772693D01*
X104600622Y-35740510D01*
X104584573Y-35714805D01*
X104574005Y-35696787D01*
X104569697Y-35687667D01*
X104569637Y-35687199D01*
X104573916Y-35680244D01*
X104585968Y-35665754D01*
X104604619Y-35644924D01*
X104628693Y-35618950D01*
X104657016Y-35589030D01*
X104688412Y-35556359D01*
X104721706Y-35522134D01*
X104755722Y-35487550D01*
X104789287Y-35453804D01*
X104821224Y-35422093D01*
X104850359Y-35393611D01*
X104875516Y-35369557D01*
X104895520Y-35351125D01*
X104909196Y-35339512D01*
X104914682Y-35335967D01*
X104918344Y-35334885D01*
X104922143Y-35334541D01*
X104927065Y-35335549D01*
X104934096Y-35338523D01*
X104944224Y-35344079D01*
X104958434Y-35352831D01*
X104977712Y-35365393D01*
X105003047Y-35382381D01*
X105035424Y-35404409D01*
X105075830Y-35432091D01*
X105125252Y-35466042D01*
X105142606Y-35477970D01*
X105199558Y-35516858D01*
X105246848Y-35548582D01*
X105284878Y-35573396D01*
X105314052Y-35591554D01*
X105334772Y-35603311D01*
X105347440Y-35608922D01*
X105350797Y-35609505D01*
X105360764Y-35606986D01*
X105380254Y-35600293D01*
X105407412Y-35590186D01*
X105440379Y-35577425D01*
X105477298Y-35562772D01*
X105516311Y-35546987D01*
X105555561Y-35530832D01*
X105593190Y-35515066D01*
X105627340Y-35500451D01*
X105656153Y-35487748D01*
X105677773Y-35477716D01*
X105690342Y-35471118D01*
X105692437Y-35469591D01*
X105695367Y-35461782D01*
X105700213Y-35443058D01*
X105706680Y-35414812D01*
X105714470Y-35378436D01*
X105723288Y-35335320D01*
X105732836Y-35286856D01*
X105742818Y-35234436D01*
X105744559Y-35225108D01*
X105754562Y-35171957D01*
X105764106Y-35122349D01*
X105772901Y-35077706D01*
X105780659Y-35039450D01*
X105787091Y-35009002D01*
X105791906Y-34987783D01*
X105794818Y-34977217D01*
X105795087Y-34976610D01*
X105797149Y-34973535D01*
X105800509Y-34971024D01*
X105806345Y-34969019D01*
X105815837Y-34967464D01*
X105830166Y-34966302D01*
X105850510Y-34965476D01*
X105878048Y-34964928D01*
X105913962Y-34964603D01*
X105959430Y-34964442D01*
X106015631Y-34964388D01*
X106048126Y-34964385D01*
X106110147Y-34964406D01*
G37*
G36*
X106367897Y-39634002D02*
G01*
X106382066Y-39677228D01*
X106395158Y-39716047D01*
X106406658Y-39749018D01*
X106416048Y-39774696D01*
X106422813Y-39791638D01*
X106426434Y-39798400D01*
X106426744Y-39798395D01*
X106429441Y-39791314D01*
X106434879Y-39773806D01*
X106442581Y-39747524D01*
X106452070Y-39714124D01*
X106462867Y-39675260D01*
X106473192Y-39637409D01*
X106484730Y-39594880D01*
X106495300Y-39556149D01*
X106504434Y-39522913D01*
X106511664Y-39496867D01*
X106516522Y-39479707D01*
X106518463Y-39473306D01*
X106525500Y-39468953D01*
X106543142Y-39466390D01*
X106572263Y-39465495D01*
X106574593Y-39465492D01*
X106601597Y-39465977D01*
X106617722Y-39467595D01*
X106624557Y-39470595D01*
X106624810Y-39473306D01*
X106622068Y-39481505D01*
X106616194Y-39499612D01*
X106607836Y-39525618D01*
X106597638Y-39557513D01*
X106586248Y-39593288D01*
X106586133Y-39593649D01*
X106572173Y-39637526D01*
X106555840Y-39688767D01*
X106538585Y-39742832D01*
X106521855Y-39795180D01*
X106509824Y-39832770D01*
X106469272Y-39959364D01*
X106379124Y-39959364D01*
X106329625Y-39793315D01*
X106316580Y-39749932D01*
X106304537Y-39710601D01*
X106293992Y-39676880D01*
X106285436Y-39650325D01*
X106279366Y-39632492D01*
X106276274Y-39624938D01*
X106276145Y-39624806D01*
X106273412Y-39629899D01*
X106267679Y-39645504D01*
X106259431Y-39670128D01*
X106249155Y-39702276D01*
X106237337Y-39740454D01*
X106224463Y-39783166D01*
X106222643Y-39789291D01*
X106173123Y-39956238D01*
X106127726Y-39958076D01*
X106101579Y-39958366D01*
X106086095Y-39956492D01*
X106079583Y-39952237D01*
X106079413Y-39951825D01*
X106076099Y-39941944D01*
X106069681Y-39922200D01*
X106060648Y-39894135D01*
X106049488Y-39859289D01*
X106036692Y-39819204D01*
X106022747Y-39775421D01*
X106008143Y-39729480D01*
X105993369Y-39682923D01*
X105978913Y-39637290D01*
X105965265Y-39594123D01*
X105952914Y-39554962D01*
X105942348Y-39521349D01*
X105934056Y-39494824D01*
X105928528Y-39476929D01*
X105926252Y-39469205D01*
X105926221Y-39469029D01*
X105931992Y-39467426D01*
X105947387Y-39466203D01*
X105969526Y-39465550D01*
X105979065Y-39465492D01*
X106031909Y-39465492D01*
X106037448Y-39485810D01*
X106040600Y-39497430D01*
X106046486Y-39519182D01*
X106054582Y-39549124D01*
X106064362Y-39585316D01*
X106075303Y-39625819D01*
X106083065Y-39654565D01*
X106094233Y-39695475D01*
X106104456Y-39732062D01*
X106113258Y-39762694D01*
X106120165Y-39785741D01*
X106124701Y-39799573D01*
X106126270Y-39802917D01*
X106128908Y-39797185D01*
X106134805Y-39781040D01*
X106143449Y-39755989D01*
X106154330Y-39723542D01*
X106166936Y-39685207D01*
X106180757Y-39642491D01*
X106182927Y-39635724D01*
X106236459Y-39468618D01*
X106274839Y-39466764D01*
X106313219Y-39464911D01*
X106367897Y-39634002D01*
G37*
%TO.C,C3*%
X90945580Y-72900000D02*
X90664420Y-72900000D01*
X90945580Y-71880000D02*
X90664420Y-71880000D01*
%TO.C,D2*%
X97590000Y-44450000D02*
X95180000Y-44450000D01*
X100530000Y-44450000D02*
G75*
G03*
X100530000Y-44450000I-1470000J0D01*
G01*
%TO.C,R7*%
X119380000Y-61905000D02*
X119380000Y-59295000D01*
X120750000Y-63275000D02*
G75*
G03*
X120750000Y-63275000I-1370000J0D01*
G01*
%TO.C,R2*%
X87545000Y-50165000D02*
X90155000Y-50165000D01*
X87545000Y-50165000D02*
G75*
G03*
X87545000Y-50165000I-1370000J0D01*
G01*
%TO.C,C5*%
X116080000Y-58419420D02*
X116080000Y-58700580D01*
X115060000Y-58419420D02*
X115060000Y-58700580D01*
%TO.C,C1*%
X109000000Y-52035000D02*
X116240000Y-52035000D01*
X109000000Y-48295000D02*
X116240000Y-48295000D01*
X116240000Y-48295000D02*
X116240000Y-52035000D01*
X109000000Y-48295000D02*
X109000000Y-52035000D01*
%TD*%
%LPC*%
D13*
%TO.C,X1*%
X97155000Y-71845000D03*
X97155000Y-76725000D03*
%TD*%
D14*
%TO.C,IC1*%
X105420000Y-57160000D03*
D15*
X105420000Y-59700000D03*
X105420000Y-62240000D03*
X105420000Y-64780000D03*
X105420000Y-67320000D03*
X105420000Y-69860000D03*
X105420000Y-72400000D03*
X105420000Y-74940000D03*
X105420000Y-77480000D03*
X113040000Y-77480000D03*
X113040000Y-74940000D03*
X113040000Y-72400000D03*
X113040000Y-69860000D03*
X113040000Y-67320000D03*
X113040000Y-64780000D03*
X113040000Y-62240000D03*
X113040000Y-59700000D03*
X113040000Y-57160000D03*
%TD*%
D16*
%TO.C,J3*%
X128905000Y-64765000D03*
D17*
X128905000Y-67305000D03*
X128905000Y-69845000D03*
X128905000Y-72385000D03*
X128905000Y-74925000D03*
X128905000Y-77465000D03*
X128905000Y-80005000D03*
%TD*%
D18*
%TO.C,R5*%
X95660000Y-55245000D03*
D15*
X90580000Y-55245000D03*
%TD*%
D18*
%TO.C,R3*%
X86175000Y-44450000D03*
D15*
X91255000Y-44450000D03*
%TD*%
D18*
%TO.C,C2*%
X110120000Y-44450000D03*
X115120000Y-44450000D03*
%TD*%
%TO.C,R4*%
X102685000Y-44450000D03*
D15*
X107765000Y-44450000D03*
%TD*%
D19*
%TO.C,REF\u002A\u002A*%
X127635000Y-85725000D03*
%TD*%
D20*
%TO.C,J2*%
X124550000Y-52990000D03*
X124550000Y-40990000D03*
D21*
X122250000Y-45460000D03*
D13*
X119710000Y-46480000D03*
X122250000Y-47500000D03*
X119710000Y-48520000D03*
%TD*%
D18*
%TO.C,R1*%
X102685000Y-50165000D03*
D15*
X107765000Y-50165000D03*
%TD*%
D19*
%TO.C,REF\u002A\u002A*%
X85090000Y-36195000D03*
%TD*%
D22*
%TO.C,D3*%
X128680000Y-57785000D03*
D23*
X123600000Y-57785000D03*
%TD*%
D22*
%TO.C,D1*%
X99060000Y-50165000D03*
D23*
X93980000Y-50165000D03*
%TD*%
D24*
%TO.C,C4*%
X91580000Y-76835000D03*
X90030000Y-76835000D03*
%TD*%
D19*
%TO.C,REF\u002A\u002A*%
X85090000Y-85725000D03*
%TD*%
D16*
%TO.C,J4*%
X85090000Y-59690000D03*
D17*
X85090000Y-62230000D03*
%TD*%
D16*
%TO.C,J1*%
X85090000Y-72390000D03*
D17*
X85090000Y-69850000D03*
X85090000Y-67310000D03*
%TD*%
D18*
%TO.C,R6*%
X124050000Y-60960000D03*
D15*
X129130000Y-60960000D03*
%TD*%
D24*
%TO.C,C3*%
X91580000Y-72390000D03*
X90030000Y-72390000D03*
%TD*%
D22*
%TO.C,D2*%
X99060000Y-44450000D03*
D23*
X93980000Y-44450000D03*
%TD*%
D18*
%TO.C,R7*%
X119380000Y-63275000D03*
D15*
X119380000Y-58195000D03*
%TD*%
D18*
%TO.C,R2*%
X86175000Y-50165000D03*
D15*
X91255000Y-50165000D03*
%TD*%
D19*
%TO.C,REF\u002A\u002A*%
X127635000Y-36195000D03*
%TD*%
D25*
%TO.C,C5*%
X115570000Y-57785000D03*
X115570000Y-59335000D03*
%TD*%
D18*
%TO.C,C1*%
X110120000Y-50165000D03*
X115120000Y-50165000D03*
%TD*%
M02*
