M48
; DRILL file {KiCad (6.0.0)} date Sun Mar 13 18:40:30 2022
; FORMAT={-:-/ absolute / metric / decimal}
; #@! TF.CreationDate,2022-03-13T18:40:30-04:00
; #@! TF.GenerationSoftware,Kicad,Pcbnew,(6.0.0)
; #@! TF.FileFunction,Plated,1,2,PTH
FMAT,2
METRIC
; #@! TA.AperFunction,Plated,PTH,ComponentDrill
T1C0.800
; #@! TA.AperFunction,Plated,PTH,ComponentDrill
T2C0.900
; #@! TA.AperFunction,Plated,PTH,ComponentDrill
T3C1.000
%
G90
G05
T1
X86.175Y-44.45
X86.175Y-50.165
X90.58Y-55.245
X91.255Y-44.45
X91.255Y-50.165
X95.66Y-55.245
X97.155Y-71.845
X97.155Y-76.725
X102.685Y-44.45
X102.685Y-50.165
X105.42Y-57.16
X105.42Y-59.7
X105.42Y-62.24
X105.42Y-64.78
X105.42Y-67.32
X105.42Y-69.86
X105.42Y-72.4
X105.42Y-74.94
X105.42Y-77.48
X107.765Y-44.45
X107.765Y-50.165
X110.12Y-44.45
X110.12Y-50.165
X113.04Y-57.16
X113.04Y-59.7
X113.04Y-62.24
X113.04Y-64.78
X113.04Y-67.32
X113.04Y-69.86
X113.04Y-72.4
X113.04Y-74.94
X113.04Y-77.48
X115.12Y-44.45
X115.12Y-50.165
X119.38Y-58.195
X119.38Y-63.275
X124.05Y-60.96
X129.13Y-60.96
T2
X93.98Y-44.45
X93.98Y-50.165
X99.06Y-44.45
X99.06Y-50.165
X119.71Y-46.48
X119.71Y-48.52
X122.25Y-45.46
X122.25Y-47.5
X123.6Y-57.785
X128.68Y-57.785
T3
X85.09Y-59.69
X85.09Y-62.23
X85.09Y-67.31
X85.09Y-69.85
X85.09Y-72.39
X128.905Y-64.765
X128.905Y-67.305
X128.905Y-69.845
X128.905Y-72.385
X128.905Y-74.925
X128.905Y-77.465
X128.905Y-80.005
T0
M30
