%TF.GenerationSoftware,KiCad,Pcbnew,(6.0.0)*%
%TF.CreationDate,2022-03-13T18:40:28-04:00*%
%TF.ProjectId,board for mt8870,626f6172-6420-4666-9f72-206d74383837,rev?*%
%TF.SameCoordinates,Original*%
%TF.FileFunction,Soldermask,Top*%
%TF.FilePolarity,Negative*%
%FSLAX46Y46*%
G04 Gerber Fmt 4.6, Leading zero omitted, Abs format (unit mm)*
G04 Created by KiCad (PCBNEW (6.0.0)) date 2022-03-13 18:40:28*
%MOMM*%
%LPD*%
G01*
G04 APERTURE LIST*
G04 Aperture macros list*
%AMRoundRect*
0 Rectangle with rounded corners*
0 $1 Rounding radius*
0 $2 $3 $4 $5 $6 $7 $8 $9 X,Y pos of 4 corners*
0 Add a 4 corners polygon primitive as box body*
4,1,4,$2,$3,$4,$5,$6,$7,$8,$9,$2,$3,0*
0 Add four circle primitives for the rounded corners*
1,1,$1+$1,$2,$3*
1,1,$1+$1,$4,$5*
1,1,$1+$1,$6,$7*
1,1,$1+$1,$8,$9*
0 Add four rect primitives between the rounded corners*
20,1,$1+$1,$2,$3,$4,$5,0*
20,1,$1+$1,$4,$5,$6,$7,0*
20,1,$1+$1,$6,$7,$8,$9,0*
20,1,$1+$1,$8,$9,$2,$3,0*%
G04 Aperture macros list end*
%ADD10C,1.500000*%
%ADD11R,1.600000X1.600000*%
%ADD12O,1.600000X1.600000*%
%ADD13R,1.700000X1.700000*%
%ADD14O,1.700000X1.700000*%
%ADD15C,1.600000*%
%ADD16C,3.200000*%
%ADD17C,2.300000*%
%ADD18R,1.500000X1.500000*%
%ADD19R,1.800000X1.800000*%
%ADD20O,1.800000X1.800000*%
%ADD21RoundRect,0.225000X0.225000X0.250000X-0.225000X0.250000X-0.225000X-0.250000X0.225000X-0.250000X0*%
%ADD22RoundRect,0.225000X-0.250000X0.225000X-0.250000X-0.225000X0.250000X-0.225000X0.250000X0.225000X0*%
G04 APERTURE END LIST*
D10*
%TO.C,X1*%
X97155000Y-71845000D03*
X97155000Y-76725000D03*
%TD*%
D11*
%TO.C,IC1*%
X105420000Y-57160000D03*
D12*
X105420000Y-59700000D03*
X105420000Y-62240000D03*
X105420000Y-64780000D03*
X105420000Y-67320000D03*
X105420000Y-69860000D03*
X105420000Y-72400000D03*
X105420000Y-74940000D03*
X105420000Y-77480000D03*
X113040000Y-77480000D03*
X113040000Y-74940000D03*
X113040000Y-72400000D03*
X113040000Y-69860000D03*
X113040000Y-67320000D03*
X113040000Y-64780000D03*
X113040000Y-62240000D03*
X113040000Y-59700000D03*
X113040000Y-57160000D03*
%TD*%
D13*
%TO.C,J3*%
X128905000Y-64765000D03*
D14*
X128905000Y-67305000D03*
X128905000Y-69845000D03*
X128905000Y-72385000D03*
X128905000Y-74925000D03*
X128905000Y-77465000D03*
X128905000Y-80005000D03*
%TD*%
D15*
%TO.C,R5*%
X95660000Y-55245000D03*
D12*
X90580000Y-55245000D03*
%TD*%
D15*
%TO.C,R3*%
X86175000Y-44450000D03*
D12*
X91255000Y-44450000D03*
%TD*%
D15*
%TO.C,C2*%
X110120000Y-44450000D03*
X115120000Y-44450000D03*
%TD*%
%TO.C,R4*%
X102685000Y-44450000D03*
D12*
X107765000Y-44450000D03*
%TD*%
D16*
%TO.C,REF\u002A\u002A*%
X127635000Y-85725000D03*
%TD*%
D17*
%TO.C,J2*%
X124550000Y-52990000D03*
X124550000Y-40990000D03*
D18*
X122250000Y-45460000D03*
D10*
X119710000Y-46480000D03*
X122250000Y-47500000D03*
X119710000Y-48520000D03*
%TD*%
D15*
%TO.C,R1*%
X102685000Y-50165000D03*
D12*
X107765000Y-50165000D03*
%TD*%
D16*
%TO.C,REF\u002A\u002A*%
X85090000Y-36195000D03*
%TD*%
D19*
%TO.C,D3*%
X128680000Y-57785000D03*
D20*
X123600000Y-57785000D03*
%TD*%
D19*
%TO.C,D1*%
X99060000Y-50165000D03*
D20*
X93980000Y-50165000D03*
%TD*%
D21*
%TO.C,C4*%
X91580000Y-76835000D03*
X90030000Y-76835000D03*
%TD*%
D16*
%TO.C,REF\u002A\u002A*%
X85090000Y-85725000D03*
%TD*%
D13*
%TO.C,J4*%
X85090000Y-59690000D03*
D14*
X85090000Y-62230000D03*
%TD*%
D13*
%TO.C,J1*%
X85090000Y-72390000D03*
D14*
X85090000Y-69850000D03*
X85090000Y-67310000D03*
%TD*%
D15*
%TO.C,R6*%
X124050000Y-60960000D03*
D12*
X129130000Y-60960000D03*
%TD*%
D21*
%TO.C,C3*%
X91580000Y-72390000D03*
X90030000Y-72390000D03*
%TD*%
D19*
%TO.C,D2*%
X99060000Y-44450000D03*
D20*
X93980000Y-44450000D03*
%TD*%
D15*
%TO.C,R7*%
X119380000Y-63275000D03*
D12*
X119380000Y-58195000D03*
%TD*%
D15*
%TO.C,R2*%
X86175000Y-50165000D03*
D12*
X91255000Y-50165000D03*
%TD*%
D16*
%TO.C,REF\u002A\u002A*%
X127635000Y-36195000D03*
%TD*%
D22*
%TO.C,C5*%
X115570000Y-57785000D03*
X115570000Y-59335000D03*
%TD*%
D15*
%TO.C,C1*%
X110120000Y-50165000D03*
X115120000Y-50165000D03*
%TD*%
M02*
