%TF.GenerationSoftware,KiCad,Pcbnew,(6.0.0)*%
%TF.CreationDate,2022-03-13T18:40:28-04:00*%
%TF.ProjectId,board for mt8870,626f6172-6420-4666-9f72-206d74383837,rev?*%
%TF.SameCoordinates,Original*%
%TF.FileFunction,Copper,L2,Bot*%
%TF.FilePolarity,Positive*%
%FSLAX46Y46*%
G04 Gerber Fmt 4.6, Leading zero omitted, Abs format (unit mm)*
G04 Created by KiCad (PCBNEW (6.0.0)) date 2022-03-13 18:40:28*
%MOMM*%
%LPD*%
G01*
G04 APERTURE LIST*
%TA.AperFunction,ComponentPad*%
%ADD10C,1.500000*%
%TD*%
%TA.AperFunction,ComponentPad*%
%ADD11R,1.600000X1.600000*%
%TD*%
%TA.AperFunction,ComponentPad*%
%ADD12O,1.600000X1.600000*%
%TD*%
%TA.AperFunction,ComponentPad*%
%ADD13R,1.700000X1.700000*%
%TD*%
%TA.AperFunction,ComponentPad*%
%ADD14O,1.700000X1.700000*%
%TD*%
%TA.AperFunction,ComponentPad*%
%ADD15C,1.600000*%
%TD*%
%TA.AperFunction,ComponentPad*%
%ADD16R,1.500000X1.500000*%
%TD*%
%TA.AperFunction,ComponentPad*%
%ADD17R,1.800000X1.800000*%
%TD*%
%TA.AperFunction,ComponentPad*%
%ADD18O,1.800000X1.800000*%
%TD*%
%TA.AperFunction,Conductor*%
%ADD19C,0.250000*%
%TD*%
%TA.AperFunction,Conductor*%
%ADD20C,0.200000*%
%TD*%
G04 APERTURE END LIST*
D10*
%TO.P,X1,1,1*%
%TO.N,Net-(IC1-Pad7)*%
X97155000Y-71845000D03*
%TO.P,X1,2,2*%
%TO.N,Net-(IC1-Pad8)*%
X97155000Y-76725000D03*
%TD*%
D11*
%TO.P,IC1,1,IN+*%
%TO.N,/IN+*%
X105420000Y-57160000D03*
D12*
%TO.P,IC1,2,IN-*%
%TO.N,/IN-*%
X105420000Y-59700000D03*
%TO.P,IC1,3,GS*%
%TO.N,/GS*%
X105420000Y-62240000D03*
%TO.P,IC1,4,VREF*%
%TO.N,/Vref*%
X105420000Y-64780000D03*
%TO.P,IC1,5,INH*%
%TO.N,Net-(IC1-Pad5)*%
X105420000Y-67320000D03*
%TO.P,IC1,6,PWDN*%
%TO.N,Net-(IC1-Pad6)*%
X105420000Y-69860000D03*
%TO.P,IC1,7,OSC1*%
%TO.N,Net-(IC1-Pad7)*%
X105420000Y-72400000D03*
%TO.P,IC1,8,OSC2*%
%TO.N,Net-(IC1-Pad8)*%
X105420000Y-74940000D03*
%TO.P,IC1,9,VSS*%
%TO.N,GND*%
X105420000Y-77480000D03*
%TO.P,IC1,10,TOE*%
%TO.N,Net-(IC1-Pad10)*%
X113040000Y-77480000D03*
%TO.P,IC1,11,Q1*%
%TO.N,Net-(IC1-Pad11)*%
X113040000Y-74940000D03*
%TO.P,IC1,12,Q2*%
%TO.N,Net-(IC1-Pad12)*%
X113040000Y-72400000D03*
%TO.P,IC1,13,Q3*%
%TO.N,Net-(IC1-Pad13)*%
X113040000Y-69860000D03*
%TO.P,IC1,14,Q4*%
%TO.N,Net-(IC1-Pad14)*%
X113040000Y-67320000D03*
%TO.P,IC1,15,STD*%
%TO.N,Net-(IC1-Pad15)*%
X113040000Y-64780000D03*
%TO.P,IC1,16,EST*%
%TO.N,/ESt*%
X113040000Y-62240000D03*
%TO.P,IC1,17,ST/GT*%
%TO.N,/St{slash}GT*%
X113040000Y-59700000D03*
%TO.P,IC1,18,VDD*%
%TO.N,+5V*%
X113040000Y-57160000D03*
%TD*%
D13*
%TO.P,J3,1,Pin_1*%
%TO.N,Net-(IC1-Pad15)*%
X128905000Y-64765000D03*
D14*
%TO.P,J3,2,Pin_2*%
%TO.N,Net-(IC1-Pad14)*%
X128905000Y-67305000D03*
%TO.P,J3,3,Pin_3*%
%TO.N,Net-(IC1-Pad13)*%
X128905000Y-69845000D03*
%TO.P,J3,4,Pin_4*%
%TO.N,Net-(IC1-Pad12)*%
X128905000Y-72385000D03*
%TO.P,J3,5,Pin_5*%
%TO.N,Net-(IC1-Pad11)*%
X128905000Y-74925000D03*
%TO.P,J3,6,Pin_6*%
%TO.N,Net-(IC1-Pad10)*%
X128905000Y-77465000D03*
%TO.P,J3,7,Pin_7*%
%TO.N,GND*%
X128905000Y-80005000D03*
%TD*%
D15*
%TO.P,R5,1*%
%TO.N,/IN-*%
X95660000Y-55245000D03*
D12*
%TO.P,R5,2*%
%TO.N,/GS*%
X90580000Y-55245000D03*
%TD*%
D15*
%TO.P,R3,1*%
%TO.N,/Vref*%
X86175000Y-44450000D03*
D12*
%TO.P,R3,2*%
%TO.N,/IN+*%
X91255000Y-44450000D03*
%TD*%
D15*
%TO.P,C2,1*%
%TO.N,Net-(R4-Pad2)*%
X110120000Y-44450000D03*
%TO.P,C2,2*%
%TO.N,Net-(C2-Pad2)*%
X115120000Y-44450000D03*
%TD*%
%TO.P,R4,1*%
%TO.N,/IN-*%
X102685000Y-44450000D03*
D12*
%TO.P,R4,2*%
%TO.N,Net-(R4-Pad2)*%
X107765000Y-44450000D03*
%TD*%
D16*
%TO.P,J2,1*%
%TO.N,unconnected-(J2-Pad1)*%
X122250000Y-45460000D03*
D10*
%TO.P,J2,2*%
%TO.N,Net-(C2-Pad2)*%
X119710000Y-46480000D03*
%TO.P,J2,3*%
%TO.N,Net-(C1-Pad2)*%
X122250000Y-47500000D03*
%TO.P,J2,4*%
%TO.N,unconnected-(J2-Pad4)*%
X119710000Y-48520000D03*
%TD*%
D15*
%TO.P,R1,1*%
%TO.N,/IN+*%
X102685000Y-50165000D03*
D12*
%TO.P,R1,2*%
%TO.N,Net-(R1-Pad2)*%
X107765000Y-50165000D03*
%TD*%
D17*
%TO.P,D3,1,K*%
%TO.N,Net-(D3-Pad1)*%
X128680000Y-57785000D03*
D18*
%TO.P,D3,2,A*%
%TO.N,/St{slash}GT*%
X123600000Y-57785000D03*
%TD*%
D17*
%TO.P,D1,1,K*%
%TO.N,/IN+*%
X99060000Y-50165000D03*
D18*
%TO.P,D1,2,A*%
%TO.N,/IN-*%
X93980000Y-50165000D03*
%TD*%
D13*
%TO.P,J4,1,Pin_1*%
%TO.N,+5V*%
X85090000Y-59690000D03*
D14*
%TO.P,J4,2,Pin_2*%
%TO.N,GND*%
X85090000Y-62230000D03*
%TD*%
D13*
%TO.P,J1,1,Pin_1*%
%TO.N,GND*%
X85090000Y-72390000D03*
D14*
%TO.P,J1,2,Pin_2*%
%TO.N,Net-(IC1-Pad6)*%
X85090000Y-69850000D03*
%TO.P,J1,3,Pin_3*%
%TO.N,Net-(IC1-Pad5)*%
X85090000Y-67310000D03*
%TD*%
D15*
%TO.P,R6,1*%
%TO.N,/ESt*%
X124050000Y-60960000D03*
D12*
%TO.P,R6,2*%
%TO.N,Net-(D3-Pad1)*%
X129130000Y-60960000D03*
%TD*%
D17*
%TO.P,D2,1,K*%
%TO.N,/IN-*%
X99060000Y-44450000D03*
D18*
%TO.P,D2,2,A*%
%TO.N,/IN+*%
X93980000Y-44450000D03*
%TD*%
D15*
%TO.P,R7,1*%
%TO.N,/ESt*%
X119380000Y-63275000D03*
D12*
%TO.P,R7,2*%
%TO.N,/St{slash}GT*%
X119380000Y-58195000D03*
%TD*%
D15*
%TO.P,R2,1*%
%TO.N,/Vref*%
X86175000Y-50165000D03*
D12*
%TO.P,R2,2*%
%TO.N,/IN-*%
X91255000Y-50165000D03*
%TD*%
D15*
%TO.P,C1,1*%
%TO.N,Net-(R1-Pad2)*%
X110120000Y-50165000D03*
%TO.P,C1,2*%
%TO.N,Net-(C1-Pad2)*%
X115120000Y-50165000D03*
%TD*%
D19*
%TO.N,+5V*%
X111780000Y-58420000D02*
X86360000Y-58420000D01*
X86360000Y-58420000D02*
X85090000Y-59690000D01*
X113040000Y-57160000D02*
X111780000Y-58420000D01*
D20*
%TO.N,/IN+*%
X99060000Y-50165000D02*
X99060000Y-49530000D01*
X99060000Y-49530000D02*
X93980000Y-44450000D01*
%TD*%
%TA.AperFunction,Conductor*%
%TO.N,GND*%
G36*
X127605057Y-32894500D02*
G01*
X127619858Y-32896805D01*
X127619861Y-32896805D01*
X127628730Y-32898186D01*
X127647411Y-32895743D01*
X127670342Y-32894852D01*
X127973557Y-32910743D01*
X127986665Y-32912120D01*
X128226285Y-32950072D01*
X128315002Y-32964123D01*
X128327902Y-32966865D01*
X128649000Y-33052903D01*
X128661536Y-33056977D01*
X128934358Y-33161703D01*
X128971876Y-33176105D01*
X128983924Y-33181469D01*
X129280120Y-33332388D01*
X129291536Y-33338979D01*
X129570334Y-33520033D01*
X129580996Y-33527779D01*
X129839344Y-33736984D01*
X129849145Y-33745810D01*
X130084190Y-33980855D01*
X130093015Y-33990655D01*
X130235787Y-34166964D01*
X130302221Y-34249004D01*
X130309967Y-34259666D01*
X130491018Y-34538459D01*
X130497612Y-34549880D01*
X130648531Y-34846076D01*
X130653895Y-34858124D01*
X130773021Y-35168456D01*
X130777097Y-35181000D01*
X130863135Y-35502098D01*
X130865877Y-35514998D01*
X130906760Y-35773124D01*
X130917879Y-35843329D01*
X130919257Y-35856443D01*
X130929823Y-36058049D01*
X130934764Y-36152330D01*
X130933436Y-36178312D01*
X130933195Y-36179856D01*
X130933195Y-36179860D01*
X130931814Y-36188730D01*
X130932978Y-36197632D01*
X130932978Y-36197635D01*
X130935936Y-36220251D01*
X130937000Y-36236589D01*
X130937000Y-85675672D01*
X130935500Y-85695056D01*
X130931814Y-85718730D01*
X130934257Y-85737410D01*
X130935148Y-85760343D01*
X130919257Y-86063554D01*
X130917880Y-86076665D01*
X130904656Y-86160159D01*
X130865877Y-86405002D01*
X130863135Y-86417902D01*
X130777097Y-86739000D01*
X130773021Y-86751544D01*
X130653895Y-87061876D01*
X130648531Y-87073924D01*
X130497612Y-87370120D01*
X130491021Y-87381536D01*
X130309967Y-87660334D01*
X130302224Y-87670992D01*
X130093016Y-87929344D01*
X130084190Y-87939145D01*
X129849145Y-88174190D01*
X129839344Y-88183016D01*
X129580996Y-88392221D01*
X129570334Y-88399967D01*
X129291536Y-88581021D01*
X129280120Y-88587612D01*
X128983924Y-88738531D01*
X128971875Y-88743895D01*
X128661536Y-88863023D01*
X128649000Y-88867097D01*
X128327902Y-88953135D01*
X128315002Y-88955877D01*
X128226285Y-88969928D01*
X127986665Y-89007880D01*
X127973557Y-89009257D01*
X127677666Y-89024764D01*
X127651688Y-89023436D01*
X127650144Y-89023195D01*
X127650140Y-89023195D01*
X127641270Y-89021814D01*
X127632368Y-89022978D01*
X127632365Y-89022978D01*
X127609749Y-89025936D01*
X127593411Y-89027000D01*
X85139328Y-89027000D01*
X85119943Y-89025500D01*
X85105142Y-89023195D01*
X85105139Y-89023195D01*
X85096270Y-89021814D01*
X85077589Y-89024257D01*
X85054658Y-89025148D01*
X84751443Y-89009257D01*
X84738335Y-89007880D01*
X84498715Y-88969928D01*
X84409998Y-88955877D01*
X84397098Y-88953135D01*
X84076000Y-88867097D01*
X84063464Y-88863023D01*
X83753125Y-88743895D01*
X83741076Y-88738531D01*
X83444880Y-88587612D01*
X83433464Y-88581021D01*
X83154666Y-88399967D01*
X83144004Y-88392221D01*
X82885656Y-88183016D01*
X82875855Y-88174190D01*
X82640810Y-87939145D01*
X82631984Y-87929344D01*
X82422776Y-87670992D01*
X82415033Y-87660334D01*
X82233979Y-87381536D01*
X82227388Y-87370120D01*
X82076469Y-87073924D01*
X82071105Y-87061876D01*
X81951979Y-86751544D01*
X81947903Y-86739000D01*
X81861865Y-86417902D01*
X81859123Y-86405002D01*
X81820344Y-86160159D01*
X81807120Y-86076665D01*
X81805743Y-86063554D01*
X81795887Y-85875488D01*
X81794955Y-85857703D01*
X82980743Y-85857703D01*
X83018268Y-86142734D01*
X83094129Y-86420036D01*
X83095813Y-86423984D01*
X83136460Y-86519278D01*
X83206923Y-86684476D01*
X83354561Y-86931161D01*
X83534313Y-87155528D01*
X83742851Y-87353423D01*
X83976317Y-87521186D01*
X83980112Y-87523195D01*
X83980113Y-87523196D01*
X84001869Y-87534715D01*
X84230392Y-87655712D01*
X84500373Y-87754511D01*
X84781264Y-87815755D01*
X84809841Y-87818004D01*
X85004282Y-87833307D01*
X85004291Y-87833307D01*
X85006739Y-87833500D01*
X85162271Y-87833500D01*
X85164407Y-87833354D01*
X85164418Y-87833354D01*
X85372548Y-87819165D01*
X85372554Y-87819164D01*
X85376825Y-87818873D01*
X85381020Y-87818004D01*
X85381022Y-87818004D01*
X85517584Y-87789723D01*
X85658342Y-87760574D01*
X85929343Y-87664607D01*
X86184812Y-87532750D01*
X86188313Y-87530289D01*
X86188317Y-87530287D01*
X86302417Y-87450096D01*
X86420023Y-87367441D01*
X86630622Y-87171740D01*
X86812713Y-86949268D01*
X86962927Y-86704142D01*
X87078483Y-86440898D01*
X87157244Y-86164406D01*
X87197751Y-85879784D01*
X87197845Y-85861951D01*
X87197867Y-85857703D01*
X125525743Y-85857703D01*
X125563268Y-86142734D01*
X125639129Y-86420036D01*
X125640813Y-86423984D01*
X125681460Y-86519278D01*
X125751923Y-86684476D01*
X125899561Y-86931161D01*
X126079313Y-87155528D01*
X126287851Y-87353423D01*
X126521317Y-87521186D01*
X126525112Y-87523195D01*
X126525113Y-87523196D01*
X126546869Y-87534715D01*
X126775392Y-87655712D01*
X127045373Y-87754511D01*
X127326264Y-87815755D01*
X127354841Y-87818004D01*
X127549282Y-87833307D01*
X127549291Y-87833307D01*
X127551739Y-87833500D01*
X127707271Y-87833500D01*
X127709407Y-87833354D01*
X127709418Y-87833354D01*
X127917548Y-87819165D01*
X127917554Y-87819164D01*
X127921825Y-87818873D01*
X127926020Y-87818004D01*
X127926022Y-87818004D01*
X128062584Y-87789723D01*
X128203342Y-87760574D01*
X128474343Y-87664607D01*
X128729812Y-87532750D01*
X128733313Y-87530289D01*
X128733317Y-87530287D01*
X128847417Y-87450096D01*
X128965023Y-87367441D01*
X129175622Y-87171740D01*
X129357713Y-86949268D01*
X129507927Y-86704142D01*
X129623483Y-86440898D01*
X129702244Y-86164406D01*
X129742751Y-85879784D01*
X129742845Y-85861951D01*
X129744235Y-85596583D01*
X129744235Y-85596576D01*
X129744257Y-85592297D01*
X129706732Y-85307266D01*
X129630871Y-85029964D01*
X129518077Y-84765524D01*
X129370439Y-84518839D01*
X129190687Y-84294472D01*
X128982149Y-84096577D01*
X128748683Y-83928814D01*
X128726843Y-83917250D01*
X128703654Y-83904972D01*
X128494608Y-83794288D01*
X128224627Y-83695489D01*
X127943736Y-83634245D01*
X127912685Y-83631801D01*
X127720718Y-83616693D01*
X127720709Y-83616693D01*
X127718261Y-83616500D01*
X127562729Y-83616500D01*
X127560593Y-83616646D01*
X127560582Y-83616646D01*
X127352452Y-83630835D01*
X127352446Y-83630836D01*
X127348175Y-83631127D01*
X127343980Y-83631996D01*
X127343978Y-83631996D01*
X127207416Y-83660277D01*
X127066658Y-83689426D01*
X126795657Y-83785393D01*
X126540188Y-83917250D01*
X126536687Y-83919711D01*
X126536683Y-83919713D01*
X126526594Y-83926804D01*
X126304977Y-84082559D01*
X126094378Y-84278260D01*
X125912287Y-84500732D01*
X125762073Y-84745858D01*
X125646517Y-85009102D01*
X125567756Y-85285594D01*
X125527249Y-85570216D01*
X125527227Y-85574505D01*
X125527226Y-85574512D01*
X125525765Y-85853417D01*
X125525743Y-85857703D01*
X87197867Y-85857703D01*
X87199235Y-85596583D01*
X87199235Y-85596576D01*
X87199257Y-85592297D01*
X87161732Y-85307266D01*
X87085871Y-85029964D01*
X86973077Y-84765524D01*
X86825439Y-84518839D01*
X86645687Y-84294472D01*
X86437149Y-84096577D01*
X86203683Y-83928814D01*
X86181843Y-83917250D01*
X86158654Y-83904972D01*
X85949608Y-83794288D01*
X85679627Y-83695489D01*
X85398736Y-83634245D01*
X85367685Y-83631801D01*
X85175718Y-83616693D01*
X85175709Y-83616693D01*
X85173261Y-83616500D01*
X85017729Y-83616500D01*
X85015593Y-83616646D01*
X85015582Y-83616646D01*
X84807452Y-83630835D01*
X84807446Y-83630836D01*
X84803175Y-83631127D01*
X84798980Y-83631996D01*
X84798978Y-83631996D01*
X84662416Y-83660277D01*
X84521658Y-83689426D01*
X84250657Y-83785393D01*
X83995188Y-83917250D01*
X83991687Y-83919711D01*
X83991683Y-83919713D01*
X83981594Y-83926804D01*
X83759977Y-84082559D01*
X83549378Y-84278260D01*
X83367287Y-84500732D01*
X83217073Y-84745858D01*
X83101517Y-85009102D01*
X83022756Y-85285594D01*
X82982249Y-85570216D01*
X82982227Y-85574505D01*
X82982226Y-85574512D01*
X82980765Y-85853417D01*
X82980743Y-85857703D01*
X81794955Y-85857703D01*
X81790236Y-85767666D01*
X81791564Y-85741688D01*
X81791805Y-85740144D01*
X81791805Y-85740140D01*
X81793186Y-85731270D01*
X81791547Y-85718730D01*
X81789064Y-85699749D01*
X81788000Y-85683411D01*
X81788000Y-80272966D01*
X127573257Y-80272966D01*
X127603565Y-80407446D01*
X127606645Y-80417275D01*
X127686770Y-80614603D01*
X127691413Y-80623794D01*
X127802694Y-80805388D01*
X127808777Y-80813699D01*
X127948213Y-80974667D01*
X127955580Y-80981883D01*
X128119434Y-81117916D01*
X128127881Y-81123831D01*
X128311756Y-81231279D01*
X128321042Y-81235729D01*
X128520001Y-81311703D01*
X128529899Y-81314579D01*
X128633250Y-81335606D01*
X128647299Y-81334410D01*
X128651000Y-81324065D01*
X128651000Y-81323517D01*
X129159000Y-81323517D01*
X129163064Y-81337359D01*
X129176478Y-81339393D01*
X129183184Y-81338534D01*
X129193262Y-81336392D01*
X129397255Y-81275191D01*
X129406842Y-81271433D01*
X129598095Y-81177739D01*
X129606945Y-81172464D01*
X129780328Y-81048792D01*
X129788200Y-81042139D01*
X129939052Y-80891812D01*
X129945730Y-80883965D01*
X130070003Y-80711020D01*
X130075313Y-80702183D01*
X130169670Y-80511267D01*
X130173469Y-80501672D01*
X130235377Y-80297910D01*
X130237555Y-80287837D01*
X130238986Y-80276962D01*
X130236775Y-80262778D01*
X130223617Y-80259000D01*
X129177115Y-80259000D01*
X129161876Y-80263475D01*
X129160671Y-80264865D01*
X129159000Y-80272548D01*
X129159000Y-81323517D01*
X128651000Y-81323517D01*
X128651000Y-80277115D01*
X128646525Y-80261876D01*
X128645135Y-80260671D01*
X128637452Y-80259000D01*
X127588225Y-80259000D01*
X127574694Y-80262973D01*
X127573257Y-80272966D01*
X81788000Y-80272966D01*
X81788000Y-76725000D01*
X95891693Y-76725000D01*
X95910885Y-76944371D01*
X95967880Y-77157076D01*
X95970205Y-77162061D01*
X96058618Y-77351666D01*
X96058621Y-77351671D01*
X96060944Y-77356653D01*
X96064100Y-77361160D01*
X96064101Y-77361162D01*
X96181091Y-77528240D01*
X96187251Y-77537038D01*
X96342962Y-77692749D01*
X96347471Y-77695906D01*
X96347473Y-77695908D01*
X96406731Y-77737401D01*
X96523346Y-77819056D01*
X96722924Y-77912120D01*
X96935629Y-77969115D01*
X97155000Y-77988307D01*
X97374371Y-77969115D01*
X97587076Y-77912120D01*
X97786654Y-77819056D01*
X97890243Y-77746522D01*
X104137273Y-77746522D01*
X104184764Y-77923761D01*
X104188510Y-77934053D01*
X104280586Y-78131511D01*
X104286069Y-78141007D01*
X104411028Y-78319467D01*
X104418084Y-78327875D01*
X104572125Y-78481916D01*
X104580533Y-78488972D01*
X104758993Y-78613931D01*
X104768489Y-78619414D01*
X104965947Y-78711490D01*
X104976239Y-78715236D01*
X105148503Y-78761394D01*
X105162599Y-78761058D01*
X105166000Y-78753116D01*
X105166000Y-78747967D01*
X105674000Y-78747967D01*
X105677973Y-78761498D01*
X105686522Y-78762727D01*
X105863761Y-78715236D01*
X105874053Y-78711490D01*
X106071511Y-78619414D01*
X106081007Y-78613931D01*
X106259467Y-78488972D01*
X106267875Y-78481916D01*
X106421916Y-78327875D01*
X106428972Y-78319467D01*
X106553931Y-78141007D01*
X106559414Y-78131511D01*
X106651490Y-77934053D01*
X106655236Y-77923761D01*
X106701394Y-77751497D01*
X106701058Y-77737401D01*
X106693116Y-77734000D01*
X105692115Y-77734000D01*
X105676876Y-77738475D01*
X105675671Y-77739865D01*
X105674000Y-77747548D01*
X105674000Y-78747967D01*
X105166000Y-78747967D01*
X105166000Y-77752115D01*
X105161525Y-77736876D01*
X105160135Y-77735671D01*
X105152452Y-77734000D01*
X104152033Y-77734000D01*
X104138502Y-77737973D01*
X104137273Y-77746522D01*
X97890243Y-77746522D01*
X97903269Y-77737401D01*
X97962527Y-77695908D01*
X97962529Y-77695906D01*
X97967038Y-77692749D01*
X98122749Y-77537038D01*
X98128910Y-77528240D01*
X98245899Y-77361162D01*
X98245900Y-77361160D01*
X98249056Y-77356653D01*
X98251379Y-77351671D01*
X98251382Y-77351666D01*
X98339795Y-77162061D01*
X98342120Y-77157076D01*
X98399115Y-76944371D01*
X98418307Y-76725000D01*
X98399115Y-76505629D01*
X98342120Y-76292924D01*
X98292690Y-76186921D01*
X98251382Y-76098334D01*
X98251379Y-76098329D01*
X98249056Y-76093347D01*
X98245899Y-76088838D01*
X98125908Y-75917473D01*
X98125906Y-75917470D01*
X98122749Y-75912962D01*
X97967038Y-75757251D01*
X97928246Y-75730088D01*
X97887759Y-75701739D01*
X97786654Y-75630944D01*
X97587076Y-75537880D01*
X97374371Y-75480885D01*
X97155000Y-75461693D01*
X96935629Y-75480885D01*
X96722924Y-75537880D01*
X96629562Y-75581415D01*
X96528334Y-75628618D01*
X96528329Y-75628621D01*
X96523347Y-75630944D01*
X96518840Y-75634100D01*
X96518838Y-75634101D01*
X96347473Y-75754092D01*
X96347470Y-75754094D01*
X96342962Y-75757251D01*
X96187251Y-75912962D01*
X96184094Y-75917470D01*
X96184092Y-75917473D01*
X96064101Y-76088838D01*
X96060944Y-76093347D01*
X96058621Y-76098329D01*
X96058618Y-76098334D01*
X96017310Y-76186921D01*
X95967880Y-76292924D01*
X95910885Y-76505629D01*
X95891693Y-76725000D01*
X81788000Y-76725000D01*
X81788000Y-73284669D01*
X83732001Y-73284669D01*
X83732371Y-73291490D01*
X83737895Y-73342352D01*
X83741521Y-73357604D01*
X83786676Y-73478054D01*
X83795214Y-73493649D01*
X83871715Y-73595724D01*
X83884276Y-73608285D01*
X83986351Y-73684786D01*
X84001946Y-73693324D01*
X84122394Y-73738478D01*
X84137649Y-73742105D01*
X84188514Y-73747631D01*
X84195328Y-73748000D01*
X84817885Y-73748000D01*
X84833124Y-73743525D01*
X84834329Y-73742135D01*
X84836000Y-73734452D01*
X84836000Y-73729884D01*
X85344000Y-73729884D01*
X85348475Y-73745123D01*
X85349865Y-73746328D01*
X85357548Y-73747999D01*
X85984669Y-73747999D01*
X85991490Y-73747629D01*
X86042352Y-73742105D01*
X86057604Y-73738479D01*
X86178054Y-73693324D01*
X86193649Y-73684786D01*
X86295724Y-73608285D01*
X86308285Y-73595724D01*
X86384786Y-73493649D01*
X86393324Y-73478054D01*
X86438478Y-73357606D01*
X86442105Y-73342351D01*
X86447631Y-73291486D01*
X86448000Y-73284672D01*
X86448000Y-72662115D01*
X86443525Y-72646876D01*
X86442135Y-72645671D01*
X86434452Y-72644000D01*
X85362115Y-72644000D01*
X85346876Y-72648475D01*
X85345671Y-72649865D01*
X85344000Y-72657548D01*
X85344000Y-73729884D01*
X84836000Y-73729884D01*
X84836000Y-72662115D01*
X84831525Y-72646876D01*
X84830135Y-72645671D01*
X84822452Y-72644000D01*
X83750116Y-72644000D01*
X83734877Y-72648475D01*
X83733672Y-72649865D01*
X83732001Y-72657548D01*
X83732001Y-73284669D01*
X81788000Y-73284669D01*
X81788000Y-69816695D01*
X83727251Y-69816695D01*
X83727548Y-69821848D01*
X83727548Y-69821851D01*
X83732914Y-69914908D01*
X83740110Y-70039715D01*
X83741247Y-70044761D01*
X83741248Y-70044767D01*
X83762265Y-70138023D01*
X83789222Y-70257639D01*
X83873266Y-70464616D01*
X83989987Y-70655088D01*
X83993367Y-70658990D01*
X84004352Y-70671671D01*
X84136250Y-70823938D01*
X84140225Y-70827238D01*
X84140231Y-70827244D01*
X84145425Y-70831556D01*
X84185059Y-70890460D01*
X84186555Y-70961441D01*
X84149439Y-71021962D01*
X84109168Y-71046480D01*
X84001946Y-71086676D01*
X83986351Y-71095214D01*
X83884276Y-71171715D01*
X83871715Y-71184276D01*
X83795214Y-71286351D01*
X83786676Y-71301946D01*
X83741522Y-71422394D01*
X83737895Y-71437649D01*
X83732369Y-71488514D01*
X83732000Y-71495328D01*
X83732000Y-72117885D01*
X83736475Y-72133124D01*
X83737865Y-72134329D01*
X83745548Y-72136000D01*
X86429884Y-72136000D01*
X86445123Y-72131525D01*
X86446328Y-72130135D01*
X86447999Y-72122452D01*
X86447999Y-71845000D01*
X95891693Y-71845000D01*
X95910885Y-72064371D01*
X95967880Y-72277076D01*
X95970205Y-72282061D01*
X96058618Y-72471666D01*
X96058621Y-72471671D01*
X96060944Y-72476653D01*
X96064100Y-72481160D01*
X96064101Y-72481162D01*
X96179292Y-72645671D01*
X96187251Y-72657038D01*
X96342962Y-72812749D01*
X96347471Y-72815906D01*
X96347473Y-72815908D01*
X96422241Y-72868261D01*
X96523346Y-72939056D01*
X96722924Y-73032120D01*
X96935629Y-73089115D01*
X97155000Y-73108307D01*
X97374371Y-73089115D01*
X97587076Y-73032120D01*
X97786654Y-72939056D01*
X97887759Y-72868261D01*
X97962527Y-72815908D01*
X97962529Y-72815906D01*
X97967038Y-72812749D01*
X98122749Y-72657038D01*
X98130709Y-72645671D01*
X98245899Y-72481162D01*
X98245900Y-72481160D01*
X98249056Y-72476653D01*
X98251379Y-72471671D01*
X98251382Y-72471666D01*
X98339795Y-72282061D01*
X98342120Y-72277076D01*
X98399115Y-72064371D01*
X98418307Y-71845000D01*
X98399115Y-71625629D01*
X98342120Y-71412924D01*
X98270881Y-71260151D01*
X98251382Y-71218334D01*
X98251379Y-71218329D01*
X98249056Y-71213347D01*
X98242208Y-71203567D01*
X98125908Y-71037473D01*
X98125906Y-71037470D01*
X98122749Y-71032962D01*
X97967038Y-70877251D01*
X97955765Y-70869357D01*
X97878179Y-70815031D01*
X97786654Y-70750944D01*
X97587076Y-70657880D01*
X97374371Y-70600885D01*
X97155000Y-70581693D01*
X96935629Y-70600885D01*
X96722924Y-70657880D01*
X96633050Y-70699789D01*
X96528334Y-70748618D01*
X96528329Y-70748621D01*
X96523347Y-70750944D01*
X96518840Y-70754100D01*
X96518838Y-70754101D01*
X96347473Y-70874092D01*
X96347470Y-70874094D01*
X96342962Y-70877251D01*
X96187251Y-71032962D01*
X96184094Y-71037470D01*
X96184092Y-71037473D01*
X96067792Y-71203567D01*
X96060944Y-71213347D01*
X96058621Y-71218329D01*
X96058618Y-71218334D01*
X96039119Y-71260151D01*
X95967880Y-71412924D01*
X95910885Y-71625629D01*
X95891693Y-71845000D01*
X86447999Y-71845000D01*
X86447999Y-71495331D01*
X86447629Y-71488510D01*
X86442105Y-71437648D01*
X86438479Y-71422396D01*
X86393324Y-71301946D01*
X86384786Y-71286351D01*
X86308285Y-71184276D01*
X86295724Y-71171715D01*
X86193649Y-71095214D01*
X86178054Y-71086676D01*
X86067813Y-71045348D01*
X86011049Y-71002706D01*
X85986349Y-70936145D01*
X86001557Y-70866796D01*
X86023104Y-70838115D01*
X86124430Y-70737144D01*
X86124440Y-70737132D01*
X86128096Y-70733489D01*
X86185222Y-70653990D01*
X86255435Y-70556277D01*
X86258453Y-70552077D01*
X86357430Y-70351811D01*
X86422370Y-70138069D01*
X86451529Y-69916590D01*
X86452912Y-69860000D01*
X86453074Y-69853365D01*
X86453074Y-69853361D01*
X86453156Y-69850000D01*
X86434852Y-69627361D01*
X86380431Y-69410702D01*
X86291354Y-69205840D01*
X86170014Y-69018277D01*
X86019670Y-68853051D01*
X86015619Y-68849852D01*
X86015615Y-68849848D01*
X85848414Y-68717800D01*
X85848410Y-68717798D01*
X85844359Y-68714598D01*
X85803053Y-68691796D01*
X85753084Y-68641364D01*
X85738312Y-68571921D01*
X85763428Y-68505516D01*
X85790780Y-68478909D01*
X85834603Y-68447650D01*
X85969860Y-68351173D01*
X85991753Y-68329357D01*
X86124435Y-68197137D01*
X86128096Y-68193489D01*
X86185222Y-68113990D01*
X86255435Y-68016277D01*
X86258453Y-68012077D01*
X86357430Y-67811811D01*
X86422370Y-67598069D01*
X86451529Y-67376590D01*
X86452912Y-67320000D01*
X86453074Y-67313365D01*
X86453074Y-67313361D01*
X86453156Y-67310000D01*
X86434852Y-67087361D01*
X86380431Y-66870702D01*
X86291354Y-66665840D01*
X86170014Y-66478277D01*
X86019670Y-66313051D01*
X86015619Y-66309852D01*
X86015615Y-66309848D01*
X85848414Y-66177800D01*
X85848410Y-66177798D01*
X85844359Y-66174598D01*
X85835302Y-66169598D01*
X85792136Y-66145769D01*
X85648789Y-66066638D01*
X85643920Y-66064914D01*
X85643916Y-66064912D01*
X85443087Y-65993795D01*
X85443083Y-65993794D01*
X85438212Y-65992069D01*
X85433119Y-65991162D01*
X85433116Y-65991161D01*
X85223373Y-65953800D01*
X85223367Y-65953799D01*
X85218284Y-65952894D01*
X85144452Y-65951992D01*
X85000081Y-65950228D01*
X85000079Y-65950228D01*
X84994911Y-65950165D01*
X84774091Y-65983955D01*
X84561756Y-66053357D01*
X84363607Y-66156507D01*
X84359474Y-66159610D01*
X84359471Y-66159612D01*
X84242226Y-66247642D01*
X84184965Y-66290635D01*
X84030629Y-66452138D01*
X84027715Y-66456410D01*
X84027714Y-66456411D01*
X84017214Y-66471803D01*
X83904743Y-66636680D01*
X83810688Y-66839305D01*
X83750989Y-67054570D01*
X83727251Y-67276695D01*
X83727548Y-67281848D01*
X83727548Y-67281851D01*
X83732914Y-67374908D01*
X83740110Y-67499715D01*
X83741247Y-67504761D01*
X83741248Y-67504767D01*
X83762265Y-67598023D01*
X83789222Y-67717639D01*
X83873266Y-67924616D01*
X83989987Y-68115088D01*
X84136250Y-68283938D01*
X84211213Y-68346173D01*
X84298123Y-68418327D01*
X84308126Y-68426632D01*
X84355587Y-68454366D01*
X84381445Y-68469476D01*
X84430169Y-68521114D01*
X84443240Y-68590897D01*
X84416509Y-68656669D01*
X84376055Y-68690027D01*
X84363607Y-68696507D01*
X84359474Y-68699610D01*
X84359471Y-68699612D01*
X84191624Y-68825635D01*
X84184965Y-68830635D01*
X84030629Y-68992138D01*
X83904743Y-69176680D01*
X83810688Y-69379305D01*
X83750989Y-69594570D01*
X83727251Y-69816695D01*
X81788000Y-69816695D01*
X81788000Y-62497966D01*
X83758257Y-62497966D01*
X83788565Y-62632446D01*
X83791645Y-62642275D01*
X83871770Y-62839603D01*
X83876413Y-62848794D01*
X83987694Y-63030388D01*
X83993777Y-63038699D01*
X84133213Y-63199667D01*
X84140580Y-63206883D01*
X84304434Y-63342916D01*
X84312881Y-63348831D01*
X84496756Y-63456279D01*
X84506042Y-63460729D01*
X84705001Y-63536703D01*
X84714899Y-63539579D01*
X84818250Y-63560606D01*
X84832299Y-63559410D01*
X84836000Y-63549065D01*
X84836000Y-63548517D01*
X85344000Y-63548517D01*
X85348064Y-63562359D01*
X85361478Y-63564393D01*
X85368184Y-63563534D01*
X85378262Y-63561392D01*
X85582255Y-63500191D01*
X85591842Y-63496433D01*
X85783095Y-63402739D01*
X85791945Y-63397464D01*
X85965328Y-63273792D01*
X85973200Y-63267139D01*
X86124052Y-63116812D01*
X86130730Y-63108965D01*
X86255003Y-62936020D01*
X86260313Y-62927183D01*
X86354670Y-62736267D01*
X86358469Y-62726672D01*
X86420377Y-62522910D01*
X86422555Y-62512837D01*
X86423986Y-62501962D01*
X86421775Y-62487778D01*
X86408617Y-62484000D01*
X85362115Y-62484000D01*
X85346876Y-62488475D01*
X85345671Y-62489865D01*
X85344000Y-62497548D01*
X85344000Y-63548517D01*
X84836000Y-63548517D01*
X84836000Y-62502115D01*
X84831525Y-62486876D01*
X84830135Y-62485671D01*
X84822452Y-62484000D01*
X83773225Y-62484000D01*
X83759694Y-62487973D01*
X83758257Y-62497966D01*
X81788000Y-62497966D01*
X81788000Y-60588134D01*
X83731500Y-60588134D01*
X83738255Y-60650316D01*
X83789385Y-60786705D01*
X83876739Y-60903261D01*
X83993295Y-60990615D01*
X84001704Y-60993767D01*
X84001705Y-60993768D01*
X84110960Y-61034726D01*
X84167725Y-61077367D01*
X84192425Y-61143929D01*
X84177218Y-61213278D01*
X84157825Y-61239759D01*
X84034590Y-61368717D01*
X84028104Y-61376727D01*
X83908098Y-61552649D01*
X83903000Y-61561623D01*
X83813338Y-61754783D01*
X83809775Y-61764470D01*
X83754389Y-61964183D01*
X83755912Y-61972607D01*
X83768292Y-61976000D01*
X86408344Y-61976000D01*
X86421875Y-61972027D01*
X86423180Y-61962947D01*
X86381214Y-61795875D01*
X86377894Y-61786124D01*
X86292972Y-61590814D01*
X86288105Y-61581739D01*
X86172426Y-61402926D01*
X86166136Y-61394757D01*
X86022293Y-61236677D01*
X85991241Y-61172831D01*
X85999635Y-61102333D01*
X86044812Y-61047564D01*
X86071256Y-61033895D01*
X86178297Y-60993767D01*
X86186705Y-60990615D01*
X86303261Y-60903261D01*
X86390615Y-60786705D01*
X86441745Y-60650316D01*
X86448500Y-60588134D01*
X86448500Y-59279594D01*
X86468502Y-59211473D01*
X86485405Y-59190499D01*
X86585499Y-59090405D01*
X86647811Y-59056379D01*
X86674594Y-59053500D01*
X104079918Y-59053500D01*
X104148039Y-59073502D01*
X104194532Y-59127158D01*
X104204636Y-59197432D01*
X104194113Y-59232749D01*
X104185716Y-59250757D01*
X104184294Y-59256065D01*
X104184293Y-59256067D01*
X104163807Y-59332523D01*
X104126457Y-59471913D01*
X104106502Y-59700000D01*
X104126457Y-59928087D01*
X104127881Y-59933400D01*
X104127881Y-59933402D01*
X104134392Y-59957699D01*
X104185716Y-60149243D01*
X104188039Y-60154224D01*
X104188039Y-60154225D01*
X104280151Y-60351762D01*
X104280154Y-60351767D01*
X104282477Y-60356749D01*
X104413802Y-60544300D01*
X104575700Y-60706198D01*
X104580208Y-60709355D01*
X104580211Y-60709357D01*
X104620251Y-60737393D01*
X104763251Y-60837523D01*
X104768233Y-60839846D01*
X104768238Y-60839849D01*
X104802457Y-60855805D01*
X104855742Y-60902722D01*
X104875203Y-60970999D01*
X104854661Y-61038959D01*
X104802457Y-61084195D01*
X104768238Y-61100151D01*
X104768233Y-61100154D01*
X104763251Y-61102477D01*
X104704052Y-61143929D01*
X104580211Y-61230643D01*
X104580208Y-61230645D01*
X104575700Y-61233802D01*
X104413802Y-61395700D01*
X104410645Y-61400208D01*
X104410643Y-61400211D01*
X104355902Y-61478389D01*
X104282477Y-61583251D01*
X104280154Y-61588233D01*
X104280151Y-61588238D01*
X104202491Y-61754783D01*
X104185716Y-61790757D01*
X104184294Y-61796065D01*
X104184293Y-61796067D01*
X104139577Y-61962947D01*
X104126457Y-62011913D01*
X104106502Y-62240000D01*
X104126457Y-62468087D01*
X104127881Y-62473400D01*
X104127881Y-62473402D01*
X104166694Y-62618251D01*
X104185716Y-62689243D01*
X104188039Y-62694224D01*
X104188039Y-62694225D01*
X104280151Y-62891762D01*
X104280154Y-62891767D01*
X104282477Y-62896749D01*
X104309975Y-62936020D01*
X104383902Y-63041598D01*
X104413802Y-63084300D01*
X104575700Y-63246198D01*
X104580208Y-63249355D01*
X104580211Y-63249357D01*
X104609014Y-63269525D01*
X104763251Y-63377523D01*
X104768233Y-63379846D01*
X104768238Y-63379849D01*
X104802457Y-63395805D01*
X104855742Y-63442722D01*
X104875203Y-63510999D01*
X104854661Y-63578959D01*
X104802457Y-63624195D01*
X104768238Y-63640151D01*
X104768233Y-63640154D01*
X104763251Y-63642477D01*
X104658389Y-63715902D01*
X104580211Y-63770643D01*
X104580208Y-63770645D01*
X104575700Y-63773802D01*
X104413802Y-63935700D01*
X104282477Y-64123251D01*
X104280154Y-64128233D01*
X104280151Y-64128238D01*
X104188039Y-64325775D01*
X104185716Y-64330757D01*
X104184294Y-64336065D01*
X104184293Y-64336067D01*
X104163807Y-64412523D01*
X104126457Y-64551913D01*
X104106502Y-64780000D01*
X104126457Y-65008087D01*
X104185716Y-65229243D01*
X104188039Y-65234224D01*
X104188039Y-65234225D01*
X104280151Y-65431762D01*
X104280154Y-65431767D01*
X104282477Y-65436749D01*
X104413802Y-65624300D01*
X104575700Y-65786198D01*
X104580208Y-65789355D01*
X104580211Y-65789357D01*
X104658389Y-65844098D01*
X104763251Y-65917523D01*
X104768233Y-65919846D01*
X104768238Y-65919849D01*
X104802457Y-65935805D01*
X104855742Y-65982722D01*
X104875203Y-66050999D01*
X104854661Y-66118959D01*
X104802457Y-66164195D01*
X104768238Y-66180151D01*
X104768233Y-66180154D01*
X104763251Y-66182477D01*
X104711465Y-66218738D01*
X104580211Y-66310643D01*
X104580208Y-66310645D01*
X104575700Y-66313802D01*
X104413802Y-66475700D01*
X104410645Y-66480208D01*
X104410643Y-66480211D01*
X104355902Y-66558389D01*
X104282477Y-66663251D01*
X104280154Y-66668233D01*
X104280151Y-66668238D01*
X104200386Y-66839297D01*
X104185716Y-66870757D01*
X104184294Y-66876065D01*
X104184293Y-66876067D01*
X104129016Y-67082361D01*
X104126457Y-67091913D01*
X104106502Y-67320000D01*
X104126457Y-67548087D01*
X104127881Y-67553400D01*
X104127881Y-67553402D01*
X104171889Y-67717639D01*
X104185716Y-67769243D01*
X104188039Y-67774224D01*
X104188039Y-67774225D01*
X104280151Y-67971762D01*
X104280154Y-67971767D01*
X104282477Y-67976749D01*
X104285634Y-67981257D01*
X104382076Y-68118990D01*
X104413802Y-68164300D01*
X104575700Y-68326198D01*
X104580208Y-68329355D01*
X104580211Y-68329357D01*
X104611368Y-68351173D01*
X104763251Y-68457523D01*
X104768233Y-68459846D01*
X104768238Y-68459849D01*
X104802457Y-68475805D01*
X104855742Y-68522722D01*
X104875203Y-68590999D01*
X104854661Y-68658959D01*
X104802457Y-68704195D01*
X104768238Y-68720151D01*
X104768233Y-68720154D01*
X104763251Y-68722477D01*
X104658389Y-68795902D01*
X104580211Y-68850643D01*
X104580208Y-68850645D01*
X104575700Y-68853802D01*
X104413802Y-69015700D01*
X104410645Y-69020208D01*
X104410643Y-69020211D01*
X104355902Y-69098389D01*
X104282477Y-69203251D01*
X104280154Y-69208233D01*
X104280151Y-69208238D01*
X104200386Y-69379297D01*
X104185716Y-69410757D01*
X104184294Y-69416065D01*
X104184293Y-69416067D01*
X104129016Y-69622361D01*
X104126457Y-69631913D01*
X104106502Y-69860000D01*
X104126457Y-70088087D01*
X104127881Y-70093400D01*
X104127881Y-70093402D01*
X104171889Y-70257639D01*
X104185716Y-70309243D01*
X104188039Y-70314224D01*
X104188039Y-70314225D01*
X104280151Y-70511762D01*
X104280154Y-70511767D01*
X104282477Y-70516749D01*
X104341390Y-70600885D01*
X104382076Y-70658990D01*
X104413802Y-70704300D01*
X104575700Y-70866198D01*
X104580208Y-70869355D01*
X104580211Y-70869357D01*
X104611368Y-70891173D01*
X104763251Y-70997523D01*
X104768233Y-70999846D01*
X104768238Y-70999849D01*
X104802457Y-71015805D01*
X104855742Y-71062722D01*
X104875203Y-71130999D01*
X104854661Y-71198959D01*
X104802457Y-71244195D01*
X104768238Y-71260151D01*
X104768233Y-71260154D01*
X104763251Y-71262477D01*
X104706884Y-71301946D01*
X104580211Y-71390643D01*
X104580208Y-71390645D01*
X104575700Y-71393802D01*
X104413802Y-71555700D01*
X104282477Y-71743251D01*
X104280154Y-71748233D01*
X104280151Y-71748238D01*
X104237584Y-71839525D01*
X104185716Y-71950757D01*
X104184294Y-71956065D01*
X104184293Y-71956067D01*
X104136528Y-72134329D01*
X104126457Y-72171913D01*
X104106502Y-72400000D01*
X104126457Y-72628087D01*
X104127881Y-72633400D01*
X104127881Y-72633402D01*
X104169198Y-72787596D01*
X104185716Y-72849243D01*
X104188039Y-72854224D01*
X104188039Y-72854225D01*
X104280151Y-73051762D01*
X104280154Y-73051767D01*
X104282477Y-73056749D01*
X104413802Y-73244300D01*
X104575700Y-73406198D01*
X104580208Y-73409355D01*
X104580211Y-73409357D01*
X104658389Y-73464098D01*
X104763251Y-73537523D01*
X104768233Y-73539846D01*
X104768238Y-73539849D01*
X104802457Y-73555805D01*
X104855742Y-73602722D01*
X104875203Y-73670999D01*
X104854661Y-73738959D01*
X104802457Y-73784195D01*
X104768238Y-73800151D01*
X104768233Y-73800154D01*
X104763251Y-73802477D01*
X104658389Y-73875902D01*
X104580211Y-73930643D01*
X104580208Y-73930645D01*
X104575700Y-73933802D01*
X104413802Y-74095700D01*
X104282477Y-74283251D01*
X104280154Y-74288233D01*
X104280151Y-74288238D01*
X104204903Y-74449610D01*
X104185716Y-74490757D01*
X104126457Y-74711913D01*
X104106502Y-74940000D01*
X104126457Y-75168087D01*
X104127881Y-75173400D01*
X104127881Y-75173402D01*
X104169198Y-75327596D01*
X104185716Y-75389243D01*
X104188039Y-75394224D01*
X104188039Y-75394225D01*
X104280151Y-75591762D01*
X104280154Y-75591767D01*
X104282477Y-75596749D01*
X104355902Y-75701611D01*
X104397591Y-75761148D01*
X104413802Y-75784300D01*
X104575700Y-75946198D01*
X104580208Y-75949355D01*
X104580211Y-75949357D01*
X104658389Y-76004098D01*
X104763251Y-76077523D01*
X104768233Y-76079846D01*
X104768238Y-76079849D01*
X104803049Y-76096081D01*
X104856334Y-76142998D01*
X104875795Y-76211275D01*
X104855253Y-76279235D01*
X104803049Y-76324471D01*
X104768489Y-76340586D01*
X104758993Y-76346069D01*
X104580533Y-76471028D01*
X104572125Y-76478084D01*
X104418084Y-76632125D01*
X104411028Y-76640533D01*
X104286069Y-76818993D01*
X104280586Y-76828489D01*
X104188510Y-77025947D01*
X104184764Y-77036239D01*
X104138606Y-77208503D01*
X104138942Y-77222599D01*
X104146884Y-77226000D01*
X106687967Y-77226000D01*
X106701498Y-77222027D01*
X106702727Y-77213478D01*
X106655236Y-77036239D01*
X106651490Y-77025947D01*
X106559414Y-76828489D01*
X106553931Y-76818993D01*
X106428972Y-76640533D01*
X106421916Y-76632125D01*
X106267875Y-76478084D01*
X106259467Y-76471028D01*
X106081007Y-76346069D01*
X106071511Y-76340586D01*
X106036951Y-76324471D01*
X105983666Y-76277554D01*
X105964205Y-76209277D01*
X105984747Y-76141317D01*
X106036951Y-76096081D01*
X106071762Y-76079849D01*
X106071767Y-76079846D01*
X106076749Y-76077523D01*
X106181611Y-76004098D01*
X106259789Y-75949357D01*
X106259792Y-75949355D01*
X106264300Y-75946198D01*
X106426198Y-75784300D01*
X106442410Y-75761148D01*
X106484098Y-75701611D01*
X106557523Y-75596749D01*
X106559846Y-75591767D01*
X106559849Y-75591762D01*
X106651961Y-75394225D01*
X106651961Y-75394224D01*
X106654284Y-75389243D01*
X106670803Y-75327596D01*
X106712119Y-75173402D01*
X106712119Y-75173400D01*
X106713543Y-75168087D01*
X106733498Y-74940000D01*
X106713543Y-74711913D01*
X106654284Y-74490757D01*
X106635097Y-74449610D01*
X106559849Y-74288238D01*
X106559846Y-74288233D01*
X106557523Y-74283251D01*
X106426198Y-74095700D01*
X106264300Y-73933802D01*
X106259792Y-73930645D01*
X106259789Y-73930643D01*
X106181611Y-73875902D01*
X106076749Y-73802477D01*
X106071767Y-73800154D01*
X106071762Y-73800151D01*
X106037543Y-73784195D01*
X105984258Y-73737278D01*
X105964797Y-73669001D01*
X105985339Y-73601041D01*
X106037543Y-73555805D01*
X106071762Y-73539849D01*
X106071767Y-73539846D01*
X106076749Y-73537523D01*
X106181611Y-73464098D01*
X106259789Y-73409357D01*
X106259792Y-73409355D01*
X106264300Y-73406198D01*
X106426198Y-73244300D01*
X106557523Y-73056749D01*
X106559846Y-73051767D01*
X106559849Y-73051762D01*
X106651961Y-72854225D01*
X106651961Y-72854224D01*
X106654284Y-72849243D01*
X106670803Y-72787596D01*
X106712119Y-72633402D01*
X106712119Y-72633400D01*
X106713543Y-72628087D01*
X106733498Y-72400000D01*
X106713543Y-72171913D01*
X106703472Y-72134329D01*
X106655707Y-71956067D01*
X106655706Y-71956065D01*
X106654284Y-71950757D01*
X106602416Y-71839525D01*
X106559849Y-71748238D01*
X106559846Y-71748233D01*
X106557523Y-71743251D01*
X106426198Y-71555700D01*
X106264300Y-71393802D01*
X106259792Y-71390645D01*
X106259789Y-71390643D01*
X106133116Y-71301946D01*
X106076749Y-71262477D01*
X106071767Y-71260154D01*
X106071762Y-71260151D01*
X106037543Y-71244195D01*
X105984258Y-71197278D01*
X105964797Y-71129001D01*
X105985339Y-71061041D01*
X106037543Y-71015805D01*
X106071762Y-70999849D01*
X106071767Y-70999846D01*
X106076749Y-70997523D01*
X106228632Y-70891173D01*
X106259789Y-70869357D01*
X106259792Y-70869355D01*
X106264300Y-70866198D01*
X106426198Y-70704300D01*
X106457925Y-70658990D01*
X106498610Y-70600885D01*
X106557523Y-70516749D01*
X106559846Y-70511767D01*
X106559849Y-70511762D01*
X106651961Y-70314225D01*
X106651961Y-70314224D01*
X106654284Y-70309243D01*
X106668112Y-70257639D01*
X106712119Y-70093402D01*
X106712119Y-70093400D01*
X106713543Y-70088087D01*
X106733498Y-69860000D01*
X106713543Y-69631913D01*
X106710984Y-69622361D01*
X106655707Y-69416067D01*
X106655706Y-69416065D01*
X106654284Y-69410757D01*
X106639614Y-69379297D01*
X106559849Y-69208238D01*
X106559846Y-69208233D01*
X106557523Y-69203251D01*
X106484098Y-69098389D01*
X106429357Y-69020211D01*
X106429355Y-69020208D01*
X106426198Y-69015700D01*
X106264300Y-68853802D01*
X106259792Y-68850645D01*
X106259789Y-68850643D01*
X106181611Y-68795902D01*
X106076749Y-68722477D01*
X106071767Y-68720154D01*
X106071762Y-68720151D01*
X106037543Y-68704195D01*
X105984258Y-68657278D01*
X105964797Y-68589001D01*
X105985339Y-68521041D01*
X106037543Y-68475805D01*
X106071762Y-68459849D01*
X106071767Y-68459846D01*
X106076749Y-68457523D01*
X106228632Y-68351173D01*
X106259789Y-68329357D01*
X106259792Y-68329355D01*
X106264300Y-68326198D01*
X106426198Y-68164300D01*
X106457925Y-68118990D01*
X106554366Y-67981257D01*
X106557523Y-67976749D01*
X106559846Y-67971767D01*
X106559849Y-67971762D01*
X106651961Y-67774225D01*
X106651961Y-67774224D01*
X106654284Y-67769243D01*
X106668112Y-67717639D01*
X106712119Y-67553402D01*
X106712119Y-67553400D01*
X106713543Y-67548087D01*
X106733498Y-67320000D01*
X106713543Y-67091913D01*
X106710984Y-67082361D01*
X106655707Y-66876067D01*
X106655706Y-66876065D01*
X106654284Y-66870757D01*
X106639614Y-66839297D01*
X106559849Y-66668238D01*
X106559846Y-66668233D01*
X106557523Y-66663251D01*
X106484098Y-66558389D01*
X106429357Y-66480211D01*
X106429355Y-66480208D01*
X106426198Y-66475700D01*
X106264300Y-66313802D01*
X106259792Y-66310645D01*
X106259789Y-66310643D01*
X106128535Y-66218738D01*
X106076749Y-66182477D01*
X106071767Y-66180154D01*
X106071762Y-66180151D01*
X106037543Y-66164195D01*
X105984258Y-66117278D01*
X105964797Y-66049001D01*
X105985339Y-65981041D01*
X106037543Y-65935805D01*
X106071762Y-65919849D01*
X106071767Y-65919846D01*
X106076749Y-65917523D01*
X106181611Y-65844098D01*
X106259789Y-65789357D01*
X106259792Y-65789355D01*
X106264300Y-65786198D01*
X106426198Y-65624300D01*
X106557523Y-65436749D01*
X106559846Y-65431767D01*
X106559849Y-65431762D01*
X106651961Y-65234225D01*
X106651961Y-65234224D01*
X106654284Y-65229243D01*
X106713543Y-65008087D01*
X106733498Y-64780000D01*
X106713543Y-64551913D01*
X106676193Y-64412523D01*
X106655707Y-64336067D01*
X106655706Y-64336065D01*
X106654284Y-64330757D01*
X106651961Y-64325775D01*
X106559849Y-64128238D01*
X106559846Y-64128233D01*
X106557523Y-64123251D01*
X106426198Y-63935700D01*
X106264300Y-63773802D01*
X106259792Y-63770645D01*
X106259789Y-63770643D01*
X106181611Y-63715902D01*
X106076749Y-63642477D01*
X106071767Y-63640154D01*
X106071762Y-63640151D01*
X106037543Y-63624195D01*
X105984258Y-63577278D01*
X105964797Y-63509001D01*
X105985339Y-63441041D01*
X106037543Y-63395805D01*
X106071762Y-63379849D01*
X106071767Y-63379846D01*
X106076749Y-63377523D01*
X106230986Y-63269525D01*
X106259789Y-63249357D01*
X106259792Y-63249355D01*
X106264300Y-63246198D01*
X106426198Y-63084300D01*
X106456099Y-63041598D01*
X106530025Y-62936020D01*
X106557523Y-62896749D01*
X106559846Y-62891767D01*
X106559849Y-62891762D01*
X106651961Y-62694225D01*
X106651961Y-62694224D01*
X106654284Y-62689243D01*
X106673307Y-62618251D01*
X106712119Y-62473402D01*
X106712119Y-62473400D01*
X106713543Y-62468087D01*
X106733498Y-62240000D01*
X106713543Y-62011913D01*
X106700423Y-61962947D01*
X106655707Y-61796067D01*
X106655706Y-61796065D01*
X106654284Y-61790757D01*
X106637509Y-61754783D01*
X106559849Y-61588238D01*
X106559846Y-61588233D01*
X106557523Y-61583251D01*
X106484098Y-61478389D01*
X106429357Y-61400211D01*
X106429355Y-61400208D01*
X106426198Y-61395700D01*
X106264300Y-61233802D01*
X106259792Y-61230645D01*
X106259789Y-61230643D01*
X106135948Y-61143929D01*
X106076749Y-61102477D01*
X106071767Y-61100154D01*
X106071762Y-61100151D01*
X106037543Y-61084195D01*
X105984258Y-61037278D01*
X105964797Y-60969001D01*
X105985339Y-60901041D01*
X106037543Y-60855805D01*
X106071762Y-60839849D01*
X106071767Y-60839846D01*
X106076749Y-60837523D01*
X106219749Y-60737393D01*
X106259789Y-60709357D01*
X106259792Y-60709355D01*
X106264300Y-60706198D01*
X106426198Y-60544300D01*
X106557523Y-60356749D01*
X106559846Y-60351767D01*
X106559849Y-60351762D01*
X106651961Y-60154225D01*
X106651961Y-60154224D01*
X106654284Y-60149243D01*
X106705609Y-59957699D01*
X106712119Y-59933402D01*
X106712119Y-59933400D01*
X106713543Y-59928087D01*
X106733498Y-59700000D01*
X106713543Y-59471913D01*
X106676193Y-59332523D01*
X106655707Y-59256067D01*
X106655706Y-59256065D01*
X106654284Y-59250757D01*
X106645888Y-59232751D01*
X106635226Y-59162559D01*
X106664205Y-59097746D01*
X106723625Y-59058890D01*
X106760082Y-59053500D01*
X111699918Y-59053500D01*
X111768039Y-59073502D01*
X111814532Y-59127158D01*
X111824636Y-59197432D01*
X111814113Y-59232749D01*
X111805716Y-59250757D01*
X111746457Y-59471913D01*
X111726502Y-59700000D01*
X111746457Y-59928087D01*
X111747881Y-59933400D01*
X111747881Y-59933402D01*
X111754392Y-59957699D01*
X111805716Y-60149243D01*
X111808039Y-60154224D01*
X111808039Y-60154225D01*
X111900151Y-60351762D01*
X111900154Y-60351767D01*
X111902477Y-60356749D01*
X112033802Y-60544300D01*
X112195700Y-60706198D01*
X112200208Y-60709355D01*
X112200211Y-60709357D01*
X112240251Y-60737393D01*
X112383251Y-60837523D01*
X112388233Y-60839846D01*
X112388238Y-60839849D01*
X112422457Y-60855805D01*
X112475742Y-60902722D01*
X112495203Y-60970999D01*
X112474661Y-61038959D01*
X112422457Y-61084195D01*
X112388238Y-61100151D01*
X112388233Y-61100154D01*
X112383251Y-61102477D01*
X112324052Y-61143929D01*
X112200211Y-61230643D01*
X112200208Y-61230645D01*
X112195700Y-61233802D01*
X112033802Y-61395700D01*
X112030645Y-61400208D01*
X112030643Y-61400211D01*
X111975902Y-61478389D01*
X111902477Y-61583251D01*
X111900154Y-61588233D01*
X111900151Y-61588238D01*
X111822491Y-61754783D01*
X111805716Y-61790757D01*
X111804294Y-61796065D01*
X111804293Y-61796067D01*
X111759577Y-61962947D01*
X111746457Y-62011913D01*
X111726502Y-62240000D01*
X111746457Y-62468087D01*
X111747881Y-62473400D01*
X111747881Y-62473402D01*
X111786694Y-62618251D01*
X111805716Y-62689243D01*
X111808039Y-62694224D01*
X111808039Y-62694225D01*
X111900151Y-62891762D01*
X111900154Y-62891767D01*
X111902477Y-62896749D01*
X111929975Y-62936020D01*
X112003902Y-63041598D01*
X112033802Y-63084300D01*
X112195700Y-63246198D01*
X112200208Y-63249355D01*
X112200211Y-63249357D01*
X112229014Y-63269525D01*
X112383251Y-63377523D01*
X112388233Y-63379846D01*
X112388238Y-63379849D01*
X112422457Y-63395805D01*
X112475742Y-63442722D01*
X112495203Y-63510999D01*
X112474661Y-63578959D01*
X112422457Y-63624195D01*
X112388238Y-63640151D01*
X112388233Y-63640154D01*
X112383251Y-63642477D01*
X112278389Y-63715902D01*
X112200211Y-63770643D01*
X112200208Y-63770645D01*
X112195700Y-63773802D01*
X112033802Y-63935700D01*
X111902477Y-64123251D01*
X111900154Y-64128233D01*
X111900151Y-64128238D01*
X111808039Y-64325775D01*
X111805716Y-64330757D01*
X111804294Y-64336065D01*
X111804293Y-64336067D01*
X111783807Y-64412523D01*
X111746457Y-64551913D01*
X111726502Y-64780000D01*
X111746457Y-65008087D01*
X111805716Y-65229243D01*
X111808039Y-65234224D01*
X111808039Y-65234225D01*
X111900151Y-65431762D01*
X111900154Y-65431767D01*
X111902477Y-65436749D01*
X112033802Y-65624300D01*
X112195700Y-65786198D01*
X112200208Y-65789355D01*
X112200211Y-65789357D01*
X112278389Y-65844098D01*
X112383251Y-65917523D01*
X112388233Y-65919846D01*
X112388238Y-65919849D01*
X112422457Y-65935805D01*
X112475742Y-65982722D01*
X112495203Y-66050999D01*
X112474661Y-66118959D01*
X112422457Y-66164195D01*
X112388238Y-66180151D01*
X112388233Y-66180154D01*
X112383251Y-66182477D01*
X112331465Y-66218738D01*
X112200211Y-66310643D01*
X112200208Y-66310645D01*
X112195700Y-66313802D01*
X112033802Y-66475700D01*
X112030645Y-66480208D01*
X112030643Y-66480211D01*
X111975902Y-66558389D01*
X111902477Y-66663251D01*
X111900154Y-66668233D01*
X111900151Y-66668238D01*
X111820386Y-66839297D01*
X111805716Y-66870757D01*
X111804294Y-66876065D01*
X111804293Y-66876067D01*
X111749016Y-67082361D01*
X111746457Y-67091913D01*
X111726502Y-67320000D01*
X111746457Y-67548087D01*
X111747881Y-67553400D01*
X111747881Y-67553402D01*
X111791889Y-67717639D01*
X111805716Y-67769243D01*
X111808039Y-67774224D01*
X111808039Y-67774225D01*
X111900151Y-67971762D01*
X111900154Y-67971767D01*
X111902477Y-67976749D01*
X111905634Y-67981257D01*
X112002076Y-68118990D01*
X112033802Y-68164300D01*
X112195700Y-68326198D01*
X112200208Y-68329355D01*
X112200211Y-68329357D01*
X112231368Y-68351173D01*
X112383251Y-68457523D01*
X112388233Y-68459846D01*
X112388238Y-68459849D01*
X112422457Y-68475805D01*
X112475742Y-68522722D01*
X112495203Y-68590999D01*
X112474661Y-68658959D01*
X112422457Y-68704195D01*
X112388238Y-68720151D01*
X112388233Y-68720154D01*
X112383251Y-68722477D01*
X112278389Y-68795902D01*
X112200211Y-68850643D01*
X112200208Y-68850645D01*
X112195700Y-68853802D01*
X112033802Y-69015700D01*
X112030645Y-69020208D01*
X112030643Y-69020211D01*
X111975902Y-69098389D01*
X111902477Y-69203251D01*
X111900154Y-69208233D01*
X111900151Y-69208238D01*
X111820386Y-69379297D01*
X111805716Y-69410757D01*
X111804294Y-69416065D01*
X111804293Y-69416067D01*
X111749016Y-69622361D01*
X111746457Y-69631913D01*
X111726502Y-69860000D01*
X111746457Y-70088087D01*
X111747881Y-70093400D01*
X111747881Y-70093402D01*
X111791889Y-70257639D01*
X111805716Y-70309243D01*
X111808039Y-70314224D01*
X111808039Y-70314225D01*
X111900151Y-70511762D01*
X111900154Y-70511767D01*
X111902477Y-70516749D01*
X111961390Y-70600885D01*
X112002076Y-70658990D01*
X112033802Y-70704300D01*
X112195700Y-70866198D01*
X112200208Y-70869355D01*
X112200211Y-70869357D01*
X112231368Y-70891173D01*
X112383251Y-70997523D01*
X112388233Y-70999846D01*
X112388238Y-70999849D01*
X112422457Y-71015805D01*
X112475742Y-71062722D01*
X112495203Y-71130999D01*
X112474661Y-71198959D01*
X112422457Y-71244195D01*
X112388238Y-71260151D01*
X112388233Y-71260154D01*
X112383251Y-71262477D01*
X112326884Y-71301946D01*
X112200211Y-71390643D01*
X112200208Y-71390645D01*
X112195700Y-71393802D01*
X112033802Y-71555700D01*
X111902477Y-71743251D01*
X111900154Y-71748233D01*
X111900151Y-71748238D01*
X111857584Y-71839525D01*
X111805716Y-71950757D01*
X111804294Y-71956065D01*
X111804293Y-71956067D01*
X111756528Y-72134329D01*
X111746457Y-72171913D01*
X111726502Y-72400000D01*
X111746457Y-72628087D01*
X111747881Y-72633400D01*
X111747881Y-72633402D01*
X111789198Y-72787596D01*
X111805716Y-72849243D01*
X111808039Y-72854224D01*
X111808039Y-72854225D01*
X111900151Y-73051762D01*
X111900154Y-73051767D01*
X111902477Y-73056749D01*
X112033802Y-73244300D01*
X112195700Y-73406198D01*
X112200208Y-73409355D01*
X112200211Y-73409357D01*
X112278389Y-73464098D01*
X112383251Y-73537523D01*
X112388233Y-73539846D01*
X112388238Y-73539849D01*
X112422457Y-73555805D01*
X112475742Y-73602722D01*
X112495203Y-73670999D01*
X112474661Y-73738959D01*
X112422457Y-73784195D01*
X112388238Y-73800151D01*
X112388233Y-73800154D01*
X112383251Y-73802477D01*
X112278389Y-73875902D01*
X112200211Y-73930643D01*
X112200208Y-73930645D01*
X112195700Y-73933802D01*
X112033802Y-74095700D01*
X111902477Y-74283251D01*
X111900154Y-74288233D01*
X111900151Y-74288238D01*
X111824903Y-74449610D01*
X111805716Y-74490757D01*
X111746457Y-74711913D01*
X111726502Y-74940000D01*
X111746457Y-75168087D01*
X111747881Y-75173400D01*
X111747881Y-75173402D01*
X111789198Y-75327596D01*
X111805716Y-75389243D01*
X111808039Y-75394224D01*
X111808039Y-75394225D01*
X111900151Y-75591762D01*
X111900154Y-75591767D01*
X111902477Y-75596749D01*
X111975902Y-75701611D01*
X112017591Y-75761148D01*
X112033802Y-75784300D01*
X112195700Y-75946198D01*
X112200208Y-75949355D01*
X112200211Y-75949357D01*
X112278389Y-76004098D01*
X112383251Y-76077523D01*
X112388233Y-76079846D01*
X112388238Y-76079849D01*
X112422457Y-76095805D01*
X112475742Y-76142722D01*
X112495203Y-76210999D01*
X112474661Y-76278959D01*
X112422457Y-76324195D01*
X112388238Y-76340151D01*
X112388233Y-76340154D01*
X112383251Y-76342477D01*
X112278389Y-76415902D01*
X112200211Y-76470643D01*
X112200208Y-76470645D01*
X112195700Y-76473802D01*
X112033802Y-76635700D01*
X111902477Y-76823251D01*
X111900154Y-76828233D01*
X111900151Y-76828238D01*
X111900034Y-76828489D01*
X111805716Y-77030757D01*
X111746457Y-77251913D01*
X111726502Y-77480000D01*
X111746457Y-77708087D01*
X111747881Y-77713400D01*
X111747881Y-77713402D01*
X111789198Y-77867596D01*
X111805716Y-77929243D01*
X111808039Y-77934224D01*
X111808039Y-77934225D01*
X111900151Y-78131762D01*
X111900154Y-78131767D01*
X111902477Y-78136749D01*
X112033802Y-78324300D01*
X112195700Y-78486198D01*
X112200208Y-78489355D01*
X112200211Y-78489357D01*
X112278389Y-78544098D01*
X112383251Y-78617523D01*
X112388233Y-78619846D01*
X112388238Y-78619849D01*
X112547982Y-78694338D01*
X112590757Y-78714284D01*
X112596065Y-78715706D01*
X112596067Y-78715707D01*
X112806598Y-78772119D01*
X112806600Y-78772119D01*
X112811913Y-78773543D01*
X113040000Y-78793498D01*
X113268087Y-78773543D01*
X113273400Y-78772119D01*
X113273402Y-78772119D01*
X113483933Y-78715707D01*
X113483935Y-78715706D01*
X113489243Y-78714284D01*
X113532018Y-78694338D01*
X113691762Y-78619849D01*
X113691767Y-78619846D01*
X113696749Y-78617523D01*
X113801611Y-78544098D01*
X113879789Y-78489357D01*
X113879792Y-78489355D01*
X113884300Y-78486198D01*
X114046198Y-78324300D01*
X114177523Y-78136749D01*
X114179846Y-78131767D01*
X114179849Y-78131762D01*
X114271961Y-77934225D01*
X114271961Y-77934224D01*
X114274284Y-77929243D01*
X114290803Y-77867596D01*
X114332119Y-77713402D01*
X114332119Y-77713400D01*
X114333543Y-77708087D01*
X114353498Y-77480000D01*
X114349272Y-77431695D01*
X127542251Y-77431695D01*
X127542548Y-77436848D01*
X127542548Y-77436851D01*
X127554812Y-77649547D01*
X127555110Y-77654715D01*
X127556247Y-77659761D01*
X127556248Y-77659767D01*
X127562803Y-77688852D01*
X127604222Y-77872639D01*
X127688266Y-78079616D01*
X127804987Y-78270088D01*
X127951250Y-78438938D01*
X128123126Y-78581632D01*
X128178399Y-78613931D01*
X128196955Y-78624774D01*
X128245679Y-78676412D01*
X128258750Y-78746195D01*
X128232019Y-78811967D01*
X128191562Y-78845327D01*
X128183457Y-78849546D01*
X128174738Y-78855036D01*
X128004433Y-78982905D01*
X127996726Y-78989748D01*
X127849590Y-79143717D01*
X127843104Y-79151727D01*
X127723098Y-79327649D01*
X127718000Y-79336623D01*
X127628338Y-79529783D01*
X127624775Y-79539470D01*
X127569389Y-79739183D01*
X127570912Y-79747607D01*
X127583292Y-79751000D01*
X130223344Y-79751000D01*
X130236875Y-79747027D01*
X130238180Y-79737947D01*
X130196214Y-79570875D01*
X130192894Y-79561124D01*
X130107972Y-79365814D01*
X130103105Y-79356739D01*
X129987426Y-79177926D01*
X129981136Y-79169757D01*
X129837806Y-79012240D01*
X129830273Y-79005215D01*
X129663139Y-78873222D01*
X129654556Y-78867520D01*
X129617602Y-78847120D01*
X129567631Y-78796687D01*
X129552859Y-78727245D01*
X129577975Y-78660839D01*
X129605327Y-78634232D01*
X129633788Y-78613931D01*
X129784860Y-78506173D01*
X129943096Y-78348489D01*
X129960478Y-78324300D01*
X130070435Y-78171277D01*
X130073453Y-78167077D01*
X130172430Y-77966811D01*
X130237370Y-77753069D01*
X130266529Y-77531590D01*
X130268156Y-77465000D01*
X130249852Y-77242361D01*
X130195431Y-77025702D01*
X130106354Y-76820840D01*
X129985014Y-76633277D01*
X129834670Y-76468051D01*
X129830619Y-76464852D01*
X129830615Y-76464848D01*
X129663414Y-76332800D01*
X129663410Y-76332798D01*
X129659359Y-76329598D01*
X129618053Y-76306796D01*
X129568084Y-76256364D01*
X129553312Y-76186921D01*
X129578428Y-76120516D01*
X129605780Y-76093909D01*
X129649603Y-76062650D01*
X129784860Y-75966173D01*
X129833731Y-75917473D01*
X129939435Y-75812137D01*
X129943096Y-75808489D01*
X129960478Y-75784300D01*
X130070435Y-75631277D01*
X130073453Y-75627077D01*
X130155191Y-75461693D01*
X130170136Y-75431453D01*
X130170137Y-75431451D01*
X130172430Y-75426811D01*
X130237370Y-75213069D01*
X130266529Y-74991590D01*
X130268156Y-74925000D01*
X130249852Y-74702361D01*
X130195431Y-74485702D01*
X130106354Y-74280840D01*
X129985014Y-74093277D01*
X129834670Y-73928051D01*
X129830619Y-73924852D01*
X129830615Y-73924848D01*
X129663414Y-73792800D01*
X129663410Y-73792798D01*
X129659359Y-73789598D01*
X129618053Y-73766796D01*
X129568084Y-73716364D01*
X129553312Y-73646921D01*
X129578428Y-73580516D01*
X129605780Y-73553909D01*
X129649603Y-73522650D01*
X129784860Y-73426173D01*
X129943096Y-73268489D01*
X129960478Y-73244300D01*
X130070435Y-73091277D01*
X130073453Y-73087077D01*
X130100615Y-73032120D01*
X130170136Y-72891453D01*
X130170137Y-72891451D01*
X130172430Y-72886811D01*
X130237370Y-72673069D01*
X130266529Y-72451590D01*
X130268156Y-72385000D01*
X130249852Y-72162361D01*
X130195431Y-71945702D01*
X130106354Y-71740840D01*
X130031821Y-71625629D01*
X129987822Y-71557617D01*
X129987820Y-71557614D01*
X129985014Y-71553277D01*
X129834670Y-71388051D01*
X129830619Y-71384852D01*
X129830615Y-71384848D01*
X129663414Y-71252800D01*
X129663410Y-71252798D01*
X129659359Y-71249598D01*
X129618053Y-71226796D01*
X129568084Y-71176364D01*
X129553312Y-71106921D01*
X129578428Y-71040516D01*
X129605780Y-71013909D01*
X129672060Y-70966632D01*
X129784860Y-70886173D01*
X129796984Y-70874092D01*
X129920562Y-70750944D01*
X129943096Y-70728489D01*
X129960478Y-70704300D01*
X130070435Y-70551277D01*
X130073453Y-70547077D01*
X130116574Y-70459829D01*
X130170136Y-70351453D01*
X130170137Y-70351451D01*
X130172430Y-70346811D01*
X130237370Y-70133069D01*
X130266529Y-69911590D01*
X130268156Y-69845000D01*
X130249852Y-69622361D01*
X130195431Y-69405702D01*
X130106354Y-69200840D01*
X130066906Y-69139862D01*
X129987822Y-69017617D01*
X129987820Y-69017614D01*
X129985014Y-69013277D01*
X129834670Y-68848051D01*
X129830619Y-68844852D01*
X129830615Y-68844848D01*
X129663414Y-68712800D01*
X129663410Y-68712798D01*
X129659359Y-68709598D01*
X129618053Y-68686796D01*
X129568084Y-68636364D01*
X129553312Y-68566921D01*
X129578428Y-68500516D01*
X129605780Y-68473909D01*
X129672060Y-68426632D01*
X129784860Y-68346173D01*
X129943096Y-68188489D01*
X129960478Y-68164300D01*
X130070435Y-68011277D01*
X130073453Y-68007077D01*
X130116574Y-67919829D01*
X130170136Y-67811453D01*
X130170137Y-67811451D01*
X130172430Y-67806811D01*
X130237370Y-67593069D01*
X130266529Y-67371590D01*
X130268156Y-67305000D01*
X130249852Y-67082361D01*
X130195431Y-66865702D01*
X130106354Y-66660840D01*
X130066906Y-66599862D01*
X129987822Y-66477617D01*
X129987820Y-66477614D01*
X129985014Y-66473277D01*
X129965779Y-66452138D01*
X129837798Y-66311488D01*
X129806746Y-66247642D01*
X129815141Y-66177143D01*
X129860317Y-66122375D01*
X129886761Y-66108706D01*
X129993297Y-66068767D01*
X130001705Y-66065615D01*
X130118261Y-65978261D01*
X130205615Y-65861705D01*
X130256745Y-65725316D01*
X130263500Y-65663134D01*
X130263500Y-63866866D01*
X130256745Y-63804684D01*
X130205615Y-63668295D01*
X130118261Y-63551739D01*
X130001705Y-63464385D01*
X129865316Y-63413255D01*
X129803134Y-63406500D01*
X128006866Y-63406500D01*
X127944684Y-63413255D01*
X127808295Y-63464385D01*
X127691739Y-63551739D01*
X127604385Y-63668295D01*
X127553255Y-63804684D01*
X127546500Y-63866866D01*
X127546500Y-65663134D01*
X127553255Y-65725316D01*
X127604385Y-65861705D01*
X127691739Y-65978261D01*
X127808295Y-66065615D01*
X127816704Y-66068767D01*
X127816705Y-66068768D01*
X127925451Y-66109535D01*
X127982216Y-66152176D01*
X128006916Y-66218738D01*
X127991709Y-66288087D01*
X127972316Y-66314568D01*
X127845629Y-66447138D01*
X127719743Y-66631680D01*
X127625688Y-66834305D01*
X127565989Y-67049570D01*
X127542251Y-67271695D01*
X127542548Y-67276848D01*
X127542548Y-67276851D01*
X127548011Y-67371590D01*
X127555110Y-67494715D01*
X127556247Y-67499761D01*
X127556248Y-67499767D01*
X127557375Y-67504767D01*
X127604222Y-67712639D01*
X127688266Y-67919616D01*
X127804987Y-68110088D01*
X127951250Y-68278938D01*
X128123126Y-68421632D01*
X128131683Y-68426632D01*
X128196445Y-68464476D01*
X128245169Y-68516114D01*
X128258240Y-68585897D01*
X128231509Y-68651669D01*
X128191055Y-68685027D01*
X128178607Y-68691507D01*
X128174474Y-68694610D01*
X128174471Y-68694612D01*
X128133154Y-68725634D01*
X127999965Y-68825635D01*
X127845629Y-68987138D01*
X127719743Y-69171680D01*
X127625688Y-69374305D01*
X127565989Y-69589570D01*
X127542251Y-69811695D01*
X127542548Y-69816848D01*
X127542548Y-69816851D01*
X127548011Y-69911590D01*
X127555110Y-70034715D01*
X127556247Y-70039761D01*
X127556248Y-70039767D01*
X127557375Y-70044767D01*
X127604222Y-70252639D01*
X127688266Y-70459616D01*
X127804987Y-70650088D01*
X127951250Y-70818938D01*
X128123126Y-70961632D01*
X128131683Y-70966632D01*
X128196445Y-71004476D01*
X128245169Y-71056114D01*
X128258240Y-71125897D01*
X128231509Y-71191669D01*
X128191055Y-71225027D01*
X128178607Y-71231507D01*
X128174474Y-71234610D01*
X128174471Y-71234612D01*
X128004100Y-71362530D01*
X127999965Y-71365635D01*
X127996393Y-71369373D01*
X127876025Y-71495331D01*
X127845629Y-71527138D01*
X127719743Y-71711680D01*
X127672715Y-71812993D01*
X127660400Y-71839525D01*
X127625688Y-71914305D01*
X127565989Y-72129570D01*
X127542251Y-72351695D01*
X127542548Y-72356848D01*
X127542548Y-72356851D01*
X127548011Y-72451590D01*
X127555110Y-72574715D01*
X127556247Y-72579761D01*
X127556248Y-72579767D01*
X127573777Y-72657548D01*
X127604222Y-72792639D01*
X127688266Y-72999616D01*
X127804987Y-73190088D01*
X127951250Y-73358938D01*
X128123126Y-73501632D01*
X128179144Y-73534366D01*
X128196445Y-73544476D01*
X128245169Y-73596114D01*
X128258240Y-73665897D01*
X128231509Y-73731669D01*
X128191055Y-73765027D01*
X128178607Y-73771507D01*
X128174474Y-73774610D01*
X128174471Y-73774612D01*
X128133154Y-73805634D01*
X127999965Y-73905635D01*
X127845629Y-74067138D01*
X127719743Y-74251680D01*
X127625688Y-74454305D01*
X127565989Y-74669570D01*
X127542251Y-74891695D01*
X127542548Y-74896848D01*
X127542548Y-74896851D01*
X127548011Y-74991590D01*
X127555110Y-75114715D01*
X127556247Y-75119761D01*
X127556248Y-75119767D01*
X127565903Y-75162607D01*
X127604222Y-75332639D01*
X127688266Y-75539616D01*
X127804987Y-75730088D01*
X127951250Y-75898938D01*
X128123126Y-76041632D01*
X128179144Y-76074366D01*
X128196445Y-76084476D01*
X128245169Y-76136114D01*
X128258240Y-76205897D01*
X128231509Y-76271669D01*
X128191055Y-76305027D01*
X128178607Y-76311507D01*
X128174474Y-76314610D01*
X128174471Y-76314612D01*
X128004100Y-76442530D01*
X127999965Y-76445635D01*
X127845629Y-76607138D01*
X127719743Y-76791680D01*
X127702657Y-76828489D01*
X127646402Y-76949681D01*
X127625688Y-76994305D01*
X127565989Y-77209570D01*
X127542251Y-77431695D01*
X114349272Y-77431695D01*
X114333543Y-77251913D01*
X114274284Y-77030757D01*
X114179966Y-76828489D01*
X114179849Y-76828238D01*
X114179846Y-76828233D01*
X114177523Y-76823251D01*
X114046198Y-76635700D01*
X113884300Y-76473802D01*
X113879792Y-76470645D01*
X113879789Y-76470643D01*
X113801611Y-76415902D01*
X113696749Y-76342477D01*
X113691767Y-76340154D01*
X113691762Y-76340151D01*
X113657543Y-76324195D01*
X113604258Y-76277278D01*
X113584797Y-76209001D01*
X113605339Y-76141041D01*
X113657543Y-76095805D01*
X113691762Y-76079849D01*
X113691767Y-76079846D01*
X113696749Y-76077523D01*
X113801611Y-76004098D01*
X113879789Y-75949357D01*
X113879792Y-75949355D01*
X113884300Y-75946198D01*
X114046198Y-75784300D01*
X114062410Y-75761148D01*
X114104098Y-75701611D01*
X114177523Y-75596749D01*
X114179846Y-75591767D01*
X114179849Y-75591762D01*
X114271961Y-75394225D01*
X114271961Y-75394224D01*
X114274284Y-75389243D01*
X114290803Y-75327596D01*
X114332119Y-75173402D01*
X114332119Y-75173400D01*
X114333543Y-75168087D01*
X114353498Y-74940000D01*
X114333543Y-74711913D01*
X114274284Y-74490757D01*
X114255097Y-74449610D01*
X114179849Y-74288238D01*
X114179846Y-74288233D01*
X114177523Y-74283251D01*
X114046198Y-74095700D01*
X113884300Y-73933802D01*
X113879792Y-73930645D01*
X113879789Y-73930643D01*
X113801611Y-73875902D01*
X113696749Y-73802477D01*
X113691767Y-73800154D01*
X113691762Y-73800151D01*
X113657543Y-73784195D01*
X113604258Y-73737278D01*
X113584797Y-73669001D01*
X113605339Y-73601041D01*
X113657543Y-73555805D01*
X113691762Y-73539849D01*
X113691767Y-73539846D01*
X113696749Y-73537523D01*
X113801611Y-73464098D01*
X113879789Y-73409357D01*
X113879792Y-73409355D01*
X113884300Y-73406198D01*
X114046198Y-73244300D01*
X114177523Y-73056749D01*
X114179846Y-73051767D01*
X114179849Y-73051762D01*
X114271961Y-72854225D01*
X114271961Y-72854224D01*
X114274284Y-72849243D01*
X114290803Y-72787596D01*
X114332119Y-72633402D01*
X114332119Y-72633400D01*
X114333543Y-72628087D01*
X114353498Y-72400000D01*
X114333543Y-72171913D01*
X114323472Y-72134329D01*
X114275707Y-71956067D01*
X114275706Y-71956065D01*
X114274284Y-71950757D01*
X114222416Y-71839525D01*
X114179849Y-71748238D01*
X114179846Y-71748233D01*
X114177523Y-71743251D01*
X114046198Y-71555700D01*
X113884300Y-71393802D01*
X113879792Y-71390645D01*
X113879789Y-71390643D01*
X113753116Y-71301946D01*
X113696749Y-71262477D01*
X113691767Y-71260154D01*
X113691762Y-71260151D01*
X113657543Y-71244195D01*
X113604258Y-71197278D01*
X113584797Y-71129001D01*
X113605339Y-71061041D01*
X113657543Y-71015805D01*
X113691762Y-70999849D01*
X113691767Y-70999846D01*
X113696749Y-70997523D01*
X113848632Y-70891173D01*
X113879789Y-70869357D01*
X113879792Y-70869355D01*
X113884300Y-70866198D01*
X114046198Y-70704300D01*
X114077925Y-70658990D01*
X114118610Y-70600885D01*
X114177523Y-70516749D01*
X114179846Y-70511767D01*
X114179849Y-70511762D01*
X114271961Y-70314225D01*
X114271961Y-70314224D01*
X114274284Y-70309243D01*
X114288112Y-70257639D01*
X114332119Y-70093402D01*
X114332119Y-70093400D01*
X114333543Y-70088087D01*
X114353498Y-69860000D01*
X114333543Y-69631913D01*
X114330984Y-69622361D01*
X114275707Y-69416067D01*
X114275706Y-69416065D01*
X114274284Y-69410757D01*
X114259614Y-69379297D01*
X114179849Y-69208238D01*
X114179846Y-69208233D01*
X114177523Y-69203251D01*
X114104098Y-69098389D01*
X114049357Y-69020211D01*
X114049355Y-69020208D01*
X114046198Y-69015700D01*
X113884300Y-68853802D01*
X113879792Y-68850645D01*
X113879789Y-68850643D01*
X113801611Y-68795902D01*
X113696749Y-68722477D01*
X113691767Y-68720154D01*
X113691762Y-68720151D01*
X113657543Y-68704195D01*
X113604258Y-68657278D01*
X113584797Y-68589001D01*
X113605339Y-68521041D01*
X113657543Y-68475805D01*
X113691762Y-68459849D01*
X113691767Y-68459846D01*
X113696749Y-68457523D01*
X113848632Y-68351173D01*
X113879789Y-68329357D01*
X113879792Y-68329355D01*
X113884300Y-68326198D01*
X114046198Y-68164300D01*
X114077925Y-68118990D01*
X114174366Y-67981257D01*
X114177523Y-67976749D01*
X114179846Y-67971767D01*
X114179849Y-67971762D01*
X114271961Y-67774225D01*
X114271961Y-67774224D01*
X114274284Y-67769243D01*
X114288112Y-67717639D01*
X114332119Y-67553402D01*
X114332119Y-67553400D01*
X114333543Y-67548087D01*
X114353498Y-67320000D01*
X114333543Y-67091913D01*
X114330984Y-67082361D01*
X114275707Y-66876067D01*
X114275706Y-66876065D01*
X114274284Y-66870757D01*
X114259614Y-66839297D01*
X114179849Y-66668238D01*
X114179846Y-66668233D01*
X114177523Y-66663251D01*
X114104098Y-66558389D01*
X114049357Y-66480211D01*
X114049355Y-66480208D01*
X114046198Y-66475700D01*
X113884300Y-66313802D01*
X113879792Y-66310645D01*
X113879789Y-66310643D01*
X113748535Y-66218738D01*
X113696749Y-66182477D01*
X113691767Y-66180154D01*
X113691762Y-66180151D01*
X113657543Y-66164195D01*
X113604258Y-66117278D01*
X113584797Y-66049001D01*
X113605339Y-65981041D01*
X113657543Y-65935805D01*
X113691762Y-65919849D01*
X113691767Y-65919846D01*
X113696749Y-65917523D01*
X113801611Y-65844098D01*
X113879789Y-65789357D01*
X113879792Y-65789355D01*
X113884300Y-65786198D01*
X114046198Y-65624300D01*
X114177523Y-65436749D01*
X114179846Y-65431767D01*
X114179849Y-65431762D01*
X114271961Y-65234225D01*
X114271961Y-65234224D01*
X114274284Y-65229243D01*
X114333543Y-65008087D01*
X114353498Y-64780000D01*
X114333543Y-64551913D01*
X114296193Y-64412523D01*
X114275707Y-64336067D01*
X114275706Y-64336065D01*
X114274284Y-64330757D01*
X114271961Y-64325775D01*
X114179849Y-64128238D01*
X114179846Y-64128233D01*
X114177523Y-64123251D01*
X114046198Y-63935700D01*
X113884300Y-63773802D01*
X113879792Y-63770645D01*
X113879789Y-63770643D01*
X113801611Y-63715902D01*
X113696749Y-63642477D01*
X113691767Y-63640154D01*
X113691762Y-63640151D01*
X113657543Y-63624195D01*
X113604258Y-63577278D01*
X113584797Y-63509001D01*
X113605339Y-63441041D01*
X113657543Y-63395805D01*
X113691762Y-63379849D01*
X113691767Y-63379846D01*
X113696749Y-63377523D01*
X113843167Y-63275000D01*
X118066502Y-63275000D01*
X118086457Y-63503087D01*
X118087881Y-63508400D01*
X118087881Y-63508402D01*
X118132978Y-63676703D01*
X118145716Y-63724243D01*
X118148039Y-63729224D01*
X118148039Y-63729225D01*
X118240151Y-63926762D01*
X118240154Y-63926767D01*
X118242477Y-63931749D01*
X118373802Y-64119300D01*
X118535700Y-64281198D01*
X118540208Y-64284355D01*
X118540211Y-64284357D01*
X118599362Y-64325775D01*
X118723251Y-64412523D01*
X118728233Y-64414846D01*
X118728238Y-64414849D01*
X118925775Y-64506961D01*
X118930757Y-64509284D01*
X118936065Y-64510706D01*
X118936067Y-64510707D01*
X119146598Y-64567119D01*
X119146600Y-64567119D01*
X119151913Y-64568543D01*
X119380000Y-64588498D01*
X119608087Y-64568543D01*
X119613400Y-64567119D01*
X119613402Y-64567119D01*
X119823933Y-64510707D01*
X119823935Y-64510706D01*
X119829243Y-64509284D01*
X119834225Y-64506961D01*
X120031762Y-64414849D01*
X120031767Y-64414846D01*
X120036749Y-64412523D01*
X120160638Y-64325775D01*
X120219789Y-64284357D01*
X120219792Y-64284355D01*
X120224300Y-64281198D01*
X120386198Y-64119300D01*
X120517523Y-63931749D01*
X120519846Y-63926767D01*
X120519849Y-63926762D01*
X120611961Y-63729225D01*
X120611961Y-63729224D01*
X120614284Y-63724243D01*
X120627023Y-63676703D01*
X120672119Y-63508402D01*
X120672119Y-63508400D01*
X120673543Y-63503087D01*
X120693498Y-63275000D01*
X120673543Y-63046913D01*
X120634514Y-62901257D01*
X120615707Y-62831067D01*
X120615706Y-62831065D01*
X120614284Y-62825757D01*
X120611961Y-62820775D01*
X120519849Y-62623238D01*
X120519846Y-62623233D01*
X120517523Y-62618251D01*
X120443711Y-62512837D01*
X120389357Y-62435211D01*
X120389355Y-62435208D01*
X120386198Y-62430700D01*
X120224300Y-62268802D01*
X120219792Y-62265645D01*
X120219789Y-62265643D01*
X120119910Y-62195707D01*
X120036749Y-62137477D01*
X120031767Y-62135154D01*
X120031762Y-62135151D01*
X119834225Y-62043039D01*
X119834224Y-62043039D01*
X119829243Y-62040716D01*
X119823935Y-62039294D01*
X119823933Y-62039293D01*
X119613402Y-61982881D01*
X119613400Y-61982881D01*
X119608087Y-61981457D01*
X119380000Y-61961502D01*
X119151913Y-61981457D01*
X119146600Y-61982881D01*
X119146598Y-61982881D01*
X118936067Y-62039293D01*
X118936065Y-62039294D01*
X118930757Y-62040716D01*
X118925776Y-62043039D01*
X118925775Y-62043039D01*
X118728238Y-62135151D01*
X118728233Y-62135154D01*
X118723251Y-62137477D01*
X118640090Y-62195707D01*
X118540211Y-62265643D01*
X118540208Y-62265645D01*
X118535700Y-62268802D01*
X118373802Y-62430700D01*
X118370645Y-62435208D01*
X118370643Y-62435211D01*
X118316289Y-62512837D01*
X118242477Y-62618251D01*
X118240154Y-62623233D01*
X118240151Y-62623238D01*
X118148039Y-62820775D01*
X118145716Y-62825757D01*
X118144294Y-62831065D01*
X118144293Y-62831067D01*
X118125486Y-62901257D01*
X118086457Y-63046913D01*
X118066502Y-63275000D01*
X113843167Y-63275000D01*
X113850986Y-63269525D01*
X113879789Y-63249357D01*
X113879792Y-63249355D01*
X113884300Y-63246198D01*
X114046198Y-63084300D01*
X114076099Y-63041598D01*
X114150025Y-62936020D01*
X114177523Y-62896749D01*
X114179846Y-62891767D01*
X114179849Y-62891762D01*
X114271961Y-62694225D01*
X114271961Y-62694224D01*
X114274284Y-62689243D01*
X114293307Y-62618251D01*
X114332119Y-62473402D01*
X114332119Y-62473400D01*
X114333543Y-62468087D01*
X114353498Y-62240000D01*
X114333543Y-62011913D01*
X114320423Y-61962947D01*
X114275707Y-61796067D01*
X114275706Y-61796065D01*
X114274284Y-61790757D01*
X114257509Y-61754783D01*
X114179849Y-61588238D01*
X114179846Y-61588233D01*
X114177523Y-61583251D01*
X114104098Y-61478389D01*
X114049357Y-61400211D01*
X114049355Y-61400208D01*
X114046198Y-61395700D01*
X113884300Y-61233802D01*
X113879792Y-61230645D01*
X113879789Y-61230643D01*
X113755948Y-61143929D01*
X113696749Y-61102477D01*
X113691767Y-61100154D01*
X113691762Y-61100151D01*
X113657543Y-61084195D01*
X113604258Y-61037278D01*
X113584797Y-60969001D01*
X113587518Y-60960000D01*
X122736502Y-60960000D01*
X122756457Y-61188087D01*
X122757881Y-61193400D01*
X122757881Y-61193402D01*
X122770303Y-61239759D01*
X122815716Y-61409243D01*
X122818039Y-61414224D01*
X122818039Y-61414225D01*
X122910151Y-61611762D01*
X122910154Y-61611767D01*
X122912477Y-61616749D01*
X122915634Y-61621257D01*
X123037903Y-61795875D01*
X123043802Y-61804300D01*
X123205700Y-61966198D01*
X123210208Y-61969355D01*
X123210211Y-61969357D01*
X123278814Y-62017393D01*
X123393251Y-62097523D01*
X123398233Y-62099846D01*
X123398238Y-62099849D01*
X123485703Y-62140634D01*
X123600757Y-62194284D01*
X123606065Y-62195706D01*
X123606067Y-62195707D01*
X123816598Y-62252119D01*
X123816600Y-62252119D01*
X123821913Y-62253543D01*
X124050000Y-62273498D01*
X124278087Y-62253543D01*
X124283400Y-62252119D01*
X124283402Y-62252119D01*
X124493933Y-62195707D01*
X124493935Y-62195706D01*
X124499243Y-62194284D01*
X124614297Y-62140634D01*
X124701762Y-62099849D01*
X124701767Y-62099846D01*
X124706749Y-62097523D01*
X124821186Y-62017393D01*
X124889789Y-61969357D01*
X124889792Y-61969355D01*
X124894300Y-61966198D01*
X125056198Y-61804300D01*
X125062098Y-61795875D01*
X125184366Y-61621257D01*
X125187523Y-61616749D01*
X125189846Y-61611767D01*
X125189849Y-61611762D01*
X125281961Y-61414225D01*
X125281961Y-61414224D01*
X125284284Y-61409243D01*
X125329698Y-61239759D01*
X125342119Y-61193402D01*
X125342119Y-61193400D01*
X125343543Y-61188087D01*
X125363498Y-60960000D01*
X127816502Y-60960000D01*
X127836457Y-61188087D01*
X127837881Y-61193400D01*
X127837881Y-61193402D01*
X127850303Y-61239759D01*
X127895716Y-61409243D01*
X127898039Y-61414224D01*
X127898039Y-61414225D01*
X127990151Y-61611762D01*
X127990154Y-61611767D01*
X127992477Y-61616749D01*
X127995634Y-61621257D01*
X128117903Y-61795875D01*
X128123802Y-61804300D01*
X128285700Y-61966198D01*
X128290208Y-61969355D01*
X128290211Y-61969357D01*
X128358814Y-62017393D01*
X128473251Y-62097523D01*
X128478233Y-62099846D01*
X128478238Y-62099849D01*
X128565703Y-62140634D01*
X128680757Y-62194284D01*
X128686065Y-62195706D01*
X128686067Y-62195707D01*
X128896598Y-62252119D01*
X128896600Y-62252119D01*
X128901913Y-62253543D01*
X129130000Y-62273498D01*
X129358087Y-62253543D01*
X129363400Y-62252119D01*
X129363402Y-62252119D01*
X129573933Y-62195707D01*
X129573935Y-62195706D01*
X129579243Y-62194284D01*
X129694297Y-62140634D01*
X129781762Y-62099849D01*
X129781767Y-62099846D01*
X129786749Y-62097523D01*
X129901186Y-62017393D01*
X129969789Y-61969357D01*
X129969792Y-61969355D01*
X129974300Y-61966198D01*
X130136198Y-61804300D01*
X130142098Y-61795875D01*
X130264366Y-61621257D01*
X130267523Y-61616749D01*
X130269846Y-61611767D01*
X130269849Y-61611762D01*
X130361961Y-61414225D01*
X130361961Y-61414224D01*
X130364284Y-61409243D01*
X130409698Y-61239759D01*
X130422119Y-61193402D01*
X130422119Y-61193400D01*
X130423543Y-61188087D01*
X130443498Y-60960000D01*
X130423543Y-60731913D01*
X130416653Y-60706198D01*
X130365707Y-60516067D01*
X130365706Y-60516065D01*
X130364284Y-60510757D01*
X130361961Y-60505775D01*
X130269849Y-60308238D01*
X130269846Y-60308233D01*
X130267523Y-60303251D01*
X130136198Y-60115700D01*
X129974300Y-59953802D01*
X129969792Y-59950645D01*
X129969789Y-59950643D01*
X129891611Y-59895902D01*
X129786749Y-59822477D01*
X129781767Y-59820154D01*
X129781762Y-59820151D01*
X129584225Y-59728039D01*
X129584224Y-59728039D01*
X129579243Y-59725716D01*
X129573935Y-59724294D01*
X129573933Y-59724293D01*
X129363402Y-59667881D01*
X129363400Y-59667881D01*
X129358087Y-59666457D01*
X129130000Y-59646502D01*
X128901913Y-59666457D01*
X128896600Y-59667881D01*
X128896598Y-59667881D01*
X128686067Y-59724293D01*
X128686065Y-59724294D01*
X128680757Y-59725716D01*
X128675776Y-59728039D01*
X128675775Y-59728039D01*
X128478238Y-59820151D01*
X128478233Y-59820154D01*
X128473251Y-59822477D01*
X128368389Y-59895902D01*
X128290211Y-59950643D01*
X128290208Y-59950645D01*
X128285700Y-59953802D01*
X128123802Y-60115700D01*
X127992477Y-60303251D01*
X127990154Y-60308233D01*
X127990151Y-60308238D01*
X127898039Y-60505775D01*
X127895716Y-60510757D01*
X127894294Y-60516065D01*
X127894293Y-60516067D01*
X127843347Y-60706198D01*
X127836457Y-60731913D01*
X127816502Y-60960000D01*
X125363498Y-60960000D01*
X125343543Y-60731913D01*
X125336653Y-60706198D01*
X125285707Y-60516067D01*
X125285706Y-60516065D01*
X125284284Y-60510757D01*
X125281961Y-60505775D01*
X125189849Y-60308238D01*
X125189846Y-60308233D01*
X125187523Y-60303251D01*
X125056198Y-60115700D01*
X124894300Y-59953802D01*
X124889792Y-59950645D01*
X124889789Y-59950643D01*
X124811611Y-59895902D01*
X124706749Y-59822477D01*
X124701767Y-59820154D01*
X124701762Y-59820151D01*
X124504225Y-59728039D01*
X124504224Y-59728039D01*
X124499243Y-59725716D01*
X124493935Y-59724294D01*
X124493933Y-59724293D01*
X124283402Y-59667881D01*
X124283400Y-59667881D01*
X124278087Y-59666457D01*
X124050000Y-59646502D01*
X123821913Y-59666457D01*
X123816600Y-59667881D01*
X123816598Y-59667881D01*
X123606067Y-59724293D01*
X123606065Y-59724294D01*
X123600757Y-59725716D01*
X123595776Y-59728039D01*
X123595775Y-59728039D01*
X123398238Y-59820151D01*
X123398233Y-59820154D01*
X123393251Y-59822477D01*
X123288389Y-59895902D01*
X123210211Y-59950643D01*
X123210208Y-59950645D01*
X123205700Y-59953802D01*
X123043802Y-60115700D01*
X122912477Y-60303251D01*
X122910154Y-60308233D01*
X122910151Y-60308238D01*
X122818039Y-60505775D01*
X122815716Y-60510757D01*
X122814294Y-60516065D01*
X122814293Y-60516067D01*
X122763347Y-60706198D01*
X122756457Y-60731913D01*
X122736502Y-60960000D01*
X113587518Y-60960000D01*
X113605339Y-60901041D01*
X113657543Y-60855805D01*
X113691762Y-60839849D01*
X113691767Y-60839846D01*
X113696749Y-60837523D01*
X113839749Y-60737393D01*
X113879789Y-60709357D01*
X113879792Y-60709355D01*
X113884300Y-60706198D01*
X114046198Y-60544300D01*
X114177523Y-60356749D01*
X114179846Y-60351767D01*
X114179849Y-60351762D01*
X114271961Y-60154225D01*
X114271961Y-60154224D01*
X114274284Y-60149243D01*
X114325609Y-59957699D01*
X114332119Y-59933402D01*
X114332119Y-59933400D01*
X114333543Y-59928087D01*
X114353498Y-59700000D01*
X114333543Y-59471913D01*
X114296193Y-59332523D01*
X114275707Y-59256067D01*
X114275706Y-59256065D01*
X114274284Y-59250757D01*
X114265887Y-59232749D01*
X114179849Y-59048238D01*
X114179846Y-59048233D01*
X114177523Y-59043251D01*
X114046198Y-58855700D01*
X113884300Y-58693802D01*
X113879792Y-58690645D01*
X113879789Y-58690643D01*
X113778499Y-58619719D01*
X113696749Y-58562477D01*
X113691767Y-58560154D01*
X113691762Y-58560151D01*
X113657543Y-58544195D01*
X113604258Y-58497278D01*
X113584797Y-58429001D01*
X113605339Y-58361041D01*
X113657543Y-58315805D01*
X113691762Y-58299849D01*
X113691767Y-58299846D01*
X113696749Y-58297523D01*
X113843167Y-58195000D01*
X118066502Y-58195000D01*
X118086457Y-58423087D01*
X118087881Y-58428400D01*
X118087881Y-58428402D01*
X118140191Y-58623622D01*
X118145716Y-58644243D01*
X118148039Y-58649224D01*
X118148039Y-58649225D01*
X118240151Y-58846762D01*
X118240154Y-58846767D01*
X118242477Y-58851749D01*
X118373802Y-59039300D01*
X118535700Y-59201198D01*
X118540208Y-59204355D01*
X118540211Y-59204357D01*
X118550374Y-59211473D01*
X118723251Y-59332523D01*
X118728233Y-59334846D01*
X118728238Y-59334849D01*
X118925775Y-59426961D01*
X118930757Y-59429284D01*
X118936065Y-59430706D01*
X118936067Y-59430707D01*
X119146598Y-59487119D01*
X119146600Y-59487119D01*
X119151913Y-59488543D01*
X119380000Y-59508498D01*
X119608087Y-59488543D01*
X119613400Y-59487119D01*
X119613402Y-59487119D01*
X119823933Y-59430707D01*
X119823935Y-59430706D01*
X119829243Y-59429284D01*
X119834225Y-59426961D01*
X120031762Y-59334849D01*
X120031767Y-59334846D01*
X120036749Y-59332523D01*
X120209626Y-59211473D01*
X120219789Y-59204357D01*
X120219792Y-59204355D01*
X120224300Y-59201198D01*
X120386198Y-59039300D01*
X120517523Y-58851749D01*
X120519846Y-58846767D01*
X120519849Y-58846762D01*
X120611961Y-58649225D01*
X120611961Y-58649224D01*
X120614284Y-58644243D01*
X120619810Y-58623622D01*
X120672119Y-58428402D01*
X120672119Y-58428400D01*
X120673543Y-58423087D01*
X120693498Y-58195000D01*
X120673543Y-57966913D01*
X120671861Y-57960637D01*
X120615707Y-57751067D01*
X120615706Y-57751065D01*
X120615546Y-57750469D01*
X122187095Y-57750469D01*
X122187392Y-57755622D01*
X122187392Y-57755625D01*
X122199213Y-57960637D01*
X122200427Y-57981697D01*
X122201564Y-57986743D01*
X122201565Y-57986749D01*
X122233741Y-58129523D01*
X122251346Y-58207642D01*
X122253288Y-58212424D01*
X122253289Y-58212428D01*
X122301789Y-58331869D01*
X122338484Y-58422237D01*
X122459501Y-58619719D01*
X122611147Y-58794784D01*
X122789349Y-58942730D01*
X122989322Y-59059584D01*
X123205694Y-59142209D01*
X123210760Y-59143240D01*
X123210761Y-59143240D01*
X123263846Y-59154040D01*
X123432656Y-59188385D01*
X123562089Y-59193131D01*
X123658949Y-59196683D01*
X123658953Y-59196683D01*
X123664113Y-59196872D01*
X123669233Y-59196216D01*
X123669235Y-59196216D01*
X123743166Y-59186745D01*
X123893847Y-59167442D01*
X123898795Y-59165957D01*
X123898802Y-59165956D01*
X124110747Y-59102369D01*
X124115690Y-59100886D01*
X124122100Y-59097746D01*
X124319049Y-59001262D01*
X124319052Y-59001260D01*
X124323684Y-58998991D01*
X124512243Y-58864494D01*
X124644062Y-58733134D01*
X127271500Y-58733134D01*
X127278255Y-58795316D01*
X127329385Y-58931705D01*
X127416739Y-59048261D01*
X127533295Y-59135615D01*
X127669684Y-59186745D01*
X127731866Y-59193500D01*
X129628134Y-59193500D01*
X129690316Y-59186745D01*
X129826705Y-59135615D01*
X129943261Y-59048261D01*
X130030615Y-58931705D01*
X130081745Y-58795316D01*
X130088500Y-58733134D01*
X130088500Y-56836866D01*
X130081745Y-56774684D01*
X130030615Y-56638295D01*
X129943261Y-56521739D01*
X129826705Y-56434385D01*
X129690316Y-56383255D01*
X129628134Y-56376500D01*
X127731866Y-56376500D01*
X127669684Y-56383255D01*
X127533295Y-56434385D01*
X127416739Y-56521739D01*
X127329385Y-56638295D01*
X127278255Y-56774684D01*
X127271500Y-56836866D01*
X127271500Y-58733134D01*
X124644062Y-58733134D01*
X124676303Y-58701005D01*
X124811458Y-58512917D01*
X124819188Y-58497278D01*
X124911784Y-58309922D01*
X124911785Y-58309920D01*
X124914078Y-58305280D01*
X124981408Y-58083671D01*
X125011640Y-57854041D01*
X125011878Y-57844294D01*
X125013245Y-57788365D01*
X125013245Y-57788361D01*
X125013327Y-57785000D01*
X124995918Y-57573248D01*
X124994773Y-57559318D01*
X124994772Y-57559312D01*
X124994349Y-57554167D01*
X124937925Y-57329533D01*
X124935866Y-57324797D01*
X124847630Y-57121868D01*
X124847628Y-57121865D01*
X124845570Y-57117131D01*
X124719764Y-56922665D01*
X124700031Y-56900978D01*
X124592260Y-56782540D01*
X124563887Y-56751358D01*
X124559836Y-56748159D01*
X124559832Y-56748155D01*
X124386177Y-56611011D01*
X124386172Y-56611008D01*
X124382123Y-56607810D01*
X124377607Y-56605317D01*
X124377604Y-56605315D01*
X124183879Y-56498373D01*
X124183875Y-56498371D01*
X124179355Y-56495876D01*
X124174486Y-56494152D01*
X124174482Y-56494150D01*
X123965903Y-56420288D01*
X123965899Y-56420287D01*
X123961028Y-56418562D01*
X123955935Y-56417655D01*
X123955932Y-56417654D01*
X123738095Y-56378851D01*
X123738089Y-56378850D01*
X123733006Y-56377945D01*
X123660096Y-56377054D01*
X123506581Y-56375179D01*
X123506579Y-56375179D01*
X123501411Y-56375116D01*
X123272464Y-56410150D01*
X123052314Y-56482106D01*
X123047726Y-56484494D01*
X123047722Y-56484496D01*
X122851461Y-56586663D01*
X122846872Y-56589052D01*
X122842739Y-56592155D01*
X122842736Y-56592157D01*
X122684776Y-56710757D01*
X122661655Y-56728117D01*
X122501639Y-56895564D01*
X122498725Y-56899836D01*
X122498724Y-56899837D01*
X122483152Y-56922665D01*
X122371119Y-57086899D01*
X122273602Y-57296981D01*
X122211707Y-57520169D01*
X122187095Y-57750469D01*
X120615546Y-57750469D01*
X120614284Y-57745757D01*
X120611961Y-57740775D01*
X120519849Y-57543238D01*
X120519846Y-57543233D01*
X120517523Y-57538251D01*
X120416101Y-57393406D01*
X120389357Y-57355211D01*
X120389355Y-57355208D01*
X120386198Y-57350700D01*
X120224300Y-57188802D01*
X120219792Y-57185645D01*
X120219789Y-57185643D01*
X120085463Y-57091587D01*
X120036749Y-57057477D01*
X120031767Y-57055154D01*
X120031762Y-57055151D01*
X119834225Y-56963039D01*
X119834224Y-56963039D01*
X119829243Y-56960716D01*
X119823935Y-56959294D01*
X119823933Y-56959293D01*
X119613402Y-56902881D01*
X119613400Y-56902881D01*
X119608087Y-56901457D01*
X119380000Y-56881502D01*
X119151913Y-56901457D01*
X119146600Y-56902881D01*
X119146598Y-56902881D01*
X118936067Y-56959293D01*
X118936065Y-56959294D01*
X118930757Y-56960716D01*
X118925776Y-56963039D01*
X118925775Y-56963039D01*
X118728238Y-57055151D01*
X118728233Y-57055154D01*
X118723251Y-57057477D01*
X118674537Y-57091587D01*
X118540211Y-57185643D01*
X118540208Y-57185645D01*
X118535700Y-57188802D01*
X118373802Y-57350700D01*
X118370645Y-57355208D01*
X118370643Y-57355211D01*
X118343899Y-57393406D01*
X118242477Y-57538251D01*
X118240154Y-57543233D01*
X118240151Y-57543238D01*
X118148039Y-57740775D01*
X118145716Y-57745757D01*
X118144294Y-57751065D01*
X118144293Y-57751067D01*
X118088139Y-57960637D01*
X118086457Y-57966913D01*
X118066502Y-58195000D01*
X113843167Y-58195000D01*
X113850986Y-58189525D01*
X113879789Y-58169357D01*
X113879792Y-58169355D01*
X113884300Y-58166198D01*
X114046198Y-58004300D01*
X114051049Y-57997373D01*
X114143661Y-57865109D01*
X114177523Y-57816749D01*
X114179846Y-57811767D01*
X114179849Y-57811762D01*
X114271961Y-57614225D01*
X114271961Y-57614224D01*
X114274284Y-57609243D01*
X114287662Y-57559318D01*
X114332119Y-57393402D01*
X114332119Y-57393400D01*
X114333543Y-57388087D01*
X114353498Y-57160000D01*
X114333543Y-56931913D01*
X114307165Y-56833469D01*
X114275707Y-56716067D01*
X114275706Y-56716065D01*
X114274284Y-56710757D01*
X114271961Y-56705775D01*
X114179849Y-56508238D01*
X114179846Y-56508233D01*
X114177523Y-56503251D01*
X114089783Y-56377945D01*
X114049357Y-56320211D01*
X114049355Y-56320208D01*
X114046198Y-56315700D01*
X113884300Y-56153802D01*
X113879792Y-56150645D01*
X113879789Y-56150643D01*
X113792182Y-56089300D01*
X113696749Y-56022477D01*
X113691767Y-56020154D01*
X113691762Y-56020151D01*
X113494225Y-55928039D01*
X113494224Y-55928039D01*
X113489243Y-55925716D01*
X113483935Y-55924294D01*
X113483933Y-55924293D01*
X113273402Y-55867881D01*
X113273400Y-55867881D01*
X113268087Y-55866457D01*
X113040000Y-55846502D01*
X112811913Y-55866457D01*
X112806600Y-55867881D01*
X112806598Y-55867881D01*
X112596067Y-55924293D01*
X112596065Y-55924294D01*
X112590757Y-55925716D01*
X112585776Y-55928039D01*
X112585775Y-55928039D01*
X112388238Y-56020151D01*
X112388233Y-56020154D01*
X112383251Y-56022477D01*
X112287818Y-56089300D01*
X112200211Y-56150643D01*
X112200208Y-56150645D01*
X112195700Y-56153802D01*
X112033802Y-56315700D01*
X112030645Y-56320208D01*
X112030643Y-56320211D01*
X111990217Y-56377945D01*
X111902477Y-56503251D01*
X111900154Y-56508233D01*
X111900151Y-56508238D01*
X111808039Y-56705775D01*
X111805716Y-56710757D01*
X111804294Y-56716065D01*
X111804293Y-56716067D01*
X111772835Y-56833469D01*
X111746457Y-56931913D01*
X111726502Y-57160000D01*
X111746457Y-57388087D01*
X111747879Y-57393392D01*
X111747881Y-57393406D01*
X111763459Y-57451539D01*
X111761771Y-57522516D01*
X111730848Y-57573248D01*
X111628165Y-57675930D01*
X111554499Y-57749596D01*
X111492187Y-57783621D01*
X111465404Y-57786500D01*
X106854500Y-57786500D01*
X106786379Y-57766498D01*
X106739886Y-57712842D01*
X106728500Y-57660500D01*
X106728500Y-56311866D01*
X106721745Y-56249684D01*
X106670615Y-56113295D01*
X106583261Y-55996739D01*
X106466705Y-55909385D01*
X106330316Y-55858255D01*
X106268134Y-55851500D01*
X104571866Y-55851500D01*
X104509684Y-55858255D01*
X104373295Y-55909385D01*
X104256739Y-55996739D01*
X104169385Y-56113295D01*
X104118255Y-56249684D01*
X104111500Y-56311866D01*
X104111500Y-57660500D01*
X104091498Y-57728621D01*
X104037842Y-57775114D01*
X103985500Y-57786500D01*
X86438767Y-57786500D01*
X86427584Y-57785973D01*
X86420091Y-57784298D01*
X86412165Y-57784547D01*
X86412164Y-57784547D01*
X86352014Y-57786438D01*
X86348055Y-57786500D01*
X86320144Y-57786500D01*
X86316210Y-57786997D01*
X86316209Y-57786997D01*
X86316144Y-57787005D01*
X86304307Y-57787938D01*
X86272490Y-57788938D01*
X86268029Y-57789078D01*
X86260110Y-57789327D01*
X86242454Y-57794456D01*
X86240658Y-57794978D01*
X86221306Y-57798986D01*
X86214235Y-57799880D01*
X86201203Y-57801526D01*
X86193834Y-57804443D01*
X86193832Y-57804444D01*
X86160097Y-57817800D01*
X86148869Y-57821645D01*
X86106407Y-57833982D01*
X86099585Y-57838016D01*
X86099579Y-57838019D01*
X86088968Y-57844294D01*
X86071218Y-57852990D01*
X86059756Y-57857528D01*
X86059751Y-57857531D01*
X86052383Y-57860448D01*
X86045968Y-57865109D01*
X86016625Y-57886427D01*
X86006707Y-57892943D01*
X85988019Y-57903995D01*
X85968637Y-57915458D01*
X85954313Y-57929782D01*
X85939281Y-57942621D01*
X85922893Y-57954528D01*
X85894712Y-57988593D01*
X85886722Y-57997373D01*
X85589500Y-58294595D01*
X85527188Y-58328621D01*
X85500405Y-58331500D01*
X84191866Y-58331500D01*
X84129684Y-58338255D01*
X83993295Y-58389385D01*
X83876739Y-58476739D01*
X83789385Y-58593295D01*
X83738255Y-58729684D01*
X83731500Y-58791866D01*
X83731500Y-60588134D01*
X81788000Y-60588134D01*
X81788000Y-55245000D01*
X89266502Y-55245000D01*
X89286457Y-55473087D01*
X89345716Y-55694243D01*
X89348039Y-55699224D01*
X89348039Y-55699225D01*
X89440151Y-55896762D01*
X89440154Y-55896767D01*
X89442477Y-55901749D01*
X89573802Y-56089300D01*
X89735700Y-56251198D01*
X89740208Y-56254355D01*
X89740211Y-56254357D01*
X89744757Y-56257540D01*
X89923251Y-56382523D01*
X89928233Y-56384846D01*
X89928238Y-56384849D01*
X90125775Y-56476961D01*
X90130757Y-56479284D01*
X90136065Y-56480706D01*
X90136067Y-56480707D01*
X90346598Y-56537119D01*
X90346600Y-56537119D01*
X90351913Y-56538543D01*
X90580000Y-56558498D01*
X90808087Y-56538543D01*
X90813400Y-56537119D01*
X90813402Y-56537119D01*
X91023933Y-56480707D01*
X91023935Y-56480706D01*
X91029243Y-56479284D01*
X91034225Y-56476961D01*
X91231762Y-56384849D01*
X91231767Y-56384846D01*
X91236749Y-56382523D01*
X91415243Y-56257540D01*
X91419789Y-56254357D01*
X91419792Y-56254355D01*
X91424300Y-56251198D01*
X91586198Y-56089300D01*
X91717523Y-55901749D01*
X91719846Y-55896767D01*
X91719849Y-55896762D01*
X91811961Y-55699225D01*
X91811961Y-55699224D01*
X91814284Y-55694243D01*
X91873543Y-55473087D01*
X91893498Y-55245000D01*
X94346502Y-55245000D01*
X94366457Y-55473087D01*
X94425716Y-55694243D01*
X94428039Y-55699224D01*
X94428039Y-55699225D01*
X94520151Y-55896762D01*
X94520154Y-55896767D01*
X94522477Y-55901749D01*
X94653802Y-56089300D01*
X94815700Y-56251198D01*
X94820208Y-56254355D01*
X94820211Y-56254357D01*
X94824757Y-56257540D01*
X95003251Y-56382523D01*
X95008233Y-56384846D01*
X95008238Y-56384849D01*
X95205775Y-56476961D01*
X95210757Y-56479284D01*
X95216065Y-56480706D01*
X95216067Y-56480707D01*
X95426598Y-56537119D01*
X95426600Y-56537119D01*
X95431913Y-56538543D01*
X95660000Y-56558498D01*
X95888087Y-56538543D01*
X95893400Y-56537119D01*
X95893402Y-56537119D01*
X96103933Y-56480707D01*
X96103935Y-56480706D01*
X96109243Y-56479284D01*
X96114225Y-56476961D01*
X96311762Y-56384849D01*
X96311767Y-56384846D01*
X96316749Y-56382523D01*
X96495243Y-56257540D01*
X96499789Y-56254357D01*
X96499792Y-56254355D01*
X96504300Y-56251198D01*
X96666198Y-56089300D01*
X96797523Y-55901749D01*
X96799846Y-55896767D01*
X96799849Y-55896762D01*
X96891961Y-55699225D01*
X96891961Y-55699224D01*
X96894284Y-55694243D01*
X96953543Y-55473087D01*
X96973498Y-55245000D01*
X96953543Y-55016913D01*
X96894284Y-54795757D01*
X96891961Y-54790775D01*
X96799849Y-54593238D01*
X96799846Y-54593233D01*
X96797523Y-54588251D01*
X96666198Y-54400700D01*
X96504300Y-54238802D01*
X96499792Y-54235645D01*
X96499789Y-54235643D01*
X96395474Y-54162601D01*
X96316749Y-54107477D01*
X96311767Y-54105154D01*
X96311762Y-54105151D01*
X96114225Y-54013039D01*
X96114224Y-54013039D01*
X96109243Y-54010716D01*
X96103935Y-54009294D01*
X96103933Y-54009293D01*
X95893402Y-53952881D01*
X95893400Y-53952881D01*
X95888087Y-53951457D01*
X95660000Y-53931502D01*
X95431913Y-53951457D01*
X95426600Y-53952881D01*
X95426598Y-53952881D01*
X95216067Y-54009293D01*
X95216065Y-54009294D01*
X95210757Y-54010716D01*
X95205776Y-54013039D01*
X95205775Y-54013039D01*
X95008238Y-54105151D01*
X95008233Y-54105154D01*
X95003251Y-54107477D01*
X94924526Y-54162601D01*
X94820211Y-54235643D01*
X94820208Y-54235645D01*
X94815700Y-54238802D01*
X94653802Y-54400700D01*
X94522477Y-54588251D01*
X94520154Y-54593233D01*
X94520151Y-54593238D01*
X94428039Y-54790775D01*
X94425716Y-54795757D01*
X94366457Y-55016913D01*
X94346502Y-55245000D01*
X91893498Y-55245000D01*
X91873543Y-55016913D01*
X91814284Y-54795757D01*
X91811961Y-54790775D01*
X91719849Y-54593238D01*
X91719846Y-54593233D01*
X91717523Y-54588251D01*
X91586198Y-54400700D01*
X91424300Y-54238802D01*
X91419792Y-54235645D01*
X91419789Y-54235643D01*
X91315474Y-54162601D01*
X91236749Y-54107477D01*
X91231767Y-54105154D01*
X91231762Y-54105151D01*
X91034225Y-54013039D01*
X91034224Y-54013039D01*
X91029243Y-54010716D01*
X91023935Y-54009294D01*
X91023933Y-54009293D01*
X90813402Y-53952881D01*
X90813400Y-53952881D01*
X90808087Y-53951457D01*
X90580000Y-53931502D01*
X90351913Y-53951457D01*
X90346600Y-53952881D01*
X90346598Y-53952881D01*
X90136067Y-54009293D01*
X90136065Y-54009294D01*
X90130757Y-54010716D01*
X90125776Y-54013039D01*
X90125775Y-54013039D01*
X89928238Y-54105151D01*
X89928233Y-54105154D01*
X89923251Y-54107477D01*
X89844526Y-54162601D01*
X89740211Y-54235643D01*
X89740208Y-54235645D01*
X89735700Y-54238802D01*
X89573802Y-54400700D01*
X89442477Y-54588251D01*
X89440154Y-54593233D01*
X89440151Y-54593238D01*
X89348039Y-54790775D01*
X89345716Y-54795757D01*
X89286457Y-55016913D01*
X89266502Y-55245000D01*
X81788000Y-55245000D01*
X81788000Y-52990000D01*
X122886372Y-52990000D01*
X122906854Y-53250249D01*
X122908008Y-53255056D01*
X122908009Y-53255062D01*
X122946424Y-53415069D01*
X122967796Y-53504089D01*
X123067697Y-53745271D01*
X123204097Y-53967856D01*
X123373637Y-54166363D01*
X123572144Y-54335903D01*
X123794729Y-54472303D01*
X123799299Y-54474196D01*
X123799303Y-54474198D01*
X124031338Y-54570310D01*
X124035911Y-54572204D01*
X124102751Y-54588251D01*
X124284938Y-54631991D01*
X124284944Y-54631992D01*
X124289751Y-54633146D01*
X124380884Y-54640318D01*
X124482385Y-54648307D01*
X124482394Y-54648307D01*
X124484842Y-54648500D01*
X124615158Y-54648500D01*
X124617606Y-54648307D01*
X124617615Y-54648307D01*
X124719116Y-54640318D01*
X124810249Y-54633146D01*
X124815056Y-54631992D01*
X124815062Y-54631991D01*
X124997249Y-54588251D01*
X125064089Y-54572204D01*
X125068662Y-54570310D01*
X125300697Y-54474198D01*
X125300701Y-54474196D01*
X125305271Y-54472303D01*
X125527856Y-54335903D01*
X125726363Y-54166363D01*
X125895903Y-53967856D01*
X126032303Y-53745271D01*
X126132204Y-53504089D01*
X126153576Y-53415069D01*
X126191991Y-53255062D01*
X126191992Y-53255056D01*
X126193146Y-53250249D01*
X126213628Y-52990000D01*
X126193146Y-52729751D01*
X126191992Y-52724944D01*
X126191991Y-52724938D01*
X126133359Y-52480723D01*
X126132204Y-52475911D01*
X126032303Y-52234729D01*
X125895903Y-52012144D01*
X125726363Y-51813637D01*
X125527856Y-51644097D01*
X125305271Y-51507697D01*
X125300701Y-51505804D01*
X125300697Y-51505802D01*
X125068662Y-51409690D01*
X125068660Y-51409689D01*
X125064089Y-51407796D01*
X124953568Y-51381262D01*
X124815062Y-51348009D01*
X124815056Y-51348008D01*
X124810249Y-51346854D01*
X124719116Y-51339682D01*
X124617615Y-51331693D01*
X124617606Y-51331693D01*
X124615158Y-51331500D01*
X124484842Y-51331500D01*
X124482394Y-51331693D01*
X124482385Y-51331693D01*
X124380884Y-51339682D01*
X124289751Y-51346854D01*
X124284944Y-51348008D01*
X124284938Y-51348009D01*
X124146432Y-51381262D01*
X124035911Y-51407796D01*
X124031340Y-51409689D01*
X124031338Y-51409690D01*
X123799303Y-51505802D01*
X123799299Y-51505804D01*
X123794729Y-51507697D01*
X123572144Y-51644097D01*
X123373637Y-51813637D01*
X123204097Y-52012144D01*
X123067697Y-52234729D01*
X122967796Y-52475911D01*
X122966641Y-52480723D01*
X122908009Y-52724938D01*
X122908008Y-52724944D01*
X122906854Y-52729751D01*
X122886372Y-52990000D01*
X81788000Y-52990000D01*
X81788000Y-50165000D01*
X84861502Y-50165000D01*
X84881457Y-50393087D01*
X84940716Y-50614243D01*
X84943039Y-50619224D01*
X84943039Y-50619225D01*
X85035151Y-50816762D01*
X85035154Y-50816767D01*
X85037477Y-50821749D01*
X85069674Y-50867731D01*
X85159012Y-50995318D01*
X85168802Y-51009300D01*
X85330700Y-51171198D01*
X85335208Y-51174355D01*
X85335211Y-51174357D01*
X85335821Y-51174784D01*
X85518251Y-51302523D01*
X85523233Y-51304846D01*
X85523238Y-51304849D01*
X85682238Y-51378991D01*
X85725757Y-51399284D01*
X85731065Y-51400706D01*
X85731067Y-51400707D01*
X85941598Y-51457119D01*
X85941600Y-51457119D01*
X85946913Y-51458543D01*
X86175000Y-51478498D01*
X86403087Y-51458543D01*
X86408400Y-51457119D01*
X86408402Y-51457119D01*
X86618933Y-51400707D01*
X86618935Y-51400706D01*
X86624243Y-51399284D01*
X86667762Y-51378991D01*
X86826762Y-51304849D01*
X86826767Y-51304846D01*
X86831749Y-51302523D01*
X87014179Y-51174784D01*
X87014789Y-51174357D01*
X87014792Y-51174355D01*
X87019300Y-51171198D01*
X87181198Y-51009300D01*
X87190989Y-50995318D01*
X87280326Y-50867731D01*
X87312523Y-50821749D01*
X87314846Y-50816767D01*
X87314849Y-50816762D01*
X87406961Y-50619225D01*
X87406961Y-50619224D01*
X87409284Y-50614243D01*
X87468543Y-50393087D01*
X87488498Y-50165000D01*
X89941502Y-50165000D01*
X89961457Y-50393087D01*
X90020716Y-50614243D01*
X90023039Y-50619224D01*
X90023039Y-50619225D01*
X90115151Y-50816762D01*
X90115154Y-50816767D01*
X90117477Y-50821749D01*
X90149674Y-50867731D01*
X90239012Y-50995318D01*
X90248802Y-51009300D01*
X90410700Y-51171198D01*
X90415208Y-51174355D01*
X90415211Y-51174357D01*
X90415821Y-51174784D01*
X90598251Y-51302523D01*
X90603233Y-51304846D01*
X90603238Y-51304849D01*
X90762238Y-51378991D01*
X90805757Y-51399284D01*
X90811065Y-51400706D01*
X90811067Y-51400707D01*
X91021598Y-51457119D01*
X91021600Y-51457119D01*
X91026913Y-51458543D01*
X91255000Y-51478498D01*
X91483087Y-51458543D01*
X91488400Y-51457119D01*
X91488402Y-51457119D01*
X91698933Y-51400707D01*
X91698935Y-51400706D01*
X91704243Y-51399284D01*
X91747762Y-51378991D01*
X91906762Y-51304849D01*
X91906767Y-51304846D01*
X91911749Y-51302523D01*
X92094179Y-51174784D01*
X92094789Y-51174357D01*
X92094792Y-51174355D01*
X92099300Y-51171198D01*
X92261198Y-51009300D01*
X92270989Y-50995318D01*
X92360326Y-50867731D01*
X92392523Y-50821749D01*
X92394846Y-50816767D01*
X92394849Y-50816762D01*
X92448820Y-50701020D01*
X92495737Y-50647735D01*
X92564015Y-50628274D01*
X92631975Y-50648816D01*
X92679758Y-50706866D01*
X92718484Y-50802237D01*
X92839501Y-50999719D01*
X92991147Y-51174784D01*
X93169349Y-51322730D01*
X93369322Y-51439584D01*
X93585694Y-51522209D01*
X93590760Y-51523240D01*
X93590761Y-51523240D01*
X93643846Y-51534040D01*
X93812656Y-51568385D01*
X93942089Y-51573131D01*
X94038949Y-51576683D01*
X94038953Y-51576683D01*
X94044113Y-51576872D01*
X94049233Y-51576216D01*
X94049235Y-51576216D01*
X94123166Y-51566745D01*
X94273847Y-51547442D01*
X94278795Y-51545957D01*
X94278802Y-51545956D01*
X94490747Y-51482369D01*
X94495690Y-51480886D01*
X94500565Y-51478498D01*
X94699049Y-51381262D01*
X94699052Y-51381260D01*
X94703684Y-51378991D01*
X94892243Y-51244494D01*
X95056303Y-51081005D01*
X95191458Y-50892917D01*
X95238641Y-50797450D01*
X95291784Y-50689922D01*
X95291785Y-50689920D01*
X95294078Y-50685280D01*
X95361408Y-50463671D01*
X95391640Y-50234041D01*
X95393327Y-50165000D01*
X95387032Y-50088434D01*
X95374773Y-49939318D01*
X95374772Y-49939312D01*
X95374349Y-49934167D01*
X95336335Y-49782828D01*
X95319184Y-49714544D01*
X95319183Y-49714540D01*
X95317925Y-49709533D01*
X95315865Y-49704795D01*
X95227630Y-49501868D01*
X95227628Y-49501865D01*
X95225570Y-49497131D01*
X95099764Y-49302665D01*
X94943887Y-49131358D01*
X94939836Y-49128159D01*
X94939832Y-49128155D01*
X94766177Y-48991011D01*
X94766172Y-48991008D01*
X94762123Y-48987810D01*
X94757607Y-48985317D01*
X94757604Y-48985315D01*
X94563879Y-48878373D01*
X94563875Y-48878371D01*
X94559355Y-48875876D01*
X94554486Y-48874152D01*
X94554482Y-48874150D01*
X94345903Y-48800288D01*
X94345899Y-48800287D01*
X94341028Y-48798562D01*
X94335935Y-48797655D01*
X94335932Y-48797654D01*
X94118095Y-48758851D01*
X94118089Y-48758850D01*
X94113006Y-48757945D01*
X94040096Y-48757054D01*
X93886581Y-48755179D01*
X93886579Y-48755179D01*
X93881411Y-48755116D01*
X93652464Y-48790150D01*
X93432314Y-48862106D01*
X93427726Y-48864494D01*
X93427722Y-48864496D01*
X93231461Y-48966663D01*
X93226872Y-48969052D01*
X93222739Y-48972155D01*
X93222736Y-48972157D01*
X93140324Y-49034034D01*
X93041655Y-49108117D01*
X92881639Y-49275564D01*
X92878725Y-49279836D01*
X92878724Y-49279837D01*
X92863152Y-49302665D01*
X92751119Y-49466899D01*
X92748943Y-49471586D01*
X92748940Y-49471592D01*
X92676638Y-49627354D01*
X92629814Y-49680721D01*
X92561570Y-49700302D01*
X92493575Y-49679878D01*
X92448155Y-49627554D01*
X92394849Y-49513238D01*
X92394846Y-49513233D01*
X92392523Y-49508251D01*
X92269137Y-49332038D01*
X92264357Y-49325211D01*
X92264355Y-49325208D01*
X92261198Y-49320700D01*
X92099300Y-49158802D01*
X92094792Y-49155645D01*
X92094789Y-49155643D01*
X92016611Y-49100902D01*
X91911749Y-49027477D01*
X91906767Y-49025154D01*
X91906762Y-49025151D01*
X91709225Y-48933039D01*
X91709224Y-48933039D01*
X91704243Y-48930716D01*
X91698935Y-48929294D01*
X91698933Y-48929293D01*
X91488402Y-48872881D01*
X91488400Y-48872881D01*
X91483087Y-48871457D01*
X91255000Y-48851502D01*
X91026913Y-48871457D01*
X91021600Y-48872881D01*
X91021598Y-48872881D01*
X90811067Y-48929293D01*
X90811065Y-48929294D01*
X90805757Y-48930716D01*
X90800776Y-48933039D01*
X90800775Y-48933039D01*
X90603238Y-49025151D01*
X90603233Y-49025154D01*
X90598251Y-49027477D01*
X90493389Y-49100902D01*
X90415211Y-49155643D01*
X90415208Y-49155645D01*
X90410700Y-49158802D01*
X90248802Y-49320700D01*
X90245645Y-49325208D01*
X90245643Y-49325211D01*
X90240863Y-49332038D01*
X90117477Y-49508251D01*
X90115154Y-49513233D01*
X90115151Y-49513238D01*
X90025827Y-49704797D01*
X90020716Y-49715757D01*
X90019294Y-49721065D01*
X90019293Y-49721067D01*
X89963535Y-49929156D01*
X89961457Y-49936913D01*
X89941502Y-50165000D01*
X87488498Y-50165000D01*
X87468543Y-49936913D01*
X87466465Y-49929156D01*
X87410707Y-49721067D01*
X87410706Y-49721065D01*
X87409284Y-49715757D01*
X87404173Y-49704797D01*
X87314849Y-49513238D01*
X87314846Y-49513233D01*
X87312523Y-49508251D01*
X87189137Y-49332038D01*
X87184357Y-49325211D01*
X87184355Y-49325208D01*
X87181198Y-49320700D01*
X87019300Y-49158802D01*
X87014792Y-49155645D01*
X87014789Y-49155643D01*
X86936611Y-49100902D01*
X86831749Y-49027477D01*
X86826767Y-49025154D01*
X86826762Y-49025151D01*
X86629225Y-48933039D01*
X86629224Y-48933039D01*
X86624243Y-48930716D01*
X86618935Y-48929294D01*
X86618933Y-48929293D01*
X86408402Y-48872881D01*
X86408400Y-48872881D01*
X86403087Y-48871457D01*
X86175000Y-48851502D01*
X85946913Y-48871457D01*
X85941600Y-48872881D01*
X85941598Y-48872881D01*
X85731067Y-48929293D01*
X85731065Y-48929294D01*
X85725757Y-48930716D01*
X85720776Y-48933039D01*
X85720775Y-48933039D01*
X85523238Y-49025151D01*
X85523233Y-49025154D01*
X85518251Y-49027477D01*
X85413389Y-49100902D01*
X85335211Y-49155643D01*
X85335208Y-49155645D01*
X85330700Y-49158802D01*
X85168802Y-49320700D01*
X85165645Y-49325208D01*
X85165643Y-49325211D01*
X85160863Y-49332038D01*
X85037477Y-49508251D01*
X85035154Y-49513233D01*
X85035151Y-49513238D01*
X84945827Y-49704797D01*
X84940716Y-49715757D01*
X84939294Y-49721065D01*
X84939293Y-49721067D01*
X84883535Y-49929156D01*
X84881457Y-49936913D01*
X84861502Y-50165000D01*
X81788000Y-50165000D01*
X81788000Y-44450000D01*
X84861502Y-44450000D01*
X84881457Y-44678087D01*
X84940716Y-44899243D01*
X84943039Y-44904224D01*
X84943039Y-44904225D01*
X85035151Y-45101762D01*
X85035154Y-45101767D01*
X85037477Y-45106749D01*
X85069674Y-45152731D01*
X85159012Y-45280318D01*
X85168802Y-45294300D01*
X85330700Y-45456198D01*
X85335208Y-45459355D01*
X85335211Y-45459357D01*
X85335821Y-45459784D01*
X85518251Y-45587523D01*
X85523233Y-45589846D01*
X85523238Y-45589849D01*
X85690754Y-45667962D01*
X85725757Y-45684284D01*
X85731065Y-45685706D01*
X85731067Y-45685707D01*
X85941598Y-45742119D01*
X85941600Y-45742119D01*
X85946913Y-45743543D01*
X86175000Y-45763498D01*
X86403087Y-45743543D01*
X86408400Y-45742119D01*
X86408402Y-45742119D01*
X86618933Y-45685707D01*
X86618935Y-45685706D01*
X86624243Y-45684284D01*
X86659246Y-45667962D01*
X86826762Y-45589849D01*
X86826767Y-45589846D01*
X86831749Y-45587523D01*
X87014179Y-45459784D01*
X87014789Y-45459357D01*
X87014792Y-45459355D01*
X87019300Y-45456198D01*
X87181198Y-45294300D01*
X87190989Y-45280318D01*
X87280326Y-45152731D01*
X87312523Y-45106749D01*
X87314846Y-45101767D01*
X87314849Y-45101762D01*
X87406961Y-44904225D01*
X87406961Y-44904224D01*
X87409284Y-44899243D01*
X87468543Y-44678087D01*
X87488498Y-44450000D01*
X89941502Y-44450000D01*
X89961457Y-44678087D01*
X90020716Y-44899243D01*
X90023039Y-44904224D01*
X90023039Y-44904225D01*
X90115151Y-45101762D01*
X90115154Y-45101767D01*
X90117477Y-45106749D01*
X90149674Y-45152731D01*
X90239012Y-45280318D01*
X90248802Y-45294300D01*
X90410700Y-45456198D01*
X90415208Y-45459355D01*
X90415211Y-45459357D01*
X90415821Y-45459784D01*
X90598251Y-45587523D01*
X90603233Y-45589846D01*
X90603238Y-45589849D01*
X90770754Y-45667962D01*
X90805757Y-45684284D01*
X90811065Y-45685706D01*
X90811067Y-45685707D01*
X91021598Y-45742119D01*
X91021600Y-45742119D01*
X91026913Y-45743543D01*
X91255000Y-45763498D01*
X91483087Y-45743543D01*
X91488400Y-45742119D01*
X91488402Y-45742119D01*
X91698933Y-45685707D01*
X91698935Y-45685706D01*
X91704243Y-45684284D01*
X91739246Y-45667962D01*
X91906762Y-45589849D01*
X91906767Y-45589846D01*
X91911749Y-45587523D01*
X92094179Y-45459784D01*
X92094789Y-45459357D01*
X92094792Y-45459355D01*
X92099300Y-45456198D01*
X92261198Y-45294300D01*
X92270989Y-45280318D01*
X92360326Y-45152731D01*
X92392523Y-45106749D01*
X92394846Y-45101767D01*
X92394849Y-45101762D01*
X92448820Y-44986020D01*
X92495737Y-44932735D01*
X92564015Y-44913274D01*
X92631975Y-44933816D01*
X92679758Y-44991866D01*
X92718484Y-45087237D01*
X92839501Y-45284719D01*
X92991147Y-45459784D01*
X93169349Y-45607730D01*
X93369322Y-45724584D01*
X93585694Y-45807209D01*
X93590760Y-45808240D01*
X93590761Y-45808240D01*
X93607512Y-45811648D01*
X93812656Y-45853385D01*
X93942089Y-45858131D01*
X94038949Y-45861683D01*
X94038953Y-45861683D01*
X94044113Y-45861872D01*
X94049233Y-45861216D01*
X94049235Y-45861216D01*
X94123166Y-45851745D01*
X94273847Y-45832442D01*
X94278801Y-45830956D01*
X94278809Y-45830954D01*
X94377179Y-45801441D01*
X94448174Y-45801023D01*
X94502482Y-45833031D01*
X97646121Y-48976670D01*
X97680147Y-49038982D01*
X97675008Y-49109994D01*
X97661029Y-49147282D01*
X97661027Y-49147289D01*
X97658255Y-49154684D01*
X97651500Y-49216866D01*
X97651500Y-51113134D01*
X97658255Y-51175316D01*
X97709385Y-51311705D01*
X97796739Y-51428261D01*
X97913295Y-51515615D01*
X98049684Y-51566745D01*
X98111866Y-51573500D01*
X100008134Y-51573500D01*
X100070316Y-51566745D01*
X100206705Y-51515615D01*
X100323261Y-51428261D01*
X100410615Y-51311705D01*
X100461745Y-51175316D01*
X100468500Y-51113134D01*
X100468500Y-50165000D01*
X101371502Y-50165000D01*
X101391457Y-50393087D01*
X101450716Y-50614243D01*
X101453039Y-50619224D01*
X101453039Y-50619225D01*
X101545151Y-50816762D01*
X101545154Y-50816767D01*
X101547477Y-50821749D01*
X101579674Y-50867731D01*
X101669012Y-50995318D01*
X101678802Y-51009300D01*
X101840700Y-51171198D01*
X101845208Y-51174355D01*
X101845211Y-51174357D01*
X101845821Y-51174784D01*
X102028251Y-51302523D01*
X102033233Y-51304846D01*
X102033238Y-51304849D01*
X102192238Y-51378991D01*
X102235757Y-51399284D01*
X102241065Y-51400706D01*
X102241067Y-51400707D01*
X102451598Y-51457119D01*
X102451600Y-51457119D01*
X102456913Y-51458543D01*
X102685000Y-51478498D01*
X102913087Y-51458543D01*
X102918400Y-51457119D01*
X102918402Y-51457119D01*
X103128933Y-51400707D01*
X103128935Y-51400706D01*
X103134243Y-51399284D01*
X103177762Y-51378991D01*
X103336762Y-51304849D01*
X103336767Y-51304846D01*
X103341749Y-51302523D01*
X103524179Y-51174784D01*
X103524789Y-51174357D01*
X103524792Y-51174355D01*
X103529300Y-51171198D01*
X103691198Y-51009300D01*
X103700989Y-50995318D01*
X103790326Y-50867731D01*
X103822523Y-50821749D01*
X103824846Y-50816767D01*
X103824849Y-50816762D01*
X103916961Y-50619225D01*
X103916961Y-50619224D01*
X103919284Y-50614243D01*
X103978543Y-50393087D01*
X103998498Y-50165000D01*
X106451502Y-50165000D01*
X106471457Y-50393087D01*
X106530716Y-50614243D01*
X106533039Y-50619224D01*
X106533039Y-50619225D01*
X106625151Y-50816762D01*
X106625154Y-50816767D01*
X106627477Y-50821749D01*
X106659674Y-50867731D01*
X106749012Y-50995318D01*
X106758802Y-51009300D01*
X106920700Y-51171198D01*
X106925208Y-51174355D01*
X106925211Y-51174357D01*
X106925821Y-51174784D01*
X107108251Y-51302523D01*
X107113233Y-51304846D01*
X107113238Y-51304849D01*
X107272238Y-51378991D01*
X107315757Y-51399284D01*
X107321065Y-51400706D01*
X107321067Y-51400707D01*
X107531598Y-51457119D01*
X107531600Y-51457119D01*
X107536913Y-51458543D01*
X107765000Y-51478498D01*
X107993087Y-51458543D01*
X107998400Y-51457119D01*
X107998402Y-51457119D01*
X108208933Y-51400707D01*
X108208935Y-51400706D01*
X108214243Y-51399284D01*
X108257762Y-51378991D01*
X108416762Y-51304849D01*
X108416767Y-51304846D01*
X108421749Y-51302523D01*
X108604179Y-51174784D01*
X108604789Y-51174357D01*
X108604792Y-51174355D01*
X108609300Y-51171198D01*
X108771198Y-51009300D01*
X108780989Y-50995318D01*
X108839287Y-50912059D01*
X108894744Y-50867731D01*
X108965363Y-50860422D01*
X109028724Y-50892453D01*
X109045713Y-50912059D01*
X109104012Y-50995318D01*
X109113802Y-51009300D01*
X109275700Y-51171198D01*
X109280208Y-51174355D01*
X109280211Y-51174357D01*
X109280821Y-51174784D01*
X109463251Y-51302523D01*
X109468233Y-51304846D01*
X109468238Y-51304849D01*
X109627238Y-51378991D01*
X109670757Y-51399284D01*
X109676065Y-51400706D01*
X109676067Y-51400707D01*
X109886598Y-51457119D01*
X109886600Y-51457119D01*
X109891913Y-51458543D01*
X110120000Y-51478498D01*
X110348087Y-51458543D01*
X110353400Y-51457119D01*
X110353402Y-51457119D01*
X110563933Y-51400707D01*
X110563935Y-51400706D01*
X110569243Y-51399284D01*
X110612762Y-51378991D01*
X110771762Y-51304849D01*
X110771767Y-51304846D01*
X110776749Y-51302523D01*
X110959179Y-51174784D01*
X110959789Y-51174357D01*
X110959792Y-51174355D01*
X110964300Y-51171198D01*
X111126198Y-51009300D01*
X111135989Y-50995318D01*
X111225326Y-50867731D01*
X111257523Y-50821749D01*
X111259846Y-50816767D01*
X111259849Y-50816762D01*
X111351961Y-50619225D01*
X111351961Y-50619224D01*
X111354284Y-50614243D01*
X111413543Y-50393087D01*
X111433498Y-50165000D01*
X113806502Y-50165000D01*
X113826457Y-50393087D01*
X113885716Y-50614243D01*
X113888039Y-50619224D01*
X113888039Y-50619225D01*
X113980151Y-50816762D01*
X113980154Y-50816767D01*
X113982477Y-50821749D01*
X114014674Y-50867731D01*
X114104012Y-50995318D01*
X114113802Y-51009300D01*
X114275700Y-51171198D01*
X114280208Y-51174355D01*
X114280211Y-51174357D01*
X114280821Y-51174784D01*
X114463251Y-51302523D01*
X114468233Y-51304846D01*
X114468238Y-51304849D01*
X114627238Y-51378991D01*
X114670757Y-51399284D01*
X114676065Y-51400706D01*
X114676067Y-51400707D01*
X114886598Y-51457119D01*
X114886600Y-51457119D01*
X114891913Y-51458543D01*
X115120000Y-51478498D01*
X115348087Y-51458543D01*
X115353400Y-51457119D01*
X115353402Y-51457119D01*
X115563933Y-51400707D01*
X115563935Y-51400706D01*
X115569243Y-51399284D01*
X115612762Y-51378991D01*
X115771762Y-51304849D01*
X115771767Y-51304846D01*
X115776749Y-51302523D01*
X115959179Y-51174784D01*
X115959789Y-51174357D01*
X115959792Y-51174355D01*
X115964300Y-51171198D01*
X116126198Y-51009300D01*
X116135989Y-50995318D01*
X116225326Y-50867731D01*
X116257523Y-50821749D01*
X116259846Y-50816767D01*
X116259849Y-50816762D01*
X116351961Y-50619225D01*
X116351961Y-50619224D01*
X116354284Y-50614243D01*
X116413543Y-50393087D01*
X116433498Y-50165000D01*
X116413543Y-49936913D01*
X116411465Y-49929156D01*
X116355707Y-49721067D01*
X116355706Y-49721065D01*
X116354284Y-49715757D01*
X116349173Y-49704797D01*
X116259849Y-49513238D01*
X116259846Y-49513233D01*
X116257523Y-49508251D01*
X116134137Y-49332038D01*
X116129357Y-49325211D01*
X116129355Y-49325208D01*
X116126198Y-49320700D01*
X115964300Y-49158802D01*
X115959792Y-49155645D01*
X115959789Y-49155643D01*
X115881611Y-49100902D01*
X115776749Y-49027477D01*
X115771767Y-49025154D01*
X115771762Y-49025151D01*
X115574225Y-48933039D01*
X115574224Y-48933039D01*
X115569243Y-48930716D01*
X115563935Y-48929294D01*
X115563933Y-48929293D01*
X115353402Y-48872881D01*
X115353400Y-48872881D01*
X115348087Y-48871457D01*
X115120000Y-48851502D01*
X114891913Y-48871457D01*
X114886600Y-48872881D01*
X114886598Y-48872881D01*
X114676067Y-48929293D01*
X114676065Y-48929294D01*
X114670757Y-48930716D01*
X114665776Y-48933039D01*
X114665775Y-48933039D01*
X114468238Y-49025151D01*
X114468233Y-49025154D01*
X114463251Y-49027477D01*
X114358389Y-49100902D01*
X114280211Y-49155643D01*
X114280208Y-49155645D01*
X114275700Y-49158802D01*
X114113802Y-49320700D01*
X114110645Y-49325208D01*
X114110643Y-49325211D01*
X114105863Y-49332038D01*
X113982477Y-49508251D01*
X113980154Y-49513233D01*
X113980151Y-49513238D01*
X113890827Y-49704797D01*
X113885716Y-49715757D01*
X113884294Y-49721065D01*
X113884293Y-49721067D01*
X113828535Y-49929156D01*
X113826457Y-49936913D01*
X113806502Y-50165000D01*
X111433498Y-50165000D01*
X111413543Y-49936913D01*
X111411465Y-49929156D01*
X111355707Y-49721067D01*
X111355706Y-49721065D01*
X111354284Y-49715757D01*
X111349173Y-49704797D01*
X111259849Y-49513238D01*
X111259846Y-49513233D01*
X111257523Y-49508251D01*
X111134137Y-49332038D01*
X111129357Y-49325211D01*
X111129355Y-49325208D01*
X111126198Y-49320700D01*
X110964300Y-49158802D01*
X110959792Y-49155645D01*
X110959789Y-49155643D01*
X110881611Y-49100902D01*
X110776749Y-49027477D01*
X110771767Y-49025154D01*
X110771762Y-49025151D01*
X110574225Y-48933039D01*
X110574224Y-48933039D01*
X110569243Y-48930716D01*
X110563935Y-48929294D01*
X110563933Y-48929293D01*
X110353402Y-48872881D01*
X110353400Y-48872881D01*
X110348087Y-48871457D01*
X110120000Y-48851502D01*
X109891913Y-48871457D01*
X109886600Y-48872881D01*
X109886598Y-48872881D01*
X109676067Y-48929293D01*
X109676065Y-48929294D01*
X109670757Y-48930716D01*
X109665776Y-48933039D01*
X109665775Y-48933039D01*
X109468238Y-49025151D01*
X109468233Y-49025154D01*
X109463251Y-49027477D01*
X109358389Y-49100902D01*
X109280211Y-49155643D01*
X109280208Y-49155645D01*
X109275700Y-49158802D01*
X109113802Y-49320700D01*
X109110645Y-49325208D01*
X109110643Y-49325211D01*
X109045713Y-49417941D01*
X108990256Y-49462269D01*
X108919637Y-49469578D01*
X108856276Y-49437547D01*
X108839287Y-49417941D01*
X108774357Y-49325211D01*
X108774355Y-49325208D01*
X108771198Y-49320700D01*
X108609300Y-49158802D01*
X108604792Y-49155645D01*
X108604789Y-49155643D01*
X108526611Y-49100902D01*
X108421749Y-49027477D01*
X108416767Y-49025154D01*
X108416762Y-49025151D01*
X108219225Y-48933039D01*
X108219224Y-48933039D01*
X108214243Y-48930716D01*
X108208935Y-48929294D01*
X108208933Y-48929293D01*
X107998402Y-48872881D01*
X107998400Y-48872881D01*
X107993087Y-48871457D01*
X107765000Y-48851502D01*
X107536913Y-48871457D01*
X107531600Y-48872881D01*
X107531598Y-48872881D01*
X107321067Y-48929293D01*
X107321065Y-48929294D01*
X107315757Y-48930716D01*
X107310776Y-48933039D01*
X107310775Y-48933039D01*
X107113238Y-49025151D01*
X107113233Y-49025154D01*
X107108251Y-49027477D01*
X107003389Y-49100902D01*
X106925211Y-49155643D01*
X106925208Y-49155645D01*
X106920700Y-49158802D01*
X106758802Y-49320700D01*
X106755645Y-49325208D01*
X106755643Y-49325211D01*
X106750863Y-49332038D01*
X106627477Y-49508251D01*
X106625154Y-49513233D01*
X106625151Y-49513238D01*
X106535827Y-49704797D01*
X106530716Y-49715757D01*
X106529294Y-49721065D01*
X106529293Y-49721067D01*
X106473535Y-49929156D01*
X106471457Y-49936913D01*
X106451502Y-50165000D01*
X103998498Y-50165000D01*
X103978543Y-49936913D01*
X103976465Y-49929156D01*
X103920707Y-49721067D01*
X103920706Y-49721065D01*
X103919284Y-49715757D01*
X103914173Y-49704797D01*
X103824849Y-49513238D01*
X103824846Y-49513233D01*
X103822523Y-49508251D01*
X103699137Y-49332038D01*
X103694357Y-49325211D01*
X103694355Y-49325208D01*
X103691198Y-49320700D01*
X103529300Y-49158802D01*
X103524792Y-49155645D01*
X103524789Y-49155643D01*
X103446611Y-49100902D01*
X103341749Y-49027477D01*
X103336767Y-49025154D01*
X103336762Y-49025151D01*
X103139225Y-48933039D01*
X103139224Y-48933039D01*
X103134243Y-48930716D01*
X103128935Y-48929294D01*
X103128933Y-48929293D01*
X102918402Y-48872881D01*
X102918400Y-48872881D01*
X102913087Y-48871457D01*
X102685000Y-48851502D01*
X102456913Y-48871457D01*
X102451600Y-48872881D01*
X102451598Y-48872881D01*
X102241067Y-48929293D01*
X102241065Y-48929294D01*
X102235757Y-48930716D01*
X102230776Y-48933039D01*
X102230775Y-48933039D01*
X102033238Y-49025151D01*
X102033233Y-49025154D01*
X102028251Y-49027477D01*
X101923389Y-49100902D01*
X101845211Y-49155643D01*
X101845208Y-49155645D01*
X101840700Y-49158802D01*
X101678802Y-49320700D01*
X101675645Y-49325208D01*
X101675643Y-49325211D01*
X101670863Y-49332038D01*
X101547477Y-49508251D01*
X101545154Y-49513233D01*
X101545151Y-49513238D01*
X101455827Y-49704797D01*
X101450716Y-49715757D01*
X101449294Y-49721065D01*
X101449293Y-49721067D01*
X101393535Y-49929156D01*
X101391457Y-49936913D01*
X101371502Y-50165000D01*
X100468500Y-50165000D01*
X100468500Y-49216866D01*
X100461745Y-49154684D01*
X100410615Y-49018295D01*
X100323261Y-48901739D01*
X100206705Y-48814385D01*
X100070316Y-48763255D01*
X100008134Y-48756500D01*
X99199239Y-48756500D01*
X99131118Y-48736498D01*
X99110144Y-48719595D01*
X98910549Y-48520000D01*
X118446693Y-48520000D01*
X118465885Y-48739371D01*
X118522880Y-48952076D01*
X118553758Y-49018295D01*
X118613618Y-49146666D01*
X118613621Y-49146671D01*
X118615944Y-49151653D01*
X118619100Y-49156160D01*
X118619101Y-49156162D01*
X118737471Y-49325211D01*
X118742251Y-49332038D01*
X118897962Y-49487749D01*
X118902471Y-49490906D01*
X118902473Y-49490908D01*
X118934364Y-49513238D01*
X119078346Y-49614056D01*
X119277924Y-49707120D01*
X119490629Y-49764115D01*
X119710000Y-49783307D01*
X119929371Y-49764115D01*
X120142076Y-49707120D01*
X120341654Y-49614056D01*
X120485636Y-49513238D01*
X120517527Y-49490908D01*
X120517529Y-49490906D01*
X120522038Y-49487749D01*
X120677749Y-49332038D01*
X120682530Y-49325211D01*
X120800899Y-49156162D01*
X120800900Y-49156160D01*
X120804056Y-49151653D01*
X120806379Y-49146671D01*
X120806382Y-49146666D01*
X120866242Y-49018295D01*
X120897120Y-48952076D01*
X120954115Y-48739371D01*
X120973307Y-48520000D01*
X120954115Y-48300629D01*
X120952691Y-48295317D01*
X120952690Y-48295308D01*
X120940610Y-48250225D01*
X120942299Y-48179248D01*
X120982093Y-48120452D01*
X121047357Y-48092504D01*
X121117370Y-48104277D01*
X121165529Y-48145342D01*
X121270537Y-48295308D01*
X121282251Y-48312038D01*
X121437962Y-48467749D01*
X121618346Y-48594056D01*
X121817924Y-48687120D01*
X122030629Y-48744115D01*
X122250000Y-48763307D01*
X122469371Y-48744115D01*
X122682076Y-48687120D01*
X122881654Y-48594056D01*
X123062038Y-48467749D01*
X123217749Y-48312038D01*
X123229464Y-48295308D01*
X123340899Y-48136162D01*
X123340900Y-48136160D01*
X123344056Y-48131653D01*
X123346379Y-48126671D01*
X123346382Y-48126666D01*
X123434795Y-47937061D01*
X123437120Y-47932076D01*
X123494115Y-47719371D01*
X123513307Y-47500000D01*
X123494115Y-47280629D01*
X123437120Y-47067924D01*
X123361971Y-46906765D01*
X123346382Y-46873334D01*
X123346379Y-46873329D01*
X123344056Y-46868347D01*
X123285129Y-46784191D01*
X123262442Y-46716919D01*
X123279727Y-46648059D01*
X123312778Y-46611096D01*
X123356081Y-46578642D01*
X123363261Y-46573261D01*
X123450615Y-46456705D01*
X123501745Y-46320316D01*
X123508500Y-46258134D01*
X123508500Y-44661866D01*
X123501745Y-44599684D01*
X123450615Y-44463295D01*
X123363261Y-44346739D01*
X123246705Y-44259385D01*
X123110316Y-44208255D01*
X123048134Y-44201500D01*
X121451866Y-44201500D01*
X121389684Y-44208255D01*
X121253295Y-44259385D01*
X121136739Y-44346739D01*
X121049385Y-44463295D01*
X120998255Y-44599684D01*
X120991500Y-44661866D01*
X120991500Y-45716424D01*
X120971498Y-45784545D01*
X120917842Y-45831038D01*
X120847568Y-45841142D01*
X120782988Y-45811648D01*
X120762287Y-45788695D01*
X120756069Y-45779814D01*
X120713236Y-45718642D01*
X120680908Y-45672473D01*
X120680906Y-45672470D01*
X120677749Y-45667962D01*
X120522038Y-45512251D01*
X120341654Y-45385944D01*
X120142076Y-45292880D01*
X119929371Y-45235885D01*
X119710000Y-45216693D01*
X119490629Y-45235885D01*
X119277924Y-45292880D01*
X119184562Y-45336415D01*
X119083334Y-45383618D01*
X119083329Y-45383621D01*
X119078347Y-45385944D01*
X119073840Y-45389100D01*
X119073838Y-45389101D01*
X118902473Y-45509092D01*
X118902470Y-45509094D01*
X118897962Y-45512251D01*
X118742251Y-45667962D01*
X118739094Y-45672470D01*
X118739092Y-45672473D01*
X118628064Y-45831038D01*
X118615944Y-45848347D01*
X118613621Y-45853329D01*
X118613618Y-45853334D01*
X118609943Y-45861216D01*
X118522880Y-46047924D01*
X118465885Y-46260629D01*
X118446693Y-46480000D01*
X118465885Y-46699371D01*
X118522880Y-46912076D01*
X118525205Y-46917061D01*
X118613618Y-47106666D01*
X118613621Y-47106671D01*
X118615944Y-47111653D01*
X118619100Y-47116160D01*
X118619101Y-47116162D01*
X118730537Y-47275308D01*
X118742251Y-47292038D01*
X118861118Y-47410905D01*
X118895144Y-47473217D01*
X118890079Y-47544032D01*
X118861118Y-47589095D01*
X118742251Y-47707962D01*
X118739094Y-47712470D01*
X118739092Y-47712473D01*
X118698969Y-47769775D01*
X118615944Y-47888347D01*
X118613621Y-47893329D01*
X118613618Y-47893334D01*
X118595553Y-47932076D01*
X118522880Y-48087924D01*
X118465885Y-48300629D01*
X118446693Y-48520000D01*
X98910549Y-48520000D01*
X95788683Y-45398134D01*
X97651500Y-45398134D01*
X97658255Y-45460316D01*
X97709385Y-45596705D01*
X97796739Y-45713261D01*
X97913295Y-45800615D01*
X98049684Y-45851745D01*
X98111866Y-45858500D01*
X100008134Y-45858500D01*
X100070316Y-45851745D01*
X100206705Y-45800615D01*
X100323261Y-45713261D01*
X100410615Y-45596705D01*
X100461745Y-45460316D01*
X100468500Y-45398134D01*
X100468500Y-44450000D01*
X101371502Y-44450000D01*
X101391457Y-44678087D01*
X101450716Y-44899243D01*
X101453039Y-44904224D01*
X101453039Y-44904225D01*
X101545151Y-45101762D01*
X101545154Y-45101767D01*
X101547477Y-45106749D01*
X101579674Y-45152731D01*
X101669012Y-45280318D01*
X101678802Y-45294300D01*
X101840700Y-45456198D01*
X101845208Y-45459355D01*
X101845211Y-45459357D01*
X101845821Y-45459784D01*
X102028251Y-45587523D01*
X102033233Y-45589846D01*
X102033238Y-45589849D01*
X102200754Y-45667962D01*
X102235757Y-45684284D01*
X102241065Y-45685706D01*
X102241067Y-45685707D01*
X102451598Y-45742119D01*
X102451600Y-45742119D01*
X102456913Y-45743543D01*
X102685000Y-45763498D01*
X102913087Y-45743543D01*
X102918400Y-45742119D01*
X102918402Y-45742119D01*
X103128933Y-45685707D01*
X103128935Y-45685706D01*
X103134243Y-45684284D01*
X103169246Y-45667962D01*
X103336762Y-45589849D01*
X103336767Y-45589846D01*
X103341749Y-45587523D01*
X103524179Y-45459784D01*
X103524789Y-45459357D01*
X103524792Y-45459355D01*
X103529300Y-45456198D01*
X103691198Y-45294300D01*
X103700989Y-45280318D01*
X103790326Y-45152731D01*
X103822523Y-45106749D01*
X103824846Y-45101767D01*
X103824849Y-45101762D01*
X103916961Y-44904225D01*
X103916961Y-44904224D01*
X103919284Y-44899243D01*
X103978543Y-44678087D01*
X103998498Y-44450000D01*
X106451502Y-44450000D01*
X106471457Y-44678087D01*
X106530716Y-44899243D01*
X106533039Y-44904224D01*
X106533039Y-44904225D01*
X106625151Y-45101762D01*
X106625154Y-45101767D01*
X106627477Y-45106749D01*
X106659674Y-45152731D01*
X106749012Y-45280318D01*
X106758802Y-45294300D01*
X106920700Y-45456198D01*
X106925208Y-45459355D01*
X106925211Y-45459357D01*
X106925821Y-45459784D01*
X107108251Y-45587523D01*
X107113233Y-45589846D01*
X107113238Y-45589849D01*
X107280754Y-45667962D01*
X107315757Y-45684284D01*
X107321065Y-45685706D01*
X107321067Y-45685707D01*
X107531598Y-45742119D01*
X107531600Y-45742119D01*
X107536913Y-45743543D01*
X107765000Y-45763498D01*
X107993087Y-45743543D01*
X107998400Y-45742119D01*
X107998402Y-45742119D01*
X108208933Y-45685707D01*
X108208935Y-45685706D01*
X108214243Y-45684284D01*
X108249246Y-45667962D01*
X108416762Y-45589849D01*
X108416767Y-45589846D01*
X108421749Y-45587523D01*
X108604179Y-45459784D01*
X108604789Y-45459357D01*
X108604792Y-45459355D01*
X108609300Y-45456198D01*
X108771198Y-45294300D01*
X108780989Y-45280318D01*
X108839287Y-45197059D01*
X108894744Y-45152731D01*
X108965363Y-45145422D01*
X109028724Y-45177453D01*
X109045713Y-45197059D01*
X109104012Y-45280318D01*
X109113802Y-45294300D01*
X109275700Y-45456198D01*
X109280208Y-45459355D01*
X109280211Y-45459357D01*
X109280821Y-45459784D01*
X109463251Y-45587523D01*
X109468233Y-45589846D01*
X109468238Y-45589849D01*
X109635754Y-45667962D01*
X109670757Y-45684284D01*
X109676065Y-45685706D01*
X109676067Y-45685707D01*
X109886598Y-45742119D01*
X109886600Y-45742119D01*
X109891913Y-45743543D01*
X110120000Y-45763498D01*
X110348087Y-45743543D01*
X110353400Y-45742119D01*
X110353402Y-45742119D01*
X110563933Y-45685707D01*
X110563935Y-45685706D01*
X110569243Y-45684284D01*
X110604246Y-45667962D01*
X110771762Y-45589849D01*
X110771767Y-45589846D01*
X110776749Y-45587523D01*
X110959179Y-45459784D01*
X110959789Y-45459357D01*
X110959792Y-45459355D01*
X110964300Y-45456198D01*
X111126198Y-45294300D01*
X111135989Y-45280318D01*
X111225326Y-45152731D01*
X111257523Y-45106749D01*
X111259846Y-45101767D01*
X111259849Y-45101762D01*
X111351961Y-44904225D01*
X111351961Y-44904224D01*
X111354284Y-44899243D01*
X111413543Y-44678087D01*
X111433498Y-44450000D01*
X113806502Y-44450000D01*
X113826457Y-44678087D01*
X113885716Y-44899243D01*
X113888039Y-44904224D01*
X113888039Y-44904225D01*
X113980151Y-45101762D01*
X113980154Y-45101767D01*
X113982477Y-45106749D01*
X114014674Y-45152731D01*
X114104012Y-45280318D01*
X114113802Y-45294300D01*
X114275700Y-45456198D01*
X114280208Y-45459355D01*
X114280211Y-45459357D01*
X114280821Y-45459784D01*
X114463251Y-45587523D01*
X114468233Y-45589846D01*
X114468238Y-45589849D01*
X114635754Y-45667962D01*
X114670757Y-45684284D01*
X114676065Y-45685706D01*
X114676067Y-45685707D01*
X114886598Y-45742119D01*
X114886600Y-45742119D01*
X114891913Y-45743543D01*
X115120000Y-45763498D01*
X115348087Y-45743543D01*
X115353400Y-45742119D01*
X115353402Y-45742119D01*
X115563933Y-45685707D01*
X115563935Y-45685706D01*
X115569243Y-45684284D01*
X115604246Y-45667962D01*
X115771762Y-45589849D01*
X115771767Y-45589846D01*
X115776749Y-45587523D01*
X115959179Y-45459784D01*
X115959789Y-45459357D01*
X115959792Y-45459355D01*
X115964300Y-45456198D01*
X116126198Y-45294300D01*
X116135989Y-45280318D01*
X116225326Y-45152731D01*
X116257523Y-45106749D01*
X116259846Y-45101767D01*
X116259849Y-45101762D01*
X116351961Y-44904225D01*
X116351961Y-44904224D01*
X116354284Y-44899243D01*
X116413543Y-44678087D01*
X116433498Y-44450000D01*
X116413543Y-44221913D01*
X116408073Y-44201500D01*
X116355707Y-44006067D01*
X116355706Y-44006065D01*
X116354284Y-44000757D01*
X116337947Y-43965721D01*
X116259849Y-43798238D01*
X116259846Y-43798233D01*
X116257523Y-43793251D01*
X116126198Y-43605700D01*
X115964300Y-43443802D01*
X115959792Y-43440645D01*
X115959789Y-43440643D01*
X115881611Y-43385902D01*
X115776749Y-43312477D01*
X115771767Y-43310154D01*
X115771762Y-43310151D01*
X115574225Y-43218039D01*
X115574224Y-43218039D01*
X115569243Y-43215716D01*
X115563935Y-43214294D01*
X115563933Y-43214293D01*
X115353402Y-43157881D01*
X115353400Y-43157881D01*
X115348087Y-43156457D01*
X115120000Y-43136502D01*
X114891913Y-43156457D01*
X114886600Y-43157881D01*
X114886598Y-43157881D01*
X114676067Y-43214293D01*
X114676065Y-43214294D01*
X114670757Y-43215716D01*
X114665776Y-43218039D01*
X114665775Y-43218039D01*
X114468238Y-43310151D01*
X114468233Y-43310154D01*
X114463251Y-43312477D01*
X114358389Y-43385902D01*
X114280211Y-43440643D01*
X114280208Y-43440645D01*
X114275700Y-43443802D01*
X114113802Y-43605700D01*
X113982477Y-43793251D01*
X113980154Y-43798233D01*
X113980151Y-43798238D01*
X113902053Y-43965721D01*
X113885716Y-44000757D01*
X113884294Y-44006065D01*
X113884293Y-44006067D01*
X113831927Y-44201500D01*
X113826457Y-44221913D01*
X113806502Y-44450000D01*
X111433498Y-44450000D01*
X111413543Y-44221913D01*
X111408073Y-44201500D01*
X111355707Y-44006067D01*
X111355706Y-44006065D01*
X111354284Y-44000757D01*
X111337947Y-43965721D01*
X111259849Y-43798238D01*
X111259846Y-43798233D01*
X111257523Y-43793251D01*
X111126198Y-43605700D01*
X110964300Y-43443802D01*
X110959792Y-43440645D01*
X110959789Y-43440643D01*
X110881611Y-43385902D01*
X110776749Y-43312477D01*
X110771767Y-43310154D01*
X110771762Y-43310151D01*
X110574225Y-43218039D01*
X110574224Y-43218039D01*
X110569243Y-43215716D01*
X110563935Y-43214294D01*
X110563933Y-43214293D01*
X110353402Y-43157881D01*
X110353400Y-43157881D01*
X110348087Y-43156457D01*
X110120000Y-43136502D01*
X109891913Y-43156457D01*
X109886600Y-43157881D01*
X109886598Y-43157881D01*
X109676067Y-43214293D01*
X109676065Y-43214294D01*
X109670757Y-43215716D01*
X109665776Y-43218039D01*
X109665775Y-43218039D01*
X109468238Y-43310151D01*
X109468233Y-43310154D01*
X109463251Y-43312477D01*
X109358389Y-43385902D01*
X109280211Y-43440643D01*
X109280208Y-43440645D01*
X109275700Y-43443802D01*
X109113802Y-43605700D01*
X109110645Y-43610208D01*
X109110643Y-43610211D01*
X109045713Y-43702941D01*
X108990256Y-43747269D01*
X108919637Y-43754578D01*
X108856276Y-43722547D01*
X108839287Y-43702941D01*
X108774357Y-43610211D01*
X108774355Y-43610208D01*
X108771198Y-43605700D01*
X108609300Y-43443802D01*
X108604792Y-43440645D01*
X108604789Y-43440643D01*
X108526611Y-43385902D01*
X108421749Y-43312477D01*
X108416767Y-43310154D01*
X108416762Y-43310151D01*
X108219225Y-43218039D01*
X108219224Y-43218039D01*
X108214243Y-43215716D01*
X108208935Y-43214294D01*
X108208933Y-43214293D01*
X107998402Y-43157881D01*
X107998400Y-43157881D01*
X107993087Y-43156457D01*
X107765000Y-43136502D01*
X107536913Y-43156457D01*
X107531600Y-43157881D01*
X107531598Y-43157881D01*
X107321067Y-43214293D01*
X107321065Y-43214294D01*
X107315757Y-43215716D01*
X107310776Y-43218039D01*
X107310775Y-43218039D01*
X107113238Y-43310151D01*
X107113233Y-43310154D01*
X107108251Y-43312477D01*
X107003389Y-43385902D01*
X106925211Y-43440643D01*
X106925208Y-43440645D01*
X106920700Y-43443802D01*
X106758802Y-43605700D01*
X106627477Y-43793251D01*
X106625154Y-43798233D01*
X106625151Y-43798238D01*
X106547053Y-43965721D01*
X106530716Y-44000757D01*
X106529294Y-44006065D01*
X106529293Y-44006067D01*
X106476927Y-44201500D01*
X106471457Y-44221913D01*
X106451502Y-44450000D01*
X103998498Y-44450000D01*
X103978543Y-44221913D01*
X103973073Y-44201500D01*
X103920707Y-44006067D01*
X103920706Y-44006065D01*
X103919284Y-44000757D01*
X103902947Y-43965721D01*
X103824849Y-43798238D01*
X103824846Y-43798233D01*
X103822523Y-43793251D01*
X103691198Y-43605700D01*
X103529300Y-43443802D01*
X103524792Y-43440645D01*
X103524789Y-43440643D01*
X103446611Y-43385902D01*
X103341749Y-43312477D01*
X103336767Y-43310154D01*
X103336762Y-43310151D01*
X103139225Y-43218039D01*
X103139224Y-43218039D01*
X103134243Y-43215716D01*
X103128935Y-43214294D01*
X103128933Y-43214293D01*
X102918402Y-43157881D01*
X102918400Y-43157881D01*
X102913087Y-43156457D01*
X102685000Y-43136502D01*
X102456913Y-43156457D01*
X102451600Y-43157881D01*
X102451598Y-43157881D01*
X102241067Y-43214293D01*
X102241065Y-43214294D01*
X102235757Y-43215716D01*
X102230776Y-43218039D01*
X102230775Y-43218039D01*
X102033238Y-43310151D01*
X102033233Y-43310154D01*
X102028251Y-43312477D01*
X101923389Y-43385902D01*
X101845211Y-43440643D01*
X101845208Y-43440645D01*
X101840700Y-43443802D01*
X101678802Y-43605700D01*
X101547477Y-43793251D01*
X101545154Y-43798233D01*
X101545151Y-43798238D01*
X101467053Y-43965721D01*
X101450716Y-44000757D01*
X101449294Y-44006065D01*
X101449293Y-44006067D01*
X101396927Y-44201500D01*
X101391457Y-44221913D01*
X101371502Y-44450000D01*
X100468500Y-44450000D01*
X100468500Y-43501866D01*
X100461745Y-43439684D01*
X100410615Y-43303295D01*
X100323261Y-43186739D01*
X100206705Y-43099385D01*
X100070316Y-43048255D01*
X100008134Y-43041500D01*
X98111866Y-43041500D01*
X98049684Y-43048255D01*
X97913295Y-43099385D01*
X97796739Y-43186739D01*
X97709385Y-43303295D01*
X97658255Y-43439684D01*
X97651500Y-43501866D01*
X97651500Y-45398134D01*
X95788683Y-45398134D01*
X95363062Y-44972513D01*
X95329036Y-44910201D01*
X95331598Y-44846790D01*
X95359905Y-44753617D01*
X95361408Y-44748671D01*
X95391640Y-44519041D01*
X95393327Y-44450000D01*
X95384395Y-44341358D01*
X95374773Y-44224318D01*
X95374772Y-44224312D01*
X95374349Y-44219167D01*
X95320822Y-44006067D01*
X95319184Y-43999544D01*
X95319183Y-43999540D01*
X95317925Y-43994533D01*
X95315866Y-43989797D01*
X95227630Y-43786868D01*
X95227628Y-43786865D01*
X95225570Y-43782131D01*
X95099764Y-43587665D01*
X94943887Y-43416358D01*
X94939836Y-43413159D01*
X94939832Y-43413155D01*
X94766177Y-43276011D01*
X94766172Y-43276008D01*
X94762123Y-43272810D01*
X94757607Y-43270317D01*
X94757604Y-43270315D01*
X94563879Y-43163373D01*
X94563875Y-43163371D01*
X94559355Y-43160876D01*
X94554486Y-43159152D01*
X94554482Y-43159150D01*
X94345903Y-43085288D01*
X94345899Y-43085287D01*
X94341028Y-43083562D01*
X94335935Y-43082655D01*
X94335932Y-43082654D01*
X94118095Y-43043851D01*
X94118089Y-43043850D01*
X94113006Y-43042945D01*
X94040096Y-43042054D01*
X93886581Y-43040179D01*
X93886579Y-43040179D01*
X93881411Y-43040116D01*
X93652464Y-43075150D01*
X93432314Y-43147106D01*
X93427726Y-43149494D01*
X93427722Y-43149496D01*
X93231461Y-43251663D01*
X93226872Y-43254052D01*
X93222739Y-43257155D01*
X93222736Y-43257157D01*
X93045790Y-43390012D01*
X93041655Y-43393117D01*
X92881639Y-43560564D01*
X92878725Y-43564836D01*
X92878724Y-43564837D01*
X92863152Y-43587665D01*
X92751119Y-43751899D01*
X92748943Y-43756586D01*
X92748940Y-43756592D01*
X92676638Y-43912354D01*
X92629814Y-43965721D01*
X92561570Y-43985302D01*
X92493575Y-43964878D01*
X92448155Y-43912554D01*
X92394849Y-43798238D01*
X92394846Y-43798233D01*
X92392523Y-43793251D01*
X92261198Y-43605700D01*
X92099300Y-43443802D01*
X92094792Y-43440645D01*
X92094789Y-43440643D01*
X92016611Y-43385902D01*
X91911749Y-43312477D01*
X91906767Y-43310154D01*
X91906762Y-43310151D01*
X91709225Y-43218039D01*
X91709224Y-43218039D01*
X91704243Y-43215716D01*
X91698935Y-43214294D01*
X91698933Y-43214293D01*
X91488402Y-43157881D01*
X91488400Y-43157881D01*
X91483087Y-43156457D01*
X91255000Y-43136502D01*
X91026913Y-43156457D01*
X91021600Y-43157881D01*
X91021598Y-43157881D01*
X90811067Y-43214293D01*
X90811065Y-43214294D01*
X90805757Y-43215716D01*
X90800776Y-43218039D01*
X90800775Y-43218039D01*
X90603238Y-43310151D01*
X90603233Y-43310154D01*
X90598251Y-43312477D01*
X90493389Y-43385902D01*
X90415211Y-43440643D01*
X90415208Y-43440645D01*
X90410700Y-43443802D01*
X90248802Y-43605700D01*
X90117477Y-43793251D01*
X90115154Y-43798233D01*
X90115151Y-43798238D01*
X90037053Y-43965721D01*
X90020716Y-44000757D01*
X90019294Y-44006065D01*
X90019293Y-44006067D01*
X89966927Y-44201500D01*
X89961457Y-44221913D01*
X89941502Y-44450000D01*
X87488498Y-44450000D01*
X87468543Y-44221913D01*
X87463073Y-44201500D01*
X87410707Y-44006067D01*
X87410706Y-44006065D01*
X87409284Y-44000757D01*
X87392947Y-43965721D01*
X87314849Y-43798238D01*
X87314846Y-43798233D01*
X87312523Y-43793251D01*
X87181198Y-43605700D01*
X87019300Y-43443802D01*
X87014792Y-43440645D01*
X87014789Y-43440643D01*
X86936611Y-43385902D01*
X86831749Y-43312477D01*
X86826767Y-43310154D01*
X86826762Y-43310151D01*
X86629225Y-43218039D01*
X86629224Y-43218039D01*
X86624243Y-43215716D01*
X86618935Y-43214294D01*
X86618933Y-43214293D01*
X86408402Y-43157881D01*
X86408400Y-43157881D01*
X86403087Y-43156457D01*
X86175000Y-43136502D01*
X85946913Y-43156457D01*
X85941600Y-43157881D01*
X85941598Y-43157881D01*
X85731067Y-43214293D01*
X85731065Y-43214294D01*
X85725757Y-43215716D01*
X85720776Y-43218039D01*
X85720775Y-43218039D01*
X85523238Y-43310151D01*
X85523233Y-43310154D01*
X85518251Y-43312477D01*
X85413389Y-43385902D01*
X85335211Y-43440643D01*
X85335208Y-43440645D01*
X85330700Y-43443802D01*
X85168802Y-43605700D01*
X85037477Y-43793251D01*
X85035154Y-43798233D01*
X85035151Y-43798238D01*
X84957053Y-43965721D01*
X84940716Y-44000757D01*
X84939294Y-44006065D01*
X84939293Y-44006067D01*
X84886927Y-44201500D01*
X84881457Y-44221913D01*
X84861502Y-44450000D01*
X81788000Y-44450000D01*
X81788000Y-40990000D01*
X122886372Y-40990000D01*
X122906854Y-41250249D01*
X122908008Y-41255056D01*
X122908009Y-41255062D01*
X122946424Y-41415069D01*
X122967796Y-41504089D01*
X123067697Y-41745271D01*
X123204097Y-41967856D01*
X123373637Y-42166363D01*
X123572144Y-42335903D01*
X123794729Y-42472303D01*
X123799299Y-42474196D01*
X123799303Y-42474198D01*
X124031338Y-42570310D01*
X124035911Y-42572204D01*
X124124931Y-42593576D01*
X124284938Y-42631991D01*
X124284944Y-42631992D01*
X124289751Y-42633146D01*
X124380884Y-42640318D01*
X124482385Y-42648307D01*
X124482394Y-42648307D01*
X124484842Y-42648500D01*
X124615158Y-42648500D01*
X124617606Y-42648307D01*
X124617615Y-42648307D01*
X124719116Y-42640318D01*
X124810249Y-42633146D01*
X124815056Y-42631992D01*
X124815062Y-42631991D01*
X124975069Y-42593576D01*
X125064089Y-42572204D01*
X125068662Y-42570310D01*
X125300697Y-42474198D01*
X125300701Y-42474196D01*
X125305271Y-42472303D01*
X125527856Y-42335903D01*
X125726363Y-42166363D01*
X125895903Y-41967856D01*
X126032303Y-41745271D01*
X126132204Y-41504089D01*
X126153576Y-41415069D01*
X126191991Y-41255062D01*
X126191992Y-41255056D01*
X126193146Y-41250249D01*
X126213628Y-40990000D01*
X126193146Y-40729751D01*
X126191992Y-40724944D01*
X126191991Y-40724938D01*
X126133359Y-40480723D01*
X126132204Y-40475911D01*
X126032303Y-40234729D01*
X125895903Y-40012144D01*
X125726363Y-39813637D01*
X125527856Y-39644097D01*
X125305271Y-39507697D01*
X125300701Y-39505804D01*
X125300697Y-39505802D01*
X125068662Y-39409690D01*
X125068660Y-39409689D01*
X125064089Y-39407796D01*
X124975069Y-39386424D01*
X124815062Y-39348009D01*
X124815056Y-39348008D01*
X124810249Y-39346854D01*
X124719116Y-39339682D01*
X124617615Y-39331693D01*
X124617606Y-39331693D01*
X124615158Y-39331500D01*
X124484842Y-39331500D01*
X124482394Y-39331693D01*
X124482385Y-39331693D01*
X124380884Y-39339682D01*
X124289751Y-39346854D01*
X124284944Y-39348008D01*
X124284938Y-39348009D01*
X124124931Y-39386424D01*
X124035911Y-39407796D01*
X124031340Y-39409689D01*
X124031338Y-39409690D01*
X123799303Y-39505802D01*
X123799299Y-39505804D01*
X123794729Y-39507697D01*
X123572144Y-39644097D01*
X123373637Y-39813637D01*
X123204097Y-40012144D01*
X123067697Y-40234729D01*
X122967796Y-40475911D01*
X122966641Y-40480723D01*
X122908009Y-40724938D01*
X122908008Y-40724944D01*
X122906854Y-40729751D01*
X122886372Y-40990000D01*
X81788000Y-40990000D01*
X81788000Y-36327703D01*
X82980743Y-36327703D01*
X83018268Y-36612734D01*
X83094129Y-36890036D01*
X83206923Y-37154476D01*
X83354561Y-37401161D01*
X83534313Y-37625528D01*
X83742851Y-37823423D01*
X83976317Y-37991186D01*
X83980112Y-37993195D01*
X83980113Y-37993196D01*
X84001869Y-38004715D01*
X84230392Y-38125712D01*
X84500373Y-38224511D01*
X84781264Y-38285755D01*
X84809841Y-38288004D01*
X85004282Y-38303307D01*
X85004291Y-38303307D01*
X85006739Y-38303500D01*
X85162271Y-38303500D01*
X85164407Y-38303354D01*
X85164418Y-38303354D01*
X85372548Y-38289165D01*
X85372554Y-38289164D01*
X85376825Y-38288873D01*
X85381020Y-38288004D01*
X85381022Y-38288004D01*
X85517583Y-38259724D01*
X85658342Y-38230574D01*
X85929343Y-38134607D01*
X86184812Y-38002750D01*
X86188313Y-38000289D01*
X86188317Y-38000287D01*
X86302418Y-37920095D01*
X86420023Y-37837441D01*
X86630622Y-37641740D01*
X86812713Y-37419268D01*
X86962927Y-37174142D01*
X87078483Y-36910898D01*
X87157244Y-36634406D01*
X87197751Y-36349784D01*
X87197845Y-36331951D01*
X87197867Y-36327703D01*
X125525743Y-36327703D01*
X125563268Y-36612734D01*
X125639129Y-36890036D01*
X125751923Y-37154476D01*
X125899561Y-37401161D01*
X126079313Y-37625528D01*
X126287851Y-37823423D01*
X126521317Y-37991186D01*
X126525112Y-37993195D01*
X126525113Y-37993196D01*
X126546869Y-38004715D01*
X126775392Y-38125712D01*
X127045373Y-38224511D01*
X127326264Y-38285755D01*
X127354841Y-38288004D01*
X127549282Y-38303307D01*
X127549291Y-38303307D01*
X127551739Y-38303500D01*
X127707271Y-38303500D01*
X127709407Y-38303354D01*
X127709418Y-38303354D01*
X127917548Y-38289165D01*
X127917554Y-38289164D01*
X127921825Y-38288873D01*
X127926020Y-38288004D01*
X127926022Y-38288004D01*
X128062583Y-38259724D01*
X128203342Y-38230574D01*
X128474343Y-38134607D01*
X128729812Y-38002750D01*
X128733313Y-38000289D01*
X128733317Y-38000287D01*
X128847418Y-37920095D01*
X128965023Y-37837441D01*
X129175622Y-37641740D01*
X129357713Y-37419268D01*
X129507927Y-37174142D01*
X129623483Y-36910898D01*
X129702244Y-36634406D01*
X129742751Y-36349784D01*
X129742845Y-36331951D01*
X129744235Y-36066583D01*
X129744235Y-36066576D01*
X129744257Y-36062297D01*
X129706732Y-35777266D01*
X129630871Y-35499964D01*
X129620295Y-35475170D01*
X129519763Y-35239476D01*
X129519761Y-35239472D01*
X129518077Y-35235524D01*
X129370439Y-34988839D01*
X129190687Y-34764472D01*
X128982149Y-34566577D01*
X128748683Y-34398814D01*
X128726843Y-34387250D01*
X128703654Y-34374972D01*
X128494608Y-34264288D01*
X128224627Y-34165489D01*
X127943736Y-34104245D01*
X127912685Y-34101801D01*
X127720718Y-34086693D01*
X127720709Y-34086693D01*
X127718261Y-34086500D01*
X127562729Y-34086500D01*
X127560593Y-34086646D01*
X127560582Y-34086646D01*
X127352452Y-34100835D01*
X127352446Y-34100836D01*
X127348175Y-34101127D01*
X127343980Y-34101996D01*
X127343978Y-34101996D01*
X127207417Y-34130276D01*
X127066658Y-34159426D01*
X126795657Y-34255393D01*
X126540188Y-34387250D01*
X126536687Y-34389711D01*
X126536683Y-34389713D01*
X126526594Y-34396804D01*
X126304977Y-34552559D01*
X126094378Y-34748260D01*
X125912287Y-34970732D01*
X125762073Y-35215858D01*
X125646517Y-35479102D01*
X125567756Y-35755594D01*
X125527249Y-36040216D01*
X125527227Y-36044505D01*
X125527226Y-36044512D01*
X125525765Y-36323417D01*
X125525743Y-36327703D01*
X87197867Y-36327703D01*
X87199235Y-36066583D01*
X87199235Y-36066576D01*
X87199257Y-36062297D01*
X87161732Y-35777266D01*
X87085871Y-35499964D01*
X87075295Y-35475170D01*
X86974763Y-35239476D01*
X86974761Y-35239472D01*
X86973077Y-35235524D01*
X86825439Y-34988839D01*
X86645687Y-34764472D01*
X86437149Y-34566577D01*
X86203683Y-34398814D01*
X86181843Y-34387250D01*
X86158654Y-34374972D01*
X85949608Y-34264288D01*
X85679627Y-34165489D01*
X85398736Y-34104245D01*
X85367685Y-34101801D01*
X85175718Y-34086693D01*
X85175709Y-34086693D01*
X85173261Y-34086500D01*
X85017729Y-34086500D01*
X85015593Y-34086646D01*
X85015582Y-34086646D01*
X84807452Y-34100835D01*
X84807446Y-34100836D01*
X84803175Y-34101127D01*
X84798980Y-34101996D01*
X84798978Y-34101996D01*
X84662417Y-34130276D01*
X84521658Y-34159426D01*
X84250657Y-34255393D01*
X83995188Y-34387250D01*
X83991687Y-34389711D01*
X83991683Y-34389713D01*
X83981594Y-34396804D01*
X83759977Y-34552559D01*
X83549378Y-34748260D01*
X83367287Y-34970732D01*
X83217073Y-35215858D01*
X83101517Y-35479102D01*
X83022756Y-35755594D01*
X82982249Y-36040216D01*
X82982227Y-36044505D01*
X82982226Y-36044512D01*
X82980765Y-36323417D01*
X82980743Y-36327703D01*
X81788000Y-36327703D01*
X81788000Y-36244328D01*
X81789500Y-36224943D01*
X81791805Y-36210142D01*
X81791805Y-36210139D01*
X81793186Y-36201270D01*
X81790743Y-36182589D01*
X81789852Y-36159657D01*
X81805743Y-35856446D01*
X81807121Y-35843329D01*
X81818241Y-35773124D01*
X81859123Y-35514998D01*
X81861865Y-35502098D01*
X81947903Y-35181000D01*
X81951979Y-35168456D01*
X82071105Y-34858124D01*
X82076469Y-34846076D01*
X82227388Y-34549880D01*
X82233982Y-34538459D01*
X82415033Y-34259666D01*
X82422779Y-34249004D01*
X82489214Y-34166964D01*
X82631985Y-33990655D01*
X82640810Y-33980855D01*
X82875855Y-33745810D01*
X82885656Y-33736984D01*
X83144004Y-33527779D01*
X83154666Y-33520033D01*
X83433464Y-33338979D01*
X83444880Y-33332388D01*
X83741076Y-33181469D01*
X83753124Y-33176105D01*
X83790642Y-33161703D01*
X84063464Y-33056977D01*
X84076000Y-33052903D01*
X84397098Y-32966865D01*
X84409998Y-32964123D01*
X84498715Y-32950072D01*
X84738335Y-32912120D01*
X84751443Y-32910743D01*
X85047334Y-32895236D01*
X85073312Y-32896564D01*
X85074856Y-32896805D01*
X85074860Y-32896805D01*
X85083730Y-32898186D01*
X85092632Y-32897022D01*
X85092635Y-32897022D01*
X85115251Y-32894064D01*
X85131589Y-32893000D01*
X127585672Y-32893000D01*
X127605057Y-32894500D01*
G37*
%TD.AperFunction*%
%TD*%
M02*
